  0
SECTION
  2
HEADER
  9
$ACADVER
  1
AC1014
  9
$HANDSEED
  5
FFFF
  9
$MEASUREMENT
 70
     1
  0
ENDSEC
  0
SECTION
  2
TABLES
  0
TABLE
  2
VPORT
  5
8
330
0
100
AcDbSymbolTable
 70
     4
  0
VPORT
  5
2E
330
8
100
AcDbSymbolTableRecord
100
AcDbViewportTableRecord
  2
*ACTIVE
 70
     0
 10
0.0
 20
0.0
 11
1.0
 21
1.0
 12
210.0
 22
148.5
 13
0.0
 23
0.0
 14
10.0
 24
10.0
 15
10.0
 25
10.0
 16
0.0
 26
0.0
 36
1.0
 17
0.0
 27
0.0
 37
0.0
 40
341.0
 41
1.24
 42
50.0
 43
0.0
 44
0.0
 50
0.0
 51
0.0
 71
     0
 72
   100
 73
     1
 74
     3
 75
     0
 76
     0
 77
     0
 78
     0
  0
ENDTAB
  0
TABLE
  2
LTYPE
  5
5
330
0
100
AcDbSymbolTable
 70
     1
  0
LTYPE
  5
14
330
5
100
AcDbSymbolTableRecord
100
AcDbLinetypeTableRecord
  2
BYBLOCK
 70
     0
  3

 72
    65
 73
     0
 40
0.0
  0
LTYPE
  5
15
330
5
100
AcDbSymbolTableRecord
100
AcDbLinetypeTableRecord
  2
BYLAYER
 70
     0
  3

 72
    65
 73
     0
 40
0.0
  0
LTYPE
  5
16
330
5
100
AcDbSymbolTableRecord
100
AcDbLinetypeTableRecord
  2
CONTINUOUS
 70
     0
  3
Solid line
 72
    65
 73
     0
 40
0.0
  0
ENDTAB
  0
TABLE
  2
LAYER
  5
2
100
AcDbSymbolTable
 70
2
  0
LAYER
  5
50
100
AcDbSymbolTableRecord
100
AcDbLayerTableRecord
  2
0
 70
0
  6
CONTINUOUS
  0
LAYER
  5
51
100
AcDbSymbolTableRecord
100
AcDbLayerTableRecord
  2
Capa_1
 70
0
  6
CONTINUOUS
  0
ENDTAB
  0
TABLE
  2
STYLE
  5
3
330
0
100
AcDbSymbolTable
 70
     1
  0
STYLE
  5
11
330
3
100
AcDbSymbolTableRecord
100
AcDbTextStyleTableRecord
  2
STANDARD
 70
     0
 40
0.0
 41
1.0
 50
0.0
 71
     0
 42
2.5
  3
txt
  4

  0
ENDTAB
  0
TABLE
  2
VIEW
  5
6
330
0
100
AcDbSymbolTable
 70
     0
  0
ENDTAB
  0
TABLE
  2
UCS
  5
7
330
0
100
AcDbSymbolTable
 70
     0
  0
ENDTAB
  0
TABLE
  2
APPID
  5
9
330
0
100
AcDbSymbolTable
 70
     2
  0
APPID
  5
12
330
9
100
AcDbSymbolTableRecord
100
AcDbRegAppTableRecord
  2
ACAD
 70
     0
  0
ENDTAB
  0
TABLE
  2
DIMSTYLE
  5
A
330
0
100
AcDbSymbolTable
 70
     1
  0
DIMSTYLE
105
27
330
A
100
AcDbSymbolTableRecord
100
AcDbDimStyleTableRecord
  2
ISO-25
 70
     0
  3

  4

  5

  6

  7

 40
1.0
 41
2.5
 42
0.625
 43
3.75
 44
1.25
 45
0.0
 46
0.0
 47
0.0
 48
0.0
140
2.5
141
2.5
142
0.0
143
0.03937007874016
144
1.0
145
0.0
146
1.0
147
0.625
 71
     0
 72
     0
 73
     0
 74
     0
 75
     0
 76
     0
 77
     1
 78
     8
170
     0
171
     3
172
     1
173
     0
174
     0
175
     0
176
     0
177
     0
178
     0
270
     2
271
     2
272
     2
273
     2
274
     3
340
11
275
     0
280
     0
281
     0
282
     0
283
     0
284
     8
285
     0
286
     0
287
     3
288
     0
  0
ENDTAB
  0
TABLE
  2
BLOCK_RECORD
  5
1
330
0
100
AcDbSymbolTable
 70
     1
  0
BLOCK_RECORD
  5
1F
330
1
100
AcDbSymbolTableRecord
100
AcDbBlockTableRecord
  2
*MODEL_SPACE
  0
BLOCK_RECORD
  5
1B
330
1
100
AcDbSymbolTableRecord
100
AcDbBlockTableRecord
  2
*PAPER_SPACE
  0
ENDTAB
  0
ENDSEC
  0
SECTION
  2
BLOCKS
  0
BLOCK
  5
20
330
1F
100
AcDbEntity
  8
0
100
AcDbBlockBegin
  2
*MODEL_SPACE
 70
     0
 10
0.0
 20
0.0
 30
0.0
  3
*MODEL_SPACE
  1

  0
ENDBLK
  5
21
330
1F
100
AcDbEntity
  8
0
100
AcDbBlockEnd
  0
BLOCK
  5
1C
330
1B
100
AcDbEntity
 67
     1
  8
0
100
AcDbBlockBegin
  2
*PAPER_SPACE
  1

  0
ENDBLK
  5
1D
330
1B
100
AcDbEntity
 67
     1
  8
0
100
AcDbBlockEnd
  0
ENDSEC
  0
SECTION
  2
ENTITIES
  0
SPLINE
  5
100
100
AcDbEntity
  8
Capa_1
 62
7
100
AcDbSpline
 70
8
 71
3
 72
8
 73
4
 74
0
 40
0
 40
0
 40
0
 40
0
 40
1
 40
1
 40
1
 40
1
 10
10.027979
 20
65.195119
 30
0.0
 10
10.386257
 20
65.195119
 30
0.0
 10
10.662492
 20
65.114581
 30
0.0
 10
10.856685
 20
64.953506
 30
0.0
  0
SPLINE
  5
101
100
AcDbEntity
  8
Capa_1
 62
7
100
AcDbSpline
 70
8
 71
3
 72
8
 73
4
 74
0
 40
0
 40
0
 40
0
 40
0
 40
1
 40
1
 40
1
 40
1
 10
10.856685
 20
64.953506
 30
0.0
 10
11.052383
 20
64.793937
 30
0.0
 10
11.150233
 20
64.571143
 30
0.0
 10
11.150233
 20
64.285122
 30
0.0
  0
SPLINE
  5
102
100
AcDbEntity
  8
Capa_1
 62
7
100
AcDbSpline
 70
8
 71
3
 72
8
 73
4
 74
0
 40
0
 40
0
 40
0
 40
0
 40
1
 40
1
 40
1
 40
1
 10
11.150233
 20
64.285122
 30
0.0
 10
11.150233
 20
64.048777
 30
0.0
 10
11.080985
 20
63.850069
 30
0.0
 10
10.942491
 20
63.688995
 30
0.0
  0
SPLINE
  5
103
100
AcDbEntity
  8
Capa_1
 62
7
100
AcDbSpline
 70
8
 71
3
 72
8
 73
4
 74
0
 40
0
 40
0
 40
0
 40
0
 40
1
 40
1
 40
1
 40
1
 10
10.942491
 20
63.688995
 30
0.0
 10
10.805503
 20
63.527919
 30
0.0
 10
10.615826
 20
63.426307
 30
0.0
 10
10.373461
 20
63.384158
 30
0.0
  0
LWPOLYLINE
  5
104
100
AcDbEntity
  8
Capa_1
 62
7
100
AcDbPolyline
 90
7
 70
1
 10
10.779911
 20
62.013518
 30
0.0
 10
9.953463
 20
63.334479
 30
0.0
 10
8.962176
 20
63.334479
 30
0.0
 10
8.962176
 20
62.013518
 30
0.0
 10
8.530887
 20
62.013518
 30
0.0
 10
8.530887
 20
65.195119
 30
0.0
 10
10.027979
 20
65.195119
 30
0.0
  0
SPLINE
  5
105
100
AcDbEntity
  8
Capa_1
 62
7
100
AcDbSpline
 70
8
 71
3
 72
8
 73
4
 74
0
 40
0
 40
0
 40
0
 40
0
 40
1
 40
1
 40
1
 40
1
 10
10.716686
 20
64.280606
 30
0.0
 10
10.716686
 20
64.465766
 30
0.0
 10
10.653460
 20
64.606518
 30
0.0
 10
10.527009
 20
64.702861
 30
0.0
  0
SPLINE
  5
106
100
AcDbEntity
  8
Capa_1
 62
7
100
AcDbSpline
 70
8
 71
3
 72
8
 73
4
 74
0
 40
0
 40
0
 40
0
 40
0
 40
1
 40
1
 40
1
 40
1
 10
10.527009
 20
64.702861
 30
0.0
 10
10.402063
 20
64.800711
 30
0.0
 10
10.221419
 20
64.849637
 30
0.0
 10
9.985076
 20
64.849637
 30
0.0
  0
LWPOLYLINE
  5
107
100
AcDbEntity
  8
Capa_1
 62
7
100
AcDbPolyline
 90
4
 70
1
 10
10.373461
 20
63.384158
 30
0.0
 10
11.276684
 20
62.013518
 30
0.0
 10
10.779911
 20
62.013518
 30
0.0
 10
10.779911
 20
62.013518
 30
0.0
  0
SPLINE
  5
108
100
AcDbEntity
  8
Capa_1
 62
7
100
AcDbSpline
 70
8
 71
3
 72
8
 73
4
 74
0
 40
0
 40
0
 40
0
 40
0
 40
1
 40
1
 40
1
 40
1
 10
10.003140
 20
63.675445
 30
0.0
 10
10.230451
 20
63.675445
 30
0.0
 10
10.405827
 20
63.728133
 30
0.0
 10
10.529267
 20
63.833510
 30
0.0
  0
SPLINE
  5
109
100
AcDbEntity
  8
Capa_1
 62
7
100
AcDbSpline
 70
8
 71
3
 72
8
 73
4
 74
0
 40
0
 40
0
 40
0
 40
0
 40
1
 40
1
 40
1
 40
1
 10
10.529267
 20
63.833510
 30
0.0
 10
10.654213
 20
63.940391
 30
0.0
 10
10.716686
 20
64.089423
 30
0.0
 10
10.716686
 20
64.280606
 30
0.0
  0
LWPOLYLINE
  5
10a
100
AcDbEntity
  8
Capa_1
 62
7
100
AcDbPolyline
 90
4
 70
1
 10
9.985076
 20
64.849637
 30
0.0
 10
8.962176
 20
64.849637
 30
0.0
 10
8.962176
 20
63.675445
 30
0.0
 10
10.003140
 20
63.675445
 30
0.0
  0
LWPOLYLINE
  5
10b
100
AcDbEntity
  8
Capa_1
 62
7
100
AcDbPolyline
 90
2
 70
1
 10
10.716686
 20
64.280606
 30
0.0
 10
10.716686
 20
64.280606
 30
0.0
  0
LWPOLYLINE
  5
10c
100
AcDbEntity
  8
Capa_1
 62
7
100
AcDbPolyline
 90
14
 70
1
 10
11.439697
 20
62.013518
 30
0.0
 10
11.439697
 20
65.195119
 30
0.0
 10
13.853559
 20
65.195119
 30
0.0
 10
13.853559
 20
64.842860
 30
0.0
 10
11.870985
 20
64.842860
 30
0.0
 10
11.870985
 20
63.822221
 30
0.0
 10
13.718075
 20
63.822221
 30
0.0
 10
13.718075
 20
63.474481
 30
0.0
 10
11.870985
 20
63.474481
 30
0.0
 10
11.870985
 20
62.365773
 30
0.0
 10
13.946139
 20
62.365773
 30
0.0
 10
13.946139
 20
62.013518
 30
0.0
 10
11.439697
 20
62.013518
 30
0.0
 10
11.439697
 20
62.013518
 30
0.0
  0
LWPOLYLINE
  5
10d
100
AcDbEntity
  8
Capa_1
 62
7
100
AcDbPolyline
 90
10
 70
1
 10
16.273183
 20
62.013518
 30
0.0
 10
15.990926
 20
62.826417
 30
0.0
 10
14.778350
 20
62.826417
 30
0.0
 10
14.496093
 20
62.013518
 30
0.0
 10
13.829966
 20
62.013518
 30
0.0
 10
14.990607
 20
65.195119
 30
0.0
 10
15.776411
 20
65.195119
 30
0.0
 10
16.932535
 20
62.013518
 30
0.0
 10
16.273183
 20
62.013518
 30
0.0
 10
16.273183
 20
62.013518
 30
0.0
  0
SPLINE
  5
10e
100
AcDbEntity
  8
Capa_1
 62
7
100
AcDbSpline
 70
8
 71
3
 72
8
 73
4
 74
0
 40
0
 40
0
 40
0
 40
0
 40
1
 40
1
 40
1
 40
1
 10
15.369959
 20
64.655442
 30
0.0
 10
15.354906
 20
64.601250
 30
0.0
 10
15.336841
 20
64.539530
 30
0.0
 10
15.315766
 20
64.470282
 30
0.0
  0
SPLINE
  5
10f
100
AcDbEntity
  8
Capa_1
 62
7
100
AcDbSpline
 70
8
 71
3
 72
8
 73
4
 74
0
 40
0
 40
0
 40
0
 40
0
 40
1
 40
1
 40
1
 40
1
 10
15.315766
 20
64.470282
 30
0.0
 10
15.294691
 20
64.401034
 30
0.0
 10
15.165229
 20
64.020175
 30
0.0
 10
14.927380
 20
63.327705
 30
0.0
  0
LWPOLYLINE
  5
110
100
AcDbEntity
  8
Capa_1
 62
7
100
AcDbPolyline
 90
2
 70
1
 10
15.383509
 20
64.705119
 30
0.0
 10
15.369959
 20
64.655442
 30
0.0
  0
SPLINE
  5
111
100
AcDbEntity
  8
Capa_1
 62
7
100
AcDbSpline
 70
8
 71
3
 72
8
 73
4
 74
0
 40
0
 40
0
 40
0
 40
0
 40
1
 40
1
 40
1
 40
1
 10
18.418769
 20
62.492226
 30
0.0
 10
18.820703
 20
62.492226
 30
0.0
 10
19.099950
 20
62.693945
 30
0.0
 10
19.256508
 20
63.097384
 30
0.0
  0
LWPOLYLINE
  5
112
100
AcDbEntity
  8
Capa_1
 62
7
100
AcDbPolyline
 90
6
 70
1
 10
14.927380
 20
63.327705
 30
0.0
 10
15.841893
 20
63.327705
 30
0.0
 10
15.528023
 20
64.242218
 30
0.0
 10
15.430927
 20
64.549313
 30
0.0
 10
15.383507
 20
64.705119
 30
0.0
 10
15.383509
 20
64.705119
 30
0.0
  0
SPLINE
  5
113
100
AcDbEntity
  8
Capa_1
 62
7
100
AcDbSpline
 70
8
 71
3
 72
8
 73
4
 74
0
 40
0
 40
0
 40
0
 40
0
 40
1
 40
1
 40
1
 40
1
 10
19.836828
 20
62.878354
 30
0.0
 10
19.711883
 20
62.571257
 30
0.0
 10
19.528228
 20
62.342440
 30
0.0
 10
19.285863
 20
62.191905
 30
0.0
  0
SPLINE
  5
114
100
AcDbEntity
  8
Capa_1
 62
7
100
AcDbSpline
 70
8
 71
3
 72
8
 73
4
 74
0
 40
0
 40
0
 40
0
 40
0
 40
1
 40
1
 40
1
 40
1
 10
19.285863
 20
62.191905
 30
0.0
 10
19.045004
 20
62.042873
 30
0.0
 10
18.755972
 20
61.968357
 30
0.0
 10
18.418769
 20
61.968357
 30
0.0
  0
SPLINE
  5
115
100
AcDbEntity
  8
Capa_1
 62
7
100
AcDbSpline
 70
8
 71
3
 72
8
 73
4
 74
0
 40
0
 40
0
 40
0
 40
0
 40
1
 40
1
 40
1
 40
1
 10
18.418769
 20
61.968357
 30
0.0
 10
17.906943
 20
61.968357
 30
0.0
 10
17.511031
 20
62.112872
 30
0.0
 10
17.231032
 20
62.401904
 30
0.0
  0
SPLINE
  5
116
100
AcDbEntity
  8
Capa_1
 62
7
100
AcDbSpline
 70
8
 71
3
 72
8
 73
4
 74
0
 40
0
 40
0
 40
0
 40
0
 40
1
 40
1
 40
1
 40
1
 10
17.231032
 20
62.401904
 30
0.0
 10
16.952538
 20
62.692440
 30
0.0
 10
16.813292
 20
63.098137
 30
0.0
 10
16.813292
 20
63.618995
 30
0.0
  0
SPLINE
  5
117
100
AcDbEntity
  8
Capa_1
 62
7
100
AcDbSpline
 70
8
 71
3
 72
8
 73
4
 74
0
 40
0
 40
0
 40
0
 40
0
 40
1
 40
1
 40
1
 40
1
 10
16.813292
 20
63.618995
 30
0.0
 10
16.813292
 20
64.141359
 30
0.0
 10
16.948022
 20
64.542539
 30
0.0
 10
17.217484
 20
64.822538
 30
0.0
  0
SPLINE
  5
118
100
AcDbEntity
  8
Capa_1
 62
7
100
AcDbSpline
 70
8
 71
3
 72
8
 73
4
 74
0
 40
0
 40
0
 40
0
 40
0
 40
1
 40
1
 40
1
 40
1
 10
17.217484
 20
64.822538
 30
0.0
 10
17.486945
 20
65.102538
 30
0.0
 10
17.877589
 20
65.242538
 30
0.0
 10
18.389415
 20
65.242538
 30
0.0
  0
SPLINE
  5
119
100
AcDbEntity
  8
Capa_1
 62
7
100
AcDbSpline
 70
8
 71
3
 72
8
 73
4
 74
0
 40
0
 40
0
 40
0
 40
0
 40
1
 40
1
 40
1
 40
1
 10
18.389415
 20
65.242538
 30
0.0
 10
18.762747
 20
65.242538
 30
0.0
 10
19.066832
 20
65.167269
 30
0.0
 10
19.301669
 20
65.016732
 30
0.0
  0
SPLINE
  5
11a
100
AcDbEntity
  8
Capa_1
 62
7
100
AcDbSpline
 70
8
 71
3
 72
8
 73
4
 74
0
 40
0
 40
0
 40
0
 40
0
 40
1
 40
1
 40
1
 40
1
 10
19.301669
 20
65.016732
 30
0.0
 10
19.536507
 20
64.867700
 30
0.0
 10
19.701345
 20
64.647915
 30
0.0
 10
19.796184
 20
64.357379
 30
0.0
  0
LWPOLYLINE
  5
11b
100
AcDbEntity
  8
Capa_1
 62
7
100
AcDbPolyline
 90
2
 70
1
 10
19.256508
 20
63.097384
 30
0.0
 10
19.836828
 20
62.878354
 30
0.0
  0
SPLINE
  5
11c
100
AcDbEntity
  8
Capa_1
 62
7
100
AcDbSpline
 70
8
 71
3
 72
8
 73
4
 74
0
 40
0
 40
0
 40
0
 40
0
 40
1
 40
1
 40
1
 40
1
 10
19.209089
 20
64.197057
 30
0.0
 10
19.159412
 20
64.356627
 30
0.0
 10
19.061563
 20
64.483079
 30
0.0
 10
18.915542
 20
64.576412
 30
0.0
  0
SPLINE
  5
11d
100
AcDbEntity
  8
Capa_1
 62
7
100
AcDbSpline
 70
8
 71
3
 72
8
 73
4
 74
0
 40
0
 40
0
 40
0
 40
0
 40
1
 40
1
 40
1
 40
1
 10
18.915542
 20
64.576412
 30
0.0
 10
18.771026
 20
64.671250
 30
0.0
 10
18.600167
 20
64.718669
 30
0.0
 10
18.402963
 20
64.718669
 30
0.0
  0
SPLINE
  5
11e
100
AcDbEntity
  8
Capa_1
 62
7
100
AcDbSpline
 70
8
 71
3
 72
8
 73
4
 74
0
 40
0
 40
0
 40
0
 40
0
 40
1
 40
1
 40
1
 40
1
 10
18.402963
 20
64.718669
 30
0.0
 10
18.101889
 20
64.718669
 30
0.0
 10
17.873073
 20
64.625336
 30
0.0
 10
17.716514
 20
64.438670
 30
0.0
  0
SPLINE
  5
11f
100
AcDbEntity
  8
Capa_1
 62
7
100
AcDbSpline
 70
8
 71
3
 72
8
 73
4
 74
0
 40
0
 40
0
 40
0
 40
0
 40
1
 40
1
 40
1
 40
1
 10
17.716514
 20
64.438670
 30
0.0
 10
17.561461
 20
64.252003
 30
0.0
 10
17.483934
 20
63.978778
 30
0.0
 10
17.483934
 20
63.618995
 30
0.0
  0
SPLINE
  5
120
100
AcDbEntity
  8
Capa_1
 62
7
100
AcDbSpline
 70
8
 71
3
 72
8
 73
4
 74
0
 40
0
 40
0
 40
0
 40
0
 40
1
 40
1
 40
1
 40
1
 10
17.483934
 20
63.618995
 30
0.0
 10
17.483934
 20
63.253190
 30
0.0
 10
17.563719
 20
62.973943
 30
0.0
 10
17.723288
 20
62.781255
 30
0.0
  0
SPLINE
  5
121
100
AcDbEntity
  8
Capa_1
 62
7
100
AcDbSpline
 70
8
 71
3
 72
8
 73
4
 74
0
 40
0
 40
0
 40
0
 40
0
 40
1
 40
1
 40
1
 40
1
 10
17.723288
 20
62.781255
 30
0.0
 10
17.884363
 20
62.588569
 30
0.0
 10
18.116190
 20
62.492226
 30
0.0
 10
18.418769
 20
62.492226
 30
0.0
  0
LWPOLYLINE
  5
122
100
AcDbEntity
  8
Capa_1
 62
7
100
AcDbPolyline
 90
2
 70
1
 10
19.796184
 20
64.357379
 30
0.0
 10
19.209089
 20
64.197057
 30
0.0
  0
SPLINE
  5
123
100
AcDbEntity
  8
Capa_1
 62
7
100
AcDbSpline
 70
8
 71
3
 72
8
 73
4
 74
0
 40
0
 40
0
 40
0
 40
0
 40
1
 40
1
 40
1
 40
1
 10
21.327580
 20
62.492226
 30
0.0
 10
21.729514
 20
62.492226
 30
0.0
 10
22.008760
 20
62.693945
 30
0.0
 10
22.165318
 20
63.097384
 30
0.0
  0
LWPOLYLINE
  5
124
100
AcDbEntity
  8
Capa_1
 62
7
100
AcDbPolyline
 90
2
 70
1
 10
18.418769
 20
62.492226
 30
0.0
 10
18.418769
 20
62.492226
 30
0.0
  0
SPLINE
  5
125
100
AcDbEntity
  8
Capa_1
 62
7
100
AcDbSpline
 70
8
 71
3
 72
8
 73
4
 74
0
 40
0
 40
0
 40
0
 40
0
 40
1
 40
1
 40
1
 40
1
 10
22.745639
 20
62.878354
 30
0.0
 10
22.620693
 20
62.571257
 30
0.0
 10
22.437038
 20
62.342440
 30
0.0
 10
22.194673
 20
62.191905
 30
0.0
  0
SPLINE
  5
126
100
AcDbEntity
  8
Capa_1
 62
7
100
AcDbSpline
 70
8
 71
3
 72
8
 73
4
 74
0
 40
0
 40
0
 40
0
 40
0
 40
1
 40
1
 40
1
 40
1
 10
22.194673
 20
62.191905
 30
0.0
 10
21.953814
 20
62.042873
 30
0.0
 10
21.664783
 20
61.968357
 30
0.0
 10
21.327580
 20
61.968357
 30
0.0
  0
SPLINE
  5
127
100
AcDbEntity
  8
Capa_1
 62
7
100
AcDbSpline
 70
8
 71
3
 72
8
 73
4
 74
0
 40
0
 40
0
 40
0
 40
0
 40
1
 40
1
 40
1
 40
1
 10
21.327580
 20
61.968357
 30
0.0
 10
20.815754
 20
61.968357
 30
0.0
 10
20.419841
 20
62.112872
 30
0.0
 10
20.139842
 20
62.401904
 30
0.0
  0
SPLINE
  5
128
100
AcDbEntity
  8
Capa_1
 62
7
100
AcDbSpline
 70
8
 71
3
 72
8
 73
4
 74
0
 40
0
 40
0
 40
0
 40
0
 40
1
 40
1
 40
1
 40
1
 10
20.139842
 20
62.401904
 30
0.0
 10
19.861349
 20
62.692440
 30
0.0
 10
19.722102
 20
63.098137
 30
0.0
 10
19.722102
 20
63.618995
 30
0.0
  0
SPLINE
  5
129
100
AcDbEntity
  8
Capa_1
 62
7
100
AcDbSpline
 70
8
 71
3
 72
8
 73
4
 74
0
 40
0
 40
0
 40
0
 40
0
 40
1
 40
1
 40
1
 40
1
 10
19.722102
 20
63.618995
 30
0.0
 10
19.722102
 20
64.141359
 30
0.0
 10
19.856833
 20
64.542539
 30
0.0
 10
20.126294
 20
64.822538
 30
0.0
  0
SPLINE
  5
12a
100
AcDbEntity
  8
Capa_1
 62
7
100
AcDbSpline
 70
8
 71
3
 72
8
 73
4
 74
0
 40
0
 40
0
 40
0
 40
0
 40
1
 40
1
 40
1
 40
1
 10
20.126294
 20
64.822538
 30
0.0
 10
20.395755
 20
65.102538
 30
0.0
 10
20.786399
 20
65.242538
 30
0.0
 10
21.298225
 20
65.242538
 30
0.0
  0
SPLINE
  5
12b
100
AcDbEntity
  8
Capa_1
 62
7
100
AcDbSpline
 70
8
 71
3
 72
8
 73
4
 74
0
 40
0
 40
0
 40
0
 40
0
 40
1
 40
1
 40
1
 40
1
 10
21.298225
 20
65.242538
 30
0.0
 10
21.671557
 20
65.242538
 30
0.0
 10
21.975642
 20
65.167269
 30
0.0
 10
22.210480
 20
65.016732
 30
0.0
  0
SPLINE
  5
12c
100
AcDbEntity
  8
Capa_1
 62
7
100
AcDbSpline
 70
8
 71
3
 72
8
 73
4
 74
0
 40
0
 40
0
 40
0
 40
0
 40
1
 40
1
 40
1
 40
1
 10
22.210480
 20
65.016732
 30
0.0
 10
22.445318
 20
64.867700
 30
0.0
 10
22.610156
 20
64.647915
 30
0.0
 10
22.704994
 20
64.357379
 30
0.0
  0
LWPOLYLINE
  5
12d
100
AcDbEntity
  8
Capa_1
 62
7
100
AcDbPolyline
 90
2
 70
1
 10
22.165318
 20
63.097384
 30
0.0
 10
22.745639
 20
62.878354
 30
0.0
  0
SPLINE
  5
12e
100
AcDbEntity
  8
Capa_1
 62
7
100
AcDbSpline
 70
8
 71
3
 72
8
 73
4
 74
0
 40
0
 40
0
 40
0
 40
0
 40
1
 40
1
 40
1
 40
1
 10
22.117899
 20
64.197057
 30
0.0
 10
22.068222
 20
64.356627
 30
0.0
 10
21.970373
 20
64.483079
 30
0.0
 10
21.824352
 20
64.576412
 30
0.0
  0
SPLINE
  5
12f
100
AcDbEntity
  8
Capa_1
 62
7
100
AcDbSpline
 70
8
 71
3
 72
8
 73
4
 74
0
 40
0
 40
0
 40
0
 40
0
 40
1
 40
1
 40
1
 40
1
 10
21.824352
 20
64.576412
 30
0.0
 10
21.679837
 20
64.671250
 30
0.0
 10
21.508977
 20
64.718669
 30
0.0
 10
21.311773
 20
64.718669
 30
0.0
  0
SPLINE
  5
130
100
AcDbEntity
  8
Capa_1
 62
7
100
AcDbSpline
 70
8
 71
3
 72
8
 73
4
 74
0
 40
0
 40
0
 40
0
 40
0
 40
1
 40
1
 40
1
 40
1
 10
21.311773
 20
64.718669
 30
0.0
 10
21.010699
 20
64.718669
 30
0.0
 10
20.781883
 20
64.625336
 30
0.0
 10
20.625324
 20
64.438670
 30
0.0
  0
SPLINE
  5
131
100
AcDbEntity
  8
Capa_1
 62
7
100
AcDbSpline
 70
8
 71
3
 72
8
 73
4
 74
0
 40
0
 40
0
 40
0
 40
0
 40
1
 40
1
 40
1
 40
1
 10
20.625324
 20
64.438670
 30
0.0
 10
20.470271
 20
64.252003
 30
0.0
 10
20.392745
 20
63.978778
 30
0.0
 10
20.392745
 20
63.618995
 30
0.0
  0
SPLINE
  5
132
100
AcDbEntity
  8
Capa_1
 62
7
100
AcDbSpline
 70
8
 71
3
 72
8
 73
4
 74
0
 40
0
 40
0
 40
0
 40
0
 40
1
 40
1
 40
1
 40
1
 10
20.392745
 20
63.618995
 30
0.0
 10
20.392745
 20
63.253190
 30
0.0
 10
20.472529
 20
62.973943
 30
0.0
 10
20.632099
 20
62.781255
 30
0.0
  0
SPLINE
  5
133
100
AcDbEntity
  8
Capa_1
 62
7
100
AcDbSpline
 70
8
 71
3
 72
8
 73
4
 74
0
 40
0
 40
0
 40
0
 40
0
 40
1
 40
1
 40
1
 40
1
 10
20.632099
 20
62.781255
 30
0.0
 10
20.793173
 20
62.588569
 30
0.0
 10
21.025000
 20
62.492226
 30
0.0
 10
21.327580
 20
62.492226
 30
0.0
  0
LWPOLYLINE
  5
134
100
AcDbEntity
  8
Capa_1
 62
7
100
AcDbPolyline
 90
2
 70
1
 10
22.704994
 20
64.357379
 30
0.0
 10
22.117899
 20
64.197057
 30
0.0
  0
LWPOLYLINE
  5
135
100
AcDbEntity
  8
Capa_1
 62
7
100
AcDbPolyline
 90
2
 70
1
 10
21.327580
 20
62.492226
 30
0.0
 10
21.327580
 20
62.492226
 30
0.0
  0
SPLINE
  5
136
100
AcDbEntity
  8
Capa_1
 62
7
100
AcDbSpline
 70
8
 71
3
 72
8
 73
4
 74
0
 40
0
 40
0
 40
0
 40
0
 40
1
 40
1
 40
1
 40
1
 10
26.699657
 20
63.618995
 30
0.0
 10
26.699657
 20
63.287813
 30
0.0
 10
26.634174
 20
62.996524
 30
0.0
 10
26.503207
 20
62.745128
 30
0.0
  0
SPLINE
  5
137
100
AcDbEntity
  8
Capa_1
 62
7
100
AcDbSpline
 70
8
 71
3
 72
8
 73
4
 74
0
 40
0
 40
0
 40
0
 40
0
 40
1
 40
1
 40
1
 40
1
 10
26.503207
 20
62.745128
 30
0.0
 10
26.372239
 20
62.493730
 30
0.0
 10
26.184821
 20
62.301042
 30
0.0
 10
25.940951
 20
62.167064
 30
0.0
  0
SPLINE
  5
138
100
AcDbEntity
  8
Capa_1
 62
7
100
AcDbSpline
 70
8
 71
3
 72
8
 73
4
 74
0
 40
0
 40
0
 40
0
 40
0
 40
1
 40
1
 40
1
 40
1
 10
25.940951
 20
62.167064
 30
0.0
 10
25.697080
 20
62.034592
 30
0.0
 10
25.412565
 20
61.968357
 30
0.0
 10
25.087405
 20
61.968357
 30
0.0
  0
SPLINE
  5
139
100
AcDbEntity
  8
Capa_1
 62
7
100
AcDbSpline
 70
8
 71
3
 72
8
 73
4
 74
0
 40
0
 40
0
 40
0
 40
0
 40
1
 40
1
 40
1
 40
1
 10
25.087405
 20
61.968357
 30
0.0
 10
24.587622
 20
61.968357
 30
0.0
 10
24.195473
 20
62.115130
 30
0.0
 10
23.910958
 20
62.408677
 30
0.0
  0
SPLINE
  5
13a
100
AcDbEntity
  8
Capa_1
 62
7
100
AcDbSpline
 70
8
 71
3
 72
8
 73
4
 74
0
 40
0
 40
0
 40
0
 40
0
 40
1
 40
1
 40
1
 40
1
 10
23.910958
 20
62.408677
 30
0.0
 10
23.627949
 20
62.703729
 30
0.0
 10
23.486444
 20
63.107168
 30
0.0
 10
23.486444
 20
63.618995
 30
0.0
  0
SPLINE
  5
13b
100
AcDbEntity
  8
Capa_1
 62
7
100
AcDbSpline
 70
8
 71
3
 72
8
 73
4
 74
0
 40
0
 40
0
 40
0
 40
0
 40
1
 40
1
 40
1
 40
1
 10
23.486444
 20
63.618995
 30
0.0
 10
23.486444
 20
64.129315
 30
0.0
 10
23.627949
 20
64.527486
 30
0.0
 10
23.910958
 20
64.813507
 30
0.0
  0
SPLINE
  5
13c
100
AcDbEntity
  8
Capa_1
 62
7
100
AcDbSpline
 70
8
 71
3
 72
8
 73
4
 74
0
 40
0
 40
0
 40
0
 40
0
 40
1
 40
1
 40
1
 40
1
 10
23.910958
 20
64.813507
 30
0.0
 10
24.193968
 20
65.099527
 30
0.0
 10
24.587622
 20
65.242538
 30
0.0
 10
25.091921
 20
65.242538
 30
0.0
  0
SPLINE
  5
13d
100
AcDbEntity
  8
Capa_1
 62
7
100
AcDbSpline
 70
8
 71
3
 72
8
 73
4
 74
0
 40
0
 40
0
 40
0
 40
0
 40
1
 40
1
 40
1
 40
1
 10
25.091921
 20
65.242538
 30
0.0
 10
25.596221
 20
65.242538
 30
0.0
 10
25.989875
 20
65.098022
 30
0.0
 10
26.272885
 20
64.808991
 30
0.0
  0
SPLINE
  5
13e
100
AcDbEntity
  8
Capa_1
 62
7
100
AcDbSpline
 70
8
 71
3
 72
8
 73
4
 74
0
 40
0
 40
0
 40
0
 40
0
 40
1
 40
1
 40
1
 40
1
 10
26.272885
 20
64.808991
 30
0.0
 10
26.557400
 20
64.519960
 30
0.0
 10
26.699657
 20
64.123294
 30
0.0
 10
26.699657
 20
63.618995
 30
0.0
  0
LWPOLYLINE
  5
13f
100
AcDbEntity
  8
Capa_1
 62
7
100
AcDbPolyline
 90
6
 70
1
 10
22.750587
 20
62.013518
 30
0.0
 10
22.750587
 20
65.195119
 30
0.0
 10
23.416714
 20
65.195119
 30
0.0
 10
23.416714
 20
62.013518
 30
0.0
 10
22.750587
 20
62.013518
 30
0.0
 10
22.750587
 20
62.013518
 30
0.0
  0
SPLINE
  5
140
100
AcDbEntity
  8
Capa_1
 62
7
100
AcDbSpline
 70
8
 71
3
 72
8
 73
4
 74
0
 40
0
 40
0
 40
0
 40
0
 40
1
 40
1
 40
1
 40
1
 10
26.019983
 20
63.618995
 30
0.0
 10
26.019983
 20
63.962219
 30
0.0
 10
25.938693
 20
64.230927
 30
0.0
 10
25.776112
 20
64.425121
 30
0.0
  0
SPLINE
  5
141
100
AcDbEntity
  8
Capa_1
 62
7
100
AcDbSpline
 70
8
 71
3
 72
8
 73
4
 74
0
 40
0
 40
0
 40
0
 40
0
 40
1
 40
1
 40
1
 40
1
 10
25.776112
 20
64.425121
 30
0.0
 10
25.613533
 20
64.620819
 30
0.0
 10
25.385469
 20
64.718669
 30
0.0
 10
25.091921
 20
64.718669
 30
0.0
  0
SPLINE
  5
142
100
AcDbEntity
  8
Capa_1
 62
7
100
AcDbSpline
 70
8
 71
3
 72
8
 73
4
 74
0
 40
0
 40
0
 40
0
 40
0
 40
1
 40
1
 40
1
 40
1
 10
25.091921
 20
64.718669
 30
0.0
 10
24.793858
 20
64.718669
 30
0.0
 10
24.563536
 20
64.621572
 30
0.0
 10
24.400956
 20
64.427379
 30
0.0
  0
SPLINE
  5
143
100
AcDbEntity
  8
Capa_1
 62
7
100
AcDbSpline
 70
8
 71
3
 72
8
 73
4
 74
0
 40
0
 40
0
 40
0
 40
0
 40
1
 40
1
 40
1
 40
1
 10
24.400956
 20
64.427379
 30
0.0
 10
24.238376
 20
64.234692
 30
0.0
 10
24.157086
 20
63.965231
 30
0.0
 10
24.157086
 20
63.618995
 30
0.0
  0
SPLINE
  5
144
100
AcDbEntity
  8
Capa_1
 62
7
100
AcDbSpline
 70
8
 71
3
 72
8
 73
4
 74
0
 40
0
 40
0
 40
0
 40
0
 40
1
 40
1
 40
1
 40
1
 10
24.157086
 20
63.618995
 30
0.0
 10
24.157086
 20
63.269749
 30
0.0
 10
24.239882
 20
62.994266
 30
0.0
 10
24.405473
 20
62.792547
 30
0.0
  0
SPLINE
  5
145
100
AcDbEntity
  8
Capa_1
 62
7
100
AcDbSpline
 70
8
 71
3
 72
8
 73
4
 74
0
 40
0
 40
0
 40
0
 40
0
 40
1
 40
1
 40
1
 40
1
 10
24.405473
 20
62.792547
 30
0.0
 10
24.572569
 20
62.592333
 30
0.0
 10
24.799880
 20
62.492226
 30
0.0
 10
25.087405
 20
62.492226
 30
0.0
  0
SPLINE
  5
146
100
AcDbEntity
  8
Capa_1
 62
7
100
AcDbSpline
 70
8
 71
3
 72
8
 73
4
 74
0
 40
0
 40
0
 40
0
 40
0
 40
1
 40
1
 40
1
 40
1
 10
25.087405
 20
62.492226
 30
0.0
 10
25.385469
 20
62.492226
 30
0.0
 10
25.615038
 20
62.590074
 30
0.0
 10
25.776112
 20
62.785771
 30
0.0
  0
SPLINE
  5
147
100
AcDbEntity
  8
Capa_1
 62
7
100
AcDbSpline
 70
8
 71
3
 72
8
 73
4
 74
0
 40
0
 40
0
 40
0
 40
0
 40
1
 40
1
 40
1
 40
1
 10
25.776112
 20
62.785771
 30
0.0
 10
25.938693
 20
62.981469
 30
0.0
 10
26.019983
 20
63.259211
 30
0.0
 10
26.019983
 20
63.618995
 30
0.0
  0
LWPOLYLINE
  5
148
100
AcDbEntity
  8
Capa_1
 62
7
100
AcDbPolyline
 90
2
 70
1
 10
26.699657
 20
63.618995
 30
0.0
 10
26.699657
 20
63.618995
 30
0.0
  0
LWPOLYLINE
  5
149
100
AcDbEntity
  8
Capa_1
 62
7
100
AcDbPolyline
 90
2
 70
1
 10
26.019983
 20
63.618995
 30
0.0
 10
26.019983
 20
63.618995
 30
0.0
  0
LWPOLYLINE
  5
14a
100
AcDbEntity
  8
Capa_1
 62
7
100
AcDbPolyline
 90
8
 70
1
 10
24.708052
 20
65.468344
 30
0.0
 10
24.708052
 20
65.538343
 30
0.0
 10
25.277082
 20
66.111890
 30
0.0
 10
25.859661
 20
66.111890
 30
0.0
 10
25.859661
 20
66.014791
 30
0.0
 10
25.091921
 20
65.468344
 30
0.0
 10
24.708052
 20
65.468344
 30
0.0
 10
24.708052
 20
65.468344
 30
0.0
  0
SPLINE
  5
14b
100
AcDbEntity
  8
Capa_1
 62
7
100
AcDbSpline
 70
8
 71
3
 72
8
 73
4
 74
0
 40
0
 40
0
 40
0
 40
0
 40
1
 40
1
 40
1
 40
1
 10
27.324867
 20
64.463509
 30
0.0
 10
27.351963
 20
64.225659
 30
0.0
 10
27.365512
 20
64.034477
 30
0.0
 10
27.365512
 20
63.889963
 30
0.0
  0
LWPOLYLINE
  5
14c
100
AcDbEntity
  8
Capa_1
 62
7
100
AcDbPolyline
 90
2
 70
1
 10
28.711313
 20
62.013518
 30
0.0
 10
27.324867
 20
64.463509
 30
0.0
  0
SPLINE
  5
14d
100
AcDbEntity
  8
Capa_1
 62
7
100
AcDbSpline
 70
8
 71
3
 72
8
 73
4
 74
0
 40
0
 40
0
 40
0
 40
0
 40
1
 40
1
 40
1
 40
1
 10
28.941635
 20
62.724805
 30
0.0
 10
28.914538
 20
62.952116
 30
0.0
 10
28.900989
 20
63.159105
 30
0.0
 10
28.900989
 20
63.345770
 30
0.0
  0
LWPOLYLINE
  5
14e
100
AcDbEntity
  8
Capa_1
 62
7
100
AcDbPolyline
 90
6
 70
1
 10
27.365512
 20
63.889963
 30
0.0
 10
27.365512
 20
62.013518
 30
0.0
 10
26.773901
 20
62.013518
 30
0.0
 10
26.773901
 20
65.195119
 30
0.0
 10
27.534866
 20
65.195119
 30
0.0
 10
28.941635
 20
62.724805
 30
0.0
  0
SPLINE
  5
14f
100
AcDbEntity
  8
Capa_1
 62
7
100
AcDbSpline
 70
8
 71
3
 72
8
 73
4
 74
0
 40
0
 40
0
 40
0
 40
0
 40
1
 40
1
 40
1
 40
1
 10
6.508863
 20
63.119744
 30
0.0
 10
6.227471
 20
63.119744
 30
0.0
 10
5.999333
 20
63.347920
 30
0.0
 10
5.999333
 20
63.629312
 30
0.0
  0
SPLINE
  5
150
100
AcDbEntity
  8
Capa_1
 62
7
100
AcDbSpline
 70
8
 71
3
 72
8
 73
4
 74
0
 40
0
 40
0
 40
0
 40
0
 40
1
 40
1
 40
1
 40
1
 10
5.999333
 20
63.629312
 30
0.0
 10
5.999333
 20
63.910742
 30
0.0
 10
6.227471
 20
64.138841
 30
0.0
 10
6.508863
 20
64.138841
 30
0.0
  0
SPLINE
  5
151
100
AcDbEntity
  8
Capa_1
 62
7
100
AcDbSpline
 70
8
 71
3
 72
8
 73
4
 74
0
 40
0
 40
0
 40
0
 40
0
 40
1
 40
1
 40
1
 40
1
 10
6.508863
 20
64.138841
 30
0.0
 10
6.790293
 20
64.138841
 30
0.0
 10
7.018430
 20
63.910742
 30
0.0
 10
7.018430
 20
63.629312
 30
0.0
  0
SPLINE
  5
152
100
AcDbEntity
  8
Capa_1
 62
7
100
AcDbSpline
 70
8
 71
3
 72
8
 73
4
 74
0
 40
0
 40
0
 40
0
 40
0
 40
1
 40
1
 40
1
 40
1
 10
7.018430
 20
63.629312
 30
0.0
 10
7.018430
 20
63.347920
 30
0.0
 10
6.790293
 20
63.119744
 30
0.0
 10
6.508863
 20
63.119744
 30
0.0
  0
SPLINE
  5
153
100
AcDbEntity
  8
Capa_1
 62
7
100
AcDbSpline
 70
8
 71
3
 72
8
 73
4
 74
0
 40
0
 40
0
 40
0
 40
0
 40
1
 40
1
 40
1
 40
1
 10
7.598429
 20
63.119744
 30
0.0
 10
7.317037
 20
63.119744
 30
0.0
 10
7.088899
 20
63.347920
 30
0.0
 10
7.088899
 20
63.629312
 30
0.0
  0
SPLINE
  5
154
100
AcDbEntity
  8
Capa_1
 62
7
100
AcDbSpline
 70
8
 71
3
 72
8
 73
4
 74
0
 40
0
 40
0
 40
0
 40
0
 40
1
 40
1
 40
1
 40
1
 10
7.088899
 20
63.629312
 30
0.0
 10
7.088899
 20
63.910742
 30
0.0
 10
7.317037
 20
64.138841
 30
0.0
 10
7.598429
 20
64.138841
 30
0.0
  0
SPLINE
  5
155
100
AcDbEntity
  8
Capa_1
 62
7
100
AcDbSpline
 70
8
 71
3
 72
8
 73
4
 74
0
 40
0
 40
0
 40
0
 40
0
 40
1
 40
1
 40
1
 40
1
 10
7.598429
 20
64.138841
 30
0.0
 10
7.879859
 20
64.138841
 30
0.0
 10
8.107996
 20
63.910742
 30
0.0
 10
8.107996
 20
63.629312
 30
0.0
  0
SPLINE
  5
156
100
AcDbEntity
  8
Capa_1
 62
7
100
AcDbSpline
 70
8
 71
3
 72
8
 73
4
 74
0
 40
0
 40
0
 40
0
 40
0
 40
1
 40
1
 40
1
 40
1
 10
8.107996
 20
63.629312
 30
0.0
 10
8.107996
 20
63.347920
 30
0.0
 10
7.879859
 20
63.119744
 30
0.0
 10
7.598429
 20
63.119744
 30
0.0
  0
SPLINE
  5
157
100
AcDbEntity
  8
Capa_1
 62
7
100
AcDbSpline
 70
8
 71
3
 72
8
 73
4
 74
0
 40
0
 40
0
 40
0
 40
0
 40
1
 40
1
 40
1
 40
1
 10
6.508863
 20
64.244465
 30
0.0
 10
6.227471
 20
64.244465
 30
0.0
 10
5.999333
 20
64.472641
 30
0.0
 10
5.999333
 20
64.754032
 30
0.0
  0
SPLINE
  5
158
100
AcDbEntity
  8
Capa_1
 62
7
100
AcDbSpline
 70
8
 71
3
 72
8
 73
4
 74
0
 40
0
 40
0
 40
0
 40
0
 40
1
 40
1
 40
1
 40
1
 10
5.999333
 20
64.754032
 30
0.0
 10
5.999333
 20
65.035424
 30
0.0
 10
6.227471
 20
65.263600
 30
0.0
 10
6.508863
 20
65.263600
 30
0.0
  0
SPLINE
  5
159
100
AcDbEntity
  8
Capa_1
 62
7
100
AcDbSpline
 70
8
 71
3
 72
8
 73
4
 74
0
 40
0
 40
0
 40
0
 40
0
 40
1
 40
1
 40
1
 40
1
 10
6.508863
 20
65.263600
 30
0.0
 10
6.790293
 20
65.263600
 30
0.0
 10
7.018430
 20
65.035424
 30
0.0
 10
7.018430
 20
64.754032
 30
0.0
  0
SPLINE
  5
15a
100
AcDbEntity
  8
Capa_1
 62
7
100
AcDbSpline
 70
8
 71
3
 72
8
 73
4
 74
0
 40
0
 40
0
 40
0
 40
0
 40
1
 40
1
 40
1
 40
1
 10
7.018430
 20
64.754032
 30
0.0
 10
7.018430
 20
64.472641
 30
0.0
 10
6.790293
 20
64.244465
 30
0.0
 10
6.508863
 20
64.244465
 30
0.0
  0
SPLINE
  5
15b
100
AcDbEntity
  8
Capa_1
 62
7
100
AcDbSpline
 70
8
 71
3
 72
8
 73
4
 74
0
 40
0
 40
0
 40
0
 40
0
 40
1
 40
1
 40
1
 40
1
 10
7.598429
 20
64.244465
 30
0.0
 10
7.317037
 20
64.244465
 30
0.0
 10
7.088899
 20
64.472641
 30
0.0
 10
7.088899
 20
64.754032
 30
0.0
  0
SPLINE
  5
15c
100
AcDbEntity
  8
Capa_1
 62
7
100
AcDbSpline
 70
8
 71
3
 72
8
 73
4
 74
0
 40
0
 40
0
 40
0
 40
0
 40
1
 40
1
 40
1
 40
1
 10
7.088899
 20
64.754032
 30
0.0
 10
7.088899
 20
65.035424
 30
0.0
 10
7.317037
 20
65.263600
 30
0.0
 10
7.598429
 20
65.263600
 30
0.0
  0
SPLINE
  5
15d
100
AcDbEntity
  8
Capa_1
 62
7
100
AcDbSpline
 70
8
 71
3
 72
8
 73
4
 74
0
 40
0
 40
0
 40
0
 40
0
 40
1
 40
1
 40
1
 40
1
 10
7.598429
 20
65.263600
 30
0.0
 10
7.879859
 20
65.263600
 30
0.0
 10
8.107996
 20
65.035424
 30
0.0
 10
8.107996
 20
64.754032
 30
0.0
  0
SPLINE
  5
15e
100
AcDbEntity
  8
Capa_1
 62
7
100
AcDbSpline
 70
8
 71
3
 72
8
 73
4
 74
0
 40
0
 40
0
 40
0
 40
0
 40
1
 40
1
 40
1
 40
1
 10
8.107996
 20
64.754032
 30
0.0
 10
8.107996
 20
64.472641
 30
0.0
 10
7.879859
 20
64.244465
 30
0.0
 10
7.598429
 20
64.244465
 30
0.0
  0
SPLINE
  5
15f
100
AcDbEntity
  8
Capa_1
 62
7
100
AcDbSpline
 70
8
 71
3
 72
8
 73
4
 74
0
 40
0
 40
0
 40
0
 40
0
 40
1
 40
1
 40
1
 40
1
 10
6.508863
 20
62.015522
 30
0.0
 10
6.227471
 20
62.015522
 30
0.0
 10
5.999333
 20
62.243621
 30
0.0
 10
5.999333
 20
62.525051
 30
0.0
  0
SPLINE
  5
160
100
AcDbEntity
  8
Capa_1
 62
7
100
AcDbSpline
 70
8
 71
3
 72
8
 73
4
 74
0
 40
0
 40
0
 40
0
 40
0
 40
1
 40
1
 40
1
 40
1
 10
5.999333
 20
62.525051
 30
0.0
 10
5.999333
 20
62.806481
 30
0.0
 10
6.227471
 20
63.034618
 30
0.0
 10
6.508863
 20
63.034618
 30
0.0
  0
SPLINE
  5
161
100
AcDbEntity
  8
Capa_1
 62
7
100
AcDbSpline
 70
8
 71
3
 72
8
 73
4
 74
0
 40
0
 40
0
 40
0
 40
0
 40
1
 40
1
 40
1
 40
1
 10
6.508863
 20
63.034618
 30
0.0
 10
6.790293
 20
63.034618
 30
0.0
 10
7.018430
 20
62.806481
 30
0.0
 10
7.018430
 20
62.525051
 30
0.0
  0
SPLINE
  5
162
100
AcDbEntity
  8
Capa_1
 62
7
100
AcDbSpline
 70
8
 71
3
 72
8
 73
4
 74
0
 40
0
 40
0
 40
0
 40
0
 40
1
 40
1
 40
1
 40
1
 10
7.018430
 20
62.525051
 30
0.0
 10
7.018430
 20
62.243621
 30
0.0
 10
6.790293
 20
62.015522
 30
0.0
 10
6.508863
 20
62.015522
 30
0.0
  0
SPLINE
  5
163
100
AcDbEntity
  8
Capa_1
 62
7
100
AcDbSpline
 70
8
 71
3
 72
8
 73
4
 74
0
 40
0
 40
0
 40
0
 40
0
 40
1
 40
1
 40
1
 40
1
 10
7.598429
 20
62.015522
 30
0.0
 10
7.317037
 20
62.015522
 30
0.0
 10
7.088899
 20
62.243621
 30
0.0
 10
7.088899
 20
62.525051
 30
0.0
  0
SPLINE
  5
164
100
AcDbEntity
  8
Capa_1
 62
7
100
AcDbSpline
 70
8
 71
3
 72
8
 73
4
 74
0
 40
0
 40
0
 40
0
 40
0
 40
1
 40
1
 40
1
 40
1
 10
7.088899
 20
62.525051
 30
0.0
 10
7.088899
 20
62.806481
 30
0.0
 10
7.317037
 20
63.034618
 30
0.0
 10
7.598429
 20
63.034618
 30
0.0
  0
SPLINE
  5
165
100
AcDbEntity
  8
Capa_1
 62
7
100
AcDbSpline
 70
8
 71
3
 72
8
 73
4
 74
0
 40
0
 40
0
 40
0
 40
0
 40
1
 40
1
 40
1
 40
1
 10
7.598429
 20
63.034618
 30
0.0
 10
7.879859
 20
63.034618
 30
0.0
 10
8.107996
 20
62.806481
 30
0.0
 10
8.107996
 20
62.525051
 30
0.0
  0
SPLINE
  5
166
100
AcDbEntity
  8
Capa_1
 62
7
100
AcDbSpline
 70
8
 71
3
 72
8
 73
4
 74
0
 40
0
 40
0
 40
0
 40
0
 40
1
 40
1
 40
1
 40
1
 10
8.107996
 20
62.525051
 30
0.0
 10
8.107996
 20
62.243621
 30
0.0
 10
7.879859
 20
62.015522
 30
0.0
 10
7.598429
 20
62.015522
 30
0.0
  0
LWPOLYLINE
  5
167
100
AcDbEntity
  8
Capa_1
 62
7
100
AcDbPolyline
 90
6
 70
1
 10
28.900989
 20
63.345770
 30
0.0
 10
28.900989
 20
65.195119
 30
0.0
 10
29.492600
 20
65.195119
 30
0.0
 10
29.492600
 20
62.013518
 30
0.0
 10
28.711313
 20
62.013518
 30
0.0
 10
28.711313
 20
62.013518
 30
0.0
  0
ENDSEC
  0
SECTION
  2
OBJECTS
  0
DICTIONARY
  5
C
330
0
100
AcDbDictionary
  3
ACAD_GROUP
350
D
  3
ACAD_MLINESTYLE
350
17
  0
DICTIONARY
  5
D
330
C
100
AcDbDictionary
  0
DICTIONARY
  5
1A
330
C
100
AcDbDictionary
  0
DICTIONARY
  5
17
330
C
100
AcDbDictionary
  3
STANDARD
350
18
  0
DICTIONARY
  5
19
330
C
100
AcDbDictionary
  0
ENDSEC
  0
EOF
