<?xml version="1.0" encoding="UTF-8" standalone="no"?>
<!-- Created with Inkscape (http://www.inkscape.org/) -->

<svg
   xmlns:dc="http://purl.org/dc/elements/1.1/"
   xmlns:cc="http://creativecommons.org/ns#"
   xmlns:rdf="http://www.w3.org/1999/02/22-rdf-syntax-ns#"
   xmlns:svg="http://www.w3.org/2000/svg"
   xmlns="http://www.w3.org/2000/svg"
   xmlns:sodipodi="http://sodipodi.sourceforge.net/DTD/sodipodi-0.dtd"
   xmlns:inkscape="http://www.inkscape.org/namespaces/inkscape"
   width="100mm"
   height="80mm"
   viewBox="0 0 354.33071 283.46457"
   id="svg2"
   version="1.1"
   inkscape:version="0.91 r13725"
   sodipodi:docname="logo_PCB_FLAT.svg">
  <sodipodi:namedview
     id="base"
     pagecolor="#ffffff"
     bordercolor="#666666"
     borderopacity="1.0"
     inkscape:pageopacity="0.0"
     inkscape:pageshadow="2"
     inkscape:zoom="32"
     inkscape:cx="53.286752"
     inkscape:cy="272.7491"
     inkscape:document-units="px"
     inkscape:current-layer="layer1"
     showgrid="false"
     inkscape:window-width="1600"
     inkscape:window-height="838"
     inkscape:window-x="-8"
     inkscape:window-y="-8"
     inkscape:window-maximized="1" />
  <defs
     id="defs4">
    <clipPath
       clipPathUnits="userSpaceOnUse"
       id="clipPath3362">
      <path
         d="M 0,800 1280,800 1280,0 0,0 0,800 Z"
         id="path3364"
         inkscape:connector-curvature="0" />
    </clipPath>
    <marker
       refY="0.0"
       refX="0.0"
       style="overflow:visible"
       id="DistanceX"
       orient="auto">
      <path
         style="stroke:#000000; stroke-width:0.5"
         d="M 3,-3 L -3,3 M 0,-5 L  0,5"
         id="path3536" />
    </marker>
    <pattern
       height="8"
       width="8"
       patternUnits="userSpaceOnUse"
       y="0"
       x="0"
       id="Hatch">
      <path
         linecap="square"
         stroke="#000000"
         stroke-width="0.25"
         d="M8 4 l-4,4"
         id="path3539" />
      <path
         linecap="square"
         stroke="#000000"
         stroke-width="0.25"
         d="M6 2 l-4,4"
         id="path3541" />
      <path
         linecap="square"
         stroke="#000000"
         stroke-width="0.25"
         d="M4 0 l-4,4"
         id="path3543" />
    </pattern>
    <symbol
       id="*MODEL_SPACE" />
    <symbol
       id="*PAPER_SPACE" />
  </defs>
  <metadata
     id="metadata7">
    <rdf:RDF>
      <cc:Work
         rdf:about="">
        <dc:format>image/svg+xml</dc:format>
        <dc:type
           rdf:resource="http://purl.org/dc/dcmitype/StillImage" />
        <dc:title></dc:title>
      </cc:Work>
    </rdf:RDF>
  </metadata>
  <g
     transform="translate(0,-768.89764)"
     id="layer1"
     inkscape:groupmode="layer"
     inkscape:label="Capa 1">
    <path
       style="font-variant:normal;font-weight:normal;font-stretch:normal;font-size:medium;font-family:'Liberation Sans';-inkscape-font-specification:LiberationSans-Regular;writing-mode:lr-tb;fill:#000000;fill-opacity:1;fill-rule:nonzero;stroke:none"
       d="M 18.210938 5.0605469 L 17.841797 5.0605469 L 16.958984 5.0605469 L 16.072266 5.0605469 L 15.189453 5.0605469 L 14.304688 5.0605469 L 14.304688 5.9980469 L 14.304688 6.9394531 L 14.304688 7.8789062 L 14.304688 8.8183594 L 14.304688 9.7578125 L 14.304688 10.697266 L 14.304688 11.636719 L 14.304688 12.576172 L 14.304688 13.515625 L 14.304688 14.455078 L 14.304688 15.394531 L 14.304688 16.333984 L 15.068359 16.333984 L 15.833984 16.333984 L 15.833984 15.398438 L 15.833984 14.460938 L 15.833984 13.525391 L 15.833984 12.589844 L 15.833984 11.654297 L 16.710938 11.654297 L 17.589844 11.654297 L 18.210938 11.654297 L 18.210938 10.445312 L 17.677734 10.445312 L 16.753906 10.445312 L 15.833984 10.445312 L 15.833984 9.6132812 L 15.833984 8.78125 L 15.833984 7.9492188 L 15.833984 7.1171875 L 15.833984 6.2851562 L 16.738281 6.2851562 L 17.646484 6.2851562 L 18.210938 6.2851562 L 18.210938 5.0605469 z "
       id="path5168"
       transform="translate(0,768.89764)" />
    <path
       style="font-variant:normal;font-weight:normal;font-stretch:normal;font-size:medium;font-family:'Liberation Sans';-inkscape-font-specification:LiberationSans-Regular;writing-mode:lr-tb;fill:#000000;fill-opacity:1;fill-rule:nonzero;stroke:none"
       d="M 18.210938 5.0605469 L 18.210938 6.2851562 L 18.552734 6.2851562 L 19.457031 6.2851562 L 20.130859 6.328125 L 20.787109 6.484375 L 21.376953 6.8046875 L 21.896484 7.46875 L 22.050781 8.3007812 L 21.898438 9.171875 L 21.386719 9.8847656 L 20.507812 10.330078 L 19.521484 10.445312 L 18.599609 10.445312 L 18.210938 10.445312 L 18.210938 11.654297 L 18.46875 11.654297 L 19.345703 11.654297 L 19.833984 12.433594 L 20.322266 13.212891 L 20.808594 13.994141 L 21.298828 14.773438 L 21.785156 15.552734 L 22.273438 16.333984 L 23.154297 16.333984 L 24.035156 16.333984 L 23.5 15.525391 L 22.96875 14.716797 L 22.433594 13.90625 L 21.900391 13.095703 L 21.367188 12.287109 L 20.833984 11.478516 L 21.585938 11.275391 L 22.273438 10.917969 L 22.849609 10.398438 L 23.269531 9.7617188 L 23.511719 9.0429688 L 23.585938 8.2851562 L 23.484375 7.4003906 L 23.138672 6.5800781 L 22.546875 5.9179688 L 21.888672 5.5 L 21.154297 5.2363281 L 20.386719 5.0996094 L 19.609375 5.0605469 L 18.724609 5.0605469 L 18.210938 5.0605469 z "
       id="path3447"
       transform="translate(0,768.89764)" />
    <path
       d="m 24.611853,785.23204 0,-0.93936 0,-0.94046 0,-0.93852 0,-0.93966 0,-0.94004 0,-0.93865 0,-0.93944 0,-0.93964 0,-0.94002 0,-0.93978 0,-0.93985 0,-0.93797 0.950063,0 0.949552,0 0.951404,0 0.949696,0 0.95054,0 0.950575,0 0.949913,0 0.951151,0 0.95016,0 0,0.62408 0,0.62408 -0.879043,0 -0.87881,0 -0.877506,0 -0.878114,0 -0.877696,0 -0.878202,0 -0.87692,0 -0.878575,0 0,0.90325 0,0.90439 0,0.90522 0,0.90358 0.934233,0 0.934771,0 0.935388,0 0.934632,0 0.935496,0 0.935869,0 0.934417,0 0,0.61608 0,0.61607 -0.934234,0 -0.934771,0 -0.935388,0 -0.934632,0 -0.935495,0 -0.93587,0 -0.934416,0 0,0.98119 0,0.98243 0,0.98332 0,0.98155 0.920091,0 0.919847,0 0.918483,0 0.919119,0 0.918683,0 0.919211,0 0.917869,0 0.919603,0 0,0.62408 0,0.62407 -0.986502,0 -0.985971,0 -0.987893,0 -0.98612,0 -0.986998,0 -0.987032,0 -0.986346,0 -0.987631,0 -0.986601,0 0,0"
       style="font-variant:normal;font-weight:normal;font-stretch:normal;font-size:medium;font-family:'Liberation Sans';-inkscape-font-specification:LiberationSans-Regular;writing-mode:lr-tb;fill:#000000;fill-opacity:1;fill-rule:nonzero;stroke:none"
       id="path3449"
       inkscape:connector-curvature="0" />
    <path
       style="font-variant:normal;font-weight:bold;font-stretch:normal;font-size:medium;font-family:'Liberation Sans';-inkscape-font-specification:LiberationSans-Bold;writing-mode:lr-tb;fill:#000000;fill-opacity:1;fill-rule:nonzero;stroke:none"
       d="m 39.072266,773.95819 -0.02148,0 -0.929687,0 -0.927735,0 -0.292968,0.80664 -0.292969,0.80273 -0.294922,0.80664 -0.292969,0.80664 -0.294922,0.80469 -0.292968,0.80469 -0.294922,0.80469 -0.292969,0.80468 -0.292969,0.80469 -0.294922,0.80664 -0.292968,0.80469 -0.294922,0.80664 -0.292969,0.80469 -0.292969,0.80468 0.785157,0 0.789062,0 0.785156,0 0.25,-0.71875 0.25,-0.7207 0.25,-0.7207 0.25,-0.7207 0.859375,0 0.859375,0 0.859375,0 0.05273,0 0,-1.7754 -0.482422,0 -0.810547,0 -0.808594,0 0.277344,-0.80859 0.277344,-0.81055 0.27539,-0.80859 0.275391,-0.81055 0.269531,-0.81054 0.191406,-0.65625 0.04883,-0.17578 0.167968,0.55273 0.171875,0.54297 0.146485,0.46484 0,-3.29687 z"
       id="path5171"
       inkscape:connector-curvature="0" />
    <path
       style="font-variant:normal;font-weight:bold;font-stretch:normal;font-size:medium;font-family:'Liberation Sans';-inkscape-font-specification:LiberationSans-Bold;writing-mode:lr-tb;fill:#000000;fill-opacity:1;fill-rule:nonzero;stroke:none"
       d="M 39.072266 5.0605469 L 39.072266 8.3574219 L 39.097656 8.4375 L 39.375 9.2460938 L 39.654297 10.058594 L 39.931641 10.869141 L 40.210938 11.677734 L 39.400391 11.677734 L 39.072266 11.677734 L 39.072266 13.453125 L 39.878906 13.453125 L 40.738281 13.453125 L 40.988281 14.173828 L 41.238281 14.894531 L 41.488281 15.615234 L 41.738281 16.333984 L 42.517578 16.333984 L 43.296875 16.333984 L 44.074219 16.333984 L 43.732422 15.394531 L 43.392578 14.457031 L 43.050781 13.517578 L 42.708984 12.576172 L 42.367188 11.636719 L 42.027344 10.697266 L 41.685547 9.7578125 L 41.34375 8.8183594 L 41.001953 7.8789062 L 40.660156 6.9394531 L 40.320312 6 L 39.978516 5.0605469 L 39.072266 5.0605469 z "
       id="path3434"
       transform="translate(0,768.89764)" />
    <path
       d="m 49.34085,783.53583 0.970686,-0.12934 0.875838,-0.43341 0.671071,-0.71002 0.450771,-0.87149 0.684702,0.25843 0.686335,0.25904 0.685216,0.25862 -0.342407,0.71377 -0.438487,0.6609 -0.538878,0.58098 -0.632468,0.47665 -0.714831,0.36435 -0.763565,0.24735 -0.791211,0.13791 -0.802772,0.0425 -0.920741,-0.0477 -0.906006,-0.15818 -0.873199,-0.2928 -0.805406,-0.44361 -0.703166,-0.59387 -0.576751,-0.73416 -0.426517,-0.83002 -0.279994,-0.89173 -0.151277,-0.9221 -0.04564,-0.93452 0.04279,-0.9213 0.14308,-0.91189 0.267054,-0.88204 0.412465,-0.82269 0.566788,-0.7266 0.693241,-0.58327 0.796346,-0.42978 0.862303,-0.28014 0.895112,-0.15017 0.905509,-0.0448 0.84356,0.0393 0.832322,0.13136 0.80565,0.2464 0.750867,0.38302 0.766301,0.62934 0.588874,0.79877 0.397041,0.90818 -0.692696,0.18916 -0.694347,0.18961 -0.693214,0.1893 -0.397139,-0.76665 -0.642989,-0.57752 -0.870116,-0.38675 -0.946108,-0.11731 -0.899811,0.0912 -0.842966,0.32041 -0.689522,0.58049 -0.407575,0.65046 -0.251269,0.72579 -0.128339,0.75985 -0.03692,0.76826 0.03844,0.78612 0.133027,0.77627 0.259679,0.74233 0.416961,0.66365 0.697093,0.5948 0.853342,0.33341 0.913868,0.0959 0,0"
       style="font-variant:normal;font-weight:bold;font-stretch:normal;font-size:medium;font-family:'Liberation Sans';-inkscape-font-specification:LiberationSans-Bold;writing-mode:lr-tb;fill:#000000;fill-opacity:1;fill-rule:nonzero;stroke:none"
       id="path3436"
       inkscape:connector-curvature="0" />
    <path
       d="m 59.647659,783.53583 0.970686,-0.12934 0.875837,-0.43341 0.671072,-0.71002 0.45077,-0.87149 0.684702,0.25843 0.686335,0.25904 0.685217,0.25862 -0.342407,0.71377 -0.438487,0.6609 -0.538878,0.58098 -0.632469,0.47665 -0.714831,0.36435 -0.763564,0.24735 -0.791211,0.13791 -0.802772,0.0425 -0.920741,-0.0477 -0.906007,-0.15818 -0.873198,-0.2928 -0.805406,-0.44361 -0.703167,-0.59387 -0.576751,-0.73416 -0.426516,-0.83002 -0.279994,-0.89173 -0.151277,-0.9221 -0.04564,-0.93452 0.04279,-0.9213 0.14308,-0.91189 0.267054,-0.88204 0.412464,-0.82269 0.566788,-0.7266 0.693241,-0.58327 0.796346,-0.42978 0.862304,-0.28014 0.895112,-0.15017 0.905509,-0.0448 0.84356,0.0393 0.832321,0.13136 0.80565,0.2464 0.750867,0.38302 0.766301,0.62934 0.588875,0.79877 0.39704,0.90818 -0.692696,0.18916 -0.694346,0.18961 -0.693214,0.1893 -0.39714,-0.76665 -0.642988,-0.57752 -0.870116,-0.38675 -0.946108,-0.11731 -0.899811,0.0912 -0.842966,0.32041 -0.689523,0.58049 -0.407574,0.65046 -0.251269,0.72579 -0.128339,0.75985 -0.03692,0.76826 0.03844,0.78612 0.133027,0.77627 0.259678,0.74233 0.416961,0.66365 0.697094,0.5948 0.853342,0.33341 0.913868,0.0959 0,0"
       style="font-variant:normal;font-weight:bold;font-stretch:normal;font-size:medium;font-family:'Liberation Sans';-inkscape-font-specification:LiberationSans-Bold;writing-mode:lr-tb;fill:#000000;fill-opacity:1;fill-rule:nonzero;stroke:none"
       id="path3438"
       inkscape:connector-curvature="0" />
    <path
       d="m 64.689811,785.23204 0,-0.93936 0,-0.94046 0,-0.93852 0,-0.93966 0,-0.94004 0,-0.93865 0,-0.93944 0,-0.93964 0,-0.94002 0,-0.93978 0,-0.93985 0,-0.93797 0.785942,0 0.787816,0 0.786533,0 0,0.93936 0,0.94046 0,0.93852 0,0.93966 0,0.94004 0,0.93866 0,0.93943 0,0.93964 0,0.94002 0,0.93978 0,0.93986 0,0.93796 -0.785943,0 -0.787816,0 -0.786532,0 0,0"
       style="font-variant:normal;font-weight:bold;font-stretch:normal;font-size:medium;font-family:'Liberation Sans';-inkscape-font-specification:LiberationSans-Bold;writing-mode:lr-tb;fill:#000000;fill-opacity:1;fill-rule:nonzero;stroke:none"
       id="path3440"
       inkscape:connector-curvature="0" />
    <path
       style="font-variant:normal;font-weight:bold;font-stretch:normal;font-size:medium;font-family:'Liberation Sans';-inkscape-font-specification:LiberationSans-Bold;writing-mode:lr-tb;fill:#000000;fill-opacity:1;fill-rule:nonzero;stroke:none"
       d="M 73.189453 4.9042969 L 72.986328 4.8925781 L 72.074219 4.9414062 L 71.173828 5.0996094 L 70.306641 5.390625 L 69.503906 5.828125 L 68.800781 6.4140625 L 68.220703 7.1269531 L 67.787109 7.9394531 L 67.5 8.8164062 L 67.34375 9.7246094 L 67.296875 10.646484 L 67.345703 11.576172 L 67.501953 12.494141 L 67.789062 13.380859 L 68.222656 14.205078 L 68.800781 14.933594 L 69.498047 15.527344 L 70.294922 15.978516 L 71.158203 16.279297 L 72.056641 16.445312 L 72.970703 16.494141 L 73.189453 16.484375 L 73.189453 14.615234 L 72.970703 14.638672 L 72.068359 14.53125 L 71.232422 14.175781 L 70.552734 13.574219 L 70.132812 12.919922 L 69.859375 12.189453 L 69.716797 11.423828 L 69.673828 10.646484 L 69.714844 9.8847656 L 69.853516 9.1328125 L 70.121094 8.4199219 L 70.537109 7.78125 L 71.228516 7.1855469 L 72.076172 6.8476562 L 72.986328 6.75 L 73.189453 6.7714844 L 73.189453 4.9042969 z "
       id="path5183"
       transform="translate(0,768.89764)" />
    <path
       style="font-variant:normal;font-weight:bold;font-stretch:normal;font-size:medium;font-family:'Liberation Sans';-inkscape-font-specification:LiberationSans-Bold;writing-mode:lr-tb;fill:#000000;fill-opacity:1;fill-rule:nonzero;stroke:none"
       d="M 73.189453 4.9042969 L 73.189453 6.7714844 L 73.888672 6.8496094 L 74.726562 7.1933594 L 75.410156 7.7890625 L 75.824219 8.4257812 L 76.091797 9.1386719 L 76.232422 9.8847656 L 76.273438 10.646484 L 76.234375 11.427734 L 76.097656 12.199219 L 75.830078 12.9375 L 75.410156 13.597656 L 74.724609 14.197266 L 73.878906 14.539062 L 73.189453 14.615234 L 73.189453 16.484375 L 73.751953 16.457031 L 74.527344 16.332031 L 75.28125 16.113281 L 75.994141 15.791016 L 76.792969 15.246094 L 77.462891 14.554688 L 77.986328 13.742188 L 78.304688 13.007812 L 78.521484 12.238281 L 78.644531 11.445312 L 78.681641 10.646484 L 78.634766 9.7265625 L 78.476562 8.8222656 L 78.185547 7.9511719 L 77.75 7.1425781 L 77.169922 6.4296875 L 76.470703 5.8398438 L 75.669922 5.3964844 L 74.802734 5.1015625 L 73.902344 4.9414062 L 73.189453 4.9042969 z "
       id="path5178"
       transform="translate(0,768.89764)" />
    <path
       style="font-variant:normal;font-weight:bold;font-stretch:normal;font-size:medium;font-family:'Liberation Sans';-inkscape-font-specification:LiberationSans-Bold;writing-mode:lr-tb;fill:#000000;fill-opacity:1;fill-rule:nonzero;stroke:none"
       d="m 71.59375,772.76873 1.585938,0 0.455078,-0.32421 0.679687,-0.48438 0.681641,-0.48437 0.679687,-0.48438 0,-0.34375 -0.689453,0 -0.6875,0 -0.6875,0 -0.671875,0.67773 -0.673828,0.67774 -0.671875,0.67773 0,0.0879 z"
       id="path3442"
       inkscape:connector-curvature="0" />
    <path
       d="m 85.810494,785.23204 -0.491264,-0.86811 -0.490999,-0.86765 -0.490834,-0.86735 -0.491082,-0.86779 -0.491404,-0.86836 -0.491873,-0.86919 -0.491148,-0.86791 -0.49118,-0.86796 -0.491744,-0.86896 -0.491078,-0.86779 0.07002,0.67624 0.05187,0.6776 0.02213,0.67841 0,0.94908 0,0.94963 0,0.95025 0,0.94949 0,0.95036 0,0.95074 0,0.94927 -0.698024,0 -0.699688,0 -0.698547,0 0,-0.93936 0,-0.94046 0,-0.93852 0,-0.93966 0,-0.94004 0,-0.93865 0,-0.93944 0,-0.93964 0,-0.94002 0,-0.93978 0,-0.93985 0,-0.93797 0.897839,0 0.89998,0 0.898514,0 0.415345,0.72936 0.414927,0.72862 0.415906,0.73034 0.415469,0.72957 0.415636,0.72986 0.415024,0.72879 0.415377,0.72941 0.415471,0.72958 0.415634,0.72986 0.415534,0.72968 0.415563,0.72974 0.414728,0.72827 -0.07576,-0.73177 -0.04998,-0.734 -0.01829,-0.7345 0,-0.93537 0,-0.93592 0,-0.93653 0,-0.93578 0,-0.93664 0,-0.93701 0,-0.93556 0.698024,0 0.699688,0 0.698548,0 0,0.93936 0,0.94046 0,0.93852 0,0.93966 0,0.94004 0,0.93866 0,0.93943 0,0.93964 0,0.94002 0,0.93978 0,0.93986 0,0.93796 -0.921818,0 -0.924014,0 -0.922508,0 0,0"
       style="font-variant:normal;font-weight:bold;font-stretch:normal;font-size:medium;font-family:'Liberation Sans';-inkscape-font-specification:LiberationSans-Bold;writing-mode:lr-tb;fill:#000000;fill-opacity:1;fill-rule:nonzero;stroke:none"
       id="path3444"
       inkscape:connector-curvature="0" />
    <g
       style="fill:#000000"
       transform="matrix(0.1363403,0,0,-0.1363403,7.1403925,781.31234)"
       id="g3366">
      <path
         inkscape:connector-curvature="0"
         id="path3368"
         style="fill:#000000;fill-opacity:1;fill-rule:nonzero;stroke:none"
         d="M0.0 0.0L-0.98989463 0.03645272L-1.9740052 0.14618025L-2.9471945 0.32925445L-3.9045832 0.58522244L-4.839384 0.91240343L-5.7462081 1.3086661L-6.6220096 1.7725513L-7.4605372 2.3006417L-8.2561178 2.8888646L-9.0064922 3.5352378L-9.7067695 4.2355528L-10.352726 4.9854881L-10.941132 5.7813409L-11.469159 6.6197955L-11.933088 7.4956893L-12.3298 8.403644L-12.656679 9.3377101L-12.912476 10.294338L-13.095748 11.268335L-13.205571 12.253334L-13.242001 13.243L-13.205551 14.233019L-13.095841 15.217232L-12.912796 16.190503L-12.656866 17.147953L-12.329733 18.082796L-11.933525 18.989644L-11.469701 19.865454L-10.941677 20.703976L-10.353525 21.499538L-9.7072237 22.249885L-9.0069816 22.950125L-8.2571186 23.596039L-7.4613359 24.184399L-6.6229478 24.712378L-5.7471155 25.176259L-4.8392159 25.572925L-3.9051971 25.899763L-2.9486074 26.155526L-1.9746388 26.338771L-0.98965748 26.448577L0.0 26.485L0.9900251 26.44856L1.9742559 26.338867L2.9475552 26.155848L3.9050435 25.899954L4.8399337 25.572861L5.7468373 25.176699L6.6227087 24.712923L7.461297 24.184947L8.2569296 23.596841L9.007348 22.950583L9.7076619 22.250377L10.353648 21.500542L10.942078 20.704778L11.470123 19.866395L11.934066 18.990554L12.330787 18.08263L12.657672 17.14857L12.913473 16.191919L13.096748 15.217869L13.206571 14.232785L13.243001 13.243001L13.206551 12.2531L13.096657 11.267745L12.913535 10.29462L12.657541 9.3372855L12.33035 8.4025312L11.934093 7.4957452L11.470227 6.6199742L10.942166 5.78147L10.353982 4.9859063L9.7076528 4.235543L9.0073847 3.5352718L8.2574968 2.8893175L7.4616889 2.3009095L6.623274 1.7728785L5.7474122 1.3089435L4.8394792 0.91222486L3.9054219 0.58533907L2.9487877 0.3295347L1.9747676 0.14625675L0.98972704 0.03643069L0.0 0.0" />
    </g>
    <g
       style="fill:#000000"
       transform="matrix(0.1363403,0,0,-0.1363403,11.00106,781.31234)"
       id="g3370">
      <path
         inkscape:connector-curvature="0"
         id="path3372"
         style="fill:#000000;fill-opacity:1;fill-rule:nonzero;stroke:none"
         d="M0.0 0.0L-0.98989463 0.03645272L-1.9740052 0.14618025L-2.9471945 0.32925445L-3.9045832 0.58522244L-4.839384 0.91240343L-5.7462081 1.3086661L-6.6220096 1.7725513L-7.4605372 2.3006417L-8.2561178 2.8888646L-9.0064922 3.5352378L-9.7067695 4.2355528L-10.352726 4.9854881L-10.941132 5.7813409L-11.469159 6.6197955L-11.933088 7.4956893L-12.3298 8.403644L-12.656679 9.3377101L-12.912476 10.294338L-13.095748 11.268335L-13.205571 12.253334L-13.242001 13.243L-13.205551 14.233019L-13.095841 15.217232L-12.912796 16.190503L-12.656866 17.147953L-12.329733 18.082796L-11.933525 18.989644L-11.469701 19.865454L-10.941677 20.703976L-10.353525 21.499538L-9.7072237 22.249885L-9.0069816 22.950125L-8.2571186 23.596039L-7.4613359 24.184399L-6.6229478 24.712378L-5.7471155 25.176259L-4.8392159 25.572925L-3.9051971 25.899763L-2.9486074 26.155526L-1.9746388 26.338771L-0.98965748 26.448577L0.0 26.485L0.9900251 26.44856L1.9742559 26.338867L2.9475552 26.155848L3.9050435 25.899954L4.8399337 25.572861L5.7468373 25.176699L6.6227087 24.712923L7.461297 24.184947L8.2569296 23.596841L9.007348 22.950583L9.7076619 22.250377L10.353648 21.500542L10.942078 20.704778L11.470123 19.866395L11.934066 18.990554L12.330787 18.08263L12.657672 17.14857L12.913473 16.191919L13.096748 15.217869L13.206571 14.232785L13.243001 13.243001L13.206551 12.2531L13.096657 11.267745L12.913535 10.29462L12.657541 9.3372855L12.33035 8.4025312L11.934093 7.4957452L11.470227 6.6199742L10.942166 5.78147L10.353982 4.9859063L9.7076528 4.235543L9.0073847 3.5352718L8.2574968 2.8893175L7.4616889 2.3009095L6.623274 1.7728785L5.7474122 1.3089435L4.8394792 0.91222486L3.9054219 0.58533907L2.9487877 0.3295347L1.9747676 0.14625675L0.98972704 0.03643069L0.0 0.0" />
    </g>
    <g
       style="fill:#000000"
       transform="matrix(0.1363403,0,0,-0.1363403,7.1403925,777.32711)"
       id="g3374">
      <path
         inkscape:connector-curvature="0"
         id="path3376"
         style="fill:#000000;fill-opacity:1;fill-rule:nonzero;stroke:none"
         d="M0.0 0.0L-0.98989463 0.03645272L-1.9740052 0.14618025L-2.9471945 0.32925445L-3.9045832 0.58522244L-4.839384 0.91240343L-5.7462081 1.3086661L-6.6220096 1.7725513L-7.4605372 2.3006417L-8.2561178 2.8888646L-9.0064922 3.5352378L-9.7067695 4.2355528L-10.352726 4.9854881L-10.941132 5.7813409L-11.469159 6.6197955L-11.933088 7.4956893L-12.3298 8.403644L-12.656679 9.3377101L-12.912476 10.294338L-13.095748 11.268335L-13.205571 12.253334L-13.242001 13.243L-13.205551 14.232901L-13.095841 15.217029L-12.912796 16.190247L-12.656866 17.147674L-12.329733 18.082522L-11.933525 18.989401L-11.469701 19.865264L-10.941677 20.703858L-10.353525 21.499509L-9.7072237 22.249956L-9.0069816 22.950306L-8.2571186 23.596335L-7.4613359 24.184811L-6.6229478 24.712905L-5.7471155 25.176895L-4.8392159 25.573662L-3.9051971 25.900588L-2.9486074 26.156424L-1.9746388 26.339725L-0.98965748 26.449565L0.0 26.486L0.9900251 26.44955L1.9742559 26.339823L2.9475552 26.156749L3.9050435 25.900781L4.8399337 25.5736L5.7468373 25.177337L6.6227087 24.713452L7.461297 24.185361L8.2569296 23.597138L9.007348 22.950765L9.7076619 22.25045L10.353648 21.500515L10.942078 20.704662L11.470123 19.866207L11.934066 18.990314L12.330787 18.082359L12.657672 17.148293L12.913473 16.191665L13.096748 15.217668L13.206571 14.232669L13.243001 13.243003L13.206551 12.253102L13.096657 11.267747L12.913535 10.294622L12.657541 9.3372855L12.33035 8.4025312L11.934093 7.4957452L11.470227 6.6199742L10.942166 5.78147L10.353982 4.9859063L9.7076528 4.235543L9.0073847 3.5352718L8.2574968 2.8893175L7.4616889 2.3009095L6.623274 1.7728785L5.7474122 1.3089435L4.8394792 0.91222486L3.9054219 0.58533907L2.9487877 0.3295347L1.9747676 0.14625675L0.98972704 0.03643069L0.0 0.0" />
    </g>
    <g
       style="fill:#000000"
       transform="matrix(0.1363403,0,0,-0.1363403,11.00106,777.32711)"
       id="g3378">
      <path
         inkscape:connector-curvature="0"
         id="path3380"
         style="fill:#000000;fill-opacity:1;fill-rule:nonzero;stroke:none"
         d="M0.0 0.0L-0.98989463 0.03645272L-1.9740052 0.14618025L-2.9471945 0.32925445L-3.9045832 0.58522244L-4.839384 0.91240343L-5.7462081 1.3086661L-6.6220096 1.7725513L-7.4605372 2.3006417L-8.2561178 2.8888646L-9.0064922 3.5352378L-9.7067695 4.2355528L-10.352726 4.9854881L-10.941132 5.7813409L-11.469159 6.6197955L-11.933088 7.4956893L-12.3298 8.403644L-12.656679 9.3377101L-12.912476 10.294338L-13.095748 11.268335L-13.205571 12.253334L-13.242001 13.243L-13.205551 14.232901L-13.095841 15.217029L-12.912796 16.190247L-12.656866 17.147674L-12.329733 18.082522L-11.933525 18.989401L-11.469701 19.865264L-10.941677 20.703858L-10.353525 21.499509L-9.7072237 22.249956L-9.0069816 22.950306L-8.2571186 23.596335L-7.4613359 24.184811L-6.6229478 24.712905L-5.7471155 25.176895L-4.8392159 25.573662L-3.9051971 25.900588L-2.9486074 26.156424L-1.9746388 26.339725L-0.98965748 26.449565L0.0 26.486L0.9900251 26.44955L1.9742559 26.339823L2.9475552 26.156749L3.9050435 25.900781L4.8399337 25.5736L5.7468373 25.177337L6.6227087 24.713452L7.461297 24.185361L8.2569296 23.597138L9.007348 22.950765L9.7076619 22.25045L10.353648 21.500515L10.942078 20.704662L11.470123 19.866207L11.934066 18.990314L12.330787 18.082359L12.657672 17.148293L12.913473 16.191665L13.096748 15.217668L13.206571 14.232669L13.243001 13.243003L13.206551 12.253102L13.096657 11.267747L12.913535 10.294622L12.657541 9.3372855L12.33035 8.4025312L11.934093 7.4957452L11.470227 6.6199742L10.942166 5.78147L10.353982 4.9859063L9.7076528 4.235543L9.0073847 3.5352718L8.2574968 2.8893175L7.4616889 2.3009095L6.623274 1.7728785L5.7474122 1.3089435L4.8394792 0.91222486L3.9054219 0.58533907L2.9487877 0.3295347L1.9747676 0.14625675L0.98972704 0.03643069L0.0 0.0" />
    </g>
    <g
       style="fill:#000000"
       transform="matrix(0.1363403,0,0,-0.1363403,7.1403925,785.22494)"
       id="g3382">
      <path
         inkscape:connector-curvature="0"
         id="path3384"
         style="fill:#000000;fill-opacity:1;fill-rule:nonzero;stroke:none"
         d="M0.0 0.0L-0.98989463 0.03644075L-1.9740052 0.14613362L-2.9471945 0.32915262L-3.9045832 0.58504732L-4.839384 0.91213986L-5.7462081 1.3083021L-6.6220096 1.7720779L-7.4605372 2.3000536L-8.2573249 2.8891239L-9.0075271 3.5353791L-9.7076409 4.2355628L-10.353444 4.9853582L-10.941709 5.7810675L-11.469607 6.6193798L-11.933421 7.4951371L-12.330034 8.402966L-12.65683 9.3369217L-12.912562 10.293459L-13.095787 11.267388L-13.20558 12.252346L-13.242 13.242L-13.20555 14.232025L-13.09584 15.216256L-12.912795 16.189555L-12.656865 17.147044L-12.329732 18.081934L-11.933524 18.988837L-11.4697 19.864709L-10.941676 20.703297L-10.353524 21.49893L-9.7072227 22.249348L-9.0069806 22.949662L-8.2571176 23.595648L-7.4613349 24.184078L-6.6229468 24.712123L-5.7471145 25.176066L-4.8392149 25.572787L-3.9051961 25.899672L-2.9486064 26.155473L-1.9746378 26.338748L-0.98965648 26.448571L0.0 26.485L0.9900251 26.44855L1.9742559 26.33884L2.9475552 26.155792L3.9050435 25.899859L4.8399337 25.572719L5.7468373 25.176502L6.6227087 24.712664L7.461297 24.184622L8.2569296 23.596446L9.007348 22.950115L9.7076619 22.249836L10.353648 21.499929L10.942078 20.704095L11.470123 19.865646L11.934066 18.989744L12.330787 18.081765L12.657672 17.147657L12.913473 16.190967L13.096748 15.216889L13.206571 14.231787L13.243001 13.241997L13.206551 12.251978L13.096841 11.267765L12.913793 10.294494L12.657862 9.3370472L12.330722 8.4022044L11.934505 7.4953559L11.470667 6.619546L10.942625 5.7810242L10.353485 4.9842545L9.7071574 4.2340806L9.0069007 3.5340032L8.257033 2.8882426L7.4612536 2.3000239L6.6228749 1.7721741L5.7470561 1.3084077L4.8391721 0.91184076L3.9051691 0.58508599L2.9485935 0.32938863L1.9746357 0.14619038L0.98966011 0.03641378L0.0 0.0" />
    </g>
    <g
       style="fill:#000000"
       transform="matrix(0.1363403,0,0,-0.1363403,11.00106,785.22494)"
       id="g3386">
      <path
         inkscape:connector-curvature="0"
         id="path3388"
         style="fill:#000000;fill-opacity:1;fill-rule:nonzero;stroke:none"
         d="M0.0 0.0L-0.98989463 0.03644075L-1.9740052 0.14613362L-2.9471945 0.32915262L-3.9045832 0.58504732L-4.839384 0.91213986L-5.7462081 1.3083021L-6.6220096 1.7720779L-7.4605372 2.3000536L-8.2573249 2.8891239L-9.0075271 3.5353791L-9.7076409 4.2355628L-10.353444 4.9853582L-10.941709 5.7810675L-11.469607 6.6193798L-11.933421 7.4951371L-12.330034 8.402966L-12.65683 9.3369217L-12.912562 10.293459L-13.095787 11.267388L-13.20558 12.252346L-13.242 13.242L-13.20555 14.232025L-13.09584 15.216256L-12.912795 16.189555L-12.656865 17.147044L-12.329732 18.081934L-11.933524 18.988837L-11.4697 19.864709L-10.941676 20.703297L-10.353524 21.49893L-9.7072227 22.249348L-9.0069806 22.949662L-8.2571176 23.595648L-7.4613349 24.184078L-6.6229468 24.712123L-5.7471145 25.176066L-4.8392149 25.572787L-3.9051961 25.899672L-2.9486064 26.155473L-1.9746378 26.338748L-0.98965648 26.448571L0.0 26.485L0.9900251 26.44855L1.9742559 26.33884L2.9475552 26.155792L3.9050435 25.899859L4.8399337 25.572719L5.7468373 25.176502L6.6227087 24.712664L7.461297 24.184622L8.2569296 23.596446L9.007348 22.950115L9.7076619 22.249836L10.353648 21.499929L10.942078 20.704095L11.470123 19.865646L11.934066 18.989744L12.330787 18.081765L12.657672 17.147657L12.913473 16.190967L13.096748 15.216889L13.206571 14.231787L13.243001 13.241997L13.206551 12.251978L13.096841 11.267765L12.913793 10.294494L12.657862 9.3370472L12.330722 8.4022044L11.934505 7.4953559L11.470667 6.619546L10.942625 5.7810242L10.353485 4.9842545L9.7071574 4.2340806L9.0069007 3.5340032L8.257033 2.8882426L7.4612536 2.3000239L6.6228749 1.7721741L5.7470561 1.3084077L4.8391721 0.91184076L3.9051691 0.58508599L2.9485935 0.32938863L1.9746357 0.14619038L0.98966011 0.03641378L0.0 0.0" />
    </g>
  </g>
</svg>
