<?xml version="1.0" encoding="UTF-8" standalone="no"?>
<!-- Created with Inkscape (http://www.inkscape.org/) -->

<svg
   xmlns:dc="http://purl.org/dc/elements/1.1/"
   xmlns:cc="http://creativecommons.org/ns#"
   xmlns:rdf="http://www.w3.org/1999/02/22-rdf-syntax-ns#"
   xmlns:svg="http://www.w3.org/2000/svg"
   xmlns="http://www.w3.org/2000/svg"
   xmlns:sodipodi="http://sodipodi.sourceforge.net/DTD/sodipodi-0.dtd"
   xmlns:inkscape="http://www.inkscape.org/namespaces/inkscape"
   width="100mm"
   height="80mm"
   viewBox="0 0 354.33071 283.46457"
   id="svg5680"
   version="1.1"
   inkscape:version="0.91 r13725"
   sodipodi:docname="logo_PCB_FLATv3.svg">
  <sodipodi:namedview
     id="base"
     pagecolor="#ffffff"
     bordercolor="#666666"
     borderopacity="1.0"
     inkscape:pageopacity="0.0"
     inkscape:pageshadow="2"
     inkscape:zoom="30.327416"
     inkscape:cx="26.899644"
     inkscape:cy="250.33373"
     inkscape:document-units="px"
     inkscape:current-layer="layer1"
     showgrid="false"
     inkscape:window-width="1366"
     inkscape:window-height="745"
     inkscape:window-x="-8"
     inkscape:window-y="-8"
     inkscape:window-maximized="1"
     units="mm" />
  <defs
     id="defs5682" />
  <metadata
     id="metadata5685">
    <rdf:RDF>
      <cc:Work
         rdf:about="">
        <dc:format>image/svg+xml</dc:format>
        <dc:type
           rdf:resource="http://purl.org/dc/dcmitype/StillImage" />
        <dc:title></dc:title>
      </cc:Work>
    </rdf:RDF>
  </metadata>
  <g
     id="layer1"
     inkscape:groupmode="layer"
     inkscape:label="Capa 1"
     transform="translate(0,-768.89764)">
    <path
       id="path6571"
       d="M 18.973489,799.51468 18.86384,799.51468 18.659039,799.51468 18.453786,799.51468 18.248985,799.51468 18.043732,799.51468 17.838479,799.51468 17.838479,799.73262 17.838479,799.95056 17.838479,800.1685 17.838479,800.38644 17.838479,800.60483 17.838479,800.82232 17.838479,801.04026 17.838479,801.2582 17.838479,801.47659 17.838479,801.69453 17.838479,801.91247 17.838479,802.12996 18.016093,802.12996 18.193254,802.12996 18.193254,801.91292 18.193254,801.69544 18.193254,801.47886 18.193254,801.26137 18.193254,801.04434 18.396696,801.04434 18.60059,801.04434 18.804483,801.04434 18.973489,801.04434 18.973489,800.76387 18.834841,800.76387 18.620979,800.76387 18.407117,800.76387 18.193254,800.76387 18.193254,800.57085 18.193254,800.37783 18.193254,800.18481 18.193254,799.99179 18.193254,799.79878 18.403039,799.79878 18.613729,799.79878 18.823967,799.79878 18.973489,799.79878 18.973489,799.51468 18.973489,799.51468"
       style="font-variant:normal;font-weight:normal;font-stretch:normal;font-size:medium;font-family:'Liberation Sans';-inkscape-font-specification:LiberationSans-Regular;writing-mode:lr-tb;fill:#000000;fill-opacity:1;fill-rule:nonzero;stroke:none"
       inkscape:connector-curvature="0" />
    <path
       id="path3447"
       d="M 18.973489,799.51468 18.973489,799.79878 19.034199,799.79878 19.190517,799.80878 19.342305,799.84508 19.479594,799.91938 19.599665,800.07343 19.635465,800.26645 19.600125,800.46853 19.481413,800.63436 19.277519,800.73722 19.048704,800.76392 18.973494,800.76392 18.973494,801.04439 19.007924,801.04439 19.121199,801.22563 19.234474,801.40642 19.347748,801.5872 19.461022,801.76844 19.573843,801.94923 19.687571,802.13001 19.891465,802.13001 20.095812,802.13001 19.971664,801.94243 19.848421,801.75439 19.724272,801.56681 19.600577,801.37877 19.47688,801.19164 19.353185,801.00361 19.527627,800.95651 19.687571,800.87361 19.820782,800.75309 19.918202,800.60583 19.974382,800.43863 19.991602,800.26284 19.968042,800.05758 19.887842,799.86728 19.750553,799.71368 19.597859,799.61668 19.427494,799.55548 19.24988,799.52418 19.069093,799.51418 18.973493,799.51418 18.973493,799.51418"
       style="font-variant:normal;font-weight:normal;font-stretch:normal;font-size:medium;font-family:'Liberation Sans';-inkscape-font-specification:LiberationSans-Regular;writing-mode:lr-tb;fill:#000000;fill-opacity:1;fill-rule:nonzero;stroke:none"
       inkscape:connector-curvature="0" />
    <path
       inkscape:export-ydpi="2400.1799"
       inkscape:export-xdpi="2400.1799"
       d="M 20.229692,802.13012 20.229692,801.91236 20.229692,801.69448 20.229692,801.47661 20.229692,801.25837 20.229692,801.04026 20.229692,800.8223 20.229692,800.60462 20.229692,800.38661 20.229692,800.16853 20.229692,799.95051 20.229692,799.73246 20.229692,799.51485 20.428112,799.51485 20.626552,799.51485 20.824865,799.51485 21.023421,799.51485 21.221787,799.51485 21.42041,799.51485 21.618732,799.51485 21.81706,799.51485 22.015609,799.51485 22.213883,799.51485 22.213883,799.65962 22.213883,799.80441 22.009957,799.80441 21.806307,799.80441 21.602633,799.80441 21.399047,799.80441 21.195387,799.80441 20.991599,799.80441 20.788101,799.80441 20.584211,799.80441 20.584211,800.01395 20.584211,800.22376 20.584211,800.43375 20.584211,800.64337 20.7742,800.64337 20.963934,800.64337 21.15369,800.64337 21.343363,800.64337 21.533375,800.64337 21.723158,800.64337 21.91266,800.64337 22.102515,800.64337 22.102515,800.78629 22.102515,800.92921 21.912526,800.92921 21.722792,800.92921 21.533036,800.92921 21.343363,800.92921 21.153351,800.92921 20.963567,800.92921 20.774066,800.92921 20.584211,800.92921 20.584211,801.15683 20.584211,801.38475 20.584211,801.61286 20.584211,801.84057 20.797659,801.84057 21.010819,801.84057 21.224005,801.84057 21.437097,801.84057 21.650267,801.84057 21.863571,801.84057 22.076572,801.84057 22.289984,801.84057 22.289984,801.98535 22.289984,802.13012 22.083953,802.13012 21.877902,802.13012 21.671983,802.13012 21.465812,802.13012 21.259838,802.13012 21.053597,802.13012 20.847669,802.13012 20.641734,802.13012 20.43557,802.13012 20.229692,802.13012 20.229692,802.13012"
       style="font-variant:normal;font-weight:normal;font-stretch:normal;font-size:medium;font-family:'Liberation Sans';-inkscape-font-specification:LiberationSans-Regular;writing-mode:lr-tb;fill:#000000;fill-opacity:1;fill-rule:nonzero;stroke:none"
       id="path3449"
       inkscape:connector-curvature="0" />
    <path
       id="path7379"
       d="M 23.460517,799.51468 23.363557,799.51468 23.148336,799.51468 23.084906,799.68957 23.021476,799.86357 22.957586,800.03756 22.894156,800.21245 22.830726,800.38644 22.766836,800.56088 22.703406,800.73533 22.639516,800.90977 22.576086,801.08421 22.512656,801.2582 22.448766,801.43264 22.385336,801.60708 22.321906,801.78153 22.258016,801.95597 22.194586,802.12996 22.377185,802.12996 22.559783,802.12996 22.741928,802.12996 22.799928,801.96322 22.857928,801.79603 22.915928,801.62884 22.973928,801.46209 23.173291,801.46209 23.373107,801.46209 23.460557,801.46209 23.460557,801.04977 23.284302,801.04977 23.09672,801.04977 23.16106,800.86219 23.2254,800.67416 23.28974,800.48657 23.35317,800.29899 23.4157,800.11051 23.46056,799.95826 23.46056,799.51468 23.46056,799.51468"
       style="font-variant:normal;font-weight:bold;font-stretch:normal;font-size:medium;font-family:'Liberation Sans';-inkscape-font-specification:LiberationSans-Bold;writing-mode:lr-tb;fill:#000000;fill-opacity:1;fill-rule:nonzero;stroke:none"
       inkscape:connector-curvature="0" />
    <path
       id="path3434"
       d="M 23.460517,799.51468 23.460517,799.95826 23.471397,799.91746 23.510367,800.04568 23.550237,800.17209 23.590107,800.29806 23.654897,800.48609 23.719237,800.67413 23.784027,800.86216 23.848367,801.04974 23.660331,801.04974 23.472296,801.04974 23.460516,801.04974 23.460516,801.46206 23.571978,801.46206 23.771341,801.46206 23.970704,801.46206 24.028704,801.62881 24.086704,801.796 24.144704,801.96319 24.202704,802.12993 24.38349,802.12993 24.564275,802.12993 24.744608,802.12993 24.665768,801.91199 24.586478,801.6945 24.507188,801.47656 24.427898,801.25817 24.348608,801.04023 24.269768,800.82274 24.190478,800.6048 24.111188,800.38641 24.031898,800.16847 23.952608,799.95053 23.873768,799.73259 23.794478,799.51465 23.579257,799.51465 23.460545,799.51465 23.460545,799.51465"
       style="font-variant:normal;font-weight:bold;font-stretch:normal;font-size:medium;font-family:'Liberation Sans';-inkscape-font-specification:LiberationSans-Bold;writing-mode:lr-tb;fill:#000000;fill-opacity:1;fill-rule:nonzero;stroke:none"
       inkscape:connector-curvature="0" />
    <path
       inkscape:export-ydpi="2400.1799"
       inkscape:export-xdpi="2400.1799"
       d="M 25.966476,801.73662 26.191662,801.70662 26.394844,801.60608 26.550524,801.44137 26.655097,801.2392 26.813938,801.2991 26.973158,801.3592 27.132118,801.4192 27.052688,801.58478 26.950965,801.73811 26.825953,801.87288 26.679229,801.98346 26.513398,802.06796 26.336261,802.12536 26.152711,802.15736 25.966479,802.16736 25.75288,802.15626 25.542698,802.11956 25.340129,802.05166 25.153286,801.94875 24.990161,801.81098 24.856363,801.64066 24.757423,801.44811 24.692463,801.24124 24.657363,801.02733 24.646773,800.81053 24.656673,800.5968 24.689863,800.38525 24.751813,800.18064 24.847503,799.98978 24.978991,799.82122 25.139813,799.68591 25.324554,799.58621 25.524596,799.52121 25.732249,799.48641 25.942315,799.47601 26.138009,799.48501 26.331096,799.51551 26.517996,799.57271 26.692187,799.66161 26.869958,799.8076 27.006568,799.99291 27.098678,800.20359 26.937982,800.24749 26.776903,800.29149 26.616086,800.33539 26.523956,800.15754 26.374793,800.02357 26.172937,799.93387 25.953452,799.90667 25.74471,799.92787 25.549153,800.00217 25.389193,800.13684 25.294643,800.28774 25.236353,800.45611 25.206583,800.63238 25.197983,800.81061 25.206883,800.99298 25.237743,801.17306 25.297983,801.34527 25.394713,801.49923 25.556428,801.63722 25.754391,801.71452 25.966396,801.73672 25.966396,801.73672"
       style="font-variant:normal;font-weight:bold;font-stretch:normal;font-size:medium;font-family:'Liberation Sans';-inkscape-font-specification:LiberationSans-Bold;writing-mode:lr-tb;fill:#000000;fill-opacity:1;fill-rule:nonzero;stroke:none"
       id="path3436"
       inkscape:connector-curvature="0" />
    <path
       inkscape:export-ydpi="2400.1799"
       inkscape:export-xdpi="2400.1799"
       d="M 28.357513,801.73662 28.582699,801.70662 28.78588,801.60608 28.941559,801.44137 29.046132,801.2392 29.204973,801.2991 29.364194,801.3592 29.523155,801.4192 29.443725,801.58478 29.342003,801.73811 29.216991,801.87288 29.070266,801.98346 28.904436,802.06796 28.727299,802.12536 28.543749,802.15736 28.357517,802.16736 28.143918,802.15626 27.933737,802.11956 27.731167,802.05166 27.544324,801.94875 27.381199,801.81098 27.247401,801.64066 27.148451,801.44811 27.083501,801.24124 27.048411,801.02733 27.037821,800.81053 27.047721,800.5968 27.080911,800.38525 27.142861,800.18064 27.238541,799.98978 27.370027,799.82122 27.53085,799.68591 27.715591,799.58621 27.915634,799.52121 28.123289,799.48641 28.333354,799.47601 28.529048,799.48501 28.722135,799.51551 28.909034,799.57271 29.083224,799.66161 29.260996,799.8076 29.397606,799.99291 29.489716,800.20359 29.32902,800.24749 29.16794,800.29149 29.007124,800.33539 28.914994,800.15754 28.765831,800.02357 28.563975,799.93387 28.344491,799.90667 28.135747,799.92787 27.94019,800.00217 27.780231,800.13684 27.685681,800.28774 27.627391,800.45611 27.597621,800.63238 27.589021,800.81061 27.597921,800.99298 27.628781,801.17306 27.689021,801.34527 27.785751,801.49923 27.947468,801.63722 28.145432,801.71452 28.357437,801.73672 28.357437,801.73672"
       style="font-variant:normal;font-weight:bold;font-stretch:normal;font-size:medium;font-family:'Liberation Sans';-inkscape-font-specification:LiberationSans-Bold;writing-mode:lr-tb;fill:#000000;fill-opacity:1;fill-rule:nonzero;stroke:none"
       id="path3438"
       inkscape:connector-curvature="0" />
    <path
       inkscape:export-ydpi="2400.1799"
       inkscape:export-xdpi="2400.1799"
       d="M 29.527222,802.13012 29.527222,801.91236 29.527222,801.69448 29.527222,801.47661 29.527222,801.25837 29.527222,801.04026 29.527222,800.8223 29.527222,800.60462 29.527222,800.38661 29.527222,800.16853 29.527222,799.95051 29.527222,799.73246 29.527222,799.51485 29.709549,799.51485 29.892312,799.51485 30.074776,799.51485 30.074776,799.73261 30.074776,799.95048 30.074776,800.16836 30.074776,800.38661 30.074776,800.60471 30.074776,800.82267 30.074776,801.04035 30.074776,801.25836 30.074776,801.47644 30.074776,801.69447 30.074776,801.91251 30.074776,802.13012 29.892448,802.13012 29.709686,802.13012 29.527222,802.13012 29.527222,802.13012"
       style="font-variant:normal;font-weight:bold;font-stretch:normal;font-size:medium;font-family:'Liberation Sans';-inkscape-font-specification:LiberationSans-Bold;writing-mode:lr-tb;fill:#000000;fill-opacity:1;fill-rule:nonzero;stroke:none"
       id="path3440"
       inkscape:connector-curvature="0" />
    <path
       id="path7384"
       d="M 31.432321,799.47662 31.239754,799.48702 31.031331,799.52372 30.830155,799.59122 30.644384,799.69317 30.481269,799.82865 30.346246,799.99448 30.245658,800.18297 30.179048,800.38596 30.142798,800.59665 30.131928,800.81051 30.142798,801.02619 30.179498,801.23959 30.246558,801.44485 30.347146,801.63605 30.481263,801.80506 30.642566,801.9428 30.82743,802.04747 31.027699,802.11727 31.236125,802.15537 31.432315,802.16627 31.432315,801.73492 31.238844,801.71182 31.04537,801.62932 30.887691,801.48977 30.790271,801.33798 30.726841,801.16897 30.693311,800.9909 30.683311,800.81057 30.692811,800.63341 30.724981,800.45942 30.787061,800.29359 30.883571,800.14588 31.044421,800.00768 31.240611,799.92928 31.432271,799.90888 31.432271,799.47662 31.432271,799.47662"
       style="font-variant:normal;font-weight:bold;font-stretch:normal;font-size:medium;font-family:'Liberation Sans';-inkscape-font-specification:LiberationSans-Bold;writing-mode:lr-tb;fill:#000000;fill-opacity:1;fill-rule:nonzero;stroke:none"
       inkscape:connector-curvature="0" />
    <path
       id="path5763"
       d="M 31.432321,799.47662 31.432321,799.90888 31.451801,799.90688 31.661132,799.92998 31.855511,800.00968 32.014094,800.14788 32.110154,800.29559 32.172224,800.46052 32.205304,800.6345 32.214804,800.81076 32.205304,800.99245 32.173584,801.17143 32.111964,801.34225 32.014094,801.49539 31.855058,801.63449 31.658866,801.71379 31.448176,801.73689 31.432316,801.73489 31.432316,802.16624 31.448176,802.16714 31.629867,802.15814 31.809295,802.12964 31.983737,802.07894 32.149572,802.00414 32.334435,801.87818 32.490302,801.71733 32.611732,801.52884 32.685582,801.35848 32.736332,801.1795 32.764422,800.996 32.773522,800.81068 32.762192,800.59727 32.725492,800.38749 32.657982,800.18495 32.556943,799.99782 32.422373,799.83244 32.259711,799.69561 32.073941,799.59276 31.873218,799.52436 31.663887,799.48716 31.451837,799.47586 31.432357,799.47677 31.432357,799.47677"
       style="font-variant:normal;font-weight:bold;font-stretch:normal;font-size:medium;font-family:'Liberation Sans';-inkscape-font-specification:LiberationSans-Bold;writing-mode:lr-tb;fill:#000000;fill-opacity:1;fill-rule:nonzero;stroke:none"
       inkscape:connector-curvature="0" />
    <path
       id="path3442"
       d="M 31.604044,798.76118 31.448342,798.91824 31.292269,799.07567 31.136448,799.23286 31.136448,799.29036 31.294127,799.29036 31.451805,799.29036 31.609447,799.1781 31.767286,799.0657 31.925271,798.95319 32.08297,798.84088 32.08297,798.76118 31.923494,798.76118 31.763639,798.76118 31.604044,798.76118 31.604044,798.76118"
       style="font-variant:normal;font-weight:bold;font-stretch:normal;font-size:medium;font-family:'Liberation Sans';-inkscape-font-specification:LiberationSans-Bold;writing-mode:lr-tb;fill:#000000;fill-opacity:1;fill-rule:nonzero;stroke:none"
       inkscape:connector-curvature="0" />
    <path
       inkscape:export-ydpi="2400.1799"
       inkscape:export-xdpi="2400.1799"
       d="M 34.426926,802.13012 34.31296,801.92873 34.198983,801.72732 34.085078,801.52604 33.971034,801.32451 33.857098,801.12318 33.743221,800.92194 33.629267,800.72058 33.515306,800.51919 33.401213,800.31758 33.287271,800.11623 33.303511,800.27312 33.315541,800.4303 33.320641,800.58769 33.320641,800.7807 33.320641,800.97344 33.320641,801.16621 33.320641,801.3589 33.320641,801.55193 33.320641,801.74474 33.320641,801.93725 33.320641,802.13012 33.15871,802.13012 32.996392,802.13012 32.834338,802.13012 32.834338,801.91236 32.834338,801.69448 32.834338,801.47661 32.834338,801.25837 32.834338,801.04026 32.834338,800.8223 32.834338,800.60462 32.834338,800.38661 32.834338,800.16853 32.834338,799.95051 32.834338,799.73246 32.834338,799.51485 33.042625,799.51485 33.251407,799.51485 33.459849,799.51485 33.556329,799.68426 33.652629,799.85336 33.748899,800.02241 33.845309,800.19171 33.941739,800.36105 34.037969,800.53004 34.134289,800.69918 34.230749,800.86858 34.327179,801.0379 34.423579,801.20718 34.519989,801.37648 34.616209,801.54544 34.598639,801.37568 34.587049,801.2054 34.582849,801.03501 34.582849,800.84479 34.582849,800.65482 34.582849,800.46484 34.582849,800.27493 34.582849,800.08469 34.582849,799.89467 34.582849,799.70494 34.582849,799.51485 34.744779,799.51485 34.907098,799.51485 35.069152,799.51485 35.069152,799.73261 35.069152,799.95048 35.069152,800.16836 35.069152,800.38661 35.069152,800.60471 35.069152,800.82267 35.069152,801.04035 35.069152,801.25836 35.069152,801.47644 35.069152,801.69447 35.069152,801.91251 35.069152,802.13012 34.855302,802.13012 34.640945,802.13012 34.426936,802.13012 34.426936,802.13012"
       style="font-variant:normal;font-weight:bold;font-stretch:normal;font-size:medium;font-family:'Liberation Sans';-inkscape-font-specification:LiberationSans-Bold;writing-mode:lr-tb;fill:#000000;fill-opacity:1;fill-rule:nonzero;stroke:none"
       id="path3444"
       inkscape:connector-curvature="0" />
    <path
       d="M 16.176555,801.2208 16.047107,801.2004 15.930369,801.1408 15.837699,801.0481 15.778109,800.93132 15.757719,800.80188 15.778109,800.67242 15.837679,800.55568 15.930349,800.46298 16.04711,800.40338 16.176552,800.38298 16.306016,800.40338 16.422763,800.46298 16.515443,800.55568 16.575033,800.67244 16.595423,800.80189 16.575033,800.93134 16.515463,801.04809 16.422793,801.14079 16.306024,801.20039 16.176566,801.22079"
       style="fill:#000000;fill-opacity:1;fill-rule:nonzero;stroke:none"
       id="path3368"
       inkscape:connector-curvature="0" />
    <path
       d="M 17.072177,801.2208 16.942728,801.2004 16.825991,801.1408 16.733321,801.0481 16.673731,800.93132 16.653341,800.80188 16.673731,800.67242 16.733301,800.55568 16.825971,800.46298 16.942731,800.40338 17.072174,800.38298 17.201638,800.40338 17.318385,800.46298 17.411065,800.55568 17.470655,800.67244 17.491045,800.80189 17.470655,800.93134 17.411085,801.04809 17.318415,801.14079 17.201645,801.20039 17.072187,801.22079"
       style="fill:#000000;fill-opacity:1;fill-rule:nonzero;stroke:none"
       id="path3372"
       inkscape:connector-curvature="0" />
    <path
       d="M 16.176555,800.29629 16.047107,800.27589 15.930369,800.21629 15.837699,800.12359 15.778109,800.00683 15.757719,799.87738 15.778109,799.74793 15.837679,799.63119 15.930349,799.53849 16.04711,799.47889 16.176552,799.45849 16.306016,799.47889 16.422763,799.53849 16.515443,799.63119 16.575033,799.74796 16.595423,799.8774 16.575033,800.00685 16.515463,800.1236 16.422793,800.2163 16.306024,800.2759 16.176566,800.2963"
       style="fill:#000000;fill-opacity:1;fill-rule:nonzero;stroke:none"
       id="path3376"
       inkscape:connector-curvature="0" />
    <path
       d="M 17.072177,800.29629 16.942728,800.27589 16.825991,800.21629 16.733321,800.12359 16.673731,800.00683 16.653341,799.87738 16.673731,799.74793 16.733301,799.63119 16.825971,799.53849 16.942731,799.47889 17.072174,799.45849 17.201638,799.47889 17.318385,799.53849 17.411065,799.63119 17.470655,799.74796 17.491045,799.8774 17.470655,800.00685 17.411085,800.1236 17.318415,800.2163 17.201645,800.2759 17.072187,800.2963"
       style="fill:#000000;fill-opacity:1;fill-rule:nonzero;stroke:none"
       id="path3380"
       inkscape:connector-curvature="0" />
    <path
       d="M 16.176555,802.12847 16.047107,802.10807 15.930369,802.04847 15.837669,801.95577 15.778099,801.83903 15.757719,801.70959 15.778109,801.58013 15.837679,801.46338 15.930349,801.37068 16.047109,801.31108 16.176551,801.29068 16.306016,801.31108 16.422763,801.37068 16.515443,801.46338 16.575033,801.58015 16.595423,801.70961 16.575033,801.83908 16.515463,801.95581 16.422753,802.04851 16.305998,802.10811 16.176563,802.12851"
       style="fill:#000000;fill-opacity:1;fill-rule:nonzero;stroke:none"
       id="path3384"
       inkscape:connector-curvature="0" />
    <path
       d="M 17.072177,802.12847 16.942728,802.10807 16.825991,802.04847 16.733291,801.95577 16.673721,801.83903 16.653341,801.70959 16.673731,801.58013 16.733301,801.46338 16.825971,801.37068 16.942731,801.31108 17.072173,801.29068 17.201637,801.31108 17.318385,801.37068 17.411065,801.46338 17.470655,801.58015 17.491045,801.70961 17.470655,801.83908 17.411085,801.95581 17.318375,802.04851 17.201621,802.10811 17.072186,802.12851"
       style="fill:#000000;fill-opacity:1;fill-rule:nonzero;stroke:none"
       id="path3388"
       inkscape:connector-curvature="0" />
  </g>
</svg>
