<?xml version="1.0" encoding="UTF-8" standalone="no"?>
<!-- Created with Inkscape (http://www.inkscape.org/) -->

<svg
   xmlns:dc="http://purl.org/dc/elements/1.1/"
   xmlns:cc="http://creativecommons.org/ns#"
   xmlns:rdf="http://www.w3.org/1999/02/22-rdf-syntax-ns#"
   xmlns:svg="http://www.w3.org/2000/svg"
   xmlns="http://www.w3.org/2000/svg"
   xmlns:sodipodi="http://sodipodi.sourceforge.net/DTD/sodipodi-0.dtd"
   xmlns:inkscape="http://www.inkscape.org/namespaces/inkscape"
   width="100mm"
   height="80mm"
   viewBox="0 0 354.33071 283.46457"
   id="svg5680"
   version="1.1"
   inkscape:version="0.91 r13725"
   sodipodi:docname="logo_PCB_FLATv2.svg">
  <sodipodi:namedview
     id="base"
     pagecolor="#ffffff"
     bordercolor="#666666"
     borderopacity="1.0"
     inkscape:pageopacity="0.0"
     inkscape:pageshadow="2"
     inkscape:zoom="5.9466406"
     inkscape:cx="92.401941"
     inkscape:cy="262.89617"
     inkscape:document-units="px"
     inkscape:current-layer="layer1"
     showgrid="false"
     inkscape:window-width="1600"
     inkscape:window-height="838"
     inkscape:window-x="-8"
     inkscape:window-y="-8"
     inkscape:window-maximized="1" />
  <defs
     id="defs5682" />
  <metadata
     id="metadata5685">
    <rdf:RDF>
      <cc:Work
         rdf:about="">
        <dc:format>image/svg+xml</dc:format>
        <dc:type
           rdf:resource="http://purl.org/dc/dcmitype/StillImage" />
        <dc:title></dc:title>
      </cc:Work>
    </rdf:RDF>
  </metadata>
  <g
     id="layer1"
     inkscape:groupmode="layer"
     inkscape:label="Capa 1"
     transform="translate(0,-768.89764)">
    <path
       id="path6571"
       d="M 18.973489,799.51468 18.86384,799.51468 18.659039,799.51468 18.453786,799.51468 18.248985,799.51468 18.043732,799.51468 17.838479,799.51468 17.838479,799.73262 17.838479,799.95056 17.838479,800.1685 17.838479,800.38644 17.838479,800.60483 17.838479,800.82232 17.838479,801.04026 17.838479,801.2582 17.838479,801.47659 17.838479,801.69453 17.838479,801.91247 17.838479,802.12996 18.016093,802.12996 18.193254,802.12996 18.193254,801.91292 18.193254,801.69544 18.193254,801.47886 18.193254,801.26137 18.193254,801.04434 18.396696,801.04434 18.60059,801.04434 18.804483,801.04434 18.973489,801.04434 18.973489,800.76387 18.834841,800.76387 18.620979,800.76387 18.407117,800.76387 18.193254,800.76387 18.193254,800.57085 18.193254,800.37783 18.193254,800.18481 18.193254,799.99179 18.193254,799.79878 18.403039,799.79878 18.613729,799.79878 18.823967,799.79878 18.973489,799.79878 18.973489,799.51468 18.973489,799.51468"
       style="font-variant:normal;font-weight:normal;font-stretch:normal;font-size:medium;font-family:'Liberation Sans';-inkscape-font-specification:LiberationSans-Regular;writing-mode:lr-tb;fill:#000000;fill-opacity:1;fill-rule:nonzero;stroke:none"
       inkscape:connector-curvature="0" />
    <path
       id="path3447"
       d="M 18.973489,799.51468 18.973489,799.79878 19.034204,799.79878 19.190522,799.80874 19.34231,799.84499 19.479599,799.9193 19.59967,800.07335 19.635465,800.26637 19.600124,800.46845 19.481412,800.63428 19.277518,800.73714 19.048703,800.76387 18.973489,800.76387 18.973489,801.04434 19.007924,801.04434 19.121199,801.22558 19.234474,801.40637 19.347748,801.58715 19.461022,801.76839 19.573843,801.94918 19.687571,802.12996 19.891465,802.12996 20.095812,802.12996 19.971664,801.94238 19.848421,801.75434 19.724272,801.56676 19.600577,801.37872 19.47688,801.19159 19.353185,801.00356 19.527627,800.95644 19.687571,800.87352 19.820782,800.753 19.918198,800.60574 19.974382,800.43854 19.9916,800.26275 19.968039,800.05749 19.887841,799.86719 19.750552,799.71359 19.597858,799.61663 19.427493,799.55546 19.249879,799.5242 19.069092,799.51468 18.973489,799.51468 18.973489,799.51468"
       style="font-variant:normal;font-weight:normal;font-stretch:normal;font-size:medium;font-family:'Liberation Sans';-inkscape-font-specification:LiberationSans-Regular;writing-mode:lr-tb;fill:#000000;fill-opacity:1;fill-rule:nonzero;stroke:none"
       inkscape:connector-curvature="0" />
    <path
       inkscape:export-ydpi="2400.1799"
       inkscape:export-xdpi="2400.1799"
       d="M 20.229692,802.13012 20.229692,801.91236 20.229692,801.69448 20.229692,801.47661 20.229692,801.25837 20.229692,801.04026 20.229692,800.8223 20.229692,800.60462 20.229692,800.38661 20.229692,800.16853 20.229692,799.95051 20.229692,799.73246 20.229692,799.51485 20.428112,799.51485 20.626552,799.51485 20.824865,799.51485 21.023421,799.51485 21.221787,799.51485 21.42041,799.51485 21.618732,799.51485 21.81706,799.51485 22.015609,799.51485 22.213883,799.51485 22.213883,799.65962 22.213883,799.80441 22.009957,799.80441 21.806307,799.80441 21.602633,799.80441 21.399047,799.80441 21.195387,799.80441 20.991599,799.80441 20.788101,799.80441 20.584211,799.80441 20.584211,800.01395 20.584211,800.22376 20.584211,800.43375 20.584211,800.64337 20.7742,800.64337 20.963934,800.64337 21.15369,800.64337 21.343363,800.64337 21.533375,800.64337 21.723158,800.64337 21.91266,800.64337 22.102515,800.64337 22.102515,800.78629 22.102515,800.92921 21.912526,800.92921 21.722792,800.92921 21.533036,800.92921 21.343363,800.92921 21.153351,800.92921 20.963567,800.92921 20.774066,800.92921 20.584211,800.92921 20.584211,801.15683 20.584211,801.38475 20.584211,801.61286 20.584211,801.84057 20.797659,801.84057 21.010819,801.84057 21.224005,801.84057 21.437097,801.84057 21.650267,801.84057 21.863571,801.84057 22.076572,801.84057 22.289984,801.84057 22.289984,801.98535 22.289984,802.13012 22.083953,802.13012 21.877902,802.13012 21.671983,802.13012 21.465812,802.13012 21.259838,802.13012 21.053597,802.13012 20.847669,802.13012 20.641734,802.13012 20.43557,802.13012 20.229692,802.13012 20.229692,802.13012"
       style="font-variant:normal;font-weight:normal;font-stretch:normal;font-size:medium;font-family:'Liberation Sans';-inkscape-font-specification:LiberationSans-Regular;writing-mode:lr-tb;fill:#000000;fill-opacity:1;fill-rule:nonzero;stroke:none"
       id="path3449"
       inkscape:connector-curvature="0" />
    <path
       id="path7379"
       d="M 23.460517,799.51468 23.363554,799.51468 23.148333,799.51468 23.084899,799.68957 23.021465,799.86357 22.957578,800.03756 22.894145,800.21245 22.830711,800.38644 22.766824,800.56088 22.703391,800.73533 22.639504,800.90977 22.57607,801.08421 22.512636,801.2582 22.44875,801.43264 22.385316,801.60708 22.321882,801.78153 22.257996,801.95597 22.194562,802.12996 22.377161,802.12996 22.559759,802.12996 22.741904,802.12996 22.7999,801.96322 22.857897,801.79603 22.915894,801.62884 22.97389,801.46209 23.173253,801.46209 23.373069,801.46209 23.460517,801.46209 23.460517,801.04977 23.284262,801.04977 23.09668,801.04977 23.16102,800.86219 23.22536,800.67416 23.289699,800.48657 23.353133,800.29899 23.415661,800.11051 23.460517,799.95826 23.460517,799.51468 23.460517,799.51468"
       style="font-variant:normal;font-weight:bold;font-stretch:normal;font-size:medium;font-family:'Liberation Sans';-inkscape-font-specification:LiberationSans-Bold;writing-mode:lr-tb;fill:#000000;fill-opacity:1;fill-rule:nonzero;stroke:none"
       inkscape:connector-curvature="0" />
    <path
       id="path3434"
       d="M 23.460517,799.51468 23.460517,799.95826 23.471392,799.91749 23.510358,800.04571 23.550231,800.17212 23.590103,800.29809 23.654896,800.48612 23.719236,800.67416 23.784029,800.86219 23.848369,801.04977 23.660333,801.04977 23.472298,801.04977 23.460517,801.04977 23.460517,801.46209 23.571979,801.46209 23.771342,801.46209 23.970705,801.46209 24.028702,801.62884 24.086698,801.79603 24.144695,801.96322 24.202692,802.12996 24.383478,802.12996 24.564263,802.12996 24.744596,802.12996 24.665757,801.91202 24.586465,801.69453 24.507174,801.47659 24.427882,801.2582 24.348589,801.04026 24.26975,800.82277 24.190458,800.60483 24.111166,800.38644 24.031874,800.1685 23.952581,799.95056 23.873742,799.73262 23.79445,799.51468 23.579229,799.51468 23.460517,799.51468 23.460517,799.51468"
       style="font-variant:normal;font-weight:bold;font-stretch:normal;font-size:medium;font-family:'Liberation Sans';-inkscape-font-specification:LiberationSans-Bold;writing-mode:lr-tb;fill:#000000;fill-opacity:1;fill-rule:nonzero;stroke:none"
       inkscape:connector-curvature="0" />
    <path
       inkscape:export-ydpi="2400.1799"
       inkscape:export-xdpi="2400.1799"
       d="M 25.966476,801.73662 26.191662,801.70661 26.394844,801.60607 26.550524,801.44136 26.655097,801.23919 26.813938,801.29914 26.973158,801.35923 27.132118,801.41923 27.052685,801.58481 26.950962,801.73814 26.82595,801.87291 26.679226,801.98349 26.513395,802.06801 26.336258,802.12539 26.152708,802.15738 25.966476,802.16724 25.752877,802.15617 25.542695,802.11947 25.340126,802.05155 25.153283,801.94864 24.990158,801.81087 24.85636,801.64055 24.757415,801.448 24.69246,801.24113 24.657365,801.02722 24.646777,800.81042 24.656703,800.59669 24.689896,800.38514 24.751849,800.18053 24.847535,799.98967 24.979023,799.82111 25.139845,799.6858 25.324586,799.5861 25.524628,799.52111 25.732281,799.48628 25.942347,799.47587 26.138041,799.48499 26.331128,799.51547 26.518028,799.57263 26.692219,799.66149 26.86999,799.80748 27.0066,799.99279 27.098708,800.20347 26.938012,800.24735 26.776933,800.29134 26.616116,800.33525 26.523986,800.1574 26.374823,800.02343 26.172967,799.93371 25.953482,799.90649 25.74474,799.92766 25.549183,800.00198 25.389223,800.13665 25.294671,800.28755 25.236381,800.45592 25.206608,800.63219 25.198043,800.81042 25.20696,800.99279 25.237821,801.17287 25.298063,801.34508 25.394793,801.49904 25.556508,801.63703 25.754471,801.71437 25.966476,801.73662 25.966476,801.73662"
       style="font-variant:normal;font-weight:bold;font-stretch:normal;font-size:medium;font-family:'Liberation Sans';-inkscape-font-specification:LiberationSans-Bold;writing-mode:lr-tb;fill:#000000;fill-opacity:1;fill-rule:nonzero;stroke:none"
       id="path3436"
       inkscape:connector-curvature="0" />
    <path
       inkscape:export-ydpi="2400.1799"
       inkscape:export-xdpi="2400.1799"
       d="M 28.357513,801.73662 28.582699,801.70661 28.78588,801.60607 28.941559,801.44136 29.046132,801.23919 29.204973,801.29914 29.364194,801.35923 29.523155,801.41923 29.443721,801.58481 29.341999,801.73814 29.216987,801.87291 29.070262,801.98349 28.904432,802.06801 28.727295,802.12539 28.543745,802.15738 28.357513,802.16724 28.143914,802.15617 27.933733,802.11947 27.731163,802.05155 27.54432,801.94864 27.381195,801.81087 27.247397,801.64055 27.148451,801.448 27.083497,801.24113 27.048403,801.02722 27.037814,800.81042 27.04774,800.59669 27.080933,800.38514 27.142886,800.18053 27.238571,799.98967 27.370057,799.82111 27.53088,799.6858 27.715621,799.5861 27.915664,799.52111 28.123319,799.48628 28.333384,799.47587 28.529078,799.48499 28.722165,799.51547 28.909064,799.57263 29.083254,799.66149 29.261026,799.80748 29.397636,799.99279 29.489745,800.20347 29.329049,800.24735 29.167969,800.29134 29.007153,800.33525 28.915023,800.1574 28.76586,800.02343 28.564004,799.93371 28.34452,799.90649 28.135776,799.92766 27.940219,800.00198 27.78026,800.13665 27.685708,800.28755 27.627417,800.45592 27.597645,800.63219 27.58908,800.81042 27.597997,800.99279 27.628858,801.17287 27.689099,801.34508 27.785827,801.49904 27.947544,801.63703 28.145508,801.71437 28.357513,801.73662 28.357513,801.73662"
       style="font-variant:normal;font-weight:bold;font-stretch:normal;font-size:medium;font-family:'Liberation Sans';-inkscape-font-specification:LiberationSans-Bold;writing-mode:lr-tb;fill:#000000;fill-opacity:1;fill-rule:nonzero;stroke:none"
       id="path3438"
       inkscape:connector-curvature="0" />
    <path
       inkscape:export-ydpi="2400.1799"
       inkscape:export-xdpi="2400.1799"
       d="M 29.527222,802.13012 29.527222,801.91236 29.527222,801.69448 29.527222,801.47661 29.527222,801.25837 29.527222,801.04026 29.527222,800.8223 29.527222,800.60462 29.527222,800.38661 29.527222,800.16853 29.527222,799.95051 29.527222,799.73246 29.527222,799.51485 29.709549,799.51485 29.892312,799.51485 30.074776,799.51485 30.074776,799.73261 30.074776,799.95048 30.074776,800.16836 30.074776,800.38661 30.074776,800.60471 30.074776,800.82267 30.074776,801.04035 30.074776,801.25836 30.074776,801.47644 30.074776,801.69447 30.074776,801.91251 30.074776,802.13012 29.892448,802.13012 29.709686,802.13012 29.527222,802.13012 29.527222,802.13012"
       style="font-variant:normal;font-weight:bold;font-stretch:normal;font-size:medium;font-family:'Liberation Sans';-inkscape-font-specification:LiberationSans-Bold;writing-mode:lr-tb;fill:#000000;fill-opacity:1;fill-rule:nonzero;stroke:none"
       id="path3440"
       inkscape:connector-curvature="0" />
    <path
       id="path7384"
       d="M 31.432321,799.47662 31.239754,799.48704 31.031331,799.52374 30.830155,799.59125 30.644384,799.6932 30.481269,799.82868 30.346246,799.99451 30.245658,800.183 30.179052,800.38599 30.142805,800.59668 30.131931,800.81054 30.142805,801.02622 30.179506,801.23962 30.246564,801.44488 30.347152,801.63608 30.481269,801.80509 30.642572,801.94283 30.827436,802.0475 31.027705,802.11727 31.236131,802.15534 31.432321,802.16621 31.432321,801.73486 31.23885,801.71175 31.045376,801.62929 30.887697,801.48974 30.790281,801.33795 30.726849,801.16894 30.693319,800.99087 30.683351,800.81054 30.692866,800.63338 30.725035,800.45939 30.78711,800.29356 30.883621,800.14585 31.044471,800.00765 31.240661,799.92926 31.432321,799.90888 31.432321,799.47662 31.432321,799.47662"
       style="font-variant:normal;font-weight:bold;font-stretch:normal;font-size:medium;font-family:'Liberation Sans';-inkscape-font-specification:LiberationSans-Bold;writing-mode:lr-tb;fill:#000000;fill-opacity:1;fill-rule:nonzero;stroke:none"
       inkscape:connector-curvature="0" />
    <path
       id="path5763"
       d="M 31.432321,799.47662 31.432321,799.90888 31.451805,799.90661 31.661136,799.92972 31.855515,800.00946 32.014098,800.14766 32.110157,800.29537 32.17223,800.4603 32.205306,800.63428 32.214822,800.81054 32.205306,800.99223 32.173588,801.17121 32.111969,801.34203 32.014098,801.49517 31.855062,801.63427 31.65887,801.71356 31.44818,801.73667 31.432321,801.73486 31.432321,802.16621 31.44818,802.16711 31.629871,802.15805 31.809299,802.12951 31.983741,802.07876 32.149576,802.004 32.334439,801.87804 32.490306,801.71719 32.611736,801.5287 32.685589,801.35834 32.736336,801.17936 32.76443,800.99586 32.773491,800.81054 32.762163,800.59713 32.725463,800.38735 32.65795,800.18481 32.556911,799.99768 32.422341,799.8323 32.259679,799.69547 32.073909,799.59262 31.873186,799.5242 31.663855,799.48704 31.451805,799.47571 31.432321,799.47662 31.432321,799.47662"
       style="font-variant:normal;font-weight:bold;font-stretch:normal;font-size:medium;font-family:'Liberation Sans';-inkscape-font-specification:LiberationSans-Bold;writing-mode:lr-tb;fill:#000000;fill-opacity:1;fill-rule:nonzero;stroke:none"
       inkscape:connector-curvature="0" />
    <path
       id="path3442"
       d="M 31.604044,798.76118 31.448342,798.91824 31.292269,799.07567 31.136448,799.23286 31.136448,799.2904 31.294127,799.2904 31.451805,799.2904 31.609447,799.17814 31.767286,799.06574 31.925271,798.95323 32.08297,798.84092 32.08297,798.76118 31.923494,798.76118 31.763639,798.76118 31.604044,798.76118 31.604044,798.76118"
       style="font-variant:normal;font-weight:bold;font-stretch:normal;font-size:medium;font-family:'Liberation Sans';-inkscape-font-specification:LiberationSans-Bold;writing-mode:lr-tb;fill:#000000;fill-opacity:1;fill-rule:nonzero;stroke:none"
       inkscape:connector-curvature="0" />
    <path
       inkscape:export-ydpi="2400.1799"
       inkscape:export-xdpi="2400.1799"
       d="M 34.426926,802.13012 34.31296,801.92873 34.198983,801.72732 34.085078,801.52604 33.971034,801.32451 33.857098,801.12318 33.743221,800.92194 33.629267,800.72058 33.515306,800.51919 33.401213,800.31758 33.287271,800.11623 33.303514,800.27312 33.315547,800.4303 33.320681,800.58769 33.320681,800.7807 33.320681,800.97344 33.320681,801.16621 33.320681,801.3589 33.320681,801.55193 33.320681,801.74474 33.320681,801.93725 33.320681,802.13012 33.15875,802.13012 32.996432,802.13012 32.834378,802.13012 32.834378,801.91236 32.834378,801.69448 32.834378,801.47661 32.834378,801.25837 32.834378,801.04026 32.834378,800.8223 32.834378,800.60462 32.834378,800.38661 32.834378,800.16853 32.834378,799.95051 32.834378,799.73246 32.834378,799.51485 33.042665,799.51485 33.251447,799.51485 33.459889,799.51485 33.556365,799.68426 33.652662,799.85336 33.748928,800.02241 33.845341,800.19171 33.941776,800.36105 34.038008,800.53004 34.134331,800.69918 34.230793,800.86858 34.327221,801.0379 34.423622,801.20718 34.520033,801.37648 34.616249,801.54544 34.598676,801.37568 34.587082,801.2054 34.582839,801.03501 34.582839,800.84479 34.582839,800.65482 34.582839,800.46484 34.582839,800.27493 34.582839,800.08469 34.582839,799.89467 34.582839,799.70494 34.582839,799.51485 34.744769,799.51485 34.907088,799.51485 35.069142,799.51485 35.069142,799.73261 35.069142,799.95048 35.069142,800.16836 35.069142,800.38661 35.069142,800.60471 35.069142,800.82267 35.069142,801.04035 35.069142,801.25836 35.069142,801.47644 35.069142,801.69447 35.069142,801.91251 35.069142,802.13012 34.855292,802.13012 34.640935,802.13012 34.426926,802.13012 34.426926,802.13012"
       style="font-variant:normal;font-weight:bold;font-stretch:normal;font-size:medium;font-family:'Liberation Sans';-inkscape-font-specification:LiberationSans-Bold;writing-mode:lr-tb;fill:#000000;fill-opacity:1;fill-rule:nonzero;stroke:none"
       id="path3444"
       inkscape:connector-curvature="0" />
    <path
       d="M 16.176555,801.2208 16.047107,801.20041 15.930369,801.14083 15.837698,801.04816 15.778112,800.93138 15.757725,800.80194 15.778114,800.67248 15.837687,800.55574 15.930353,800.46307 16.047114,800.40349 16.176556,800.38311 16.30602,800.40349 16.422767,800.46306 16.515444,800.55573 16.575031,800.67249 16.59542,800.80194 16.575031,800.93139 16.515457,801.04814 16.422785,801.14082 16.306016,801.20041 16.176558,801.2208"
       style="fill:#000000;fill-opacity:1;fill-rule:nonzero;stroke:none"
       id="path3368"
       inkscape:connector-curvature="0" />
    <path
       d="M 17.072177,801.2208 16.942728,801.20041 16.825991,801.14083 16.733319,801.04816 16.673733,800.93138 16.653346,800.80194 16.673736,800.67248 16.733308,800.55574 16.825975,800.46307 16.942735,800.40349 17.072178,800.38311 17.201642,800.40349 17.318389,800.46306 17.411066,800.55573 17.470653,800.67249 17.491042,800.80194 17.470653,800.93139 17.411079,801.04814 17.318407,801.14082 17.201637,801.20041 17.072179,801.2208"
       style="fill:#000000;fill-opacity:1;fill-rule:nonzero;stroke:none"
       id="path3372"
       inkscape:connector-curvature="0" />
    <path
       d="M 16.176555,800.29629 16.047107,800.27589 15.930369,800.21631 15.837698,800.12363 15.778112,800.00687 15.757725,799.87742 15.778114,799.74797 15.837687,799.63123 15.930353,799.53855 16.047114,799.47895 16.176556,799.45856 16.30602,799.47895 16.422767,799.53853 16.515444,799.63121 16.575031,799.74798 16.59542,799.87742 16.575031,800.00687 16.515457,800.12362 16.422785,800.2163 16.306016,800.2759 16.176558,800.29629"
       style="fill:#000000;fill-opacity:1;fill-rule:nonzero;stroke:none"
       id="path3376"
       inkscape:connector-curvature="0" />
    <path
       d="M 17.072177,800.29629 16.942728,800.27589 16.825991,800.21631 16.733319,800.12363 16.673733,800.00687 16.653346,799.87742 16.673736,799.74797 16.733308,799.63123 16.825975,799.53855 16.942735,799.47895 17.072178,799.45856 17.201642,799.47895 17.318389,799.53853 17.411066,799.63121 17.470653,799.74798 17.491042,799.87742 17.470653,800.00687 17.411079,800.12362 17.318407,800.2163 17.201637,800.2759 17.072179,800.29629"
       style="fill:#000000;fill-opacity:1;fill-rule:nonzero;stroke:none"
       id="path3380"
       inkscape:connector-curvature="0" />
    <path
       d="M 16.176555,802.12847 16.047107,802.10809 15.930369,802.04852 15.83767,801.95582 15.778104,801.83908 15.757724,801.70964 15.778113,801.58018 15.837686,801.46343 15.930353,801.37075 16.047113,801.31117 16.176555,801.29078 16.30602,801.31117 16.422767,801.37074 16.515443,801.46341 16.575031,801.58018 16.59542,801.70964 16.575031,801.83911 16.515456,801.95584 16.422747,802.04854 16.305992,802.1081 16.176557,802.12847"
       style="fill:#000000;fill-opacity:1;fill-rule:nonzero;stroke:none"
       id="path3384"
       inkscape:connector-curvature="0" />
    <path
       d="M 17.072177,802.12847 16.942728,802.10809 16.825991,802.04852 16.733292,801.95582 16.673726,801.83908 16.653346,801.70964 16.673735,801.58018 16.733308,801.46343 16.825975,801.37075 16.942735,801.31117 17.072177,801.29078 17.201641,801.31117 17.318389,801.37074 17.411065,801.46341 17.470653,801.58018 17.491042,801.70964 17.470653,801.83911 17.411078,801.95584 17.318368,802.04854 17.201614,802.1081 17.072179,802.12847"
       style="fill:#000000;fill-opacity:1;fill-rule:nonzero;stroke:none"
       id="path3388"
       inkscape:connector-curvature="0" />
  </g>
</svg>
