G75*
%MOIN*%
%OFA0B0*%
%FSLAX25Y25*%
%IPPOS*%
%LPD*%
%AMOC8*
5,1,8,0,0,1.08239X$1,22.5*
%
%ADD10R,0.03150X0.09843*%
%ADD11R,0.09843X0.03150*%
%ADD12R,0.08661X0.04724*%
%ADD13R,0.07874X0.04724*%
%ADD14R,0.03150X0.04724*%
%ADD15R,0.01772X0.05906*%
%ADD16R,0.12500X0.12500*%
%ADD17C,0.07874*%
%ADD18R,0.03000X0.06000*%
%ADD19R,0.04724X0.03150*%
D10*
X0318034Y0186243D03*
X0321971Y0186243D03*
X0325908Y0186243D03*
X0329845Y0186243D03*
X0333782Y0186243D03*
X0337719Y0186243D03*
X0341656Y0186243D03*
X0345593Y0186243D03*
X0349530Y0186243D03*
X0314097Y0186243D03*
X0310160Y0186243D03*
X0306223Y0186243D03*
X0302286Y0186243D03*
X0298349Y0186243D03*
X0294412Y0186243D03*
X0290475Y0186243D03*
X0286538Y0186243D03*
X0318034Y0274825D03*
X0314097Y0274825D03*
X0310160Y0274825D03*
X0306223Y0274825D03*
X0302286Y0274825D03*
X0298349Y0274825D03*
X0294412Y0274825D03*
X0290475Y0274825D03*
X0286538Y0274825D03*
X0321971Y0274825D03*
X0325908Y0274825D03*
X0329845Y0274825D03*
X0333782Y0274825D03*
X0337719Y0274825D03*
X0341656Y0274825D03*
X0345593Y0274825D03*
X0349530Y0274825D03*
D11*
X0273743Y0230534D03*
X0273743Y0226597D03*
X0273743Y0222660D03*
X0273743Y0218723D03*
X0273743Y0214786D03*
X0273743Y0210849D03*
X0273743Y0206912D03*
X0273743Y0202975D03*
X0273743Y0199038D03*
X0273743Y0234471D03*
X0273743Y0238408D03*
X0273743Y0242345D03*
X0273743Y0246282D03*
X0273743Y0250219D03*
X0273743Y0254156D03*
X0273743Y0258093D03*
X0273743Y0262030D03*
X0362325Y0230534D03*
X0362325Y0234471D03*
X0362325Y0238408D03*
X0362325Y0242345D03*
X0362325Y0246282D03*
X0362325Y0250219D03*
X0362325Y0254156D03*
X0362325Y0258093D03*
X0362325Y0262030D03*
X0362325Y0226597D03*
X0362325Y0222660D03*
X0362325Y0218723D03*
X0362325Y0214786D03*
X0362325Y0210849D03*
X0362325Y0206912D03*
X0362325Y0202975D03*
X0362325Y0199038D03*
D12*
X0297223Y0147866D03*
X0297380Y0158102D03*
X0297380Y0138221D03*
D13*
X0396790Y0138535D03*
X0396868Y0148142D03*
X0396868Y0157433D03*
D14*
X0384176Y0242542D03*
X0391262Y0242542D03*
G36*
X0376776Y0232433D02*
X0374549Y0230206D01*
X0371210Y0233545D01*
X0373437Y0235772D01*
X0376776Y0232433D01*
G37*
G36*
X0381787Y0237444D02*
X0379560Y0235217D01*
X0376221Y0238556D01*
X0378448Y0240783D01*
X0381787Y0237444D01*
G37*
X0391262Y0252384D03*
X0384176Y0252384D03*
X0391262Y0232699D03*
X0384176Y0232699D03*
X0310554Y0061636D03*
X0303467Y0061636D03*
X0310554Y0071085D03*
X0303467Y0071085D03*
X0310554Y0080140D03*
X0303467Y0080140D03*
X0214097Y0049471D03*
X0221183Y0049471D03*
X0221223Y0042620D03*
X0214136Y0042620D03*
G36*
X0292308Y0061940D02*
X0290081Y0064167D01*
X0293420Y0067506D01*
X0295647Y0065279D01*
X0292308Y0061940D01*
G37*
G36*
X0297319Y0056929D02*
X0295092Y0059156D01*
X0298431Y0062495D01*
X0300658Y0060268D01*
X0297319Y0056929D01*
G37*
D15*
X0320426Y0081676D03*
X0322926Y0081676D03*
X0325426Y0081676D03*
X0327926Y0081676D03*
X0330426Y0081676D03*
X0332926Y0081676D03*
X0335426Y0081676D03*
X0337926Y0081676D03*
X0340426Y0081676D03*
X0342926Y0081676D03*
X0345426Y0081676D03*
X0347926Y0081676D03*
X0347926Y0060494D03*
X0345426Y0060494D03*
X0342926Y0060494D03*
X0340426Y0060494D03*
X0337926Y0060494D03*
X0335426Y0060494D03*
X0332926Y0060494D03*
X0330426Y0060494D03*
X0327926Y0060494D03*
X0325426Y0060494D03*
X0322926Y0060494D03*
X0320426Y0060494D03*
D16*
X0116651Y0039995D03*
X0178651Y0039995D03*
D17*
X0143714Y0039995D02*
X0143716Y0040120D01*
X0143722Y0040245D01*
X0143732Y0040369D01*
X0143746Y0040493D01*
X0143763Y0040617D01*
X0143785Y0040740D01*
X0143811Y0040862D01*
X0143840Y0040984D01*
X0143873Y0041104D01*
X0143911Y0041223D01*
X0143951Y0041342D01*
X0143996Y0041458D01*
X0144044Y0041573D01*
X0144096Y0041687D01*
X0144152Y0041799D01*
X0144211Y0041909D01*
X0144273Y0042017D01*
X0144339Y0042124D01*
X0144408Y0042228D01*
X0144481Y0042329D01*
X0144556Y0042429D01*
X0144635Y0042526D01*
X0144717Y0042620D01*
X0144802Y0042712D01*
X0144889Y0042801D01*
X0144980Y0042887D01*
X0145073Y0042970D01*
X0145169Y0043051D01*
X0145267Y0043128D01*
X0145367Y0043202D01*
X0145470Y0043273D01*
X0145575Y0043340D01*
X0145683Y0043405D01*
X0145792Y0043465D01*
X0145903Y0043523D01*
X0146016Y0043576D01*
X0146130Y0043626D01*
X0146246Y0043673D01*
X0146363Y0043715D01*
X0146482Y0043754D01*
X0146602Y0043790D01*
X0146723Y0043821D01*
X0146845Y0043849D01*
X0146967Y0043872D01*
X0147091Y0043892D01*
X0147215Y0043908D01*
X0147339Y0043920D01*
X0147464Y0043928D01*
X0147589Y0043932D01*
X0147713Y0043932D01*
X0147838Y0043928D01*
X0147963Y0043920D01*
X0148087Y0043908D01*
X0148211Y0043892D01*
X0148335Y0043872D01*
X0148457Y0043849D01*
X0148579Y0043821D01*
X0148700Y0043790D01*
X0148820Y0043754D01*
X0148939Y0043715D01*
X0149056Y0043673D01*
X0149172Y0043626D01*
X0149286Y0043576D01*
X0149399Y0043523D01*
X0149510Y0043465D01*
X0149620Y0043405D01*
X0149727Y0043340D01*
X0149832Y0043273D01*
X0149935Y0043202D01*
X0150035Y0043128D01*
X0150133Y0043051D01*
X0150229Y0042970D01*
X0150322Y0042887D01*
X0150413Y0042801D01*
X0150500Y0042712D01*
X0150585Y0042620D01*
X0150667Y0042526D01*
X0150746Y0042429D01*
X0150821Y0042329D01*
X0150894Y0042228D01*
X0150963Y0042124D01*
X0151029Y0042017D01*
X0151091Y0041909D01*
X0151150Y0041799D01*
X0151206Y0041687D01*
X0151258Y0041573D01*
X0151306Y0041458D01*
X0151351Y0041342D01*
X0151391Y0041223D01*
X0151429Y0041104D01*
X0151462Y0040984D01*
X0151491Y0040862D01*
X0151517Y0040740D01*
X0151539Y0040617D01*
X0151556Y0040493D01*
X0151570Y0040369D01*
X0151580Y0040245D01*
X0151586Y0040120D01*
X0151588Y0039995D01*
X0151586Y0039870D01*
X0151580Y0039745D01*
X0151570Y0039621D01*
X0151556Y0039497D01*
X0151539Y0039373D01*
X0151517Y0039250D01*
X0151491Y0039128D01*
X0151462Y0039006D01*
X0151429Y0038886D01*
X0151391Y0038767D01*
X0151351Y0038648D01*
X0151306Y0038532D01*
X0151258Y0038417D01*
X0151206Y0038303D01*
X0151150Y0038191D01*
X0151091Y0038081D01*
X0151029Y0037973D01*
X0150963Y0037866D01*
X0150894Y0037762D01*
X0150821Y0037661D01*
X0150746Y0037561D01*
X0150667Y0037464D01*
X0150585Y0037370D01*
X0150500Y0037278D01*
X0150413Y0037189D01*
X0150322Y0037103D01*
X0150229Y0037020D01*
X0150133Y0036939D01*
X0150035Y0036862D01*
X0149935Y0036788D01*
X0149832Y0036717D01*
X0149727Y0036650D01*
X0149619Y0036585D01*
X0149510Y0036525D01*
X0149399Y0036467D01*
X0149286Y0036414D01*
X0149172Y0036364D01*
X0149056Y0036317D01*
X0148939Y0036275D01*
X0148820Y0036236D01*
X0148700Y0036200D01*
X0148579Y0036169D01*
X0148457Y0036141D01*
X0148335Y0036118D01*
X0148211Y0036098D01*
X0148087Y0036082D01*
X0147963Y0036070D01*
X0147838Y0036062D01*
X0147713Y0036058D01*
X0147589Y0036058D01*
X0147464Y0036062D01*
X0147339Y0036070D01*
X0147215Y0036082D01*
X0147091Y0036098D01*
X0146967Y0036118D01*
X0146845Y0036141D01*
X0146723Y0036169D01*
X0146602Y0036200D01*
X0146482Y0036236D01*
X0146363Y0036275D01*
X0146246Y0036317D01*
X0146130Y0036364D01*
X0146016Y0036414D01*
X0145903Y0036467D01*
X0145792Y0036525D01*
X0145682Y0036585D01*
X0145575Y0036650D01*
X0145470Y0036717D01*
X0145367Y0036788D01*
X0145267Y0036862D01*
X0145169Y0036939D01*
X0145073Y0037020D01*
X0144980Y0037103D01*
X0144889Y0037189D01*
X0144802Y0037278D01*
X0144717Y0037370D01*
X0144635Y0037464D01*
X0144556Y0037561D01*
X0144481Y0037661D01*
X0144408Y0037762D01*
X0144339Y0037866D01*
X0144273Y0037973D01*
X0144211Y0038081D01*
X0144152Y0038191D01*
X0144096Y0038303D01*
X0144044Y0038417D01*
X0143996Y0038532D01*
X0143951Y0038648D01*
X0143911Y0038767D01*
X0143873Y0038886D01*
X0143840Y0039006D01*
X0143811Y0039128D01*
X0143785Y0039250D01*
X0143763Y0039373D01*
X0143746Y0039497D01*
X0143732Y0039621D01*
X0143722Y0039745D01*
X0143716Y0039870D01*
X0143714Y0039995D01*
D18*
X0208172Y0184447D03*
X0208172Y0162447D03*
X0223172Y0184447D03*
X0223172Y0162447D03*
D19*
X0199530Y0177778D03*
X0199530Y0170691D03*
M02*
