G75*
%MOIN*%
%OFA0B0*%
%FSLAX25Y25*%
%IPPOS*%
%LPD*%
%AMOC8*
5,1,8,0,0,1.08239X$1,22.5*
%
%ADD10R,0.02372X0.06309*%
%ADD11R,0.05324X0.15167*%
%ADD12R,0.15167X0.05324*%
%ADD13R,0.05915X0.09261*%
%ADD14R,0.05324X0.03750*%
%ADD15R,0.03159X0.07687*%
%ADD16R,0.03750X0.05324*%
%ADD17R,0.11399X0.09100*%
%ADD18R,0.09261X0.05915*%
%ADD19R,0.05800X0.02800*%
%ADD20R,0.02765X0.05324*%
%ADD21R,0.03750X0.06899*%
%ADD22R,0.04537X0.06112*%
%ADD23R,0.05324X0.02765*%
%ADD24R,0.06309X0.02372*%
%ADD25R,0.07687X0.03159*%
%ADD26R,0.08474X0.03356*%
%ADD27R,0.03356X0.08474*%
%ADD28R,0.03946X0.09261*%
%ADD29R,0.04537X0.04734*%
%ADD30R,0.06112X0.04537*%
%ADD31R,0.02200X0.03900*%
%ADD32R,0.02962X0.09261*%
%ADD33R,0.16600X0.06600*%
%ADD34R,0.08474X0.04537*%
%ADD35R,0.04537X0.07687*%
%ADD36C,0.05600*%
%ADD37C,0.08000*%
%ADD38C,0.06300*%
%ADD39R,0.03100X0.05600*%
%ADD40OC8,0.08000*%
%ADD41C,0.06899*%
%ADD42R,0.05600X0.03100*%
%ADD43C,0.17600*%
%ADD44R,0.04537X0.04537*%
%ADD45R,0.01486X0.02962*%
%ADD46C,0.00500*%
%ADD47C,0.03300*%
%ADD48C,0.04756*%
D10*
X0098862Y0057084D03*
X0101421Y0057084D03*
X0103980Y0057084D03*
X0106539Y0057084D03*
X0106539Y0074407D03*
X0103980Y0074407D03*
X0101421Y0074407D03*
X0098862Y0074407D03*
X0092321Y0111038D03*
X0089762Y0111038D03*
X0087203Y0111038D03*
X0084644Y0111038D03*
X0084644Y0128361D03*
X0087203Y0128361D03*
X0089762Y0128361D03*
X0092321Y0128361D03*
D11*
X0091909Y0095060D03*
X0080885Y0095060D03*
X0102108Y0038579D03*
X0113131Y0038579D03*
D12*
X0105003Y0091805D03*
X0105003Y0102829D03*
X0084788Y0139812D03*
X0084788Y0150836D03*
X0101832Y0145914D03*
X0101832Y0156937D03*
D13*
X0070414Y0146089D03*
X0070414Y0134986D03*
X0071030Y0100100D03*
X0071030Y0088997D03*
X0092095Y0044758D03*
X0092095Y0033656D03*
X0135524Y0095890D03*
X0135524Y0106992D03*
D14*
X0115123Y0116128D03*
X0115123Y0123215D03*
X0107104Y0123721D03*
X0107104Y0130808D03*
X0099231Y0130692D03*
X0099231Y0123605D03*
X0099256Y0116143D03*
X0099256Y0109056D03*
X0107004Y0108999D03*
X0107004Y0116086D03*
X0120888Y0076427D03*
X0128390Y0073054D03*
X0120888Y0069340D03*
X0128390Y0065968D03*
X0121840Y0060668D03*
X0112841Y0060692D03*
X0112854Y0065146D03*
X0112854Y0072232D03*
X0112841Y0053605D03*
X0121840Y0053582D03*
X0149559Y0035213D03*
X0150586Y0041168D03*
X0150586Y0048255D03*
X0150618Y0056428D03*
X0157654Y0056472D03*
X0157654Y0063558D03*
X0150618Y0063514D03*
X0149559Y0028126D03*
X0055863Y0088380D03*
X0055863Y0095467D03*
X0049383Y0125822D03*
X0049383Y0132908D03*
X0026578Y0133981D03*
X0026337Y0138704D03*
X0026337Y0145791D03*
X0026578Y0126894D03*
X0193418Y0191437D03*
X0193418Y0198523D03*
X0158723Y0260054D03*
X0158723Y0267141D03*
X0137853Y0263819D03*
X0137853Y0270906D03*
X0128222Y0267998D03*
X0128222Y0275085D03*
X0118367Y0289169D03*
X0127553Y0289508D03*
X0127553Y0296594D03*
X0128205Y0302645D03*
X0118367Y0296256D03*
X0128205Y0309732D03*
X0188510Y0292687D03*
X0188510Y0285600D03*
X0288883Y0187707D03*
X0288883Y0180620D03*
X0287295Y0158806D03*
X0287295Y0151719D03*
X0320541Y0107061D03*
X0326840Y0107061D03*
X0333139Y0107061D03*
X0333139Y0099974D03*
X0326840Y0099974D03*
X0320541Y0099974D03*
X0371328Y0060998D03*
X0371328Y0053911D03*
X0363848Y0055880D03*
X0363848Y0048793D03*
X0344163Y0045644D03*
X0337864Y0045644D03*
X0331564Y0045644D03*
X0325265Y0045644D03*
X0325265Y0052730D03*
X0331564Y0052730D03*
X0337864Y0052730D03*
X0344163Y0052730D03*
X0386970Y0142548D03*
X0386970Y0149634D03*
X0387141Y0154476D03*
X0387141Y0161563D03*
X0369885Y0179216D03*
X0369885Y0186303D03*
X0376965Y0188993D03*
X0376965Y0196080D03*
X0384479Y0195976D03*
X0384479Y0203063D03*
D15*
X0086541Y0079656D03*
X0086541Y0068632D03*
X0071956Y0112140D03*
X0071956Y0123163D03*
D16*
X0096892Y0139608D03*
X0103979Y0139608D03*
X0042259Y0143179D03*
X0035172Y0143179D03*
X0098453Y0084376D03*
X0105540Y0084376D03*
X0174871Y0094463D03*
X0181958Y0094463D03*
X0181958Y0104699D03*
X0174871Y0104699D03*
X0281939Y0141700D03*
X0289026Y0141700D03*
X0305700Y0161636D03*
X0312786Y0161636D03*
X0303027Y0179755D03*
X0295940Y0179755D03*
X0355580Y0179108D03*
X0362667Y0179108D03*
X0201988Y0298591D03*
X0194901Y0298591D03*
X0194488Y0309116D03*
X0187401Y0309116D03*
X0119241Y0309887D03*
X0112155Y0309887D03*
X0111961Y0302737D03*
X0119047Y0302737D03*
X0111827Y0286655D03*
X0104740Y0286655D03*
X0110374Y0266502D03*
X0117460Y0266502D03*
D17*
X0118021Y0149067D03*
X0118021Y0131665D03*
X0121559Y0102149D03*
X0121559Y0084748D03*
X0139720Y0071341D03*
X0139720Y0053939D03*
D18*
X0139821Y0082813D03*
X0150923Y0082813D03*
X0138234Y0120011D03*
X0127132Y0120011D03*
D19*
X0043037Y0128867D03*
X0043037Y0136267D03*
X0032237Y0136267D03*
X0032237Y0132567D03*
X0032237Y0128867D03*
D20*
X0030384Y0093274D03*
X0034124Y0093274D03*
X0026643Y0093274D03*
X0026643Y0083038D03*
X0030384Y0083038D03*
X0034124Y0083038D03*
D21*
X0029989Y0066904D03*
X0029989Y0053518D03*
D22*
X0042115Y0083833D03*
X0049596Y0083833D03*
X0045856Y0092494D03*
X0295973Y0187907D03*
X0303453Y0187907D03*
X0299713Y0196569D03*
D23*
X0118932Y0272232D03*
X0108696Y0272232D03*
X0108696Y0275973D03*
X0108696Y0279713D03*
X0118932Y0279713D03*
D24*
X0122788Y0039202D03*
X0122788Y0036643D03*
X0122788Y0034084D03*
X0122788Y0031525D03*
X0140111Y0031525D03*
X0140111Y0034084D03*
X0140111Y0036643D03*
X0140111Y0039202D03*
D25*
X0159039Y0035124D03*
X0170063Y0035124D03*
D26*
X0176919Y0288380D03*
X0176919Y0292711D03*
X0176919Y0297041D03*
X0176919Y0301372D03*
X0176919Y0305703D03*
X0176919Y0310034D03*
X0176919Y0314364D03*
X0176919Y0318695D03*
X0176919Y0323026D03*
X0176919Y0327356D03*
X0176919Y0331687D03*
X0142903Y0331687D03*
X0142903Y0327356D03*
X0142903Y0323026D03*
X0142903Y0318695D03*
X0142903Y0314364D03*
X0142903Y0310034D03*
X0142903Y0305703D03*
X0142903Y0301372D03*
X0142903Y0297041D03*
X0142903Y0292711D03*
X0142903Y0288380D03*
D27*
X0149084Y0281293D03*
X0153415Y0281293D03*
X0157745Y0281293D03*
X0162076Y0281293D03*
X0166407Y0281293D03*
X0170738Y0281293D03*
D28*
X0129497Y0322490D03*
X0118670Y0322490D03*
D29*
X0124083Y0316486D03*
X0124083Y0328494D03*
D30*
X0354005Y0190132D03*
X0362667Y0193872D03*
X0362667Y0186392D03*
X0376668Y0202662D03*
X0376668Y0210143D03*
X0368007Y0206403D03*
X0371328Y0048597D03*
X0371328Y0041116D03*
X0379989Y0044856D03*
D31*
X0310930Y0142731D03*
X0308330Y0142731D03*
X0305730Y0142731D03*
X0305730Y0150031D03*
X0308330Y0150031D03*
X0310930Y0150031D03*
D32*
X0310659Y0188163D03*
X0315659Y0188163D03*
X0320659Y0188163D03*
X0325659Y0188163D03*
X0330659Y0188163D03*
X0335659Y0188163D03*
X0340659Y0188163D03*
X0340659Y0208636D03*
X0335659Y0208636D03*
X0330659Y0208636D03*
X0325659Y0208636D03*
X0320659Y0208636D03*
X0315659Y0208636D03*
X0310659Y0208636D03*
D33*
X0403218Y0236195D03*
X0403218Y0256195D03*
D34*
X0349950Y0256377D03*
X0349950Y0262283D03*
X0349950Y0268188D03*
X0349950Y0274094D03*
X0349950Y0279999D03*
X0349950Y0285905D03*
X0349950Y0291810D03*
X0349950Y0297716D03*
X0298769Y0297716D03*
X0298769Y0291810D03*
X0298769Y0285905D03*
X0298769Y0279999D03*
X0298769Y0274094D03*
X0298769Y0268188D03*
X0298769Y0262283D03*
X0298769Y0256377D03*
X0298769Y0250472D03*
X0298769Y0244566D03*
X0298769Y0238661D03*
X0298769Y0232755D03*
X0298769Y0226850D03*
X0349950Y0226850D03*
X0349950Y0232755D03*
X0349950Y0238661D03*
X0349950Y0244566D03*
X0349950Y0250472D03*
D35*
X0345029Y0219960D03*
X0339123Y0219960D03*
X0333218Y0219960D03*
X0327312Y0219960D03*
X0321406Y0219960D03*
X0315501Y0219960D03*
X0309595Y0219960D03*
X0303690Y0219960D03*
D36*
X0098100Y0259817D03*
X0090226Y0259817D03*
X0082352Y0259817D03*
X0074478Y0259817D03*
X0066604Y0259817D03*
X0058730Y0259817D03*
X0050856Y0259817D03*
X0042982Y0259817D03*
X0035108Y0259817D03*
X0027234Y0259817D03*
X0027234Y0173203D03*
X0035108Y0173203D03*
X0042982Y0173203D03*
X0050856Y0173203D03*
X0058730Y0173203D03*
X0066604Y0173203D03*
X0074478Y0173203D03*
X0082352Y0173203D03*
X0090226Y0173203D03*
X0098100Y0173203D03*
D37*
X0275265Y0027534D03*
X0285265Y0027534D03*
X0295265Y0027534D03*
X0305265Y0027534D03*
X0315265Y0027534D03*
X0325265Y0027534D03*
X0335265Y0027534D03*
X0345265Y0027534D03*
X0355265Y0027534D03*
X0365265Y0027534D03*
D38*
X0252509Y0024738D03*
X0252509Y0034738D03*
X0252509Y0044738D03*
X0252509Y0054738D03*
X0252509Y0064738D03*
X0252509Y0074738D03*
X0252509Y0084738D03*
X0252509Y0094738D03*
X0252509Y0104738D03*
X0252509Y0114738D03*
X0252509Y0124738D03*
X0252509Y0134738D03*
X0252509Y0144738D03*
X0252509Y0154738D03*
X0242509Y0154738D03*
X0232509Y0154738D03*
X0222509Y0154738D03*
X0222509Y0144738D03*
X0212509Y0144738D03*
X0212509Y0154738D03*
X0202509Y0154738D03*
X0192509Y0154738D03*
X0192509Y0144738D03*
X0192509Y0134738D03*
X0192509Y0124738D03*
X0192509Y0114738D03*
X0192509Y0104738D03*
X0192509Y0094738D03*
X0192509Y0084738D03*
X0192509Y0074738D03*
X0202509Y0074738D03*
X0202509Y0064738D03*
X0192509Y0064738D03*
X0192509Y0054738D03*
X0202509Y0054738D03*
X0192509Y0044738D03*
X0192509Y0034738D03*
X0202509Y0034738D03*
X0192509Y0024738D03*
X0212509Y0084738D03*
X0222509Y0084738D03*
X0222509Y0094738D03*
X0212509Y0094738D03*
X0212509Y0104738D03*
X0222509Y0104738D03*
X0222509Y0114738D03*
X0212509Y0114738D03*
X0212509Y0124738D03*
X0222509Y0124738D03*
X0222509Y0134738D03*
X0212509Y0134738D03*
D39*
X0306730Y0083833D03*
X0310730Y0083833D03*
X0310730Y0074778D03*
X0306730Y0074778D03*
X0306730Y0065723D03*
X0310730Y0065723D03*
D40*
X0392312Y0066589D03*
X0402312Y0066589D03*
X0402312Y0076589D03*
X0392312Y0076589D03*
X0392312Y0086589D03*
X0402312Y0086589D03*
X0402312Y0096589D03*
X0392312Y0096589D03*
X0392312Y0106589D03*
X0402312Y0106589D03*
X0261210Y0231195D03*
X0251210Y0231195D03*
X0241210Y0231195D03*
X0241210Y0241195D03*
X0251210Y0241195D03*
X0261210Y0241195D03*
X0231210Y0241195D03*
X0221210Y0241195D03*
X0211210Y0241195D03*
X0201210Y0241195D03*
X0191210Y0241195D03*
X0181210Y0241195D03*
X0171210Y0241195D03*
X0171210Y0231195D03*
X0181210Y0231195D03*
X0191210Y0231195D03*
X0201210Y0231195D03*
X0211210Y0231195D03*
X0221210Y0231195D03*
X0231210Y0231195D03*
D41*
X0043178Y0114896D03*
X0043178Y0107022D03*
X0389045Y0052730D03*
X0389045Y0044856D03*
D42*
X0224871Y0174352D03*
X0224871Y0178352D03*
X0215816Y0178352D03*
X0215816Y0174352D03*
X0206761Y0174581D03*
X0206761Y0178124D03*
D43*
X0056950Y0041341D03*
X0075454Y0053152D03*
X0056950Y0064963D03*
D44*
X0255383Y0182494D03*
X0255383Y0190368D03*
X0263257Y0190368D03*
X0263257Y0182494D03*
D45*
X0249084Y0182780D03*
X0247509Y0182780D03*
X0245934Y0182780D03*
X0244360Y0182780D03*
X0242785Y0182780D03*
X0242785Y0189847D03*
X0244360Y0189847D03*
X0245934Y0189847D03*
X0247509Y0189847D03*
X0249084Y0189847D03*
D46*
X0249773Y0189652D02*
X0242096Y0189652D01*
X0242096Y0190150D02*
X0249773Y0190150D01*
X0249773Y0190649D02*
X0242096Y0190649D01*
X0242096Y0191147D02*
X0249773Y0191147D01*
X0249773Y0191284D02*
X0242096Y0191284D01*
X0242096Y0188429D01*
X0249773Y0188429D01*
X0249773Y0191284D01*
X0249773Y0189153D02*
X0242096Y0189153D01*
X0242096Y0188655D02*
X0249773Y0188655D01*
X0249773Y0184197D02*
X0242096Y0184197D01*
X0242096Y0181343D01*
X0249773Y0181343D01*
X0249773Y0184197D01*
X0249773Y0184168D02*
X0242096Y0184168D01*
X0242096Y0183670D02*
X0249773Y0183670D01*
X0249773Y0183171D02*
X0242096Y0183171D01*
X0242096Y0182673D02*
X0249773Y0182673D01*
X0249773Y0182174D02*
X0242096Y0182174D01*
X0242096Y0181676D02*
X0249773Y0181676D01*
D47*
X0251486Y0178951D03*
X0244478Y0174148D03*
X0235580Y0176274D03*
X0224871Y0183439D03*
X0215816Y0183439D03*
X0211486Y0183439D03*
X0206249Y0184778D03*
X0198572Y0182297D03*
X0198139Y0178085D03*
X0193297Y0173911D03*
X0198966Y0190959D03*
X0199360Y0195762D03*
X0195068Y0205368D03*
X0196052Y0213163D03*
X0197824Y0222809D03*
X0205501Y0223203D03*
X0213336Y0213478D03*
X0217824Y0210919D03*
X0217706Y0206077D03*
X0212706Y0208478D03*
X0218060Y0215723D03*
X0226761Y0222455D03*
X0234911Y0198597D03*
X0220541Y0196825D03*
X0215226Y0198321D03*
X0257549Y0195801D03*
X0255423Y0171234D03*
X0270304Y0153242D03*
X0270029Y0148478D03*
X0275895Y0140919D03*
X0263572Y0122455D03*
X0241801Y0117770D03*
X0237785Y0115093D03*
X0240816Y0122652D03*
X0235344Y0133321D03*
X0233612Y0142337D03*
X0202155Y0137100D03*
X0196446Y0139581D03*
X0185226Y0140565D03*
X0177430Y0148990D03*
X0172115Y0147888D03*
X0171171Y0154423D03*
X0176446Y0157730D03*
X0182037Y0156746D03*
X0171171Y0140565D03*
X0160423Y0155604D03*
X0160423Y0176431D03*
X0166013Y0181116D03*
X0160423Y0197691D03*
X0162470Y0210250D03*
X0171131Y0218951D03*
X0164281Y0236116D03*
X0153690Y0231982D03*
X0133572Y0231549D03*
X0123730Y0212297D03*
X0112903Y0202140D03*
X0104045Y0210801D03*
X0123100Y0189502D03*
X0134438Y0199345D03*
X0138178Y0206825D03*
X0143336Y0210368D03*
X0143336Y0196077D03*
X0140541Y0185762D03*
X0114005Y0158518D03*
X0118966Y0157258D03*
X0127982Y0148872D03*
X0128415Y0140486D03*
X0136210Y0136864D03*
X0144714Y0132179D03*
X0153178Y0124896D03*
X0159911Y0118124D03*
X0158690Y0108557D03*
X0164045Y0105132D03*
X0154045Y0097022D03*
X0163336Y0094148D03*
X0159045Y0077809D03*
X0157785Y0072730D03*
X0168533Y0062415D03*
X0175462Y0057179D03*
X0182155Y0054345D03*
X0181879Y0061195D03*
X0182373Y0066868D03*
X0181564Y0073636D03*
X0184438Y0080447D03*
X0180580Y0099463D03*
X0147942Y0114660D03*
X0143690Y0098085D03*
X0125186Y0109148D03*
X0109438Y0136313D03*
X0085659Y0157730D03*
X0071289Y0154384D03*
X0056407Y0164896D03*
X0046171Y0155093D03*
X0031958Y0159541D03*
X0048966Y0137534D03*
X0077864Y0112022D03*
X0079793Y0131628D03*
X0052745Y0107455D03*
X0053454Y0100723D03*
X0027273Y0110329D03*
X0078021Y0079856D03*
X0128324Y0043297D03*
X0131919Y0032455D03*
X0207509Y0059463D03*
X0212942Y0068675D03*
X0213415Y0077100D03*
X0228572Y0096156D03*
X0234163Y0102967D03*
X0245659Y0101274D03*
X0240541Y0091982D03*
X0243927Y0081667D03*
X0244360Y0075841D03*
X0245226Y0064817D03*
X0236328Y0054266D03*
X0226958Y0055171D03*
X0209202Y0047848D03*
X0215698Y0035959D03*
X0287667Y0059108D03*
X0301249Y0051628D03*
X0306052Y0053360D03*
X0313815Y0047634D03*
X0310221Y0044105D03*
X0325265Y0057061D03*
X0331564Y0057061D03*
X0337470Y0056667D03*
X0344163Y0056667D03*
X0350580Y0049345D03*
X0339045Y0071392D03*
X0337312Y0075565D03*
X0333651Y0078951D03*
X0324478Y0077927D03*
X0325068Y0070841D03*
X0320619Y0070408D03*
X0315816Y0065329D03*
X0315029Y0074778D03*
X0315029Y0083833D03*
X0317234Y0087337D03*
X0321328Y0095250D03*
X0327234Y0095250D03*
X0333533Y0095250D03*
X0345383Y0098518D03*
X0359241Y0110526D03*
X0364556Y0110504D03*
X0370974Y0110531D03*
X0367903Y0102376D03*
X0370974Y0100250D03*
X0362430Y0101904D03*
X0370383Y0089463D03*
X0359005Y0080171D03*
X0355383Y0077376D03*
X0375856Y0071628D03*
X0378966Y0062573D03*
X0386643Y0091628D03*
X0385974Y0114069D03*
X0383336Y0117848D03*
X0387076Y0138163D03*
X0377627Y0146037D03*
X0388218Y0165880D03*
X0383966Y0173833D03*
X0370895Y0168754D03*
X0369753Y0172494D03*
X0350777Y0172258D03*
X0349478Y0178124D03*
X0350068Y0200762D03*
X0339832Y0200368D03*
X0333533Y0200368D03*
X0327234Y0200368D03*
X0321328Y0199974D03*
X0311761Y0201077D03*
X0304320Y0197179D03*
X0291013Y0202730D03*
X0310501Y0179423D03*
X0307470Y0175841D03*
X0305580Y0168085D03*
X0305580Y0155486D03*
X0314950Y0154660D03*
X0317785Y0142494D03*
X0314596Y0139226D03*
X0305974Y0137770D03*
X0298064Y0136330D03*
X0309596Y0124581D03*
X0313848Y0121825D03*
X0320304Y0121510D03*
X0320501Y0114502D03*
X0306013Y0114502D03*
X0301249Y0117061D03*
X0296131Y0124384D03*
X0292234Y0120486D03*
X0293690Y0108636D03*
X0304793Y0107534D03*
X0313139Y0099581D03*
X0310344Y0096621D03*
X0304163Y0096195D03*
X0287982Y0090289D03*
X0299989Y0069896D03*
X0346840Y0117967D03*
X0290226Y0163754D03*
X0286801Y0174345D03*
X0290816Y0176234D03*
X0354399Y0210604D03*
X0370856Y0216864D03*
X0375792Y0214903D03*
X0382391Y0207730D03*
X0381564Y0229305D03*
X0373690Y0229305D03*
X0373690Y0244069D03*
X0377627Y0249974D03*
X0377627Y0256864D03*
X0377627Y0263754D03*
X0385501Y0263754D03*
X0393375Y0263754D03*
X0363612Y0284187D03*
X0357667Y0287219D03*
X0340423Y0231352D03*
X0389438Y0229305D03*
X0397312Y0229305D03*
X0284320Y0249974D03*
X0282745Y0253911D03*
X0282745Y0262179D03*
X0264241Y0257848D03*
X0219997Y0274833D03*
X0205136Y0288524D03*
X0197549Y0288478D03*
X0194950Y0292770D03*
X0178966Y0280368D03*
X0188651Y0278124D03*
X0178966Y0269974D03*
X0179202Y0264817D03*
X0179202Y0260132D03*
X0186210Y0262534D03*
X0189950Y0259030D03*
X0194281Y0253636D03*
X0158966Y0255014D03*
X0149123Y0247022D03*
X0141997Y0250014D03*
X0135423Y0251825D03*
X0133462Y0257476D03*
X0137824Y0259226D03*
X0119815Y0255154D03*
X0100989Y0269384D03*
X0136289Y0278282D03*
X0143769Y0278085D03*
X0136289Y0289226D03*
X0133819Y0301296D03*
X0134635Y0311653D03*
X0134714Y0326274D03*
X0152106Y0312500D03*
X0167405Y0312902D03*
X0170015Y0301612D03*
X0167993Y0296911D03*
X0157627Y0291279D03*
X0150068Y0291985D03*
X0161879Y0271274D03*
X0198890Y0310420D03*
X0194753Y0316628D03*
X0187799Y0319829D03*
X0186249Y0326116D03*
X0186761Y0315289D03*
D48*
X0244438Y0167534D03*
M02*
