G75*
%MOIN*%
%OFA0B0*%
%FSLAX25Y25*%
%IPPOS*%
%LPD*%
%AMOC8*
5,1,8,0,0,1.08239X$1,22.5*
%
%ADD10R,0.01772X0.05709*%
%ADD11R,0.04724X0.14567*%
%ADD12R,0.14567X0.04724*%
%ADD13R,0.05315X0.08661*%
%ADD14R,0.04724X0.03150*%
%ADD15R,0.02559X0.07087*%
%ADD16R,0.03150X0.04724*%
%ADD17R,0.10799X0.08500*%
%ADD18R,0.08661X0.05315*%
%ADD19R,0.05200X0.02200*%
%ADD20R,0.02165X0.04724*%
%ADD21R,0.03150X0.06299*%
%ADD22R,0.03937X0.05512*%
%ADD23R,0.04724X0.02165*%
%ADD24R,0.05709X0.01772*%
%ADD25R,0.07087X0.02559*%
%ADD26R,0.07874X0.02756*%
%ADD27R,0.02756X0.07874*%
%ADD28R,0.03346X0.08661*%
%ADD29R,0.03937X0.04134*%
%ADD30R,0.05512X0.03937*%
%ADD31R,0.01600X0.03300*%
%ADD32R,0.02362X0.08661*%
%ADD33R,0.16000X0.06000*%
%ADD34R,0.07874X0.03937*%
%ADD35R,0.03937X0.07087*%
%ADD36R,0.03937X0.03937*%
%ADD37R,0.00886X0.02362*%
D10*
X0098324Y0051058D03*
X0100883Y0051058D03*
X0103442Y0051058D03*
X0106001Y0051058D03*
X0106001Y0068381D03*
X0103442Y0068381D03*
X0100883Y0068381D03*
X0098324Y0068381D03*
X0091783Y0105012D03*
X0089224Y0105012D03*
X0086665Y0105012D03*
X0084106Y0105012D03*
X0084106Y0122335D03*
X0086665Y0122335D03*
X0089224Y0122335D03*
X0091783Y0122335D03*
D11*
X0091371Y0089034D03*
X0080347Y0089034D03*
X0101569Y0032553D03*
X0112593Y0032553D03*
D12*
X0104465Y0085779D03*
X0104465Y0096803D03*
X0084057Y0133786D03*
X0084057Y0144810D03*
X0101498Y0140209D03*
X0101498Y0151232D03*
D13*
X0068428Y0140063D03*
X0068428Y0128960D03*
X0070492Y0094074D03*
X0070492Y0082971D03*
X0091556Y0038732D03*
X0091556Y0027630D03*
X0134985Y0089864D03*
X0134985Y0100967D03*
D14*
X0114585Y0110102D03*
X0114585Y0117189D03*
X0106566Y0117695D03*
X0106566Y0124782D03*
X0098693Y0124666D03*
X0098693Y0117580D03*
X0098718Y0110117D03*
X0098718Y0103030D03*
X0106466Y0102974D03*
X0106466Y0110060D03*
X0120349Y0070401D03*
X0112316Y0066206D03*
X0120349Y0063315D03*
X0127852Y0059942D03*
X0127852Y0067029D03*
X0112316Y0059120D03*
X0112303Y0054666D03*
X0112303Y0047580D03*
X0121301Y0047556D03*
X0121301Y0054642D03*
X0150080Y0057489D03*
X0157115Y0057533D03*
X0157115Y0050446D03*
X0150080Y0050402D03*
X0150047Y0042229D03*
X0150047Y0035143D03*
X0149021Y0029187D03*
X0149021Y0022100D03*
X0055239Y0082354D03*
X0055239Y0089441D03*
X0048845Y0119796D03*
X0048845Y0126883D03*
X0025711Y0127955D03*
X0025711Y0132925D03*
X0025711Y0140012D03*
X0025711Y0120869D03*
X0192880Y0185411D03*
X0192880Y0192497D03*
X0158185Y0254028D03*
X0158185Y0261115D03*
X0137315Y0257793D03*
X0137315Y0264880D03*
X0127683Y0261973D03*
X0127683Y0269059D03*
X0127015Y0283482D03*
X0127015Y0290569D03*
X0127666Y0296619D03*
X0127666Y0303706D03*
X0117828Y0290230D03*
X0117828Y0283143D03*
X0187971Y0286661D03*
X0187971Y0279574D03*
X0288344Y0181681D03*
X0288344Y0174595D03*
X0286757Y0152780D03*
X0286757Y0145694D03*
X0320002Y0101035D03*
X0326302Y0101035D03*
X0332601Y0101035D03*
X0332601Y0093949D03*
X0326302Y0093949D03*
X0320002Y0093949D03*
X0370790Y0054972D03*
X0370790Y0047886D03*
X0363309Y0049854D03*
X0363309Y0042768D03*
X0343624Y0039618D03*
X0337325Y0039618D03*
X0331026Y0039618D03*
X0324727Y0039618D03*
X0324727Y0046705D03*
X0331026Y0046705D03*
X0337325Y0046705D03*
X0343624Y0046705D03*
X0386431Y0136522D03*
X0386431Y0143608D03*
X0386603Y0148451D03*
X0386603Y0155537D03*
X0369347Y0173190D03*
X0369347Y0180277D03*
X0376427Y0182967D03*
X0376427Y0190054D03*
X0383941Y0189950D03*
X0383941Y0197037D03*
D15*
X0086003Y0073630D03*
X0086003Y0062606D03*
X0071417Y0106114D03*
X0071417Y0117137D03*
D16*
X0096354Y0133122D03*
X0103441Y0133122D03*
X0041720Y0137154D03*
X0034634Y0137154D03*
X0097915Y0078350D03*
X0105002Y0078350D03*
X0174333Y0088437D03*
X0181420Y0088437D03*
X0181420Y0098673D03*
X0174333Y0098673D03*
X0180951Y0179272D03*
X0188038Y0179272D03*
G36*
X0244957Y0192117D02*
X0242730Y0194344D01*
X0246069Y0197683D01*
X0248296Y0195456D01*
X0244957Y0192117D01*
G37*
G36*
X0249968Y0187106D02*
X0247741Y0189333D01*
X0251080Y0192672D01*
X0253307Y0190445D01*
X0249968Y0187106D01*
G37*
G36*
X0292072Y0207437D02*
X0294299Y0205210D01*
X0290960Y0201871D01*
X0288733Y0204098D01*
X0292072Y0207437D01*
G37*
G36*
X0297083Y0202426D02*
X0299310Y0200199D01*
X0295971Y0196860D01*
X0293744Y0199087D01*
X0297083Y0202426D01*
G37*
X0295402Y0173730D03*
X0302488Y0173730D03*
X0305161Y0155610D03*
X0312248Y0155610D03*
X0288487Y0135674D03*
X0281401Y0135674D03*
X0355042Y0173083D03*
X0362128Y0173083D03*
X0201450Y0292565D03*
X0194363Y0292565D03*
X0193949Y0303090D03*
X0186863Y0303090D03*
X0118703Y0303862D03*
X0111616Y0303862D03*
X0111422Y0296712D03*
X0118509Y0296712D03*
X0111289Y0280630D03*
X0104202Y0280630D03*
X0109835Y0260476D03*
X0116922Y0260476D03*
D17*
X0117837Y0143041D03*
X0117837Y0125640D03*
X0121021Y0096123D03*
X0121021Y0078722D03*
X0139181Y0065315D03*
X0139181Y0047914D03*
D18*
X0139283Y0076788D03*
X0150385Y0076788D03*
X0137696Y0113986D03*
X0126593Y0113986D03*
D19*
X0042499Y0122841D03*
X0042499Y0130241D03*
X0031699Y0130241D03*
X0031699Y0126541D03*
X0031699Y0122841D03*
D20*
X0029845Y0087248D03*
X0026105Y0087248D03*
X0033585Y0087248D03*
X0033585Y0077012D03*
X0029845Y0077012D03*
X0026105Y0077012D03*
D21*
X0029451Y0047492D03*
X0029451Y0060878D03*
D22*
X0041065Y0077807D03*
X0048546Y0077807D03*
X0044806Y0086468D03*
X0295435Y0181882D03*
X0302915Y0181882D03*
X0299175Y0190543D03*
D23*
X0118394Y0266207D03*
X0118394Y0273687D03*
X0108157Y0273687D03*
X0108157Y0269947D03*
X0108157Y0266207D03*
D24*
X0122250Y0033177D03*
X0122250Y0030618D03*
X0122250Y0028059D03*
X0122250Y0025500D03*
X0139573Y0025500D03*
X0139573Y0028059D03*
X0139573Y0030618D03*
X0139573Y0033177D03*
D25*
X0158501Y0029098D03*
X0169525Y0029098D03*
D26*
X0176380Y0282354D03*
X0176380Y0286685D03*
X0176380Y0291016D03*
X0176380Y0295346D03*
X0176380Y0299677D03*
X0176380Y0304008D03*
X0176380Y0308338D03*
X0176380Y0312669D03*
X0176380Y0317000D03*
X0176380Y0321331D03*
X0176380Y0325661D03*
X0142365Y0325661D03*
X0142365Y0321331D03*
X0142365Y0317000D03*
X0142365Y0312669D03*
X0142365Y0308338D03*
X0142365Y0304008D03*
X0142365Y0299677D03*
X0142365Y0295346D03*
X0142365Y0291016D03*
X0142365Y0286685D03*
X0142365Y0282354D03*
D27*
X0148546Y0275268D03*
X0152876Y0275268D03*
X0157207Y0275268D03*
X0161538Y0275268D03*
X0165869Y0275268D03*
X0170199Y0275268D03*
D28*
X0128958Y0316464D03*
X0118131Y0316464D03*
D29*
X0123545Y0322468D03*
X0123545Y0310460D03*
D30*
X0353467Y0184106D03*
X0362128Y0180366D03*
X0362128Y0187846D03*
X0376130Y0196637D03*
X0376130Y0204117D03*
X0367468Y0200377D03*
X0370790Y0042571D03*
X0370790Y0035090D03*
X0379451Y0038831D03*
D31*
X0310392Y0136706D03*
X0307792Y0136706D03*
X0305192Y0136706D03*
X0305192Y0144006D03*
X0307792Y0144006D03*
X0310392Y0144006D03*
D32*
X0310120Y0182138D03*
X0315120Y0182138D03*
X0320120Y0182138D03*
X0325120Y0182138D03*
X0330120Y0182138D03*
X0335120Y0182138D03*
X0340120Y0182138D03*
X0340120Y0202610D03*
X0335120Y0202610D03*
X0330120Y0202610D03*
X0325120Y0202610D03*
X0320120Y0202610D03*
X0315120Y0202610D03*
X0310120Y0202610D03*
D33*
X0402680Y0230169D03*
X0402680Y0250169D03*
D34*
X0349411Y0250352D03*
X0349411Y0256257D03*
X0349411Y0262163D03*
X0349411Y0268068D03*
X0349411Y0273974D03*
X0349411Y0279879D03*
X0349411Y0285785D03*
X0349411Y0291690D03*
X0298230Y0291690D03*
X0298230Y0285785D03*
X0298230Y0279879D03*
X0298230Y0273974D03*
X0298230Y0268068D03*
X0298230Y0262163D03*
X0298230Y0256257D03*
X0298230Y0250352D03*
X0298230Y0244446D03*
X0298230Y0238541D03*
X0298230Y0232635D03*
X0298230Y0226730D03*
X0298230Y0220824D03*
X0349411Y0220824D03*
X0349411Y0226730D03*
X0349411Y0232635D03*
X0349411Y0238541D03*
X0349411Y0244446D03*
D35*
X0344490Y0213934D03*
X0338585Y0213934D03*
X0332679Y0213934D03*
X0326774Y0213934D03*
X0320868Y0213934D03*
X0314963Y0213934D03*
X0309057Y0213934D03*
X0303152Y0213934D03*
D36*
X0262719Y0184342D03*
X0262719Y0176468D03*
X0254845Y0176468D03*
X0254845Y0184342D03*
D37*
X0248546Y0183821D03*
X0246971Y0183821D03*
X0245396Y0183821D03*
X0243821Y0183821D03*
X0242246Y0183821D03*
X0242246Y0176754D03*
X0243821Y0176754D03*
X0245396Y0176754D03*
X0246971Y0176754D03*
X0248546Y0176754D03*
M02*
