G75*
%MOIN*%
%OFA0B0*%
%FSLAX25Y25*%
%IPPOS*%
%LPD*%
%AMOC8*
5,1,8,0,0,1.08239X$1,22.5*
%
%ADD10R,0.05200X0.02200*%
%ADD11R,0.04724X0.03150*%
%ADD12R,0.03150X0.04724*%
%ADD13R,0.02165X0.04724*%
%ADD14R,0.06299X0.03150*%
%ADD15R,0.03937X0.05512*%
%ADD16R,0.07874X0.02756*%
%ADD17R,0.02756X0.07874*%
%ADD18R,0.08700X0.02400*%
%ADD19R,0.08661X0.03346*%
%ADD20R,0.04134X0.03937*%
%ADD21R,0.02362X0.08661*%
%ADD22R,0.05512X0.03937*%
%ADD23R,0.01600X0.03300*%
%ADD24R,0.16000X0.06000*%
%ADD25R,0.07874X0.03937*%
%ADD26R,0.03937X0.07087*%
%ADD27R,0.03937X0.03937*%
%ADD28R,0.00886X0.02362*%
%ADD29R,0.04803X0.02441*%
%ADD30C,0.00800*%
%ADD31R,0.07874X0.04724*%
%ADD32R,0.07087X0.06299*%
%ADD33R,0.02441X0.04803*%
%ADD34R,0.04724X0.07874*%
%ADD35R,0.06299X0.07087*%
D10*
X0031699Y0132574D03*
X0031699Y0128874D03*
X0031699Y0125174D03*
X0042499Y0125174D03*
X0042499Y0132574D03*
D11*
X0025711Y0130288D03*
X0025711Y0123202D03*
X0048845Y0122129D03*
X0048845Y0129216D03*
X0025711Y0135258D03*
X0025711Y0142345D03*
X0056420Y0086656D03*
X0056420Y0093742D03*
X0111668Y0285993D03*
X0111668Y0293080D03*
X0113309Y0272266D03*
X0113309Y0279353D03*
X0124727Y0306912D03*
X0124727Y0313998D03*
X0131813Y0306912D03*
X0131813Y0313998D03*
X0129057Y0286046D03*
X0129057Y0293132D03*
X0120396Y0286046D03*
X0120396Y0293132D03*
X0091069Y0272180D03*
X0091069Y0279267D03*
X0369215Y0182896D03*
X0369215Y0189983D03*
X0288760Y0176788D03*
X0288760Y0183875D03*
X0386603Y0157870D03*
X0386603Y0150784D03*
X0287938Y0158263D03*
X0287938Y0151176D03*
X0278263Y0158112D03*
X0278263Y0151025D03*
X0386431Y0138855D03*
X0386431Y0145942D03*
X0383941Y0199370D03*
X0383941Y0192284D03*
X0376821Y0190025D03*
X0376821Y0182938D03*
X0174333Y0097069D03*
X0174333Y0104156D03*
X0174333Y0091951D03*
X0174333Y0084865D03*
X0370790Y0057306D03*
X0370790Y0050219D03*
X0363309Y0045101D03*
X0363309Y0052187D03*
X0026589Y0184120D03*
X0026589Y0177033D03*
X0069609Y0129353D03*
X0069609Y0136439D03*
X0084963Y0136439D03*
X0084963Y0129353D03*
X0112522Y0127778D03*
X0112522Y0120691D03*
X0069609Y0112424D03*
X0069609Y0119510D03*
X0093231Y0136439D03*
X0093231Y0129353D03*
X0077483Y0129353D03*
X0077483Y0136439D03*
X0103861Y0146282D03*
X0103861Y0153369D03*
D12*
X0034634Y0139487D03*
X0041720Y0139487D03*
X0124727Y0301006D03*
X0131813Y0301006D03*
X0194018Y0289195D03*
X0186931Y0289195D03*
X0194018Y0297463D03*
X0186931Y0297463D03*
X0194018Y0306124D03*
X0186931Y0306124D03*
X0187325Y0253369D03*
X0180239Y0253369D03*
X0131420Y0258487D03*
X0138506Y0258487D03*
X0354756Y0176071D03*
X0361842Y0176071D03*
X0295656Y0176041D03*
X0302742Y0176041D03*
X0312248Y0157943D03*
X0305161Y0157943D03*
G36*
X0297083Y0204760D02*
X0299310Y0202533D01*
X0295971Y0199194D01*
X0293744Y0201421D01*
X0297083Y0204760D01*
G37*
G36*
X0292072Y0209771D02*
X0294299Y0207544D01*
X0290960Y0204205D01*
X0288733Y0206432D01*
X0292072Y0209771D01*
G37*
X0225514Y0184865D03*
X0218428Y0184865D03*
X0139294Y0077384D03*
X0146380Y0077384D03*
X0146380Y0062030D03*
X0139294Y0062030D03*
X0138506Y0034865D03*
X0131420Y0034865D03*
X0122758Y0077384D03*
X0129845Y0077384D03*
X0146380Y0054156D03*
X0139294Y0054156D03*
X0139294Y0069904D03*
X0146380Y0069904D03*
D13*
X0033585Y0089589D03*
X0029845Y0089589D03*
X0026105Y0089589D03*
X0026105Y0079353D03*
X0029845Y0079353D03*
X0033585Y0079353D03*
X0098546Y0270691D03*
X0102286Y0270691D03*
X0106026Y0270691D03*
X0106026Y0280928D03*
X0098546Y0280928D03*
X0088309Y0144313D03*
X0092050Y0144313D03*
X0095790Y0144313D03*
X0095790Y0154550D03*
X0088309Y0154550D03*
D14*
X0057798Y0071479D03*
X0071183Y0071479D03*
D15*
X0044806Y0088802D03*
X0048546Y0080140D03*
X0041065Y0080140D03*
X0299175Y0192876D03*
X0302915Y0184215D03*
X0295435Y0184215D03*
D16*
X0142365Y0323585D03*
X0142365Y0327916D03*
X0142365Y0319254D03*
X0142365Y0314924D03*
X0142365Y0310593D03*
X0142365Y0306262D03*
X0142365Y0301931D03*
X0142365Y0297601D03*
X0142365Y0293270D03*
X0142365Y0288939D03*
X0142365Y0284609D03*
X0176380Y0284609D03*
X0176380Y0288939D03*
X0176380Y0297601D03*
X0176380Y0293270D03*
X0176380Y0301931D03*
X0176380Y0306262D03*
X0176380Y0310593D03*
X0176380Y0314924D03*
X0176380Y0319254D03*
X0176380Y0323585D03*
X0176380Y0327916D03*
D17*
X0148546Y0277522D03*
X0152876Y0277522D03*
X0157207Y0277522D03*
X0161538Y0277522D03*
X0165869Y0277522D03*
X0170199Y0277522D03*
D18*
X0169672Y0248624D03*
X0169672Y0253624D03*
X0169672Y0258624D03*
X0169672Y0263624D03*
X0149072Y0263624D03*
X0149072Y0258624D03*
X0149072Y0253624D03*
X0149072Y0248624D03*
D19*
X0111735Y0319412D03*
X0111735Y0308585D03*
D20*
X0117739Y0313998D03*
X0105731Y0313998D03*
D21*
X0205593Y0236439D03*
X0205593Y0215967D03*
X0210593Y0236439D03*
X0200593Y0236439D03*
X0195593Y0236439D03*
X0210593Y0215967D03*
X0200593Y0215967D03*
X0195593Y0215967D03*
X0185593Y0236439D03*
X0185593Y0215967D03*
X0190593Y0236439D03*
X0180593Y0236439D03*
X0190593Y0215967D03*
X0180593Y0215967D03*
X0157168Y0236046D03*
X0157168Y0215573D03*
X0162168Y0236046D03*
X0152168Y0236046D03*
X0147168Y0236046D03*
X0162168Y0215573D03*
X0152168Y0215573D03*
X0147168Y0215573D03*
X0137168Y0236046D03*
X0137168Y0215573D03*
X0142168Y0236046D03*
X0132168Y0236046D03*
X0142168Y0215573D03*
X0132168Y0215573D03*
X0349294Y0160061D03*
X0349294Y0139589D03*
X0354294Y0160061D03*
X0344294Y0160061D03*
X0339294Y0160061D03*
X0354294Y0139589D03*
X0344294Y0139589D03*
X0339294Y0139589D03*
X0329294Y0160061D03*
X0329294Y0139589D03*
X0334294Y0160061D03*
X0324294Y0160061D03*
X0334294Y0139589D03*
X0324294Y0139589D03*
D22*
X0353467Y0186439D03*
X0362128Y0190180D03*
X0362128Y0182699D03*
X0367468Y0202710D03*
X0376130Y0206450D03*
X0376130Y0198970D03*
X0379451Y0041164D03*
X0370790Y0037424D03*
X0370790Y0044904D03*
D23*
X0305192Y0139039D03*
X0307792Y0139039D03*
X0310392Y0139039D03*
X0310392Y0146339D03*
X0307792Y0146339D03*
X0305192Y0146339D03*
D24*
X0402680Y0232502D03*
X0402680Y0252502D03*
D25*
X0298230Y0294023D03*
X0298230Y0288118D03*
X0298230Y0282212D03*
X0298230Y0276307D03*
X0298230Y0270401D03*
X0298230Y0264496D03*
X0298230Y0258590D03*
X0298230Y0252685D03*
X0298230Y0246779D03*
X0298230Y0240874D03*
X0298230Y0234968D03*
X0298230Y0229063D03*
X0298230Y0223157D03*
X0349411Y0223157D03*
X0349411Y0229063D03*
X0349411Y0234968D03*
X0349411Y0240874D03*
X0349411Y0246779D03*
X0349411Y0252685D03*
X0349411Y0258590D03*
X0349411Y0264496D03*
X0349411Y0270401D03*
X0349411Y0276307D03*
X0349411Y0282212D03*
X0349411Y0288118D03*
X0349411Y0294023D03*
D26*
X0303152Y0216267D03*
X0309057Y0216267D03*
X0314963Y0216267D03*
X0320868Y0216267D03*
X0326774Y0216267D03*
X0332679Y0216267D03*
X0338585Y0216267D03*
X0344490Y0216267D03*
D27*
X0230239Y0177384D03*
X0230239Y0169510D03*
X0238113Y0169510D03*
X0238113Y0177384D03*
D28*
X0218821Y0176981D03*
X0217246Y0176981D03*
X0215672Y0176981D03*
X0214097Y0176981D03*
X0212522Y0176981D03*
X0212522Y0169914D03*
X0214097Y0169914D03*
X0215672Y0169914D03*
X0217246Y0169914D03*
X0218821Y0169914D03*
D29*
X0088152Y0112620D03*
X0088152Y0116361D03*
X0088152Y0120101D03*
X0077837Y0120101D03*
X0077837Y0112620D03*
D30*
X0112522Y0090376D02*
X0095199Y0090376D01*
X0095199Y0095494D01*
X0097561Y0095494D01*
X0098490Y0094594D01*
X0099546Y0093847D01*
X0100703Y0093271D01*
X0101936Y0092879D01*
X0103214Y0092680D01*
X0104507Y0092680D01*
X0105785Y0092879D01*
X0107018Y0093271D01*
X0108176Y0093847D01*
X0109231Y0094594D01*
X0110160Y0095494D01*
X0112522Y0095494D01*
X0112522Y0090376D01*
X0112522Y0091027D02*
X0095199Y0091027D01*
X0095199Y0091826D02*
X0112522Y0091826D01*
X0112522Y0092624D02*
X0095199Y0092624D01*
X0095199Y0093423D02*
X0100398Y0093423D01*
X0107323Y0093423D02*
X0112522Y0093423D01*
X0099017Y0094221D02*
X0095199Y0094221D01*
X0108704Y0094221D02*
X0112522Y0094221D01*
X0098051Y0095020D02*
X0095199Y0095020D01*
X0109670Y0095020D02*
X0112522Y0095020D01*
X0095199Y0111636D02*
X0112522Y0111636D01*
X0112522Y0106518D01*
X0110160Y0106518D01*
X0109231Y0107418D01*
X0108176Y0108166D01*
X0107018Y0108742D01*
X0105785Y0109134D01*
X0104507Y0109332D01*
X0103214Y0109332D01*
X0101936Y0109134D01*
X0100703Y0108742D01*
X0099546Y0108166D01*
X0098490Y0107418D01*
X0097561Y0106518D01*
X0095199Y0106518D01*
X0095199Y0111636D01*
X0095199Y0106997D02*
X0098056Y0106997D01*
X0109666Y0106997D02*
X0112522Y0106997D01*
X0099023Y0107796D02*
X0095199Y0107796D01*
X0108698Y0107796D02*
X0112522Y0107796D01*
X0100407Y0108594D02*
X0095199Y0108594D01*
X0107315Y0108594D02*
X0112522Y0108594D01*
X0112522Y0109393D02*
X0095199Y0109393D01*
X0095199Y0110191D02*
X0112522Y0110191D01*
X0112522Y0110990D02*
X0095199Y0110990D01*
X0100317Y0034865D02*
X0100317Y0052187D01*
X0105435Y0052187D01*
X0105435Y0049825D01*
X0104535Y0048897D01*
X0103788Y0047841D01*
X0103212Y0046683D01*
X0102819Y0045451D01*
X0102621Y0044173D01*
X0102621Y0042879D01*
X0102819Y0041601D01*
X0103212Y0040369D01*
X0103788Y0039211D01*
X0104535Y0038155D01*
X0105435Y0037227D01*
X0105435Y0034865D01*
X0100317Y0034865D01*
X0100317Y0035131D02*
X0105435Y0035131D01*
X0105435Y0035930D02*
X0100317Y0035930D01*
X0100317Y0036728D02*
X0105435Y0036728D01*
X0105145Y0037527D02*
X0100317Y0037527D01*
X0100317Y0038325D02*
X0104415Y0038325D01*
X0103850Y0039124D02*
X0100317Y0039124D01*
X0100317Y0039922D02*
X0103434Y0039922D01*
X0103100Y0040721D02*
X0100317Y0040721D01*
X0100317Y0041519D02*
X0102846Y0041519D01*
X0102708Y0042318D02*
X0100317Y0042318D01*
X0100317Y0043116D02*
X0102621Y0043116D01*
X0102621Y0043915D02*
X0100317Y0043915D01*
X0100317Y0044713D02*
X0102705Y0044713D01*
X0102839Y0045512D02*
X0100317Y0045512D01*
X0100317Y0046310D02*
X0103093Y0046310D01*
X0103423Y0047109D02*
X0100317Y0047109D01*
X0100317Y0047907D02*
X0103835Y0047907D01*
X0104400Y0048706D02*
X0100317Y0048706D01*
X0100317Y0049504D02*
X0105124Y0049504D01*
X0105435Y0050303D02*
X0100317Y0050303D01*
X0100317Y0051101D02*
X0105435Y0051101D01*
X0105435Y0051900D02*
X0100317Y0051900D01*
X0121577Y0052187D02*
X0121577Y0034865D01*
X0116459Y0034865D01*
X0116459Y0037227D01*
X0117359Y0038155D01*
X0118107Y0039211D01*
X0118683Y0040369D01*
X0119075Y0041601D01*
X0119273Y0042879D01*
X0119273Y0044173D01*
X0119075Y0045451D01*
X0118683Y0046683D01*
X0118107Y0047841D01*
X0117359Y0048897D01*
X0116459Y0049825D01*
X0116459Y0052187D01*
X0121577Y0052187D01*
X0121577Y0035131D02*
X0116459Y0035131D01*
X0116459Y0035930D02*
X0121577Y0035930D01*
X0121577Y0036728D02*
X0116459Y0036728D01*
X0116750Y0037527D02*
X0121577Y0037527D01*
X0121577Y0038325D02*
X0117480Y0038325D01*
X0118045Y0039124D02*
X0121577Y0039124D01*
X0121577Y0039922D02*
X0118461Y0039922D01*
X0118795Y0040721D02*
X0121577Y0040721D01*
X0121577Y0041519D02*
X0119049Y0041519D01*
X0119186Y0042318D02*
X0121577Y0042318D01*
X0121577Y0043116D02*
X0119273Y0043116D01*
X0119273Y0043915D02*
X0121577Y0043915D01*
X0121577Y0044713D02*
X0119189Y0044713D01*
X0119056Y0045512D02*
X0121577Y0045512D01*
X0121577Y0046310D02*
X0118802Y0046310D01*
X0118471Y0047109D02*
X0121577Y0047109D01*
X0121577Y0047907D02*
X0118060Y0047907D01*
X0117494Y0048706D02*
X0121577Y0048706D01*
X0121577Y0049504D02*
X0116770Y0049504D01*
X0116459Y0050303D02*
X0121577Y0050303D01*
X0121577Y0051101D02*
X0116459Y0051101D01*
X0116459Y0051900D02*
X0121577Y0051900D01*
D31*
X0082994Y0101794D03*
X0082994Y0089195D03*
D32*
X0104648Y0119117D03*
X0104648Y0130140D03*
D33*
X0122561Y0059235D03*
X0126302Y0059235D03*
X0130042Y0059235D03*
X0130042Y0069550D03*
X0122561Y0069550D03*
D34*
X0111341Y0064392D03*
X0098743Y0064392D03*
D35*
X0129451Y0043132D03*
X0140475Y0043132D03*
M02*
