G75*
%MOIN*%
%OFA0B0*%
%FSLAX25Y25*%
%IPPOS*%
%LPD*%
%AMOC8*
5,1,8,0,0,1.08239X$1,22.5*
%
%ADD10R,0.07400X0.07400*%
%ADD11C,0.07400*%
%ADD12C,0.17000*%
%ADD13R,0.06000X0.03000*%
%ADD14R,0.02200X0.05000*%
%ADD15R,0.05000X0.02200*%
%ADD16R,0.04724X0.02165*%
%ADD17R,0.07480X0.04331*%
%ADD18C,0.07000*%
%ADD19R,0.03543X0.03150*%
%ADD20R,0.09449X0.09449*%
%ADD21C,0.06400*%
%ADD22R,0.04724X0.03150*%
%ADD23R,0.03150X0.04724*%
%ADD24R,0.03740X0.03543*%
%ADD25R,0.04724X0.05512*%
%ADD26OC8,0.07400*%
%ADD27R,0.03543X0.03740*%
%ADD28R,0.09843X0.10039*%
%ADD29R,0.09843X0.07677*%
%ADD30R,0.06000X0.06000*%
%ADD31C,0.06000*%
%ADD32R,0.04700X0.04700*%
%ADD33R,0.05900X0.06300*%
%ADD34C,0.04331*%
%ADD35C,0.02400*%
%ADD36C,0.01600*%
%ADD37C,0.04724*%
%ADD38C,0.03200*%
%ADD39C,0.04000*%
%ADD40C,0.01200*%
D10*
X0030000Y0156800D03*
X0386000Y0156800D03*
D11*
X0396000Y0156800D03*
X0406000Y0156800D03*
X0416000Y0156800D03*
X0080000Y0031800D03*
X0070000Y0031800D03*
X0060000Y0031800D03*
X0050000Y0031800D03*
X0040000Y0031800D03*
X0030000Y0031800D03*
X0040000Y0156800D03*
X0050000Y0156800D03*
X0060000Y0156800D03*
D12*
X0058937Y0081800D03*
X0035315Y0081800D03*
X0047126Y0063296D03*
D13*
X0051000Y0119300D03*
X0029000Y0119300D03*
X0029000Y0134300D03*
X0051000Y0134300D03*
X0394000Y0134300D03*
X0416000Y0134300D03*
X0416000Y0119300D03*
X0394000Y0119300D03*
X0394000Y0099300D03*
X0416000Y0099300D03*
X0416000Y0084300D03*
X0394000Y0084300D03*
X0394000Y0064300D03*
X0416000Y0064300D03*
X0416000Y0049300D03*
X0394000Y0049300D03*
X0394000Y0029300D03*
X0416000Y0029300D03*
X0416000Y0014300D03*
X0394000Y0014300D03*
D14*
X0231024Y0069900D03*
X0227874Y0069900D03*
X0224724Y0069900D03*
X0221575Y0069900D03*
X0218425Y0069900D03*
X0215276Y0069900D03*
X0212126Y0069900D03*
X0208976Y0069900D03*
X0208976Y0103700D03*
X0212126Y0103700D03*
X0215276Y0103700D03*
X0218425Y0103700D03*
X0221575Y0103700D03*
X0224724Y0103700D03*
X0227874Y0103700D03*
X0231024Y0103700D03*
D15*
X0236900Y0097824D03*
X0236900Y0094674D03*
X0236900Y0091524D03*
X0236900Y0088375D03*
X0236900Y0085225D03*
X0236900Y0082076D03*
X0236900Y0078926D03*
X0236900Y0075776D03*
X0203100Y0075776D03*
X0203100Y0078926D03*
X0203100Y0082076D03*
X0203100Y0085225D03*
X0203100Y0088375D03*
X0203100Y0091524D03*
X0203100Y0094674D03*
X0203100Y0097824D03*
D16*
X0144119Y0098060D03*
X0133881Y0098060D03*
X0133881Y0101800D03*
X0133881Y0105540D03*
X0144119Y0105540D03*
D17*
X0223717Y0054328D03*
X0238283Y0054328D03*
X0238283Y0045272D03*
X0223717Y0045272D03*
D18*
X0327205Y0026800D03*
X0352795Y0026800D03*
D19*
X0309331Y0032800D03*
X0301063Y0029060D03*
X0301063Y0036540D03*
X0263937Y0129060D03*
X0255669Y0132800D03*
X0263937Y0136540D03*
D20*
X0079000Y0105461D03*
X0079000Y0088139D03*
D21*
X0254000Y0026800D03*
X0264000Y0026800D03*
X0274000Y0026800D03*
X0274000Y0016800D03*
X0264000Y0016800D03*
X0254000Y0016800D03*
D22*
X0248000Y0046257D03*
X0248000Y0053343D03*
X0215000Y0054343D03*
X0215000Y0047257D03*
X0300000Y0046257D03*
X0300000Y0053343D03*
X0154000Y0098257D03*
X0154000Y0105343D03*
X0124000Y0105343D03*
X0124000Y0098257D03*
X0116000Y0095343D03*
X0116000Y0088257D03*
X0116000Y0080343D03*
X0116000Y0073257D03*
X0080000Y0050343D03*
X0080000Y0043257D03*
X0060000Y0134257D03*
X0060000Y0141343D03*
X0234000Y0139257D03*
X0234000Y0146343D03*
X0317000Y0144257D03*
X0317000Y0151343D03*
X0355000Y0151343D03*
X0355000Y0144257D03*
D23*
X0263543Y0121800D03*
X0256457Y0121800D03*
X0246543Y0156800D03*
X0239457Y0156800D03*
X0146543Y0156800D03*
X0139457Y0156800D03*
X0214457Y0038800D03*
X0221543Y0038800D03*
D24*
X0310000Y0043599D03*
X0310000Y0056001D03*
X0070000Y0126599D03*
X0070000Y0139001D03*
D25*
X0154094Y0156800D03*
X0165906Y0156800D03*
X0254094Y0156800D03*
X0265906Y0156800D03*
D26*
X0180000Y0026800D03*
X0170000Y0026800D03*
X0160000Y0026800D03*
X0150000Y0026800D03*
X0140000Y0026800D03*
X0130000Y0026800D03*
X0130000Y0016800D03*
X0140000Y0016800D03*
X0150000Y0016800D03*
X0160000Y0016800D03*
X0170000Y0016800D03*
X0180000Y0016800D03*
D27*
X0140201Y0086800D03*
X0127799Y0086800D03*
D28*
X0099000Y0086859D03*
X0099000Y0106741D03*
D29*
X0164000Y0107804D03*
X0164000Y0095796D03*
D30*
X0094016Y0132824D03*
D31*
X0104016Y0132824D03*
X0114016Y0132824D03*
X0124016Y0132824D03*
X0134016Y0132824D03*
X0144016Y0132824D03*
X0154016Y0132824D03*
X0164016Y0132824D03*
X0174016Y0132824D03*
X0184016Y0132824D03*
X0194016Y0132824D03*
X0204016Y0132824D03*
X0214016Y0132824D03*
X0224016Y0132824D03*
X0234016Y0132824D03*
X0244016Y0132824D03*
D32*
X0097950Y0149900D03*
X0097950Y0157700D03*
D33*
X0110750Y0153800D03*
D34*
X0324779Y0151800D02*
X0328323Y0151800D01*
X0328323Y0151800D01*
X0324779Y0151800D01*
X0324779Y0151800D01*
X0324779Y0145107D02*
X0328323Y0145107D01*
X0328323Y0145107D01*
X0324779Y0145107D01*
X0324779Y0145107D01*
X0343677Y0145107D02*
X0347221Y0145107D01*
X0347221Y0145107D01*
X0343677Y0145107D01*
X0343677Y0145107D01*
X0343677Y0151800D02*
X0347221Y0151800D01*
X0347221Y0151800D01*
X0343677Y0151800D01*
X0343677Y0151800D01*
X0343677Y0158493D02*
X0347221Y0158493D01*
X0347221Y0158493D01*
X0343677Y0158493D01*
X0343677Y0158493D01*
X0328323Y0158493D02*
X0324779Y0158493D01*
X0328323Y0158493D02*
X0328323Y0158493D01*
X0324779Y0158493D01*
X0324779Y0158493D01*
D35*
X0326551Y0151800D02*
X0326094Y0151343D01*
X0317000Y0151343D01*
X0275543Y0151343D01*
X0272000Y0147800D01*
X0243000Y0147800D01*
X0240000Y0150800D01*
X0235543Y0146343D01*
X0234000Y0146343D01*
X0240000Y0150800D02*
X0240000Y0156257D01*
X0239457Y0156800D01*
X0201000Y0156800D01*
X0191000Y0146800D01*
X0166000Y0156894D02*
X0166000Y0158800D01*
X0162000Y0162800D01*
X0068000Y0162800D01*
X0065000Y0165800D01*
X0053000Y0165800D01*
X0050000Y0162800D01*
X0050000Y0156800D01*
X0060000Y0156800D02*
X0077000Y0156800D01*
X0085000Y0149800D01*
X0097850Y0149800D01*
X0097950Y0149900D01*
X0102000Y0144800D02*
X0104000Y0146800D01*
X0104000Y0154800D01*
X0101100Y0156700D01*
X0097950Y0157700D01*
X0101100Y0157900D02*
X0103000Y0158800D01*
X0137457Y0158800D01*
X0139457Y0156800D01*
X0139000Y0156343D02*
X0139000Y0150800D01*
X0143000Y0146800D01*
X0134016Y0136784D02*
X0131000Y0139800D01*
X0134016Y0136784D02*
X0134016Y0132824D01*
X0143039Y0123800D01*
X0173000Y0123800D01*
X0144000Y0110800D02*
X0141000Y0113800D01*
X0116000Y0113800D01*
X0104000Y0125800D01*
X0104000Y0132808D01*
X0104016Y0132824D01*
X0104016Y0142784D01*
X0102000Y0144800D01*
X0077000Y0144800D01*
X0075000Y0146800D01*
X0068000Y0146800D01*
X0033000Y0146800D01*
X0030000Y0149800D01*
X0030000Y0156800D01*
X0085000Y0136800D02*
X0088976Y0132824D01*
X0094016Y0132824D01*
X0094000Y0132808D01*
X0094000Y0126800D01*
X0111000Y0109800D01*
X0138000Y0109800D01*
X0139000Y0108800D01*
X0139000Y0102800D01*
X0138000Y0101800D01*
X0133881Y0101800D01*
X0133881Y0105540D02*
X0129000Y0105540D01*
X0124197Y0105540D01*
X0124000Y0105343D01*
X0116000Y0105343D01*
X0099118Y0105343D01*
X0099000Y0105461D01*
X0124000Y0098257D02*
X0124000Y0091800D01*
X0149000Y0091800D02*
X0152000Y0091800D01*
X0164000Y0079800D01*
X0164000Y0071800D01*
X0133000Y0040800D01*
X0133000Y0038800D01*
X0121000Y0038800D01*
X0107000Y0038800D01*
X0088000Y0019800D01*
X0062000Y0019800D01*
X0050000Y0031800D01*
X0030000Y0031800D02*
X0030000Y0042800D01*
X0030000Y0062800D02*
X0046630Y0062800D01*
X0047126Y0063296D01*
X0047126Y0069989D01*
X0035315Y0081800D01*
X0035315Y0094115D01*
X0050000Y0108800D01*
X0050000Y0118300D01*
X0051000Y0119300D01*
X0094000Y0132839D02*
X0094016Y0132824D01*
X0094000Y0132839D02*
X0094000Y0139800D01*
X0146543Y0156800D02*
X0154094Y0156800D01*
X0165906Y0156800D02*
X0166000Y0156894D01*
X0234000Y0139257D02*
X0234000Y0132839D01*
X0234016Y0132824D01*
X0244016Y0132824D02*
X0255646Y0132824D01*
X0255669Y0132800D01*
X0263937Y0136540D02*
X0264197Y0136800D01*
X0271000Y0136800D01*
X0278457Y0144257D01*
X0317000Y0144257D01*
X0325701Y0144257D01*
X0326551Y0145107D01*
X0329693Y0145107D01*
X0336000Y0138800D01*
X0333000Y0151800D02*
X0326551Y0151800D01*
X0333000Y0151800D02*
X0339693Y0158493D01*
X0345449Y0158493D01*
X0362307Y0158493D01*
X0372000Y0148800D01*
X0380000Y0147800D02*
X0364000Y0163800D01*
X0293000Y0163800D01*
X0286000Y0156800D01*
X0265906Y0156800D01*
X0254094Y0156800D02*
X0246543Y0156800D01*
X0144000Y0110800D02*
X0144000Y0105659D01*
X0144119Y0105540D01*
X0149000Y0105540D01*
X0149000Y0091800D01*
X0154000Y0098257D02*
X0156461Y0095796D01*
X0164000Y0095796D01*
X0172996Y0095796D01*
X0173000Y0095800D01*
X0156461Y0107804D02*
X0154000Y0105343D01*
X0153998Y0105369D01*
X0153993Y0105394D01*
X0153985Y0105418D01*
X0153974Y0105442D01*
X0153959Y0105463D01*
X0153942Y0105482D01*
X0153923Y0105499D01*
X0153902Y0105514D01*
X0153878Y0105525D01*
X0153854Y0105533D01*
X0153829Y0105538D01*
X0153803Y0105540D01*
X0149000Y0105540D01*
X0156461Y0107804D02*
X0164000Y0107804D01*
X0123000Y0077800D02*
X0118457Y0073257D01*
X0116000Y0073257D01*
X0089000Y0056800D02*
X0083500Y0062300D01*
X0089000Y0056800D02*
X0089000Y0055800D01*
X0133000Y0038800D02*
X0133000Y0029800D01*
X0130000Y0026800D01*
X0130000Y0016800D02*
X0094000Y0016800D01*
X0089000Y0011800D01*
X0130000Y0015800D02*
X0135000Y0010800D01*
X0164000Y0010800D01*
X0169000Y0015800D01*
X0170000Y0026800D02*
X0180000Y0026800D01*
X0160000Y0026800D02*
X0160000Y0035800D01*
X0163000Y0038800D01*
X0254000Y0016800D02*
X0254000Y0009800D01*
X0255000Y0009800D01*
X0259000Y0005800D01*
X0258000Y0005800D01*
X0259000Y0005800D02*
X0286000Y0005800D01*
X0300500Y0020300D01*
X0314000Y0006800D01*
X0393000Y0006800D01*
X0398500Y0012300D01*
X0398500Y0014300D01*
X0394000Y0014300D01*
X0398500Y0014300D02*
X0406000Y0021800D01*
X0406000Y0048800D01*
X0405500Y0049300D01*
X0394000Y0049300D01*
X0406000Y0048800D02*
X0406000Y0084800D01*
X0405500Y0084300D01*
X0394000Y0084300D01*
X0406000Y0084800D02*
X0406000Y0119800D01*
X0405500Y0119300D01*
X0394000Y0119300D01*
X0406000Y0119800D02*
X0406000Y0135800D01*
X0403000Y0138800D01*
X0366000Y0138800D01*
X0380000Y0147800D02*
X0391000Y0147800D01*
X0396000Y0152800D01*
X0396000Y0156800D01*
X0415000Y0155800D02*
X0416000Y0156800D01*
X0415000Y0155800D02*
X0415000Y0144800D01*
X0406000Y0135800D01*
X0394000Y0134300D02*
X0394000Y0133800D01*
X0323594Y0056001D02*
X0310000Y0056001D01*
X0323594Y0056001D02*
X0352795Y0026800D01*
X0358795Y0020800D01*
X0372000Y0020800D01*
X0352795Y0026800D02*
X0343795Y0017800D01*
X0324000Y0017800D01*
X0321000Y0020800D01*
X0311000Y0020800D01*
X0301063Y0020863D02*
X0300500Y0020300D01*
X0301063Y0020863D02*
X0301063Y0029060D01*
X0309331Y0032800D02*
X0313000Y0032800D01*
X0310000Y0035800D01*
X0310000Y0043599D01*
X0301063Y0045194D02*
X0300000Y0046257D01*
X0301063Y0045194D02*
X0301063Y0036540D01*
X0313000Y0032800D02*
X0321205Y0032800D01*
X0327205Y0026800D01*
X0291000Y0020800D02*
X0287000Y0016800D01*
X0274000Y0016800D01*
D36*
X0022304Y0021384D02*
X0022301Y0004100D01*
X0422700Y0004100D01*
X0422700Y0174500D01*
X0022339Y0174500D01*
X0022320Y0092232D01*
X0036800Y0106711D01*
X0036800Y0123211D01*
X0046600Y0133011D01*
X0046600Y0136380D01*
X0047420Y0137200D01*
X0054580Y0137200D01*
X0055323Y0136457D01*
X0056283Y0136457D01*
X0057058Y0137231D01*
X0062942Y0137231D01*
X0063762Y0136411D01*
X0063762Y0133606D01*
X0067597Y0129771D01*
X0072450Y0129771D01*
X0073270Y0128951D01*
X0073270Y0124248D01*
X0072450Y0123428D01*
X0067550Y0123428D01*
X0066730Y0124248D01*
X0066730Y0124416D01*
X0065457Y0125688D01*
X0059864Y0131282D01*
X0057058Y0131282D01*
X0056283Y0132057D01*
X0055237Y0132057D01*
X0054580Y0131400D01*
X0051211Y0131400D01*
X0041200Y0121389D01*
X0041200Y0104889D01*
X0039911Y0103600D01*
X0026200Y0089889D01*
X0026200Y0086612D01*
X0026286Y0086790D01*
X0026901Y0087770D01*
X0027623Y0088674D01*
X0028441Y0089492D01*
X0029345Y0090214D01*
X0030325Y0090829D01*
X0031367Y0091331D01*
X0032459Y0091713D01*
X0033587Y0091970D01*
X0034515Y0092075D01*
X0034515Y0082600D01*
X0036115Y0082600D01*
X0045590Y0082600D01*
X0045485Y0083528D01*
X0045228Y0084656D01*
X0044846Y0085748D01*
X0044344Y0086790D01*
X0043728Y0087770D01*
X0043007Y0088674D01*
X0042189Y0089492D01*
X0041285Y0090214D01*
X0040305Y0090829D01*
X0039263Y0091331D01*
X0038171Y0091713D01*
X0037043Y0091970D01*
X0036115Y0092075D01*
X0036115Y0082600D01*
X0036115Y0081000D01*
X0045590Y0081000D01*
X0045485Y0080072D01*
X0045228Y0078944D01*
X0044846Y0077852D01*
X0044344Y0076810D01*
X0043728Y0075830D01*
X0043007Y0074926D01*
X0042189Y0074108D01*
X0041285Y0073386D01*
X0040305Y0072771D01*
X0039263Y0072269D01*
X0038171Y0071887D01*
X0037043Y0071630D01*
X0036115Y0071525D01*
X0036115Y0081000D01*
X0034515Y0081000D01*
X0034515Y0071525D01*
X0033587Y0071630D01*
X0032459Y0071887D01*
X0031367Y0072269D01*
X0030325Y0072771D01*
X0029345Y0073386D01*
X0028441Y0074108D01*
X0027623Y0074926D01*
X0026901Y0075830D01*
X0026286Y0076810D01*
X0026200Y0076988D01*
X0026200Y0056711D01*
X0030368Y0052543D01*
X0076283Y0052543D01*
X0077058Y0053318D01*
X0082942Y0053318D01*
X0083260Y0053000D01*
X0097089Y0053000D01*
X0113971Y0069882D01*
X0113401Y0069882D01*
X0112943Y0070005D01*
X0112533Y0070242D01*
X0112197Y0070577D01*
X0111960Y0070987D01*
X0111838Y0071445D01*
X0111838Y0073257D01*
X0116000Y0073257D01*
X0116000Y0073257D01*
X0116000Y0076631D01*
X0113401Y0076631D01*
X0112943Y0076509D01*
X0112533Y0076272D01*
X0112197Y0075937D01*
X0111960Y0075526D01*
X0111838Y0075068D01*
X0111838Y0073257D01*
X0116000Y0073257D01*
X0116000Y0076631D01*
X0118599Y0076631D01*
X0119057Y0076509D01*
X0119467Y0076272D01*
X0119803Y0075937D01*
X0120040Y0075526D01*
X0120162Y0075068D01*
X0120162Y0073257D01*
X0116000Y0073257D01*
X0116000Y0073257D01*
X0116000Y0073257D01*
X0120162Y0073257D01*
X0120162Y0071445D01*
X0120040Y0070987D01*
X0119803Y0070577D01*
X0119467Y0070242D01*
X0119057Y0070005D01*
X0119040Y0070000D01*
X0122089Y0070000D01*
X0129238Y0077149D01*
X0129238Y0078548D01*
X0129811Y0079931D01*
X0130869Y0080989D01*
X0132252Y0081562D01*
X0133748Y0081562D01*
X0135131Y0080989D01*
X0136189Y0079931D01*
X0136762Y0078548D01*
X0136762Y0077052D01*
X0136189Y0075669D01*
X0135131Y0074611D01*
X0133748Y0074038D01*
X0132349Y0074038D01*
X0125200Y0066889D01*
X0124311Y0066000D01*
X0140089Y0066000D01*
X0146800Y0072711D01*
X0148089Y0074000D01*
X0151879Y0074000D01*
X0152869Y0074989D01*
X0154252Y0075562D01*
X0155748Y0075562D01*
X0157131Y0074989D01*
X0158189Y0073931D01*
X0158762Y0072548D01*
X0158762Y0071052D01*
X0158189Y0069669D01*
X0157131Y0068611D01*
X0155748Y0068038D01*
X0154252Y0068038D01*
X0152869Y0068611D01*
X0151879Y0069600D01*
X0149911Y0069600D01*
X0141911Y0061600D01*
X0116911Y0061600D01*
X0099911Y0044600D01*
X0083762Y0044600D01*
X0083762Y0041102D01*
X0082942Y0040282D01*
X0082200Y0040282D01*
X0082200Y0036409D01*
X0082889Y0036124D01*
X0084324Y0034689D01*
X0085100Y0032814D01*
X0085100Y0030786D01*
X0084324Y0028911D01*
X0082889Y0027476D01*
X0081739Y0027000D01*
X0085089Y0027000D01*
X0104238Y0046149D01*
X0104238Y0047548D01*
X0104811Y0048931D01*
X0105869Y0049989D01*
X0107252Y0050562D01*
X0108748Y0050562D01*
X0110131Y0049989D01*
X0111189Y0048931D01*
X0111762Y0047548D01*
X0111762Y0046052D01*
X0111189Y0044669D01*
X0110131Y0043611D01*
X0108748Y0043038D01*
X0107349Y0043038D01*
X0088200Y0023889D01*
X0086911Y0022600D01*
X0072089Y0022600D01*
X0069089Y0025600D01*
X0067800Y0026889D01*
X0067800Y0027191D01*
X0067111Y0027476D01*
X0065676Y0028911D01*
X0065000Y0030544D01*
X0064324Y0028911D01*
X0062889Y0027476D01*
X0061014Y0026700D01*
X0058986Y0026700D01*
X0058629Y0026848D01*
X0063077Y0022400D01*
X0086923Y0022400D01*
X0104796Y0040273D01*
X0105527Y0041004D01*
X0106483Y0041400D01*
X0118279Y0041400D01*
X0118869Y0041989D01*
X0120252Y0042562D01*
X0121748Y0042562D01*
X0123131Y0041989D01*
X0123721Y0041400D01*
X0130434Y0041400D01*
X0130796Y0042273D01*
X0161400Y0072877D01*
X0161400Y0078723D01*
X0150923Y0089200D01*
X0149511Y0089200D01*
X0144911Y0084600D01*
X0143372Y0084600D01*
X0143372Y0084350D01*
X0142552Y0083530D01*
X0137849Y0083530D01*
X0137029Y0084350D01*
X0137029Y0089250D01*
X0137849Y0090070D01*
X0142552Y0090070D01*
X0143356Y0089267D01*
X0146400Y0092311D01*
X0146400Y0095577D01*
X0141176Y0095577D01*
X0140356Y0096397D01*
X0140356Y0099722D01*
X0141176Y0100543D01*
X0146400Y0100543D01*
X0146400Y0102940D01*
X0143601Y0102940D01*
X0143318Y0103057D01*
X0141176Y0103057D01*
X0140356Y0103878D01*
X0140356Y0107203D01*
X0141176Y0108023D01*
X0141400Y0108023D01*
X0141400Y0109723D01*
X0139923Y0111200D01*
X0115483Y0111200D01*
X0114527Y0111596D01*
X0102527Y0123596D01*
X0101796Y0124327D01*
X0101400Y0125283D01*
X0101400Y0129217D01*
X0100286Y0130331D01*
X0099616Y0131948D01*
X0099616Y0133699D01*
X0100286Y0135316D01*
X0101416Y0136446D01*
X0101416Y0141707D01*
X0100923Y0142200D01*
X0076483Y0142200D01*
X0075527Y0142596D01*
X0073923Y0144200D01*
X0069857Y0144200D01*
X0069857Y0142255D01*
X0069940Y0142172D01*
X0072450Y0142172D01*
X0073270Y0141352D01*
X0073270Y0136649D01*
X0072450Y0135829D01*
X0067550Y0135829D01*
X0066730Y0136649D01*
X0066730Y0139143D01*
X0063717Y0139143D01*
X0062942Y0138369D01*
X0057058Y0138369D01*
X0056238Y0139189D01*
X0056238Y0143498D01*
X0056940Y0144200D01*
X0032483Y0144200D01*
X0031527Y0144596D01*
X0030796Y0145327D01*
X0030796Y0145327D01*
X0028527Y0147596D01*
X0027796Y0148327D01*
X0027400Y0149283D01*
X0027400Y0151700D01*
X0025720Y0151700D01*
X0024900Y0152520D01*
X0024900Y0161080D01*
X0025720Y0161900D01*
X0034280Y0161900D01*
X0035100Y0161080D01*
X0035100Y0158297D01*
X0035676Y0159689D01*
X0037111Y0161124D01*
X0038986Y0161900D01*
X0041014Y0161900D01*
X0042889Y0161124D01*
X0044324Y0159689D01*
X0045000Y0158056D01*
X0045676Y0159689D01*
X0047111Y0161124D01*
X0047400Y0161243D01*
X0047400Y0163317D01*
X0047796Y0164273D01*
X0048527Y0165004D01*
X0051527Y0168004D01*
X0052483Y0168400D01*
X0065517Y0168400D01*
X0066473Y0168004D01*
X0067204Y0167273D01*
X0069077Y0165400D01*
X0076079Y0165400D01*
X0075811Y0165669D01*
X0075238Y0167052D01*
X0075238Y0168548D01*
X0075811Y0169931D01*
X0076869Y0170989D01*
X0078252Y0171562D01*
X0079748Y0171562D01*
X0081131Y0170989D01*
X0081321Y0170800D01*
X0401597Y0170800D01*
X0402699Y0170343D01*
X0403543Y0169499D01*
X0408543Y0164499D01*
X0409000Y0163397D01*
X0409000Y0161012D01*
X0410324Y0159689D01*
X0410790Y0158563D01*
X0410903Y0158911D01*
X0411296Y0159683D01*
X0411805Y0160383D01*
X0412417Y0160995D01*
X0413117Y0161504D01*
X0413889Y0161897D01*
X0414712Y0162165D01*
X0415567Y0162300D01*
X0415800Y0162300D01*
X0415800Y0157000D01*
X0416200Y0157000D01*
X0416200Y0162300D01*
X0416433Y0162300D01*
X0417288Y0162165D01*
X0418111Y0161897D01*
X0418883Y0161504D01*
X0419583Y0160995D01*
X0420195Y0160383D01*
X0420704Y0159683D01*
X0421097Y0158911D01*
X0421365Y0158088D01*
X0421500Y0157233D01*
X0421500Y0157000D01*
X0416200Y0157000D01*
X0416200Y0156600D01*
X0421500Y0156600D01*
X0421500Y0156367D01*
X0421365Y0155512D01*
X0421097Y0154689D01*
X0420704Y0153917D01*
X0420195Y0153217D01*
X0419583Y0152605D01*
X0418883Y0152096D01*
X0418111Y0151703D01*
X0417288Y0151435D01*
X0416433Y0151300D01*
X0416200Y0151300D01*
X0416200Y0156600D01*
X0415800Y0156600D01*
X0415800Y0151300D01*
X0415567Y0151300D01*
X0414712Y0151435D01*
X0413889Y0151703D01*
X0413117Y0152096D01*
X0412417Y0152605D01*
X0411805Y0153217D01*
X0411296Y0153917D01*
X0410903Y0154689D01*
X0410790Y0155037D01*
X0410324Y0153911D01*
X0408889Y0152476D01*
X0407014Y0151700D01*
X0404986Y0151700D01*
X0403111Y0152476D01*
X0401676Y0153911D01*
X0401000Y0155544D01*
X0400324Y0153911D01*
X0398889Y0152476D01*
X0398600Y0152357D01*
X0398600Y0152283D01*
X0398204Y0151327D01*
X0393204Y0146327D01*
X0392473Y0145596D01*
X0391517Y0145200D01*
X0380511Y0145200D01*
X0376911Y0141600D01*
X0364911Y0141600D01*
X0334200Y0110889D01*
X0334200Y0109921D01*
X0335189Y0108931D01*
X0335762Y0107548D01*
X0335762Y0106052D01*
X0335189Y0104669D01*
X0334131Y0103611D01*
X0332748Y0103038D01*
X0331349Y0103038D01*
X0297911Y0069600D01*
X0294121Y0069600D01*
X0293131Y0068611D01*
X0291748Y0068038D01*
X0290252Y0068038D01*
X0288869Y0068611D01*
X0287811Y0069669D01*
X0287238Y0071052D01*
X0287238Y0071927D01*
X0286762Y0071451D01*
X0286762Y0070052D01*
X0286189Y0068669D01*
X0285521Y0068000D01*
X0297089Y0068000D01*
X0299089Y0070000D01*
X0308089Y0070000D01*
X0309089Y0071000D01*
X0360089Y0071000D01*
X0389600Y0100511D01*
X0389600Y0101380D01*
X0390420Y0102200D01*
X0397580Y0102200D01*
X0398400Y0101380D01*
X0398400Y0097220D01*
X0397580Y0096400D01*
X0391711Y0096400D01*
X0363200Y0067889D01*
X0361911Y0066600D01*
X0332311Y0066600D01*
X0332411Y0066500D01*
X0389720Y0066500D01*
X0390420Y0067200D01*
X0397580Y0067200D01*
X0398400Y0066380D01*
X0398400Y0062220D01*
X0397580Y0061400D01*
X0390420Y0061400D01*
X0389720Y0062100D01*
X0330589Y0062100D01*
X0330089Y0062600D01*
X0329311Y0062600D01*
X0360911Y0031000D01*
X0389600Y0031000D01*
X0389600Y0031380D01*
X0390420Y0032200D01*
X0397580Y0032200D01*
X0398400Y0031380D01*
X0398400Y0027220D01*
X0397580Y0026400D01*
X0390420Y0026400D01*
X0390220Y0026600D01*
X0359089Y0026600D01*
X0357800Y0027889D01*
X0357541Y0028148D01*
X0357695Y0027775D01*
X0357695Y0025825D01*
X0357623Y0025650D01*
X0359872Y0023400D01*
X0369279Y0023400D01*
X0369869Y0023989D01*
X0371252Y0024562D01*
X0372748Y0024562D01*
X0374131Y0023989D01*
X0375189Y0022931D01*
X0375762Y0021548D01*
X0375762Y0020052D01*
X0375189Y0018669D01*
X0374131Y0017611D01*
X0372748Y0017038D01*
X0371252Y0017038D01*
X0369869Y0017611D01*
X0369279Y0018200D01*
X0358278Y0018200D01*
X0357322Y0018596D01*
X0353946Y0021973D01*
X0353770Y0021900D01*
X0351821Y0021900D01*
X0351645Y0021973D01*
X0345268Y0015596D01*
X0344312Y0015200D01*
X0323483Y0015200D01*
X0322527Y0015596D01*
X0321796Y0016327D01*
X0319923Y0018200D01*
X0313721Y0018200D01*
X0313131Y0017611D01*
X0311748Y0017038D01*
X0310252Y0017038D01*
X0308869Y0017611D01*
X0307811Y0018669D01*
X0307238Y0020052D01*
X0307238Y0021548D01*
X0307811Y0022931D01*
X0308869Y0023989D01*
X0310252Y0024562D01*
X0311748Y0024562D01*
X0313131Y0023989D01*
X0313721Y0023400D01*
X0321517Y0023400D01*
X0322473Y0023004D01*
X0325077Y0020400D01*
X0342718Y0020400D01*
X0347968Y0025650D01*
X0347895Y0025825D01*
X0347895Y0027775D01*
X0347968Y0027950D01*
X0322518Y0053401D01*
X0313022Y0053401D01*
X0312450Y0052829D01*
X0307550Y0052829D01*
X0306730Y0053649D01*
X0306730Y0058352D01*
X0307550Y0059172D01*
X0312450Y0059172D01*
X0313022Y0058601D01*
X0324112Y0058601D01*
X0325067Y0058205D01*
X0351645Y0031627D01*
X0351821Y0031700D01*
X0353770Y0031700D01*
X0354143Y0031545D01*
X0326089Y0059600D01*
X0307911Y0059600D01*
X0305911Y0057600D01*
X0296911Y0057600D01*
X0294855Y0055543D01*
X0296283Y0055543D01*
X0297058Y0056318D01*
X0302942Y0056318D01*
X0303762Y0055498D01*
X0303762Y0051189D01*
X0302942Y0050369D01*
X0297058Y0050369D01*
X0296283Y0051143D01*
X0291455Y0051143D01*
X0279200Y0038889D01*
X0279200Y0038889D01*
X0277911Y0037600D01*
X0270089Y0037600D01*
X0263089Y0044600D01*
X0261800Y0045889D01*
X0261800Y0054711D01*
X0265800Y0058711D01*
X0265800Y0076889D01*
X0265089Y0077600D01*
X0247741Y0077600D01*
X0247762Y0077548D01*
X0247762Y0076052D01*
X0247189Y0074669D01*
X0246131Y0073611D01*
X0244748Y0073038D01*
X0243252Y0073038D01*
X0242606Y0073305D01*
X0242911Y0073000D01*
X0258879Y0073000D01*
X0259869Y0073989D01*
X0261252Y0074562D01*
X0262748Y0074562D01*
X0264131Y0073989D01*
X0265189Y0072931D01*
X0265762Y0071548D01*
X0265762Y0070052D01*
X0265189Y0068669D01*
X0264131Y0067611D01*
X0262748Y0067038D01*
X0261252Y0067038D01*
X0259869Y0067611D01*
X0258879Y0068600D01*
X0253521Y0068600D01*
X0254189Y0067931D01*
X0254762Y0066548D01*
X0254762Y0065052D01*
X0254498Y0064413D01*
X0258911Y0060000D01*
X0260200Y0058711D01*
X0260200Y0041711D01*
X0269911Y0032000D01*
X0271200Y0030711D01*
X0271200Y0030505D01*
X0271394Y0030700D01*
X0273085Y0031400D01*
X0274915Y0031400D01*
X0276606Y0030700D01*
X0277900Y0029406D01*
X0278068Y0029000D01*
X0279089Y0029000D01*
X0287238Y0037149D01*
X0287238Y0038548D01*
X0287811Y0039931D01*
X0288869Y0040989D01*
X0290252Y0041562D01*
X0291748Y0041562D01*
X0293131Y0040989D01*
X0294189Y0039931D01*
X0294762Y0038548D01*
X0294762Y0037052D01*
X0294189Y0035669D01*
X0293131Y0034611D01*
X0291748Y0034038D01*
X0290349Y0034038D01*
X0280911Y0024600D01*
X0278068Y0024600D01*
X0277900Y0024194D01*
X0276606Y0022900D01*
X0274915Y0022200D01*
X0273085Y0022200D01*
X0271394Y0022900D01*
X0271200Y0023095D01*
X0271200Y0020889D01*
X0268432Y0018121D01*
X0268600Y0017715D01*
X0268600Y0015885D01*
X0267900Y0014194D01*
X0266606Y0012900D01*
X0264915Y0012200D01*
X0263085Y0012200D01*
X0261394Y0012900D01*
X0260100Y0014194D01*
X0259400Y0015885D01*
X0259400Y0017715D01*
X0260100Y0019406D01*
X0261394Y0020700D01*
X0263085Y0021400D01*
X0264915Y0021400D01*
X0265321Y0021232D01*
X0266800Y0022711D01*
X0266800Y0023095D01*
X0266606Y0022900D01*
X0264915Y0022200D01*
X0263085Y0022200D01*
X0261394Y0022900D01*
X0260100Y0024194D01*
X0259400Y0025885D01*
X0259400Y0027715D01*
X0260100Y0029406D01*
X0261192Y0030497D01*
X0252089Y0039600D01*
X0250800Y0040889D01*
X0250800Y0042936D01*
X0250599Y0042882D01*
X0248000Y0042882D01*
X0248000Y0046257D01*
X0248000Y0046257D01*
X0248000Y0049631D01*
X0245401Y0049631D01*
X0244943Y0049509D01*
X0244533Y0049272D01*
X0244197Y0048937D01*
X0243960Y0048526D01*
X0243838Y0048068D01*
X0243838Y0046257D01*
X0248000Y0046257D01*
X0248000Y0049631D01*
X0250599Y0049631D01*
X0250800Y0049578D01*
X0250800Y0050369D01*
X0245058Y0050369D01*
X0244238Y0051189D01*
X0244238Y0052128D01*
X0243424Y0052128D01*
X0243424Y0051582D01*
X0242604Y0050762D01*
X0233963Y0050762D01*
X0233200Y0051526D01*
X0233200Y0048074D01*
X0233963Y0048838D01*
X0242604Y0048838D01*
X0243424Y0048018D01*
X0243424Y0042527D01*
X0242604Y0041707D01*
X0233963Y0041707D01*
X0233143Y0042527D01*
X0233143Y0047832D01*
X0230200Y0044889D01*
X0228911Y0043600D01*
X0228857Y0043600D01*
X0228857Y0042527D01*
X0228037Y0041707D01*
X0224518Y0041707D01*
X0224518Y0035858D01*
X0223698Y0035038D01*
X0219389Y0035038D01*
X0218569Y0035858D01*
X0218569Y0041742D01*
X0218965Y0042139D01*
X0218576Y0042527D01*
X0218576Y0044350D01*
X0218467Y0044242D01*
X0218057Y0044005D01*
X0217599Y0043882D01*
X0215000Y0043882D01*
X0215000Y0047257D01*
X0215000Y0047257D01*
X0215000Y0050631D01*
X0212401Y0050631D01*
X0211943Y0050509D01*
X0211533Y0050272D01*
X0211197Y0049937D01*
X0210960Y0049526D01*
X0210838Y0049068D01*
X0210838Y0047257D01*
X0215000Y0047257D01*
X0215000Y0050631D01*
X0217599Y0050631D01*
X0218057Y0050509D01*
X0218467Y0050272D01*
X0218803Y0049937D01*
X0219040Y0049526D01*
X0219162Y0049068D01*
X0219162Y0048603D01*
X0219396Y0048838D01*
X0227927Y0048838D01*
X0228800Y0049711D01*
X0228800Y0051526D01*
X0228037Y0050762D01*
X0219396Y0050762D01*
X0218576Y0051582D01*
X0218576Y0052003D01*
X0217942Y0051369D01*
X0212058Y0051369D01*
X0211238Y0052189D01*
X0211238Y0056498D01*
X0212058Y0057318D01*
X0212800Y0057318D01*
X0212800Y0057711D01*
X0214800Y0059711D01*
X0216089Y0061000D01*
X0219089Y0061000D01*
X0222524Y0064436D01*
X0222524Y0065600D01*
X0221575Y0065600D01*
X0221575Y0069900D01*
X0221575Y0069900D01*
X0221575Y0066375D01*
X0220000Y0064800D01*
X0217000Y0064800D01*
X0217000Y0062800D01*
X0211000Y0056800D01*
X0211000Y0048800D01*
X0213000Y0046800D01*
X0214543Y0046800D01*
X0215000Y0047257D01*
X0215000Y0047257D01*
X0214457Y0046713D01*
X0214457Y0038800D01*
X0217831Y0038800D01*
X0217831Y0041399D01*
X0217709Y0041857D01*
X0217472Y0042267D01*
X0217137Y0042603D01*
X0216726Y0042840D01*
X0216268Y0042962D01*
X0214457Y0042962D01*
X0214457Y0038800D01*
X0214457Y0038800D01*
X0217831Y0038800D01*
X0217831Y0036201D01*
X0217709Y0035743D01*
X0217472Y0035333D01*
X0217137Y0034997D01*
X0216726Y0034760D01*
X0216268Y0034638D01*
X0214457Y0034638D01*
X0214457Y0038800D01*
X0214457Y0038800D01*
X0214457Y0038800D01*
X0214457Y0036800D01*
X0194457Y0016800D01*
X0180000Y0016800D01*
X0180200Y0017000D02*
X0185500Y0017000D01*
X0185500Y0019078D01*
X0182495Y0022083D01*
X0185100Y0024688D01*
X0185100Y0028912D01*
X0182112Y0031900D01*
X0179343Y0031900D01*
X0203699Y0056257D01*
X0203998Y0056555D01*
X0204131Y0056611D01*
X0205189Y0057669D01*
X0205762Y0059052D01*
X0205762Y0059786D01*
X0205811Y0059669D01*
X0206869Y0058611D01*
X0208252Y0058038D01*
X0209748Y0058038D01*
X0211131Y0058611D01*
X0212189Y0059669D01*
X0212762Y0061052D01*
X0212762Y0062451D01*
X0214326Y0064015D01*
X0214326Y0065600D01*
X0215276Y0065600D01*
X0216613Y0065600D01*
X0217070Y0065723D01*
X0217481Y0065960D01*
X0217521Y0066000D01*
X0219329Y0066000D01*
X0219370Y0065960D01*
X0219780Y0065723D01*
X0220238Y0065600D01*
X0221575Y0065600D01*
X0221575Y0069900D01*
X0221575Y0068937D02*
X0221575Y0068937D01*
X0221575Y0067339D02*
X0221575Y0067339D01*
X0221575Y0065740D02*
X0221575Y0065740D01*
X0222231Y0064142D02*
X0214326Y0064142D01*
X0215276Y0065600D02*
X0215276Y0069900D01*
X0215276Y0069900D01*
X0215276Y0074200D01*
X0216225Y0074200D01*
X0216225Y0076136D01*
X0216800Y0076711D01*
X0218089Y0078000D01*
X0219800Y0078000D01*
X0219800Y0092711D01*
X0221089Y0094000D01*
X0221889Y0094800D01*
X0220664Y0096025D01*
X0219375Y0097314D01*
X0219375Y0099400D01*
X0218425Y0099400D01*
X0218425Y0103700D01*
X0218425Y0103700D01*
X0218425Y0097225D01*
X0217000Y0095800D01*
X0217000Y0079800D01*
X0215000Y0077800D01*
X0215000Y0073800D01*
X0215276Y0073800D01*
X0215276Y0069900D01*
X0215276Y0065600D01*
X0215276Y0065740D02*
X0215276Y0065740D01*
X0215276Y0066524D02*
X0217000Y0064800D01*
X0217101Y0065740D02*
X0219749Y0065740D01*
X0220632Y0062543D02*
X0212855Y0062543D01*
X0212718Y0060945D02*
X0216034Y0060945D01*
X0214435Y0059346D02*
X0211867Y0059346D01*
X0212837Y0057748D02*
X0205222Y0057748D01*
X0205762Y0059346D02*
X0206133Y0059346D01*
X0209000Y0061800D02*
X0212126Y0064926D01*
X0212126Y0069900D01*
X0215276Y0069900D02*
X0215276Y0069900D01*
X0215276Y0066524D01*
X0215276Y0067339D02*
X0215276Y0067339D01*
X0215276Y0068937D02*
X0215276Y0068937D01*
X0215276Y0069900D02*
X0215276Y0074200D01*
X0213939Y0074200D01*
X0213481Y0074077D01*
X0213070Y0073840D01*
X0213030Y0073800D01*
X0207296Y0073800D01*
X0206476Y0072980D01*
X0206476Y0072100D01*
X0205189Y0072100D01*
X0204651Y0071562D01*
X0203252Y0071562D01*
X0201869Y0070989D01*
X0200811Y0069931D01*
X0200238Y0068548D01*
X0200238Y0068359D01*
X0199748Y0068562D01*
X0198252Y0068562D01*
X0196869Y0067989D01*
X0195811Y0066931D01*
X0195238Y0065548D01*
X0195238Y0064149D01*
X0194495Y0063406D01*
X0194762Y0064052D01*
X0194762Y0065548D01*
X0194189Y0066931D01*
X0193131Y0067989D01*
X0191748Y0068562D01*
X0190252Y0068562D01*
X0188869Y0067989D01*
X0187811Y0066931D01*
X0187238Y0065548D01*
X0187238Y0064052D01*
X0187502Y0063413D01*
X0186495Y0062406D01*
X0186762Y0063052D01*
X0186762Y0064548D01*
X0186189Y0065931D01*
X0185131Y0066989D01*
X0183837Y0067526D01*
X0192911Y0076600D01*
X0196689Y0076600D01*
X0195651Y0075562D01*
X0194252Y0075562D01*
X0192869Y0074989D01*
X0191811Y0073931D01*
X0191238Y0072548D01*
X0191238Y0071052D01*
X0191811Y0069669D01*
X0192869Y0068611D01*
X0194252Y0068038D01*
X0195748Y0068038D01*
X0197131Y0068611D01*
X0198189Y0069669D01*
X0198762Y0071052D01*
X0198762Y0072451D01*
X0199804Y0073493D01*
X0200020Y0073276D01*
X0206180Y0073276D01*
X0207000Y0074096D01*
X0207000Y0096689D01*
X0209089Y0094600D01*
X0213911Y0094600D01*
X0215200Y0095889D01*
X0217476Y0098164D01*
X0217476Y0099400D01*
X0218425Y0099400D01*
X0218425Y0103700D01*
X0218425Y0102506D02*
X0218425Y0102506D01*
X0218425Y0100908D02*
X0218425Y0100908D01*
X0217476Y0099309D02*
X0219375Y0099309D01*
X0219375Y0097711D02*
X0217022Y0097711D01*
X0215276Y0099076D02*
X0213000Y0096800D01*
X0210000Y0096800D01*
X0204000Y0102800D01*
X0192000Y0102800D01*
X0190000Y0104800D01*
X0186000Y0107800D02*
X0186000Y0100800D01*
X0187000Y0099800D01*
X0196000Y0099800D01*
X0198000Y0097800D01*
X0203076Y0097800D01*
X0203100Y0097824D01*
X0203100Y0094674D02*
X0192126Y0094674D01*
X0191000Y0095800D01*
X0187461Y0094514D02*
X0170721Y0094514D01*
X0170721Y0094996D02*
X0164800Y0094996D01*
X0164800Y0090157D01*
X0169158Y0090157D01*
X0169616Y0090280D01*
X0170026Y0090517D01*
X0170362Y0090852D01*
X0170599Y0091263D01*
X0170721Y0091720D01*
X0170721Y0094996D01*
X0170721Y0096596D02*
X0164800Y0096596D01*
X0164800Y0094996D01*
X0163200Y0094996D01*
X0163200Y0090157D01*
X0158842Y0090157D01*
X0158384Y0090280D01*
X0157974Y0090517D01*
X0157638Y0090852D01*
X0157401Y0091263D01*
X0157279Y0091720D01*
X0157279Y0094996D01*
X0163200Y0094996D01*
X0163200Y0096596D01*
X0158162Y0096596D01*
X0158162Y0096445D01*
X0158040Y0095987D01*
X0157803Y0095577D01*
X0157467Y0095242D01*
X0157057Y0095005D01*
X0156599Y0094882D01*
X0154000Y0094882D01*
X0154000Y0098257D01*
X0154000Y0098257D01*
X0154000Y0101631D01*
X0151600Y0101631D01*
X0151600Y0102369D01*
X0156942Y0102369D01*
X0157762Y0103189D01*
X0157762Y0103302D01*
X0158499Y0102565D01*
X0169501Y0102565D01*
X0170321Y0103385D01*
X0170321Y0112222D01*
X0169501Y0113043D01*
X0166200Y0113043D01*
X0166200Y0113711D01*
X0164911Y0115000D01*
X0163089Y0115000D01*
X0161800Y0113711D01*
X0161800Y0113043D01*
X0158499Y0113043D01*
X0157679Y0112222D01*
X0157679Y0110404D01*
X0155943Y0110404D01*
X0154988Y0110008D01*
X0154256Y0109277D01*
X0153298Y0108318D01*
X0151058Y0108318D01*
X0150880Y0108140D01*
X0146600Y0108140D01*
X0146600Y0111317D01*
X0146204Y0112273D01*
X0142877Y0115600D01*
X0180479Y0115600D01*
X0179811Y0114931D01*
X0179238Y0113548D01*
X0179238Y0112052D01*
X0179811Y0110669D01*
X0180869Y0109611D01*
X0182252Y0109038D01*
X0183748Y0109038D01*
X0184394Y0109305D01*
X0183800Y0108711D01*
X0183800Y0099889D01*
X0184800Y0098889D01*
X0186089Y0097600D01*
X0187673Y0097600D01*
X0187238Y0096548D01*
X0187238Y0095052D01*
X0187788Y0093724D01*
X0180813Y0093724D01*
X0168089Y0081000D01*
X0168089Y0081000D01*
X0166800Y0079711D01*
X0166800Y0071711D01*
X0166600Y0071511D01*
X0166600Y0079283D01*
X0166600Y0080317D01*
X0166204Y0081273D01*
X0153473Y0094004D01*
X0152517Y0094400D01*
X0151600Y0094400D01*
X0151600Y0094882D01*
X0154000Y0094882D01*
X0154000Y0098257D01*
X0154000Y0101631D01*
X0156599Y0101631D01*
X0157057Y0101509D01*
X0157467Y0101272D01*
X0157803Y0100937D01*
X0157815Y0100916D01*
X0157974Y0101075D01*
X0158384Y0101312D01*
X0158842Y0101435D01*
X0163200Y0101435D01*
X0163200Y0096596D01*
X0164800Y0096596D01*
X0164800Y0101435D01*
X0169158Y0101435D01*
X0169616Y0101312D01*
X0170026Y0101075D01*
X0170362Y0100740D01*
X0170599Y0100329D01*
X0170721Y0099872D01*
X0170721Y0096596D01*
X0170721Y0097711D02*
X0185978Y0097711D01*
X0187238Y0096112D02*
X0164800Y0096112D01*
X0164800Y0094514D02*
X0163200Y0094514D01*
X0163200Y0096112D02*
X0158073Y0096112D01*
X0157279Y0094514D02*
X0151600Y0094514D01*
X0154000Y0096112D02*
X0154000Y0096112D01*
X0154000Y0097711D02*
X0154000Y0097711D01*
X0154000Y0098257D02*
X0154000Y0098257D01*
X0154000Y0099309D02*
X0154000Y0099309D01*
X0154000Y0100908D02*
X0154000Y0100908D01*
X0157080Y0102506D02*
X0183800Y0102506D01*
X0183800Y0100908D02*
X0170194Y0100908D01*
X0170721Y0099309D02*
X0184380Y0099309D01*
X0183800Y0104105D02*
X0170321Y0104105D01*
X0170321Y0105703D02*
X0183800Y0105703D01*
X0183800Y0107302D02*
X0170321Y0107302D01*
X0170321Y0108900D02*
X0183989Y0108900D01*
X0186000Y0107800D02*
X0188000Y0109800D01*
X0206000Y0109800D01*
X0212000Y0115800D01*
X0213000Y0115800D01*
X0213000Y0111800D02*
X0217000Y0111800D01*
X0213000Y0111800D02*
X0209000Y0107800D01*
X0209000Y0103724D01*
X0208976Y0103700D01*
X0212000Y0103826D02*
X0212000Y0106800D01*
X0213000Y0107800D01*
X0220000Y0107800D01*
X0222000Y0109800D01*
X0222000Y0117800D01*
X0220000Y0119800D01*
X0210000Y0119800D01*
X0203000Y0112800D01*
X0183000Y0112800D01*
X0180174Y0115294D02*
X0143183Y0115294D01*
X0144781Y0113696D02*
X0161800Y0113696D01*
X0164000Y0112800D02*
X0164000Y0107804D01*
X0170321Y0110499D02*
X0179981Y0110499D01*
X0179238Y0112097D02*
X0170321Y0112097D01*
X0166200Y0113696D02*
X0179299Y0113696D01*
X0190000Y0117800D02*
X0135000Y0117800D01*
X0134000Y0118800D01*
X0130462Y0120090D02*
X0113387Y0120090D01*
X0111789Y0121688D02*
X0131568Y0121688D01*
X0131869Y0121989D02*
X0130811Y0120931D01*
X0130238Y0119548D01*
X0130238Y0118052D01*
X0130811Y0116669D01*
X0131079Y0116400D01*
X0117077Y0116400D01*
X0106600Y0126877D01*
X0106600Y0129185D01*
X0107746Y0130331D01*
X0108416Y0131948D01*
X0108416Y0133699D01*
X0107746Y0135316D01*
X0106616Y0136446D01*
X0106616Y0143301D01*
X0106220Y0144257D01*
X0105677Y0144800D01*
X0106204Y0145327D01*
X0106600Y0146283D01*
X0106600Y0149870D01*
X0107220Y0149250D01*
X0111463Y0149250D01*
X0111816Y0148789D01*
X0111816Y0136675D01*
X0111523Y0136554D01*
X0110286Y0135316D01*
X0109616Y0133699D01*
X0109616Y0131948D01*
X0110286Y0130331D01*
X0111523Y0129093D01*
X0113141Y0128424D01*
X0114891Y0128424D01*
X0116508Y0129093D01*
X0117746Y0130331D01*
X0118416Y0131948D01*
X0118416Y0133699D01*
X0117746Y0135316D01*
X0116508Y0136554D01*
X0116216Y0136675D01*
X0116216Y0149389D01*
X0116317Y0150148D01*
X0116216Y0150280D01*
X0116216Y0150446D01*
X0115674Y0150987D01*
X0115100Y0151737D01*
X0115100Y0156200D01*
X0136380Y0156200D01*
X0136400Y0156180D01*
X0136400Y0150283D01*
X0136796Y0149327D01*
X0137527Y0148596D01*
X0139238Y0146885D01*
X0139238Y0146052D01*
X0139811Y0144669D01*
X0140479Y0144000D01*
X0138911Y0144000D01*
X0137200Y0145711D01*
X0135911Y0147000D01*
X0127089Y0147000D01*
X0123089Y0143000D01*
X0121800Y0141711D01*
X0121800Y0136668D01*
X0121523Y0136554D01*
X0120286Y0135316D01*
X0119616Y0133699D01*
X0119616Y0131948D01*
X0120286Y0130331D01*
X0121523Y0129093D01*
X0123141Y0128424D01*
X0124891Y0128424D01*
X0126508Y0129093D01*
X0127746Y0130331D01*
X0128416Y0131948D01*
X0128416Y0133699D01*
X0127746Y0135316D01*
X0126508Y0136554D01*
X0126200Y0136681D01*
X0126200Y0139889D01*
X0128911Y0142600D01*
X0134089Y0142600D01*
X0137089Y0139600D01*
X0145689Y0139600D01*
X0143312Y0137224D01*
X0143141Y0137224D01*
X0141523Y0136554D01*
X0140286Y0135316D01*
X0139616Y0133699D01*
X0139616Y0131948D01*
X0140286Y0130331D01*
X0141523Y0129093D01*
X0143141Y0128424D01*
X0144891Y0128424D01*
X0146508Y0129093D01*
X0147746Y0130331D01*
X0148416Y0131948D01*
X0148416Y0133699D01*
X0147746Y0135316D01*
X0147687Y0135375D01*
X0149911Y0137600D01*
X0184089Y0137600D01*
X0184465Y0137224D01*
X0183141Y0137224D01*
X0181523Y0136554D01*
X0180286Y0135316D01*
X0179616Y0133699D01*
X0179616Y0131948D01*
X0180286Y0130331D01*
X0181523Y0129093D01*
X0183141Y0128424D01*
X0184891Y0128424D01*
X0186508Y0129093D01*
X0187746Y0130331D01*
X0188416Y0131948D01*
X0188416Y0133699D01*
X0187746Y0135316D01*
X0187462Y0135600D01*
X0190570Y0135600D01*
X0190286Y0135316D01*
X0189616Y0133699D01*
X0189616Y0131948D01*
X0190286Y0130331D01*
X0191523Y0129093D01*
X0191816Y0128972D01*
X0191816Y0126936D01*
X0191811Y0126931D01*
X0191238Y0125548D01*
X0191238Y0124052D01*
X0191811Y0122669D01*
X0192869Y0121611D01*
X0194252Y0121038D01*
X0195748Y0121038D01*
X0197131Y0121611D01*
X0198189Y0122669D01*
X0198762Y0124052D01*
X0198762Y0125548D01*
X0198189Y0126931D01*
X0197131Y0127989D01*
X0196216Y0128369D01*
X0196216Y0128972D01*
X0196508Y0129093D01*
X0197746Y0130331D01*
X0198416Y0131948D01*
X0198416Y0133699D01*
X0197746Y0135316D01*
X0197462Y0135600D01*
X0200570Y0135600D01*
X0200286Y0135316D01*
X0199616Y0133699D01*
X0199616Y0131948D01*
X0200286Y0130331D01*
X0201523Y0129093D01*
X0201816Y0128972D01*
X0201816Y0126936D01*
X0200811Y0125931D01*
X0200238Y0124548D01*
X0200238Y0123052D01*
X0200811Y0121669D01*
X0201869Y0120611D01*
X0203163Y0120074D01*
X0203089Y0120000D01*
X0201106Y0120000D01*
X0199748Y0120562D01*
X0198252Y0120562D01*
X0196869Y0119989D01*
X0195811Y0118931D01*
X0195238Y0117548D01*
X0195238Y0116052D01*
X0195673Y0115000D01*
X0192521Y0115000D01*
X0193189Y0115669D01*
X0193762Y0117052D01*
X0193762Y0118548D01*
X0193189Y0119931D01*
X0192131Y0120989D01*
X0190748Y0121562D01*
X0189252Y0121562D01*
X0187869Y0120989D01*
X0186879Y0120000D01*
X0137575Y0120000D01*
X0137189Y0120931D01*
X0136131Y0121989D01*
X0134748Y0122562D01*
X0133252Y0122562D01*
X0131869Y0121989D01*
X0136432Y0121688D02*
X0192791Y0121688D01*
X0193031Y0120090D02*
X0197111Y0120090D01*
X0197209Y0121688D02*
X0200802Y0121688D01*
X0200889Y0120090D02*
X0203126Y0120090D01*
X0204000Y0117800D02*
X0209000Y0122800D01*
X0221000Y0122800D01*
X0225000Y0118800D01*
X0225000Y0103976D01*
X0224724Y0103700D01*
X0221575Y0103700D02*
X0221575Y0098225D01*
X0223000Y0096800D01*
X0227000Y0096800D01*
X0222000Y0091800D01*
X0222000Y0075800D01*
X0219000Y0075800D01*
X0218425Y0075225D01*
X0218425Y0069900D01*
X0215276Y0070536D02*
X0215276Y0070536D01*
X0215276Y0072134D02*
X0215276Y0072134D01*
X0215276Y0073733D02*
X0215276Y0073733D01*
X0216225Y0075332D02*
X0207000Y0075332D01*
X0207000Y0076930D02*
X0217019Y0076930D01*
X0219800Y0078529D02*
X0207000Y0078529D01*
X0207000Y0080127D02*
X0219800Y0080127D01*
X0219800Y0081726D02*
X0207000Y0081726D01*
X0207000Y0083324D02*
X0219800Y0083324D01*
X0219800Y0084923D02*
X0207000Y0084923D01*
X0207000Y0086521D02*
X0219800Y0086521D01*
X0219800Y0088120D02*
X0207000Y0088120D01*
X0207000Y0089718D02*
X0219800Y0089718D01*
X0219800Y0091317D02*
X0207000Y0091317D01*
X0207000Y0092915D02*
X0220004Y0092915D01*
X0221602Y0094514D02*
X0207000Y0094514D01*
X0207000Y0096112D02*
X0207577Y0096112D01*
X0203100Y0091524D02*
X0181724Y0091524D01*
X0169000Y0078800D01*
X0169000Y0070800D01*
X0140000Y0041800D01*
X0140000Y0026800D01*
X0150000Y0026800D02*
X0150000Y0041800D01*
X0178000Y0069800D01*
X0178000Y0071800D01*
X0180000Y0071800D01*
X0190276Y0082076D01*
X0203100Y0082076D01*
X0203100Y0078926D02*
X0202974Y0078800D01*
X0192000Y0078800D01*
X0165000Y0051800D01*
X0165000Y0046800D01*
X0164000Y0046800D01*
X0155000Y0037800D01*
X0145000Y0041800D02*
X0173000Y0069800D01*
X0173000Y0077800D01*
X0183575Y0088375D01*
X0203100Y0088375D01*
X0203100Y0085225D02*
X0186425Y0085225D01*
X0179000Y0077800D01*
X0168814Y0081726D02*
X0165751Y0081726D01*
X0166600Y0080127D02*
X0167216Y0080127D01*
X0166800Y0078529D02*
X0166600Y0078529D01*
X0166600Y0076930D02*
X0166800Y0076930D01*
X0166800Y0075332D02*
X0166600Y0075332D01*
X0166600Y0073733D02*
X0166800Y0073733D01*
X0166800Y0072134D02*
X0166600Y0072134D01*
X0161400Y0073733D02*
X0158271Y0073733D01*
X0158762Y0072134D02*
X0160658Y0072134D01*
X0159059Y0070536D02*
X0158549Y0070536D01*
X0157461Y0068937D02*
X0157458Y0068937D01*
X0155862Y0067339D02*
X0147650Y0067339D01*
X0146052Y0065740D02*
X0154264Y0065740D01*
X0152665Y0064142D02*
X0144453Y0064142D01*
X0142855Y0062543D02*
X0151066Y0062543D01*
X0149468Y0060945D02*
X0116256Y0060945D01*
X0114658Y0059346D02*
X0147869Y0059346D01*
X0146271Y0057748D02*
X0113059Y0057748D01*
X0111461Y0056149D02*
X0144672Y0056149D01*
X0143074Y0054551D02*
X0109862Y0054551D01*
X0108264Y0052952D02*
X0141475Y0052952D01*
X0139877Y0051354D02*
X0106665Y0051354D01*
X0105635Y0049755D02*
X0105067Y0049755D01*
X0104490Y0048157D02*
X0103468Y0048157D01*
X0104238Y0046558D02*
X0101870Y0046558D01*
X0103049Y0044960D02*
X0100271Y0044960D01*
X0101450Y0043361D02*
X0083762Y0043361D01*
X0083762Y0041763D02*
X0099852Y0041763D01*
X0098253Y0040164D02*
X0082200Y0040164D01*
X0082200Y0038566D02*
X0096654Y0038566D01*
X0095056Y0036967D02*
X0082200Y0036967D01*
X0083644Y0035369D02*
X0093457Y0035369D01*
X0091859Y0033770D02*
X0084704Y0033770D01*
X0085100Y0032172D02*
X0090260Y0032172D01*
X0088662Y0030573D02*
X0085012Y0030573D01*
X0084350Y0028975D02*
X0087063Y0028975D01*
X0085465Y0027376D02*
X0082647Y0027376D01*
X0090089Y0025778D02*
X0090301Y0025778D01*
X0091687Y0027376D02*
X0091899Y0027376D01*
X0093286Y0028975D02*
X0093498Y0028975D01*
X0094884Y0030573D02*
X0095096Y0030573D01*
X0096483Y0032172D02*
X0096695Y0032172D01*
X0098081Y0033770D02*
X0098293Y0033770D01*
X0099680Y0035369D02*
X0099892Y0035369D01*
X0101279Y0036967D02*
X0101490Y0036967D01*
X0102877Y0038566D02*
X0103089Y0038566D01*
X0104476Y0040164D02*
X0104687Y0040164D01*
X0106074Y0041763D02*
X0118642Y0041763D01*
X0123358Y0041763D02*
X0130585Y0041763D01*
X0131884Y0043361D02*
X0109529Y0043361D01*
X0111310Y0044960D02*
X0133483Y0044960D01*
X0135081Y0046558D02*
X0111762Y0046558D01*
X0111510Y0048157D02*
X0136680Y0048157D01*
X0138278Y0049755D02*
X0110365Y0049755D01*
X0108000Y0046800D02*
X0086000Y0024800D01*
X0073000Y0024800D01*
X0070000Y0027800D01*
X0070000Y0031800D01*
X0065650Y0028975D02*
X0064350Y0028975D01*
X0062647Y0027376D02*
X0067353Y0027376D01*
X0068911Y0025778D02*
X0059699Y0025778D01*
X0061298Y0024179D02*
X0070510Y0024179D01*
X0062896Y0022581D02*
X0087104Y0022581D01*
X0088490Y0024179D02*
X0088702Y0024179D01*
X0092859Y0020982D02*
X0126404Y0020982D01*
X0127505Y0022083D02*
X0124500Y0019078D01*
X0124500Y0017000D01*
X0129800Y0017000D01*
X0129800Y0016600D01*
X0130200Y0016600D01*
X0130200Y0011300D01*
X0132278Y0011300D01*
X0135283Y0014305D01*
X0137888Y0011700D01*
X0142112Y0011700D01*
X0145000Y0014588D01*
X0147888Y0011700D01*
X0152112Y0011700D01*
X0155000Y0014588D01*
X0157888Y0011700D01*
X0162112Y0011700D01*
X0164717Y0014305D01*
X0167722Y0011300D01*
X0169800Y0011300D01*
X0169800Y0016600D01*
X0170200Y0016600D01*
X0170200Y0017000D01*
X0179800Y0017000D01*
X0179800Y0016600D01*
X0175500Y0016600D01*
X0170200Y0016600D01*
X0170200Y0011300D01*
X0172278Y0011300D01*
X0175000Y0014022D01*
X0177722Y0011300D01*
X0179800Y0011300D01*
X0179800Y0016600D01*
X0180200Y0016600D01*
X0180200Y0017000D01*
X0180200Y0016600D02*
X0185500Y0016600D01*
X0185500Y0014522D01*
X0182278Y0011300D01*
X0180200Y0011300D01*
X0180200Y0016600D01*
X0180200Y0016187D02*
X0179800Y0016187D01*
X0179800Y0014588D02*
X0180200Y0014588D01*
X0180200Y0012990D02*
X0179800Y0012990D01*
X0179800Y0011391D02*
X0180200Y0011391D01*
X0182369Y0011391D02*
X0191480Y0011391D01*
X0193078Y0012990D02*
X0183968Y0012990D01*
X0185500Y0014588D02*
X0194677Y0014588D01*
X0196275Y0016187D02*
X0185500Y0016187D01*
X0185500Y0017785D02*
X0197874Y0017785D01*
X0199472Y0019384D02*
X0185195Y0019384D01*
X0183596Y0020982D02*
X0201071Y0020982D01*
X0202669Y0022581D02*
X0182993Y0022581D01*
X0184592Y0024179D02*
X0204268Y0024179D01*
X0205866Y0025778D02*
X0185100Y0025778D01*
X0185100Y0027376D02*
X0207465Y0027376D01*
X0209063Y0028975D02*
X0185038Y0028975D01*
X0183439Y0030573D02*
X0251268Y0030573D01*
X0251394Y0030700D02*
X0250695Y0030000D01*
X0210089Y0030000D01*
X0189089Y0009000D01*
X0040911Y0009000D01*
X0026200Y0023711D01*
X0026200Y0027822D01*
X0026417Y0027605D01*
X0027117Y0027096D01*
X0027889Y0026703D01*
X0028712Y0026435D01*
X0029567Y0026300D01*
X0029800Y0026300D01*
X0029800Y0031600D01*
X0030200Y0031600D01*
X0030200Y0026300D01*
X0030433Y0026300D01*
X0031288Y0026435D01*
X0032111Y0026703D01*
X0032883Y0027096D01*
X0033583Y0027605D01*
X0034195Y0028217D01*
X0034704Y0028917D01*
X0035097Y0029689D01*
X0035210Y0030037D01*
X0035676Y0028911D01*
X0037111Y0027476D01*
X0038986Y0026700D01*
X0041014Y0026700D01*
X0042889Y0027476D01*
X0044324Y0028911D01*
X0045000Y0030544D01*
X0045676Y0028911D01*
X0047111Y0027476D01*
X0048986Y0026700D01*
X0051014Y0026700D01*
X0051303Y0026820D01*
X0059796Y0018327D01*
X0060527Y0017596D01*
X0061483Y0017200D01*
X0088517Y0017200D01*
X0089473Y0017596D01*
X0108077Y0036200D01*
X0118279Y0036200D01*
X0118869Y0035611D01*
X0120252Y0035038D01*
X0121748Y0035038D01*
X0123131Y0035611D01*
X0123721Y0036200D01*
X0130400Y0036200D01*
X0130400Y0031900D01*
X0127888Y0031900D01*
X0124900Y0028912D01*
X0124900Y0024688D01*
X0127505Y0022083D01*
X0127007Y0022581D02*
X0094458Y0022581D01*
X0096056Y0024179D02*
X0125408Y0024179D01*
X0124900Y0025778D02*
X0097655Y0025778D01*
X0099253Y0027376D02*
X0124900Y0027376D01*
X0124962Y0028975D02*
X0100852Y0028975D01*
X0102450Y0030573D02*
X0126561Y0030573D01*
X0130400Y0032172D02*
X0104049Y0032172D01*
X0105647Y0033770D02*
X0130400Y0033770D01*
X0130400Y0035369D02*
X0122547Y0035369D01*
X0119453Y0035369D02*
X0107246Y0035369D01*
X0080000Y0031800D02*
X0080000Y0043257D01*
X0070000Y0046800D02*
X0099000Y0046800D01*
X0116000Y0063800D01*
X0141000Y0063800D01*
X0149000Y0071800D01*
X0155000Y0071800D01*
X0153695Y0075332D02*
X0135852Y0075332D01*
X0136712Y0076930D02*
X0161400Y0076930D01*
X0161400Y0075332D02*
X0156305Y0075332D01*
X0161400Y0078529D02*
X0136762Y0078529D01*
X0135993Y0080127D02*
X0159996Y0080127D01*
X0158397Y0081726D02*
X0119762Y0081726D01*
X0119762Y0082498D02*
X0118942Y0083318D01*
X0118200Y0083318D01*
X0118200Y0084600D01*
X0124628Y0084600D01*
X0124628Y0084350D01*
X0125448Y0083530D01*
X0130151Y0083530D01*
X0130971Y0084350D01*
X0130971Y0086860D01*
X0133179Y0089068D01*
X0133252Y0089038D01*
X0134748Y0089038D01*
X0136131Y0089611D01*
X0137189Y0090669D01*
X0137762Y0092052D01*
X0137762Y0093548D01*
X0137189Y0094931D01*
X0136543Y0095577D01*
X0136824Y0095577D01*
X0137644Y0096397D01*
X0137644Y0099572D01*
X0137684Y0099612D01*
X0137921Y0100023D01*
X0138044Y0100480D01*
X0138044Y0101800D01*
X0138044Y0103120D01*
X0137921Y0103577D01*
X0137684Y0103988D01*
X0137644Y0104028D01*
X0137644Y0107203D01*
X0136824Y0108023D01*
X0134682Y0108023D01*
X0134399Y0108140D01*
X0127120Y0108140D01*
X0126942Y0108318D01*
X0121058Y0108318D01*
X0120683Y0107943D01*
X0105321Y0107943D01*
X0105321Y0112341D01*
X0104501Y0113161D01*
X0093499Y0113161D01*
X0092679Y0112341D01*
X0092679Y0108861D01*
X0085124Y0108861D01*
X0085124Y0110766D01*
X0084304Y0111586D01*
X0082000Y0111586D01*
X0082000Y0113479D01*
X0082189Y0113669D01*
X0082762Y0115052D01*
X0082762Y0116548D01*
X0082189Y0117931D01*
X0081131Y0118989D01*
X0079748Y0119562D01*
X0078252Y0119562D01*
X0076869Y0118989D01*
X0075811Y0117931D01*
X0075238Y0116548D01*
X0075238Y0115052D01*
X0075811Y0113669D01*
X0076000Y0113479D01*
X0076000Y0111586D01*
X0073696Y0111586D01*
X0072876Y0110766D01*
X0072876Y0100157D01*
X0073696Y0099337D01*
X0084304Y0099337D01*
X0085124Y0100157D01*
X0085124Y0102061D01*
X0086000Y0102061D01*
X0086000Y0080043D01*
X0069520Y0063562D01*
X0069252Y0063562D01*
X0067869Y0062989D01*
X0066811Y0061931D01*
X0066238Y0060548D01*
X0066238Y0059052D01*
X0066811Y0057669D01*
X0067869Y0056611D01*
X0069252Y0056038D01*
X0070748Y0056038D01*
X0072131Y0056611D01*
X0073189Y0057669D01*
X0073762Y0059052D01*
X0073762Y0059320D01*
X0090699Y0076257D01*
X0091543Y0077101D01*
X0092000Y0078203D01*
X0092000Y0102061D01*
X0092679Y0102061D01*
X0092679Y0101141D01*
X0093499Y0100321D01*
X0104501Y0100321D01*
X0105321Y0101141D01*
X0105321Y0102743D01*
X0113800Y0102743D01*
X0113800Y0098318D01*
X0113058Y0098318D01*
X0112238Y0097498D01*
X0112238Y0093189D01*
X0113058Y0092369D01*
X0118942Y0092369D01*
X0119762Y0093189D01*
X0119762Y0097498D01*
X0118942Y0098318D01*
X0118200Y0098318D01*
X0118200Y0102743D01*
X0120683Y0102743D01*
X0121058Y0102369D01*
X0126800Y0102369D01*
X0126800Y0101578D01*
X0126599Y0101631D01*
X0124000Y0101631D01*
X0121401Y0101631D01*
X0120943Y0101509D01*
X0120533Y0101272D01*
X0120197Y0100937D01*
X0119960Y0100526D01*
X0119838Y0100068D01*
X0119838Y0098257D01*
X0124000Y0098257D01*
X0124000Y0098257D01*
X0124000Y0101631D01*
X0124000Y0098257D01*
X0124000Y0098257D01*
X0119838Y0098257D01*
X0119838Y0096445D01*
X0119960Y0095987D01*
X0120197Y0095577D01*
X0120533Y0095242D01*
X0120943Y0095005D01*
X0121401Y0094882D01*
X0124000Y0094882D01*
X0126599Y0094882D01*
X0127057Y0095005D01*
X0127467Y0095242D01*
X0127803Y0095577D01*
X0128011Y0095938D01*
X0128089Y0095860D01*
X0130657Y0095860D01*
X0130939Y0095577D01*
X0131457Y0095577D01*
X0130811Y0094931D01*
X0130238Y0093548D01*
X0130238Y0092350D01*
X0127958Y0090070D01*
X0125448Y0090070D01*
X0124628Y0089250D01*
X0124628Y0089000D01*
X0119762Y0089000D01*
X0119762Y0090411D01*
X0118942Y0091231D01*
X0113058Y0091231D01*
X0112238Y0090411D01*
X0112238Y0086102D01*
X0113058Y0085282D01*
X0113800Y0085282D01*
X0113800Y0083318D01*
X0113058Y0083318D01*
X0112238Y0082498D01*
X0112238Y0078189D01*
X0113058Y0077369D01*
X0118942Y0077369D01*
X0119762Y0078189D01*
X0119762Y0082498D01*
X0118200Y0083324D02*
X0156799Y0083324D01*
X0155200Y0084923D02*
X0145234Y0084923D01*
X0144000Y0086800D02*
X0140201Y0086800D01*
X0137029Y0086521D02*
X0130971Y0086521D01*
X0130971Y0084923D02*
X0137029Y0084923D01*
X0137029Y0088120D02*
X0132230Y0088120D01*
X0136239Y0089718D02*
X0137497Y0089718D01*
X0137458Y0091317D02*
X0145405Y0091317D01*
X0146400Y0092915D02*
X0137762Y0092915D01*
X0137362Y0094514D02*
X0146400Y0094514D01*
X0149000Y0091800D02*
X0144000Y0086800D01*
X0146832Y0086521D02*
X0153602Y0086521D01*
X0152003Y0088120D02*
X0148431Y0088120D01*
X0143807Y0089718D02*
X0142904Y0089718D01*
X0134000Y0092800D02*
X0133799Y0092800D01*
X0127799Y0086800D01*
X0117457Y0086800D01*
X0116000Y0088257D01*
X0116000Y0080343D01*
X0119762Y0080127D02*
X0130006Y0080127D01*
X0129238Y0078529D02*
X0119762Y0078529D01*
X0120092Y0075332D02*
X0127420Y0075332D01*
X0129019Y0076930D02*
X0091373Y0076930D01*
X0092000Y0078529D02*
X0112238Y0078529D01*
X0112238Y0080127D02*
X0104485Y0080127D01*
X0104616Y0080162D02*
X0105026Y0080399D01*
X0105362Y0080734D01*
X0105599Y0081145D01*
X0105721Y0081602D01*
X0105721Y0086059D01*
X0099800Y0086059D01*
X0099800Y0080039D01*
X0104158Y0080039D01*
X0104616Y0080162D01*
X0105721Y0081726D02*
X0112238Y0081726D01*
X0113800Y0083324D02*
X0105721Y0083324D01*
X0105721Y0084923D02*
X0113800Y0084923D01*
X0112238Y0086521D02*
X0099800Y0086521D01*
X0099800Y0086059D02*
X0099800Y0087659D01*
X0105721Y0087659D01*
X0105721Y0092116D01*
X0105599Y0092574D01*
X0105362Y0092984D01*
X0105026Y0093319D01*
X0104616Y0093556D01*
X0104158Y0093679D01*
X0099800Y0093679D01*
X0099800Y0087659D01*
X0098200Y0087659D01*
X0098200Y0086059D01*
X0099800Y0086059D01*
X0099800Y0084923D02*
X0098200Y0084923D01*
X0098200Y0086059D02*
X0098200Y0080039D01*
X0093842Y0080039D01*
X0093384Y0080162D01*
X0092974Y0080399D01*
X0092638Y0080734D01*
X0092401Y0081145D01*
X0092279Y0081602D01*
X0092279Y0086059D01*
X0098200Y0086059D01*
X0098200Y0086521D02*
X0092000Y0086521D01*
X0092279Y0087659D02*
X0092279Y0092116D01*
X0092401Y0092574D01*
X0092638Y0092984D01*
X0092974Y0093319D01*
X0093384Y0093556D01*
X0093842Y0093679D01*
X0098200Y0093679D01*
X0098200Y0087659D01*
X0092279Y0087659D01*
X0092279Y0088120D02*
X0092000Y0088120D01*
X0092000Y0089718D02*
X0092279Y0089718D01*
X0092279Y0091317D02*
X0092000Y0091317D01*
X0092000Y0092915D02*
X0092599Y0092915D01*
X0092000Y0094514D02*
X0112238Y0094514D01*
X0112238Y0096112D02*
X0092000Y0096112D01*
X0092000Y0097711D02*
X0112450Y0097711D01*
X0113800Y0099309D02*
X0092000Y0099309D01*
X0092000Y0100908D02*
X0092912Y0100908D01*
X0086000Y0100908D02*
X0085124Y0100908D01*
X0086000Y0099309D02*
X0035620Y0099309D01*
X0034022Y0097711D02*
X0086000Y0097711D01*
X0086000Y0096112D02*
X0032423Y0096112D01*
X0030825Y0094514D02*
X0086000Y0094514D01*
X0085124Y0093443D02*
X0084304Y0094263D01*
X0073696Y0094263D01*
X0072876Y0093443D01*
X0072876Y0086257D01*
X0071419Y0084800D01*
X0068410Y0084800D01*
X0067330Y0087408D01*
X0064545Y0090193D01*
X0060906Y0091700D01*
X0056968Y0091700D01*
X0053329Y0090193D01*
X0050544Y0087408D01*
X0049037Y0083769D01*
X0049037Y0079831D01*
X0050544Y0076192D01*
X0053329Y0073407D01*
X0056968Y0071900D01*
X0060906Y0071900D01*
X0064545Y0073407D01*
X0067330Y0076192D01*
X0068410Y0078800D01*
X0073258Y0078800D01*
X0074361Y0079257D01*
X0075205Y0080101D01*
X0077118Y0082014D01*
X0084304Y0082014D01*
X0085124Y0082834D01*
X0085124Y0093443D01*
X0085124Y0092915D02*
X0086000Y0092915D01*
X0086000Y0091317D02*
X0085124Y0091317D01*
X0085124Y0089718D02*
X0086000Y0089718D01*
X0086000Y0088120D02*
X0085124Y0088120D01*
X0085124Y0086521D02*
X0086000Y0086521D01*
X0086000Y0084923D02*
X0085124Y0084923D01*
X0085124Y0083324D02*
X0086000Y0083324D01*
X0086000Y0081726D02*
X0076830Y0081726D01*
X0075231Y0080127D02*
X0086000Y0080127D01*
X0084486Y0078529D02*
X0068298Y0078529D01*
X0067635Y0076930D02*
X0082887Y0076930D01*
X0081289Y0075332D02*
X0066469Y0075332D01*
X0064871Y0073733D02*
X0079690Y0073733D01*
X0078092Y0072134D02*
X0061472Y0072134D01*
X0056402Y0072134D02*
X0052419Y0072134D01*
X0052116Y0072325D02*
X0051074Y0072827D01*
X0049982Y0073209D01*
X0048854Y0073467D01*
X0047926Y0073571D01*
X0047926Y0064096D01*
X0057401Y0064096D01*
X0057296Y0065024D01*
X0057039Y0066152D01*
X0056657Y0067244D01*
X0056155Y0068286D01*
X0055539Y0069266D01*
X0054818Y0070170D01*
X0054000Y0070988D01*
X0053096Y0071710D01*
X0052116Y0072325D01*
X0053003Y0073733D02*
X0041719Y0073733D01*
X0042136Y0072325D02*
X0041156Y0071710D01*
X0040252Y0070988D01*
X0039434Y0070170D01*
X0038712Y0069266D01*
X0038097Y0068286D01*
X0037595Y0067244D01*
X0037213Y0066152D01*
X0036956Y0065024D01*
X0036851Y0064096D01*
X0046326Y0064096D01*
X0046326Y0062496D01*
X0047926Y0062496D01*
X0047926Y0053021D01*
X0048854Y0053126D01*
X0049982Y0053383D01*
X0051074Y0053765D01*
X0052116Y0054267D01*
X0053096Y0054883D01*
X0054000Y0055604D01*
X0054818Y0056422D01*
X0055539Y0057326D01*
X0056155Y0058306D01*
X0056657Y0059348D01*
X0057039Y0060440D01*
X0057296Y0061568D01*
X0057401Y0062496D01*
X0047926Y0062496D01*
X0047926Y0064096D01*
X0046326Y0064096D01*
X0046326Y0073571D01*
X0045398Y0073467D01*
X0044270Y0073209D01*
X0043178Y0072827D01*
X0042136Y0072325D01*
X0041833Y0072134D02*
X0038878Y0072134D01*
X0039800Y0070536D02*
X0026200Y0070536D01*
X0026200Y0072134D02*
X0031752Y0072134D01*
X0034515Y0072134D02*
X0036115Y0072134D01*
X0036115Y0073733D02*
X0034515Y0073733D01*
X0034515Y0075332D02*
X0036115Y0075332D01*
X0036115Y0076930D02*
X0034515Y0076930D01*
X0034515Y0078529D02*
X0036115Y0078529D01*
X0036115Y0080127D02*
X0034515Y0080127D01*
X0036115Y0081726D02*
X0049037Y0081726D01*
X0049037Y0083324D02*
X0045508Y0083324D01*
X0045135Y0084923D02*
X0049515Y0084923D01*
X0050177Y0086521D02*
X0044474Y0086521D01*
X0043449Y0088120D02*
X0051256Y0088120D01*
X0052854Y0089718D02*
X0041906Y0089718D01*
X0039293Y0091317D02*
X0056042Y0091317D01*
X0061832Y0091317D02*
X0072876Y0091317D01*
X0072876Y0092915D02*
X0029226Y0092915D01*
X0027628Y0091317D02*
X0031337Y0091317D01*
X0028724Y0089718D02*
X0026200Y0089718D01*
X0026200Y0088120D02*
X0027180Y0088120D01*
X0024000Y0090800D02*
X0039000Y0105800D01*
X0039000Y0122300D01*
X0051000Y0134300D01*
X0051043Y0134257D01*
X0060000Y0134257D01*
X0067657Y0126599D01*
X0070000Y0126599D01*
X0073270Y0126484D02*
X0101400Y0126484D01*
X0101400Y0128082D02*
X0097472Y0128082D01*
X0097253Y0128024D02*
X0097711Y0128146D01*
X0098121Y0128383D01*
X0098456Y0128718D01*
X0098693Y0129129D01*
X0098816Y0129587D01*
X0098816Y0132624D01*
X0094216Y0132624D01*
X0094216Y0133024D01*
X0093816Y0133024D01*
X0093816Y0137624D01*
X0090779Y0137624D01*
X0090321Y0137501D01*
X0089911Y0137264D01*
X0089575Y0136929D01*
X0089338Y0136518D01*
X0089216Y0136061D01*
X0089216Y0133024D01*
X0093816Y0133024D01*
X0093816Y0132624D01*
X0089216Y0132624D01*
X0089216Y0129587D01*
X0089338Y0129129D01*
X0089575Y0128718D01*
X0089911Y0128383D01*
X0090321Y0128146D01*
X0090779Y0128024D01*
X0093816Y0128024D01*
X0093816Y0132624D01*
X0094216Y0132624D01*
X0094216Y0128024D01*
X0097253Y0128024D01*
X0098816Y0129681D02*
X0100936Y0129681D01*
X0099893Y0131279D02*
X0098816Y0131279D01*
X0098816Y0133024D02*
X0098816Y0136061D01*
X0098693Y0136518D01*
X0098456Y0136929D01*
X0098121Y0137264D01*
X0097711Y0137501D01*
X0097253Y0137624D01*
X0094216Y0137624D01*
X0094216Y0133024D01*
X0098816Y0133024D01*
X0099616Y0132878D02*
X0094216Y0132878D01*
X0093816Y0132878D02*
X0064490Y0132878D01*
X0063762Y0134476D02*
X0089216Y0134476D01*
X0089220Y0136075D02*
X0072696Y0136075D01*
X0073270Y0137673D02*
X0101416Y0137673D01*
X0101416Y0139272D02*
X0073270Y0139272D01*
X0073270Y0140870D02*
X0101416Y0140870D01*
X0106616Y0140870D02*
X0111816Y0140870D01*
X0111816Y0139272D02*
X0106616Y0139272D01*
X0106616Y0137673D02*
X0111816Y0137673D01*
X0111045Y0136075D02*
X0106987Y0136075D01*
X0108094Y0134476D02*
X0109938Y0134476D01*
X0109616Y0132878D02*
X0108416Y0132878D01*
X0108139Y0131279D02*
X0109893Y0131279D01*
X0110936Y0129681D02*
X0107096Y0129681D01*
X0106600Y0128082D02*
X0133267Y0128082D01*
X0133638Y0128024D02*
X0133816Y0128024D01*
X0133816Y0132624D01*
X0129216Y0132624D01*
X0129216Y0132446D01*
X0129334Y0131700D01*
X0129567Y0130981D01*
X0129910Y0130308D01*
X0130355Y0129697D01*
X0130889Y0129162D01*
X0131500Y0128718D01*
X0132173Y0128375D01*
X0132892Y0128142D01*
X0133638Y0128024D01*
X0133816Y0128082D02*
X0134216Y0128082D01*
X0134216Y0128024D02*
X0134394Y0128024D01*
X0135140Y0128142D01*
X0135858Y0128375D01*
X0136531Y0128718D01*
X0137143Y0129162D01*
X0137677Y0129697D01*
X0138121Y0130308D01*
X0138464Y0130981D01*
X0138698Y0131700D01*
X0138816Y0132446D01*
X0138816Y0132624D01*
X0134216Y0132624D01*
X0134216Y0133024D01*
X0133816Y0133024D01*
X0133816Y0137624D01*
X0133638Y0137624D01*
X0132892Y0137505D01*
X0132173Y0137272D01*
X0131500Y0136929D01*
X0130889Y0136485D01*
X0130355Y0135951D01*
X0129910Y0135339D01*
X0129567Y0134666D01*
X0129334Y0133948D01*
X0129216Y0133201D01*
X0129216Y0133024D01*
X0133816Y0133024D01*
X0133816Y0132624D01*
X0134216Y0132624D01*
X0134216Y0128024D01*
X0134765Y0128082D02*
X0191816Y0128082D01*
X0191625Y0126484D02*
X0106993Y0126484D01*
X0108592Y0124885D02*
X0191238Y0124885D01*
X0191555Y0123287D02*
X0110190Y0123287D01*
X0104435Y0121688D02*
X0055566Y0121688D01*
X0055677Y0121495D02*
X0055440Y0121905D01*
X0055105Y0122240D01*
X0054695Y0122477D01*
X0054237Y0122600D01*
X0051000Y0122600D01*
X0051000Y0119300D01*
X0052500Y0120800D01*
X0079000Y0120800D01*
X0085000Y0126800D01*
X0085000Y0136800D01*
X0093816Y0136075D02*
X0094216Y0136075D01*
X0094216Y0134476D02*
X0093816Y0134476D01*
X0093816Y0131279D02*
X0094216Y0131279D01*
X0094216Y0129681D02*
X0093816Y0129681D01*
X0093816Y0128082D02*
X0094216Y0128082D01*
X0090559Y0128082D02*
X0073270Y0128082D01*
X0072540Y0129681D02*
X0089216Y0129681D01*
X0089216Y0131279D02*
X0066089Y0131279D01*
X0061465Y0129681D02*
X0049492Y0129681D01*
X0047894Y0128082D02*
X0063063Y0128082D01*
X0064662Y0126484D02*
X0046295Y0126484D01*
X0044697Y0124885D02*
X0066260Y0124885D01*
X0073270Y0124885D02*
X0101565Y0124885D01*
X0102836Y0123287D02*
X0043098Y0123287D01*
X0041500Y0121688D02*
X0046434Y0121688D01*
X0046323Y0121495D02*
X0046200Y0121037D01*
X0046200Y0119300D01*
X0051000Y0119300D01*
X0051000Y0119300D01*
X0055800Y0119300D01*
X0055800Y0121037D01*
X0055677Y0121495D01*
X0055800Y0120090D02*
X0106033Y0120090D01*
X0107632Y0118491D02*
X0081629Y0118491D01*
X0082620Y0116893D02*
X0109230Y0116893D01*
X0110829Y0115294D02*
X0082762Y0115294D01*
X0082201Y0113696D02*
X0112427Y0113696D01*
X0114026Y0112097D02*
X0105321Y0112097D01*
X0105321Y0110499D02*
X0140624Y0110499D01*
X0141400Y0108900D02*
X0105321Y0108900D01*
X0105321Y0102506D02*
X0113800Y0102506D01*
X0113800Y0100908D02*
X0105088Y0100908D01*
X0116000Y0105343D02*
X0116000Y0095343D01*
X0119762Y0096112D02*
X0119927Y0096112D01*
X0119838Y0097711D02*
X0119550Y0097711D01*
X0119838Y0099309D02*
X0118200Y0099309D01*
X0118200Y0100908D02*
X0120181Y0100908D01*
X0120920Y0102506D02*
X0118200Y0102506D01*
X0124000Y0100908D02*
X0124000Y0100908D01*
X0124000Y0099309D02*
X0124000Y0099309D01*
X0124000Y0098257D02*
X0124000Y0094882D01*
X0124000Y0098257D01*
X0124000Y0098257D01*
X0124000Y0097711D02*
X0124000Y0097711D01*
X0124000Y0096112D02*
X0124000Y0096112D01*
X0119762Y0094514D02*
X0130638Y0094514D01*
X0130238Y0092915D02*
X0119489Y0092915D01*
X0112511Y0092915D02*
X0105401Y0092915D01*
X0105721Y0091317D02*
X0129205Y0091317D01*
X0125096Y0089718D02*
X0119762Y0089718D01*
X0112238Y0089718D02*
X0105721Y0089718D01*
X0105721Y0088120D02*
X0112238Y0088120D01*
X0099800Y0088120D02*
X0098200Y0088120D01*
X0098200Y0089718D02*
X0099800Y0089718D01*
X0099800Y0091317D02*
X0098200Y0091317D01*
X0098200Y0092915D02*
X0099800Y0092915D01*
X0092279Y0084923D02*
X0092000Y0084923D01*
X0092000Y0083324D02*
X0092279Y0083324D01*
X0092279Y0081726D02*
X0092000Y0081726D01*
X0092000Y0080127D02*
X0093514Y0080127D01*
X0098200Y0080127D02*
X0099800Y0080127D01*
X0099800Y0081726D02*
X0098200Y0081726D01*
X0098200Y0083324D02*
X0099800Y0083324D01*
X0089774Y0075332D02*
X0111908Y0075332D01*
X0111838Y0073733D02*
X0088176Y0073733D01*
X0086577Y0072134D02*
X0111838Y0072134D01*
X0112238Y0070536D02*
X0084979Y0070536D01*
X0083380Y0068937D02*
X0113026Y0068937D01*
X0111428Y0067339D02*
X0081782Y0067339D01*
X0080183Y0065740D02*
X0109829Y0065740D01*
X0108231Y0064142D02*
X0078585Y0064142D01*
X0076986Y0062543D02*
X0106632Y0062543D01*
X0105034Y0060945D02*
X0075388Y0060945D01*
X0073789Y0059346D02*
X0103435Y0059346D01*
X0101837Y0057748D02*
X0073222Y0057748D01*
X0071018Y0056149D02*
X0100238Y0056149D01*
X0098640Y0054551D02*
X0052568Y0054551D01*
X0054546Y0056149D02*
X0068982Y0056149D01*
X0066778Y0057748D02*
X0055804Y0057748D01*
X0056656Y0059346D02*
X0066238Y0059346D01*
X0066402Y0060945D02*
X0057154Y0060945D01*
X0057396Y0064142D02*
X0070099Y0064142D01*
X0071698Y0065740D02*
X0057133Y0065740D01*
X0056611Y0067339D02*
X0073296Y0067339D01*
X0074895Y0068937D02*
X0055746Y0068937D01*
X0054452Y0070536D02*
X0076493Y0070536D01*
X0067423Y0062543D02*
X0047926Y0062543D01*
X0047926Y0060945D02*
X0046326Y0060945D01*
X0046326Y0062496D02*
X0046326Y0053021D01*
X0045398Y0053126D01*
X0044270Y0053383D01*
X0043178Y0053765D01*
X0042136Y0054267D01*
X0041156Y0054883D01*
X0040252Y0055604D01*
X0039434Y0056422D01*
X0038712Y0057326D01*
X0038097Y0058306D01*
X0037595Y0059348D01*
X0037213Y0060440D01*
X0036956Y0061568D01*
X0036851Y0062496D01*
X0046326Y0062496D01*
X0046326Y0062543D02*
X0026200Y0062543D01*
X0026200Y0060945D02*
X0037098Y0060945D01*
X0037596Y0059346D02*
X0026200Y0059346D01*
X0026200Y0057748D02*
X0038448Y0057748D01*
X0039706Y0056149D02*
X0026762Y0056149D01*
X0028360Y0054551D02*
X0041684Y0054551D01*
X0046326Y0054551D02*
X0047926Y0054551D01*
X0047926Y0056149D02*
X0046326Y0056149D01*
X0046326Y0057748D02*
X0047926Y0057748D01*
X0047926Y0059346D02*
X0046326Y0059346D01*
X0046326Y0064142D02*
X0047926Y0064142D01*
X0047926Y0065740D02*
X0046326Y0065740D01*
X0046326Y0067339D02*
X0047926Y0067339D01*
X0047926Y0068937D02*
X0046326Y0068937D01*
X0046326Y0070536D02*
X0047926Y0070536D01*
X0047926Y0072134D02*
X0046326Y0072134D01*
X0043331Y0075332D02*
X0051405Y0075332D01*
X0050239Y0076930D02*
X0044402Y0076930D01*
X0045083Y0078529D02*
X0049576Y0078529D01*
X0049037Y0080127D02*
X0045492Y0080127D01*
X0036115Y0083324D02*
X0034515Y0083324D01*
X0034515Y0084923D02*
X0036115Y0084923D01*
X0036115Y0086521D02*
X0034515Y0086521D01*
X0034515Y0088120D02*
X0036115Y0088120D01*
X0036115Y0089718D02*
X0034515Y0089718D01*
X0034515Y0091317D02*
X0036115Y0091317D01*
X0026201Y0096112D02*
X0022321Y0096112D01*
X0022321Y0094514D02*
X0024602Y0094514D01*
X0023004Y0092915D02*
X0022320Y0092915D01*
X0024000Y0090800D02*
X0024000Y0055800D01*
X0029457Y0050343D01*
X0029457Y0049257D01*
X0024000Y0043800D01*
X0024000Y0022800D01*
X0040000Y0006800D01*
X0190000Y0006800D01*
X0211000Y0027800D01*
X0253000Y0027800D01*
X0254000Y0026800D01*
X0258078Y0028975D02*
X0259922Y0028975D01*
X0259400Y0027376D02*
X0258600Y0027376D01*
X0258600Y0027715D02*
X0257900Y0029406D01*
X0256606Y0030700D01*
X0254915Y0031400D01*
X0253085Y0031400D01*
X0251394Y0030700D01*
X0256732Y0030573D02*
X0261116Y0030573D01*
X0259000Y0030800D02*
X0248000Y0041800D01*
X0248000Y0046257D01*
X0248000Y0046257D01*
X0243838Y0046257D01*
X0243838Y0044445D01*
X0243960Y0043987D01*
X0244197Y0043577D01*
X0244533Y0043242D01*
X0244943Y0043005D01*
X0245401Y0042882D01*
X0248000Y0042882D01*
X0248000Y0046257D01*
X0248000Y0046257D01*
X0248000Y0046558D02*
X0248000Y0046558D01*
X0248000Y0044960D02*
X0248000Y0044960D01*
X0248000Y0043361D02*
X0248000Y0043361D01*
X0248000Y0041800D02*
X0245000Y0038800D01*
X0230000Y0038800D01*
X0224000Y0032800D01*
X0217000Y0032800D01*
X0214457Y0035343D01*
X0214457Y0036800D01*
X0214457Y0036967D02*
X0214457Y0036967D01*
X0214457Y0035369D02*
X0214457Y0035369D01*
X0214457Y0034638D02*
X0214457Y0038800D01*
X0214457Y0042962D01*
X0212645Y0042962D01*
X0212187Y0042840D01*
X0211777Y0042603D01*
X0211442Y0042267D01*
X0211205Y0041857D01*
X0211082Y0041399D01*
X0211082Y0038800D01*
X0211082Y0036201D01*
X0211205Y0035743D01*
X0211442Y0035333D01*
X0211777Y0034997D01*
X0212187Y0034760D01*
X0212645Y0034638D01*
X0214457Y0034638D01*
X0217493Y0035369D02*
X0219058Y0035369D01*
X0218569Y0036967D02*
X0217831Y0036967D01*
X0217831Y0038566D02*
X0218569Y0038566D01*
X0218569Y0040164D02*
X0217831Y0040164D01*
X0217734Y0041763D02*
X0218589Y0041763D01*
X0218576Y0043361D02*
X0190804Y0043361D01*
X0189205Y0041763D02*
X0211179Y0041763D01*
X0211082Y0040164D02*
X0187607Y0040164D01*
X0186008Y0038566D02*
X0211082Y0038566D01*
X0211082Y0038800D02*
X0214457Y0038800D01*
X0214457Y0038800D01*
X0211082Y0038800D01*
X0211082Y0036967D02*
X0184410Y0036967D01*
X0182811Y0035369D02*
X0211421Y0035369D01*
X0214457Y0038566D02*
X0214457Y0038566D01*
X0214457Y0040164D02*
X0214457Y0040164D01*
X0214457Y0041763D02*
X0214457Y0041763D01*
X0215000Y0043882D02*
X0212401Y0043882D01*
X0211943Y0044005D01*
X0211533Y0044242D01*
X0211197Y0044577D01*
X0210960Y0044987D01*
X0210838Y0045445D01*
X0210838Y0047257D01*
X0215000Y0047257D01*
X0215000Y0047257D01*
X0215000Y0043882D01*
X0215000Y0044960D02*
X0215000Y0044960D01*
X0215000Y0046558D02*
X0215000Y0046558D01*
X0215000Y0048157D02*
X0215000Y0048157D01*
X0215000Y0049755D02*
X0215000Y0049755D01*
X0211093Y0049755D02*
X0197198Y0049755D01*
X0195599Y0048157D02*
X0210838Y0048157D01*
X0210838Y0046558D02*
X0194001Y0046558D01*
X0192402Y0044960D02*
X0210976Y0044960D01*
X0218907Y0049755D02*
X0228800Y0049755D01*
X0228800Y0051354D02*
X0228628Y0051354D01*
X0231000Y0048800D02*
X0228000Y0045800D01*
X0224244Y0045800D01*
X0223717Y0045272D01*
X0221543Y0043099D01*
X0221543Y0038800D01*
X0224518Y0038566D02*
X0253123Y0038566D01*
X0251524Y0040164D02*
X0224518Y0040164D01*
X0228092Y0041763D02*
X0233908Y0041763D01*
X0233143Y0043361D02*
X0228857Y0043361D01*
X0230271Y0044960D02*
X0233143Y0044960D01*
X0233143Y0046558D02*
X0231870Y0046558D01*
X0233200Y0048157D02*
X0233282Y0048157D01*
X0233200Y0049755D02*
X0250800Y0049755D01*
X0248000Y0048157D02*
X0248000Y0048157D01*
X0243861Y0048157D02*
X0243284Y0048157D01*
X0243424Y0046558D02*
X0243838Y0046558D01*
X0243838Y0044960D02*
X0243424Y0044960D01*
X0243424Y0043361D02*
X0244413Y0043361D01*
X0242659Y0041763D02*
X0250800Y0041763D01*
X0253000Y0041800D02*
X0253000Y0056800D01*
X0247000Y0062800D01*
X0238000Y0062800D01*
X0236000Y0064800D01*
X0236000Y0070800D01*
X0231000Y0075800D01*
X0231000Y0103676D01*
X0231024Y0103700D01*
X0227874Y0103700D02*
X0227874Y0119926D01*
X0219000Y0128800D01*
X0219000Y0139800D01*
X0225000Y0145800D01*
X0233457Y0145800D01*
X0234000Y0146343D01*
X0239000Y0137800D02*
X0245000Y0142800D01*
X0248547Y0144068D02*
X0312838Y0144068D01*
X0312838Y0144257D02*
X0312838Y0142445D01*
X0312960Y0141987D01*
X0313197Y0141577D01*
X0313533Y0141242D01*
X0313943Y0141005D01*
X0314401Y0140882D01*
X0317000Y0140882D01*
X0319599Y0140882D01*
X0320057Y0141005D01*
X0320467Y0141242D01*
X0320803Y0141577D01*
X0321040Y0141987D01*
X0321162Y0142445D01*
X0321162Y0143478D01*
X0321265Y0143229D01*
X0321699Y0142579D01*
X0322252Y0142027D01*
X0322901Y0141593D01*
X0323623Y0141294D01*
X0324389Y0141142D01*
X0326268Y0141142D01*
X0326268Y0144824D01*
X0326834Y0144824D01*
X0326834Y0141142D01*
X0328713Y0141142D01*
X0329479Y0141294D01*
X0330201Y0141593D01*
X0330851Y0142027D01*
X0331403Y0142579D01*
X0331837Y0143229D01*
X0332136Y0143950D01*
X0332288Y0144717D01*
X0332288Y0144824D01*
X0326834Y0144824D01*
X0326834Y0145390D01*
X0332288Y0145390D01*
X0332288Y0145498D01*
X0332136Y0146264D01*
X0331837Y0146985D01*
X0331403Y0147635D01*
X0330851Y0148187D01*
X0330201Y0148621D01*
X0330083Y0148670D01*
X0330342Y0148777D01*
X0330765Y0149200D01*
X0333517Y0149200D01*
X0334473Y0149596D01*
X0340770Y0155893D01*
X0341235Y0155893D01*
X0341658Y0155470D01*
X0342440Y0155146D01*
X0341658Y0154823D01*
X0340655Y0153820D01*
X0340112Y0152509D01*
X0340112Y0151091D01*
X0340655Y0149780D01*
X0341658Y0148777D01*
X0342440Y0148454D01*
X0341658Y0148130D01*
X0340655Y0147127D01*
X0340112Y0145816D01*
X0340112Y0144398D01*
X0340655Y0143087D01*
X0341658Y0142085D01*
X0342968Y0141542D01*
X0347930Y0141542D01*
X0349240Y0142085D01*
X0350243Y0143087D01*
X0350786Y0144398D01*
X0350786Y0145816D01*
X0350243Y0147127D01*
X0349240Y0148130D01*
X0348458Y0148454D01*
X0349240Y0148777D01*
X0350063Y0149600D01*
X0351238Y0149600D01*
X0351238Y0149189D01*
X0352058Y0148369D01*
X0357942Y0148369D01*
X0358762Y0149189D01*
X0358762Y0153498D01*
X0357942Y0154318D01*
X0352058Y0154318D01*
X0351740Y0154000D01*
X0350063Y0154000D01*
X0349240Y0154823D01*
X0348458Y0155146D01*
X0349240Y0155470D01*
X0349663Y0155893D01*
X0361230Y0155893D01*
X0368238Y0148885D01*
X0368238Y0148052D01*
X0368811Y0146669D01*
X0369479Y0146000D01*
X0363089Y0146000D01*
X0361800Y0144711D01*
X0329800Y0112711D01*
X0329800Y0109921D01*
X0328811Y0108931D01*
X0328238Y0107548D01*
X0328238Y0106149D01*
X0296089Y0074000D01*
X0294121Y0074000D01*
X0293131Y0074989D01*
X0291748Y0075562D01*
X0290873Y0075562D01*
X0328200Y0112889D01*
X0328200Y0114345D01*
X0355136Y0141282D01*
X0357942Y0141282D01*
X0358762Y0142102D01*
X0358762Y0146411D01*
X0357942Y0147231D01*
X0352058Y0147231D01*
X0351238Y0146411D01*
X0351238Y0143606D01*
X0325089Y0117457D01*
X0323800Y0116168D01*
X0323800Y0114711D01*
X0283651Y0074562D01*
X0282252Y0074562D01*
X0280869Y0073989D01*
X0279811Y0072931D01*
X0279238Y0071548D01*
X0279238Y0070052D01*
X0279811Y0068669D01*
X0280479Y0068000D01*
X0279911Y0068000D01*
X0274200Y0073711D01*
X0274200Y0081711D01*
X0270200Y0085711D01*
X0270200Y0108679D01*
X0271189Y0109669D01*
X0271762Y0111052D01*
X0271762Y0112548D01*
X0271189Y0113931D01*
X0270131Y0114989D01*
X0268748Y0115562D01*
X0267252Y0115562D01*
X0265869Y0114989D01*
X0264811Y0113931D01*
X0264238Y0112548D01*
X0264238Y0111052D01*
X0264811Y0109669D01*
X0265800Y0108679D01*
X0265800Y0083889D01*
X0269800Y0079889D01*
X0269800Y0079111D01*
X0268200Y0080711D01*
X0266911Y0082000D01*
X0257521Y0082000D01*
X0258189Y0082669D01*
X0258762Y0084052D01*
X0258762Y0085548D01*
X0258643Y0085837D01*
X0258869Y0085611D01*
X0260252Y0085038D01*
X0261748Y0085038D01*
X0263131Y0085611D01*
X0264189Y0086669D01*
X0264762Y0088052D01*
X0264762Y0089548D01*
X0264189Y0090931D01*
X0263131Y0091989D01*
X0261748Y0092562D01*
X0260252Y0092562D01*
X0258869Y0091989D01*
X0257879Y0091000D01*
X0252311Y0091000D01*
X0257911Y0096600D01*
X0259200Y0097889D01*
X0259200Y0118626D01*
X0259431Y0118858D01*
X0259431Y0124742D01*
X0258611Y0125562D01*
X0254302Y0125562D01*
X0253482Y0124742D01*
X0253482Y0118858D01*
X0254302Y0118038D01*
X0254800Y0118038D01*
X0254800Y0099711D01*
X0254726Y0099637D01*
X0254189Y0100931D01*
X0253200Y0101921D01*
X0253200Y0117711D01*
X0251911Y0119000D01*
X0242026Y0128885D01*
X0243141Y0128424D01*
X0244891Y0128424D01*
X0246508Y0129093D01*
X0247638Y0130224D01*
X0252919Y0130224D01*
X0253318Y0129825D01*
X0258021Y0129825D01*
X0258841Y0130645D01*
X0258841Y0134955D01*
X0258021Y0135775D01*
X0253318Y0135775D01*
X0252967Y0135424D01*
X0247638Y0135424D01*
X0246508Y0136554D01*
X0244891Y0137224D01*
X0243141Y0137224D01*
X0241523Y0136554D01*
X0241200Y0136230D01*
X0241200Y0136770D01*
X0244031Y0139129D01*
X0244252Y0139038D01*
X0245748Y0139038D01*
X0247131Y0139611D01*
X0248189Y0140669D01*
X0248762Y0142052D01*
X0248762Y0143548D01*
X0248189Y0144931D01*
X0247921Y0145200D01*
X0272517Y0145200D01*
X0273473Y0145596D01*
X0274204Y0146327D01*
X0276620Y0148743D01*
X0313683Y0148743D01*
X0314058Y0148369D01*
X0319942Y0148369D01*
X0320317Y0148743D01*
X0322842Y0148743D01*
X0323019Y0148670D01*
X0322901Y0148621D01*
X0322252Y0148187D01*
X0321699Y0147635D01*
X0321265Y0146985D01*
X0321054Y0146474D01*
X0321040Y0146526D01*
X0320803Y0146937D01*
X0320467Y0147272D01*
X0320057Y0147509D01*
X0319599Y0147631D01*
X0317000Y0147631D01*
X0314401Y0147631D01*
X0313943Y0147509D01*
X0313533Y0147272D01*
X0313197Y0146937D01*
X0312960Y0146526D01*
X0312838Y0146068D01*
X0312838Y0144257D01*
X0317000Y0144257D01*
X0317000Y0144257D01*
X0317000Y0147631D01*
X0317000Y0144257D01*
X0317000Y0144257D01*
X0312838Y0144257D01*
X0312838Y0145666D02*
X0273543Y0145666D01*
X0275141Y0147265D02*
X0313525Y0147265D01*
X0317000Y0147265D02*
X0317000Y0147265D01*
X0317000Y0145666D02*
X0317000Y0145666D01*
X0317000Y0144257D02*
X0317000Y0140882D01*
X0317000Y0144257D01*
X0317000Y0144257D01*
X0317000Y0144068D02*
X0317000Y0144068D01*
X0317000Y0142469D02*
X0317000Y0142469D01*
X0321162Y0142469D02*
X0321810Y0142469D01*
X0326268Y0142469D02*
X0326834Y0142469D01*
X0326834Y0144068D02*
X0326268Y0144068D01*
X0331293Y0142469D02*
X0341273Y0142469D01*
X0340249Y0144068D02*
X0332159Y0144068D01*
X0332255Y0145666D02*
X0340112Y0145666D01*
X0340792Y0147265D02*
X0331650Y0147265D01*
X0330428Y0148863D02*
X0341572Y0148863D01*
X0340372Y0150462D02*
X0335338Y0150462D01*
X0336937Y0152060D02*
X0340112Y0152060D01*
X0340588Y0153659D02*
X0338536Y0153659D01*
X0340134Y0155257D02*
X0342172Y0155257D01*
X0345449Y0151800D02*
X0354543Y0151800D01*
X0355000Y0151343D01*
X0358762Y0152060D02*
X0365063Y0152060D01*
X0366661Y0150462D02*
X0358762Y0150462D01*
X0358437Y0148863D02*
X0368238Y0148863D01*
X0368564Y0147265D02*
X0350105Y0147265D01*
X0350786Y0145666D02*
X0351238Y0145666D01*
X0351238Y0144068D02*
X0350649Y0144068D01*
X0350101Y0142469D02*
X0349625Y0142469D01*
X0348503Y0140870D02*
X0308250Y0140870D01*
X0308131Y0140989D02*
X0306748Y0141562D01*
X0305252Y0141562D01*
X0303869Y0140989D01*
X0302811Y0139931D01*
X0302238Y0138548D01*
X0302238Y0137052D01*
X0302811Y0135669D01*
X0303800Y0134679D01*
X0303800Y0103711D01*
X0288651Y0088562D01*
X0287252Y0088562D01*
X0285869Y0087989D01*
X0284811Y0086931D01*
X0284238Y0085548D01*
X0284238Y0084052D01*
X0284811Y0082669D01*
X0285869Y0081611D01*
X0287252Y0081038D01*
X0288748Y0081038D01*
X0290131Y0081611D01*
X0291189Y0082669D01*
X0291762Y0084052D01*
X0291762Y0085451D01*
X0308200Y0101889D01*
X0308200Y0134679D01*
X0309189Y0135669D01*
X0309762Y0137052D01*
X0309762Y0138548D01*
X0309189Y0139931D01*
X0308131Y0140989D01*
X0309462Y0139272D02*
X0346904Y0139272D01*
X0345305Y0137673D02*
X0309762Y0137673D01*
X0309358Y0136075D02*
X0343707Y0136075D01*
X0342108Y0134476D02*
X0308200Y0134476D01*
X0308200Y0132878D02*
X0340510Y0132878D01*
X0338911Y0131279D02*
X0308200Y0131279D01*
X0308200Y0129681D02*
X0337313Y0129681D01*
X0335714Y0128082D02*
X0308200Y0128082D01*
X0308200Y0126484D02*
X0334116Y0126484D01*
X0332517Y0124885D02*
X0308200Y0124885D01*
X0308200Y0123287D02*
X0330919Y0123287D01*
X0329320Y0121688D02*
X0308200Y0121688D01*
X0308200Y0120090D02*
X0327722Y0120090D01*
X0326123Y0118491D02*
X0308200Y0118491D01*
X0308200Y0116893D02*
X0324525Y0116893D01*
X0323800Y0115294D02*
X0308200Y0115294D01*
X0308200Y0113696D02*
X0322785Y0113696D01*
X0321186Y0112097D02*
X0308200Y0112097D01*
X0308200Y0110499D02*
X0319588Y0110499D01*
X0317989Y0108900D02*
X0308200Y0108900D01*
X0308200Y0107302D02*
X0316390Y0107302D01*
X0314792Y0105703D02*
X0308200Y0105703D01*
X0308200Y0104105D02*
X0313193Y0104105D01*
X0311595Y0102506D02*
X0308200Y0102506D01*
X0307219Y0100908D02*
X0309996Y0100908D01*
X0308398Y0099309D02*
X0305620Y0099309D01*
X0306799Y0097711D02*
X0304022Y0097711D01*
X0305201Y0096112D02*
X0302423Y0096112D01*
X0303602Y0094514D02*
X0300825Y0094514D01*
X0302004Y0092915D02*
X0299226Y0092915D01*
X0300405Y0091317D02*
X0297628Y0091317D01*
X0298807Y0089718D02*
X0296029Y0089718D01*
X0297208Y0088120D02*
X0294431Y0088120D01*
X0295610Y0086521D02*
X0292832Y0086521D01*
X0291762Y0084923D02*
X0294011Y0084923D01*
X0292413Y0083324D02*
X0291461Y0083324D01*
X0290814Y0081726D02*
X0290246Y0081726D01*
X0289216Y0080127D02*
X0274200Y0080127D01*
X0274200Y0078529D02*
X0287617Y0078529D01*
X0286019Y0076930D02*
X0274200Y0076930D01*
X0274200Y0075332D02*
X0284420Y0075332D01*
X0280612Y0073733D02*
X0274200Y0073733D01*
X0275777Y0072134D02*
X0279481Y0072134D01*
X0279238Y0070536D02*
X0277375Y0070536D01*
X0278974Y0068937D02*
X0279699Y0068937D01*
X0283000Y0070800D02*
X0326000Y0113800D01*
X0326000Y0115257D01*
X0355000Y0144257D01*
X0358762Y0144068D02*
X0361156Y0144068D01*
X0362755Y0145666D02*
X0358762Y0145666D01*
X0364000Y0143800D02*
X0376000Y0143800D01*
X0380000Y0147800D01*
X0379379Y0144068D02*
X0422700Y0144068D01*
X0422700Y0145666D02*
X0392543Y0145666D01*
X0394141Y0147265D02*
X0422700Y0147265D01*
X0422700Y0148863D02*
X0395740Y0148863D01*
X0397338Y0150462D02*
X0422700Y0150462D01*
X0422700Y0152060D02*
X0418812Y0152060D01*
X0420516Y0153659D02*
X0422700Y0153659D01*
X0422700Y0155257D02*
X0421282Y0155257D01*
X0422700Y0156856D02*
X0416200Y0156856D01*
X0416200Y0158454D02*
X0415800Y0158454D01*
X0415800Y0160053D02*
X0416200Y0160053D01*
X0416200Y0161651D02*
X0415800Y0161651D01*
X0413406Y0161651D02*
X0409000Y0161651D01*
X0409000Y0163250D02*
X0422700Y0163250D01*
X0422700Y0164848D02*
X0408194Y0164848D01*
X0406596Y0166447D02*
X0422700Y0166447D01*
X0422700Y0168045D02*
X0404997Y0168045D01*
X0403399Y0169644D02*
X0422700Y0169644D01*
X0422700Y0171242D02*
X0080521Y0171242D01*
X0077479Y0171242D02*
X0022338Y0171242D01*
X0022338Y0169644D02*
X0075692Y0169644D01*
X0075238Y0168045D02*
X0066374Y0168045D01*
X0068030Y0166447D02*
X0075488Y0166447D01*
X0066527Y0160596D02*
X0063923Y0163200D01*
X0054077Y0163200D01*
X0052600Y0161723D01*
X0052600Y0161243D01*
X0052889Y0161124D01*
X0054324Y0159689D01*
X0054790Y0158563D01*
X0054903Y0158911D01*
X0055296Y0159683D01*
X0055805Y0160383D01*
X0056417Y0160995D01*
X0057117Y0161504D01*
X0057889Y0161897D01*
X0058712Y0162165D01*
X0059567Y0162300D01*
X0059800Y0162300D01*
X0059800Y0157000D01*
X0060200Y0157000D01*
X0060200Y0162300D01*
X0060433Y0162300D01*
X0061288Y0162165D01*
X0062111Y0161897D01*
X0062883Y0161504D01*
X0063583Y0160995D01*
X0064195Y0160383D01*
X0064704Y0159683D01*
X0065097Y0158911D01*
X0065365Y0158088D01*
X0065500Y0157233D01*
X0065500Y0157000D01*
X0060200Y0157000D01*
X0060200Y0156600D01*
X0065500Y0156600D01*
X0065500Y0156367D01*
X0065365Y0155512D01*
X0065097Y0154689D01*
X0064704Y0153917D01*
X0064195Y0153217D01*
X0063583Y0152605D01*
X0062883Y0152096D01*
X0062111Y0151703D01*
X0061288Y0151435D01*
X0060433Y0151300D01*
X0060200Y0151300D01*
X0060200Y0156600D01*
X0059800Y0156600D01*
X0059800Y0151300D01*
X0059567Y0151300D01*
X0058712Y0151435D01*
X0057889Y0151703D01*
X0057117Y0152096D01*
X0056417Y0152605D01*
X0055805Y0153217D01*
X0055296Y0153917D01*
X0054903Y0154689D01*
X0054790Y0155037D01*
X0054324Y0153911D01*
X0052889Y0152476D01*
X0051014Y0151700D01*
X0048986Y0151700D01*
X0047111Y0152476D01*
X0045676Y0153911D01*
X0045000Y0155544D01*
X0044324Y0153911D01*
X0042889Y0152476D01*
X0041014Y0151700D01*
X0038986Y0151700D01*
X0037111Y0152476D01*
X0035676Y0153911D01*
X0035100Y0155303D01*
X0035100Y0152520D01*
X0034280Y0151700D01*
X0032600Y0151700D01*
X0032600Y0150877D01*
X0034077Y0149400D01*
X0075517Y0149400D01*
X0076473Y0149004D01*
X0078077Y0147400D01*
X0093800Y0147400D01*
X0093800Y0149525D01*
X0097575Y0149525D01*
X0097575Y0150275D01*
X0093800Y0150275D01*
X0093800Y0152487D01*
X0093923Y0152945D01*
X0094160Y0153355D01*
X0094495Y0153690D01*
X0094905Y0153927D01*
X0095014Y0153956D01*
X0094200Y0154770D01*
X0094200Y0160200D01*
X0067483Y0160200D01*
X0066527Y0160596D01*
X0065472Y0161651D02*
X0062594Y0161651D01*
X0060200Y0161651D02*
X0059800Y0161651D01*
X0059800Y0160053D02*
X0060200Y0160053D01*
X0060200Y0158454D02*
X0059800Y0158454D01*
X0060200Y0156856D02*
X0094200Y0156856D01*
X0094200Y0158454D02*
X0065246Y0158454D01*
X0064435Y0160053D02*
X0094200Y0160053D01*
X0101100Y0157900D02*
X0101100Y0156700D01*
X0094463Y0153659D02*
X0064516Y0153659D01*
X0065282Y0155257D02*
X0094200Y0155257D01*
X0093800Y0152060D02*
X0062812Y0152060D01*
X0060200Y0152060D02*
X0059800Y0152060D01*
X0059800Y0153659D02*
X0060200Y0153659D01*
X0060200Y0155257D02*
X0059800Y0155257D01*
X0057188Y0152060D02*
X0051884Y0152060D01*
X0054071Y0153659D02*
X0055484Y0153659D01*
X0048116Y0152060D02*
X0041884Y0152060D01*
X0044071Y0153659D02*
X0045929Y0153659D01*
X0045119Y0155257D02*
X0044881Y0155257D01*
X0044835Y0158454D02*
X0045165Y0158454D01*
X0046040Y0160053D02*
X0043960Y0160053D01*
X0041615Y0161651D02*
X0047400Y0161651D01*
X0047400Y0163250D02*
X0022336Y0163250D01*
X0022337Y0164848D02*
X0048371Y0164848D01*
X0049970Y0166447D02*
X0022337Y0166447D01*
X0022337Y0168045D02*
X0051626Y0168045D01*
X0052600Y0161651D02*
X0057406Y0161651D01*
X0055565Y0160053D02*
X0053960Y0160053D01*
X0038385Y0161651D02*
X0034529Y0161651D01*
X0035100Y0160053D02*
X0036040Y0160053D01*
X0035165Y0158454D02*
X0035100Y0158454D01*
X0035100Y0155257D02*
X0035119Y0155257D01*
X0035100Y0153659D02*
X0035929Y0153659D01*
X0034640Y0152060D02*
X0038116Y0152060D01*
X0033015Y0150462D02*
X0093800Y0150462D01*
X0093800Y0148863D02*
X0076614Y0148863D01*
X0068000Y0146800D02*
X0067657Y0146457D01*
X0067657Y0141343D01*
X0070000Y0139001D01*
X0066730Y0137673D02*
X0022331Y0137673D01*
X0022330Y0136075D02*
X0024600Y0136075D01*
X0024600Y0136380D02*
X0024600Y0132220D01*
X0025420Y0131400D01*
X0032580Y0131400D01*
X0033400Y0132220D01*
X0033400Y0136380D01*
X0032580Y0137200D01*
X0025420Y0137200D01*
X0024600Y0136380D01*
X0024600Y0134476D02*
X0022330Y0134476D01*
X0022329Y0132878D02*
X0024600Y0132878D01*
X0022329Y0131279D02*
X0044868Y0131279D01*
X0043270Y0129681D02*
X0022329Y0129681D01*
X0022328Y0128082D02*
X0041671Y0128082D01*
X0040073Y0126484D02*
X0022328Y0126484D01*
X0022328Y0124885D02*
X0038474Y0124885D01*
X0036876Y0123287D02*
X0022327Y0123287D01*
X0022327Y0121688D02*
X0024908Y0121688D01*
X0024600Y0121380D02*
X0025420Y0122200D01*
X0032580Y0122200D01*
X0033400Y0121380D01*
X0033400Y0117220D01*
X0032580Y0116400D01*
X0025420Y0116400D01*
X0024600Y0117220D01*
X0024600Y0121380D01*
X0024600Y0120090D02*
X0022327Y0120090D01*
X0022326Y0118491D02*
X0024600Y0118491D01*
X0024927Y0116893D02*
X0022326Y0116893D01*
X0022326Y0115294D02*
X0036800Y0115294D01*
X0036800Y0113696D02*
X0022325Y0113696D01*
X0022325Y0112097D02*
X0036800Y0112097D01*
X0036800Y0110499D02*
X0022324Y0110499D01*
X0022324Y0108900D02*
X0036800Y0108900D01*
X0036800Y0107302D02*
X0022324Y0107302D01*
X0022323Y0105703D02*
X0035792Y0105703D01*
X0034193Y0104105D02*
X0022323Y0104105D01*
X0022323Y0102506D02*
X0032595Y0102506D01*
X0030996Y0100908D02*
X0022322Y0100908D01*
X0022322Y0099309D02*
X0029398Y0099309D01*
X0027799Y0097711D02*
X0022322Y0097711D01*
X0037219Y0100908D02*
X0072876Y0100908D01*
X0072876Y0102506D02*
X0038817Y0102506D01*
X0040416Y0104105D02*
X0072876Y0104105D01*
X0072876Y0105703D02*
X0041200Y0105703D01*
X0041200Y0107302D02*
X0072876Y0107302D01*
X0072876Y0108900D02*
X0041200Y0108900D01*
X0041200Y0110499D02*
X0072876Y0110499D01*
X0076000Y0112097D02*
X0041200Y0112097D01*
X0041200Y0113696D02*
X0075799Y0113696D01*
X0075238Y0115294D02*
X0041200Y0115294D01*
X0041200Y0116893D02*
X0046445Y0116893D01*
X0046560Y0116695D02*
X0046895Y0116360D01*
X0047305Y0116123D01*
X0047763Y0116000D01*
X0051000Y0116000D01*
X0054237Y0116000D01*
X0054695Y0116123D01*
X0055105Y0116360D01*
X0055440Y0116695D01*
X0055677Y0117105D01*
X0055800Y0117563D01*
X0055800Y0119300D01*
X0051000Y0119300D01*
X0051000Y0119300D01*
X0051000Y0116000D01*
X0051000Y0119300D01*
X0051000Y0119300D01*
X0051000Y0119300D01*
X0051000Y0122600D01*
X0047763Y0122600D01*
X0047305Y0122477D01*
X0046895Y0122240D01*
X0046560Y0121905D01*
X0046323Y0121495D01*
X0046200Y0120090D02*
X0041200Y0120090D01*
X0041200Y0118491D02*
X0046200Y0118491D01*
X0046200Y0119300D02*
X0046200Y0117563D01*
X0046323Y0117105D01*
X0046560Y0116695D01*
X0046200Y0119300D02*
X0051000Y0119300D01*
X0051000Y0120090D02*
X0051000Y0120090D01*
X0051000Y0121688D02*
X0051000Y0121688D01*
X0051000Y0118491D02*
X0051000Y0118491D01*
X0051000Y0116893D02*
X0051000Y0116893D01*
X0055555Y0116893D02*
X0075380Y0116893D01*
X0076371Y0118491D02*
X0055800Y0118491D01*
X0036800Y0118491D02*
X0033400Y0118491D01*
X0033400Y0120090D02*
X0036800Y0120090D01*
X0036800Y0121688D02*
X0033092Y0121688D01*
X0033073Y0116893D02*
X0036800Y0116893D01*
X0051091Y0131279D02*
X0059866Y0131279D01*
X0063762Y0136075D02*
X0067304Y0136075D01*
X0056238Y0139272D02*
X0022331Y0139272D01*
X0022331Y0140870D02*
X0056238Y0140870D01*
X0056238Y0142469D02*
X0022332Y0142469D01*
X0022332Y0144068D02*
X0056807Y0144068D01*
X0060000Y0141343D02*
X0067657Y0141343D01*
X0069857Y0142469D02*
X0075833Y0142469D01*
X0074056Y0144068D02*
X0069857Y0144068D01*
X0046600Y0136075D02*
X0033400Y0136075D01*
X0033400Y0134476D02*
X0046600Y0134476D01*
X0046467Y0132878D02*
X0033400Y0132878D01*
X0030457Y0145666D02*
X0022332Y0145666D01*
X0022333Y0147265D02*
X0028859Y0147265D01*
X0027574Y0148863D02*
X0022333Y0148863D01*
X0022333Y0150462D02*
X0027400Y0150462D01*
X0025360Y0152060D02*
X0022334Y0152060D01*
X0022334Y0153659D02*
X0024900Y0153659D01*
X0024900Y0155257D02*
X0022334Y0155257D01*
X0022335Y0156856D02*
X0024900Y0156856D01*
X0024900Y0158454D02*
X0022335Y0158454D01*
X0022336Y0160053D02*
X0024900Y0160053D01*
X0025471Y0161651D02*
X0022336Y0161651D01*
X0022338Y0172841D02*
X0422700Y0172841D01*
X0422700Y0174439D02*
X0022339Y0174439D01*
X0106600Y0148863D02*
X0111759Y0148863D01*
X0111816Y0147265D02*
X0106600Y0147265D01*
X0106344Y0145666D02*
X0111816Y0145666D01*
X0111816Y0144068D02*
X0106298Y0144068D01*
X0106616Y0142469D02*
X0111816Y0142469D01*
X0116216Y0142469D02*
X0122558Y0142469D01*
X0121800Y0140870D02*
X0116216Y0140870D01*
X0116216Y0139272D02*
X0121800Y0139272D01*
X0121800Y0137673D02*
X0116216Y0137673D01*
X0116987Y0136075D02*
X0121045Y0136075D01*
X0119938Y0134476D02*
X0118094Y0134476D01*
X0118416Y0132878D02*
X0119616Y0132878D01*
X0119893Y0131279D02*
X0118139Y0131279D01*
X0117096Y0129681D02*
X0120936Y0129681D01*
X0127096Y0129681D02*
X0130370Y0129681D01*
X0129470Y0131279D02*
X0128139Y0131279D01*
X0128416Y0132878D02*
X0133816Y0132878D01*
X0134216Y0132878D02*
X0139616Y0132878D01*
X0138816Y0133024D02*
X0138816Y0133201D01*
X0138698Y0133948D01*
X0138464Y0134666D01*
X0138121Y0135339D01*
X0137677Y0135951D01*
X0137143Y0136485D01*
X0136531Y0136929D01*
X0135858Y0137272D01*
X0135140Y0137505D01*
X0134394Y0137624D01*
X0134216Y0137624D01*
X0134216Y0133024D01*
X0138816Y0133024D01*
X0138526Y0134476D02*
X0139938Y0134476D01*
X0141045Y0136075D02*
X0137553Y0136075D01*
X0134216Y0136075D02*
X0133816Y0136075D01*
X0133816Y0134476D02*
X0134216Y0134476D01*
X0130479Y0136075D02*
X0126987Y0136075D01*
X0126200Y0137673D02*
X0143762Y0137673D01*
X0145361Y0139272D02*
X0126200Y0139272D01*
X0127182Y0140870D02*
X0135818Y0140870D01*
X0134220Y0142469D02*
X0128780Y0142469D01*
X0128000Y0144800D02*
X0124000Y0140800D01*
X0124000Y0132839D01*
X0124016Y0132824D01*
X0128094Y0134476D02*
X0129506Y0134476D01*
X0133816Y0131279D02*
X0134216Y0131279D01*
X0134216Y0129681D02*
X0133816Y0129681D01*
X0137661Y0129681D02*
X0140936Y0129681D01*
X0139893Y0131279D02*
X0138561Y0131279D01*
X0144016Y0132824D02*
X0144016Y0134816D01*
X0149000Y0139800D01*
X0185000Y0139800D01*
X0187000Y0137800D01*
X0209000Y0137800D01*
X0215000Y0142800D02*
X0187000Y0142800D01*
X0184000Y0145800D01*
X0184000Y0150800D01*
X0189000Y0155800D01*
X0189000Y0158800D01*
X0186000Y0161800D01*
X0169000Y0161800D01*
X0166000Y0158800D01*
X0171000Y0146800D02*
X0181000Y0156800D01*
X0182000Y0156800D01*
X0171000Y0146800D02*
X0150000Y0146800D01*
X0145000Y0141800D01*
X0138000Y0141800D01*
X0135000Y0144800D01*
X0128000Y0144800D01*
X0125755Y0145666D02*
X0116216Y0145666D01*
X0116216Y0144068D02*
X0124156Y0144068D01*
X0116216Y0147265D02*
X0138859Y0147265D01*
X0139398Y0145666D02*
X0137245Y0145666D01*
X0138844Y0144068D02*
X0140412Y0144068D01*
X0137260Y0148863D02*
X0116216Y0148863D01*
X0116200Y0150462D02*
X0136400Y0150462D01*
X0136400Y0152060D02*
X0115100Y0152060D01*
X0115100Y0153659D02*
X0136400Y0153659D01*
X0136400Y0155257D02*
X0115100Y0155257D01*
X0110750Y0153800D02*
X0114016Y0149534D01*
X0114016Y0132824D01*
X0101045Y0136075D02*
X0098812Y0136075D01*
X0098816Y0134476D02*
X0099938Y0134476D01*
X0114986Y0118491D02*
X0130238Y0118491D01*
X0130718Y0116893D02*
X0116584Y0116893D01*
X0137538Y0120090D02*
X0186969Y0120090D01*
X0193762Y0118491D02*
X0195628Y0118491D01*
X0195238Y0116893D02*
X0193696Y0116893D01*
X0192815Y0115294D02*
X0195551Y0115294D01*
X0199000Y0116800D02*
X0200000Y0117800D01*
X0204000Y0117800D01*
X0204016Y0122816D02*
X0204000Y0123800D01*
X0204016Y0122816D02*
X0204016Y0132824D01*
X0199938Y0134476D02*
X0198094Y0134476D01*
X0198416Y0132878D02*
X0199616Y0132878D01*
X0199893Y0131279D02*
X0198139Y0131279D01*
X0197096Y0129681D02*
X0200936Y0129681D01*
X0201816Y0128082D02*
X0196907Y0128082D01*
X0198375Y0126484D02*
X0201363Y0126484D01*
X0200377Y0124885D02*
X0198762Y0124885D01*
X0198445Y0123287D02*
X0200238Y0123287D01*
X0195000Y0124800D02*
X0194016Y0125784D01*
X0194016Y0132824D01*
X0189938Y0134476D02*
X0188094Y0134476D01*
X0188416Y0132878D02*
X0189616Y0132878D01*
X0189893Y0131279D02*
X0188139Y0131279D01*
X0187096Y0129681D02*
X0190936Y0129681D01*
X0180936Y0129681D02*
X0177096Y0129681D01*
X0176508Y0129093D02*
X0177746Y0130331D01*
X0178416Y0131948D01*
X0178416Y0133699D01*
X0177746Y0135316D01*
X0176508Y0136554D01*
X0174891Y0137224D01*
X0173141Y0137224D01*
X0171523Y0136554D01*
X0170286Y0135316D01*
X0169616Y0133699D01*
X0169616Y0131948D01*
X0170286Y0130331D01*
X0171523Y0129093D01*
X0173141Y0128424D01*
X0174891Y0128424D01*
X0176508Y0129093D01*
X0178139Y0131279D02*
X0179893Y0131279D01*
X0179616Y0132878D02*
X0178416Y0132878D01*
X0178094Y0134476D02*
X0179938Y0134476D01*
X0181045Y0136075D02*
X0176987Y0136075D01*
X0171045Y0136075D02*
X0166987Y0136075D01*
X0166508Y0136554D02*
X0164891Y0137224D01*
X0163141Y0137224D01*
X0161523Y0136554D01*
X0160286Y0135316D01*
X0159616Y0133699D01*
X0159616Y0131948D01*
X0160286Y0130331D01*
X0161523Y0129093D01*
X0163141Y0128424D01*
X0164891Y0128424D01*
X0166508Y0129093D01*
X0167746Y0130331D01*
X0168416Y0131948D01*
X0168416Y0133699D01*
X0167746Y0135316D01*
X0166508Y0136554D01*
X0168094Y0134476D02*
X0169938Y0134476D01*
X0169616Y0132878D02*
X0168416Y0132878D01*
X0168139Y0131279D02*
X0169893Y0131279D01*
X0170936Y0129681D02*
X0167096Y0129681D01*
X0160936Y0129681D02*
X0157096Y0129681D01*
X0156508Y0129093D02*
X0157746Y0130331D01*
X0158416Y0131948D01*
X0158416Y0133699D01*
X0157746Y0135316D01*
X0156508Y0136554D01*
X0154891Y0137224D01*
X0153141Y0137224D01*
X0151523Y0136554D01*
X0150286Y0135316D01*
X0149616Y0133699D01*
X0149616Y0131948D01*
X0150286Y0130331D01*
X0151523Y0129093D01*
X0153141Y0128424D01*
X0154891Y0128424D01*
X0156508Y0129093D01*
X0158139Y0131279D02*
X0159893Y0131279D01*
X0159616Y0132878D02*
X0158416Y0132878D01*
X0158094Y0134476D02*
X0159938Y0134476D01*
X0161045Y0136075D02*
X0156987Y0136075D01*
X0151045Y0136075D02*
X0148386Y0136075D01*
X0148094Y0134476D02*
X0149938Y0134476D01*
X0149616Y0132878D02*
X0148416Y0132878D01*
X0148139Y0131279D02*
X0149893Y0131279D01*
X0150936Y0129681D02*
X0147096Y0129681D01*
X0146277Y0112097D02*
X0157679Y0112097D01*
X0157679Y0110499D02*
X0146600Y0110499D01*
X0146600Y0108900D02*
X0153880Y0108900D01*
X0146400Y0102506D02*
X0138044Y0102506D01*
X0138044Y0101800D02*
X0133882Y0101800D01*
X0133882Y0101800D01*
X0138044Y0101800D01*
X0138044Y0100908D02*
X0146400Y0100908D01*
X0140356Y0099309D02*
X0137644Y0099309D01*
X0137644Y0097711D02*
X0140356Y0097711D01*
X0140641Y0096112D02*
X0137359Y0096112D01*
X0133881Y0098060D02*
X0129000Y0098060D01*
X0129000Y0105540D01*
X0137644Y0105703D02*
X0140356Y0105703D01*
X0140356Y0104105D02*
X0137644Y0104105D01*
X0137545Y0107302D02*
X0140455Y0107302D01*
X0163200Y0100908D02*
X0164800Y0100908D01*
X0164800Y0099309D02*
X0163200Y0099309D01*
X0163200Y0097711D02*
X0164800Y0097711D01*
X0164800Y0092915D02*
X0163200Y0092915D01*
X0163200Y0091317D02*
X0164800Y0091317D01*
X0170613Y0091317D02*
X0178405Y0091317D01*
X0176807Y0089718D02*
X0157759Y0089718D01*
X0157387Y0091317D02*
X0156160Y0091317D01*
X0157279Y0092915D02*
X0154562Y0092915D01*
X0159357Y0088120D02*
X0175208Y0088120D01*
X0173610Y0086521D02*
X0160956Y0086521D01*
X0162554Y0084923D02*
X0172011Y0084923D01*
X0170413Y0083324D02*
X0164153Y0083324D01*
X0147822Y0073733D02*
X0132044Y0073733D01*
X0130446Y0072134D02*
X0146223Y0072134D01*
X0144625Y0070536D02*
X0128847Y0070536D01*
X0127249Y0068937D02*
X0143026Y0068937D01*
X0141428Y0067339D02*
X0125650Y0067339D01*
X0123000Y0067800D02*
X0115000Y0067800D01*
X0098000Y0050800D01*
X0080457Y0050800D01*
X0080000Y0050343D01*
X0080543Y0049800D01*
X0080000Y0050343D02*
X0029457Y0050343D01*
X0029959Y0052952D02*
X0076692Y0052952D01*
X0070000Y0046800D02*
X0060000Y0036800D01*
X0060000Y0031800D01*
X0055296Y0033770D02*
X0054704Y0033770D01*
X0055000Y0033056D02*
X0054324Y0034689D01*
X0052889Y0036124D01*
X0051014Y0036900D01*
X0048986Y0036900D01*
X0047111Y0036124D01*
X0045676Y0034689D01*
X0045000Y0033056D01*
X0044324Y0034689D01*
X0042889Y0036124D01*
X0041014Y0036900D01*
X0038986Y0036900D01*
X0037111Y0036124D01*
X0035676Y0034689D01*
X0035210Y0033563D01*
X0035097Y0033911D01*
X0034704Y0034683D01*
X0034195Y0035383D01*
X0033583Y0035995D01*
X0032883Y0036504D01*
X0032111Y0036897D01*
X0031288Y0037165D01*
X0030433Y0037300D01*
X0030200Y0037300D01*
X0030200Y0032000D01*
X0029800Y0032000D01*
X0029800Y0037300D01*
X0029567Y0037300D01*
X0028712Y0037165D01*
X0027889Y0036897D01*
X0027117Y0036504D01*
X0026417Y0035995D01*
X0026200Y0035778D01*
X0026200Y0042889D01*
X0031455Y0048143D01*
X0068232Y0048143D01*
X0057800Y0037711D01*
X0057800Y0036409D01*
X0057111Y0036124D01*
X0055676Y0034689D01*
X0055000Y0033056D01*
X0053644Y0035369D02*
X0056356Y0035369D01*
X0057800Y0036967D02*
X0031895Y0036967D01*
X0030200Y0036967D02*
X0029800Y0036967D01*
X0029800Y0035369D02*
X0030200Y0035369D01*
X0030200Y0033770D02*
X0029800Y0033770D01*
X0029800Y0032172D02*
X0030200Y0032172D01*
X0030200Y0030573D02*
X0029800Y0030573D01*
X0029800Y0028975D02*
X0030200Y0028975D01*
X0030200Y0027376D02*
X0029800Y0027376D01*
X0026732Y0027376D02*
X0026200Y0027376D01*
X0026200Y0025778D02*
X0052345Y0025778D01*
X0053944Y0024179D02*
X0026200Y0024179D01*
X0027331Y0022581D02*
X0055542Y0022581D01*
X0057141Y0020982D02*
X0028929Y0020982D01*
X0030528Y0019384D02*
X0058739Y0019384D01*
X0060338Y0017785D02*
X0032126Y0017785D01*
X0033725Y0016187D02*
X0124500Y0016187D01*
X0124500Y0016600D02*
X0124500Y0014522D01*
X0127722Y0011300D01*
X0129800Y0011300D01*
X0129800Y0016600D01*
X0124500Y0016600D01*
X0124500Y0017785D02*
X0089662Y0017785D01*
X0091261Y0019384D02*
X0124805Y0019384D01*
X0129800Y0016187D02*
X0130200Y0016187D01*
X0130200Y0014588D02*
X0129800Y0014588D01*
X0129800Y0012990D02*
X0130200Y0012990D01*
X0130200Y0011391D02*
X0129800Y0011391D01*
X0127631Y0011391D02*
X0038520Y0011391D01*
X0036922Y0012990D02*
X0126032Y0012990D01*
X0124500Y0014588D02*
X0035323Y0014588D01*
X0030699Y0012990D02*
X0022302Y0012990D01*
X0022303Y0014588D02*
X0029101Y0014588D01*
X0027502Y0016187D02*
X0022303Y0016187D01*
X0022304Y0017785D02*
X0025904Y0017785D01*
X0024305Y0019384D02*
X0022304Y0019384D01*
X0023089Y0020600D02*
X0039089Y0004600D01*
X0190911Y0004600D01*
X0192200Y0005889D01*
X0211911Y0025600D01*
X0249518Y0025600D01*
X0250100Y0024194D01*
X0251394Y0022900D01*
X0253085Y0022200D01*
X0254915Y0022200D01*
X0256606Y0022900D01*
X0257900Y0024194D01*
X0258600Y0025885D01*
X0258600Y0027715D01*
X0258556Y0025778D02*
X0259444Y0025778D01*
X0260115Y0024179D02*
X0257885Y0024179D01*
X0255834Y0022581D02*
X0262166Y0022581D01*
X0262076Y0020982D02*
X0256750Y0020982D01*
X0256621Y0021076D02*
X0255919Y0021434D01*
X0255171Y0021677D01*
X0254394Y0021800D01*
X0254086Y0021800D01*
X0254086Y0016886D01*
X0253914Y0016886D01*
X0253914Y0021800D01*
X0253606Y0021800D01*
X0252829Y0021677D01*
X0252081Y0021434D01*
X0251379Y0021076D01*
X0250743Y0020614D01*
X0250186Y0020057D01*
X0249724Y0019421D01*
X0249366Y0018719D01*
X0249123Y0017971D01*
X0249000Y0017194D01*
X0249000Y0016886D01*
X0253914Y0016886D01*
X0253914Y0016714D01*
X0249000Y0016714D01*
X0249000Y0016406D01*
X0249123Y0015629D01*
X0249366Y0014881D01*
X0249724Y0014179D01*
X0250186Y0013543D01*
X0250743Y0012986D01*
X0251379Y0012524D01*
X0252081Y0012166D01*
X0252829Y0011923D01*
X0253606Y0011800D01*
X0253914Y0011800D01*
X0253914Y0016714D01*
X0254086Y0016714D01*
X0254086Y0016886D01*
X0259000Y0016886D01*
X0259000Y0017194D01*
X0258877Y0017971D01*
X0258634Y0018719D01*
X0258276Y0019421D01*
X0257814Y0020057D01*
X0257257Y0020614D01*
X0256621Y0021076D01*
X0258295Y0019384D02*
X0260091Y0019384D01*
X0259429Y0017785D02*
X0258906Y0017785D01*
X0259000Y0016714D02*
X0254086Y0016714D01*
X0254086Y0011800D01*
X0254394Y0011800D01*
X0255171Y0011923D01*
X0255919Y0012166D01*
X0256621Y0012524D01*
X0257257Y0012986D01*
X0257814Y0013543D01*
X0258276Y0014179D01*
X0258634Y0014881D01*
X0258877Y0015629D01*
X0259000Y0016406D01*
X0259000Y0016714D01*
X0258965Y0016187D02*
X0259400Y0016187D01*
X0259937Y0014588D02*
X0258485Y0014588D01*
X0257261Y0012990D02*
X0261305Y0012990D01*
X0254086Y0012990D02*
X0253914Y0012990D01*
X0253914Y0014588D02*
X0254086Y0014588D01*
X0254086Y0016187D02*
X0253914Y0016187D01*
X0254000Y0016800D02*
X0259000Y0021800D01*
X0259000Y0030800D01*
X0259517Y0032172D02*
X0179614Y0032172D01*
X0181213Y0033770D02*
X0257918Y0033770D01*
X0256320Y0035369D02*
X0224029Y0035369D01*
X0224518Y0036967D02*
X0254721Y0036967D01*
X0258000Y0040800D02*
X0269000Y0029800D01*
X0269000Y0021800D01*
X0264000Y0016800D01*
X0268063Y0014588D02*
X0269937Y0014588D01*
X0270100Y0014194D02*
X0269400Y0015885D01*
X0269400Y0017715D01*
X0270100Y0019406D01*
X0271394Y0020700D01*
X0273085Y0021400D01*
X0274915Y0021400D01*
X0276606Y0020700D01*
X0277900Y0019406D01*
X0277902Y0019400D01*
X0285923Y0019400D01*
X0287238Y0020715D01*
X0287238Y0021548D01*
X0287811Y0022931D01*
X0288869Y0023989D01*
X0290252Y0024562D01*
X0291748Y0024562D01*
X0293131Y0023989D01*
X0294189Y0022931D01*
X0294762Y0021548D01*
X0294762Y0020052D01*
X0294189Y0018669D01*
X0293131Y0017611D01*
X0291748Y0017038D01*
X0290915Y0017038D01*
X0288473Y0014596D01*
X0287517Y0014200D01*
X0277902Y0014200D01*
X0277900Y0014194D01*
X0276606Y0012900D01*
X0274915Y0012200D01*
X0273085Y0012200D01*
X0271394Y0012900D01*
X0270100Y0014194D01*
X0271305Y0012990D02*
X0266695Y0012990D01*
X0268600Y0016187D02*
X0269400Y0016187D01*
X0269429Y0017785D02*
X0268571Y0017785D01*
X0269695Y0019384D02*
X0270091Y0019384D01*
X0271200Y0020982D02*
X0272076Y0020982D01*
X0272166Y0022581D02*
X0271200Y0022581D01*
X0266669Y0022581D02*
X0265834Y0022581D01*
X0254086Y0020982D02*
X0253914Y0020982D01*
X0253914Y0019384D02*
X0254086Y0019384D01*
X0254086Y0017785D02*
X0253914Y0017785D01*
X0249705Y0019384D02*
X0205695Y0019384D01*
X0207293Y0020982D02*
X0251250Y0020982D01*
X0252166Y0022581D02*
X0208892Y0022581D01*
X0210490Y0024179D02*
X0250115Y0024179D01*
X0264000Y0026800D02*
X0264000Y0030800D01*
X0253000Y0041800D01*
X0258000Y0040800D02*
X0258000Y0057800D01*
X0251000Y0064800D01*
X0251000Y0065800D01*
X0254762Y0065740D02*
X0265800Y0065740D01*
X0265800Y0064142D02*
X0254769Y0064142D01*
X0256368Y0062543D02*
X0265800Y0062543D01*
X0265800Y0060945D02*
X0257966Y0060945D01*
X0259565Y0059346D02*
X0265800Y0059346D01*
X0264837Y0057748D02*
X0260200Y0057748D01*
X0260200Y0056149D02*
X0263238Y0056149D01*
X0261800Y0054551D02*
X0260200Y0054551D01*
X0260200Y0052952D02*
X0261800Y0052952D01*
X0261800Y0051354D02*
X0260200Y0051354D01*
X0260200Y0049755D02*
X0261800Y0049755D01*
X0261800Y0048157D02*
X0260200Y0048157D01*
X0260200Y0046558D02*
X0261800Y0046558D01*
X0262729Y0044960D02*
X0260200Y0044960D01*
X0260200Y0043361D02*
X0264327Y0043361D01*
X0265926Y0041763D02*
X0260200Y0041763D01*
X0261747Y0040164D02*
X0267524Y0040164D01*
X0269123Y0038566D02*
X0263345Y0038566D01*
X0264944Y0036967D02*
X0287056Y0036967D01*
X0287245Y0038566D02*
X0278877Y0038566D01*
X0277000Y0039800D02*
X0271000Y0039800D01*
X0264000Y0046800D01*
X0264000Y0053800D01*
X0268000Y0057800D01*
X0268000Y0077800D01*
X0266000Y0079800D01*
X0248000Y0079800D01*
X0245724Y0082076D01*
X0236900Y0082076D01*
X0237176Y0081800D01*
X0236900Y0078926D02*
X0241874Y0078926D01*
X0244000Y0076800D01*
X0247464Y0075332D02*
X0265800Y0075332D01*
X0265759Y0076930D02*
X0247762Y0076930D01*
X0246254Y0073733D02*
X0259612Y0073733D01*
X0264388Y0073733D02*
X0265800Y0073733D01*
X0265800Y0072134D02*
X0265519Y0072134D01*
X0265762Y0070536D02*
X0265800Y0070536D01*
X0265800Y0068937D02*
X0265301Y0068937D01*
X0265800Y0067339D02*
X0263475Y0067339D01*
X0260525Y0067339D02*
X0254435Y0067339D01*
X0262000Y0070800D02*
X0242000Y0070800D01*
X0237024Y0075776D01*
X0236900Y0075776D01*
X0231024Y0069900D02*
X0231024Y0064776D01*
X0236000Y0059800D01*
X0244000Y0059800D01*
X0247000Y0056800D01*
X0247000Y0055800D01*
X0245528Y0054328D01*
X0238283Y0054328D01*
X0233372Y0051354D02*
X0233200Y0051354D01*
X0231000Y0048800D02*
X0231000Y0057800D01*
X0227874Y0060926D01*
X0227874Y0069900D01*
X0225000Y0070176D02*
X0224724Y0069900D01*
X0224724Y0063524D01*
X0220000Y0058800D01*
X0217000Y0058800D01*
X0215000Y0056800D01*
X0215000Y0054343D01*
X0211238Y0054551D02*
X0201994Y0054551D01*
X0203592Y0056149D02*
X0211238Y0056149D01*
X0211238Y0052952D02*
X0200395Y0052952D01*
X0198796Y0051354D02*
X0218805Y0051354D01*
X0222732Y0046257D02*
X0223717Y0045272D01*
X0243195Y0051354D02*
X0244238Y0051354D01*
X0247000Y0054343D02*
X0248000Y0053343D01*
X0247000Y0054343D02*
X0247000Y0055800D01*
X0268000Y0049800D02*
X0278000Y0059800D01*
X0291000Y0059800D01*
X0294000Y0062800D01*
X0302000Y0062800D01*
X0304000Y0064800D01*
X0331000Y0064800D01*
X0331500Y0064300D01*
X0394000Y0064300D01*
X0398400Y0064142D02*
X0411600Y0064142D01*
X0411600Y0065740D02*
X0398400Y0065740D01*
X0398400Y0062543D02*
X0411600Y0062543D01*
X0411600Y0062220D02*
X0412420Y0061400D01*
X0419580Y0061400D01*
X0420400Y0062220D01*
X0420400Y0066380D01*
X0419580Y0067200D01*
X0412420Y0067200D01*
X0411600Y0066380D01*
X0411600Y0062220D01*
X0420400Y0062543D02*
X0422700Y0062543D01*
X0422700Y0060945D02*
X0330966Y0060945D01*
X0330145Y0062543D02*
X0329368Y0062543D01*
X0327000Y0061800D02*
X0360000Y0028800D01*
X0394000Y0028800D01*
X0394000Y0029300D01*
X0398400Y0028975D02*
X0411600Y0028975D01*
X0411600Y0030573D02*
X0398400Y0030573D01*
X0397608Y0032172D02*
X0412392Y0032172D01*
X0412420Y0032200D02*
X0411600Y0031380D01*
X0411600Y0027220D01*
X0412420Y0026400D01*
X0419580Y0026400D01*
X0420400Y0027220D01*
X0420400Y0031380D01*
X0419580Y0032200D01*
X0412420Y0032200D01*
X0419608Y0032172D02*
X0422700Y0032172D01*
X0422700Y0033770D02*
X0358141Y0033770D01*
X0359740Y0032172D02*
X0390392Y0032172D01*
X0398400Y0027376D02*
X0411600Y0027376D01*
X0420400Y0027376D02*
X0422700Y0027376D01*
X0422700Y0025778D02*
X0357676Y0025778D01*
X0357695Y0027376D02*
X0358313Y0027376D01*
X0359093Y0024179D02*
X0370327Y0024179D01*
X0373673Y0024179D02*
X0422700Y0024179D01*
X0422700Y0022581D02*
X0375335Y0022581D01*
X0375762Y0020982D02*
X0422700Y0020982D01*
X0422700Y0019384D02*
X0375485Y0019384D01*
X0374306Y0017785D02*
X0422700Y0017785D01*
X0422700Y0016187D02*
X0420400Y0016187D01*
X0420400Y0016380D02*
X0419580Y0017200D01*
X0412420Y0017200D01*
X0411600Y0016380D01*
X0411600Y0012220D01*
X0412420Y0011400D01*
X0419580Y0011400D01*
X0420400Y0012220D01*
X0420400Y0016380D01*
X0420400Y0014588D02*
X0422700Y0014588D01*
X0422700Y0012990D02*
X0420400Y0012990D01*
X0422700Y0011391D02*
X0398137Y0011391D01*
X0398105Y0011360D02*
X0398440Y0011695D01*
X0398677Y0012105D01*
X0398800Y0012563D01*
X0398800Y0014300D01*
X0398800Y0016037D01*
X0398677Y0016495D01*
X0398440Y0016905D01*
X0398105Y0017240D01*
X0397695Y0017477D01*
X0397237Y0017600D01*
X0394000Y0017600D01*
X0394000Y0014300D01*
X0394000Y0014300D01*
X0398800Y0014300D01*
X0394000Y0014300D01*
X0394000Y0014300D01*
X0394000Y0017600D01*
X0390763Y0017600D01*
X0390305Y0017477D01*
X0389895Y0017240D01*
X0389560Y0016905D01*
X0389323Y0016495D01*
X0389200Y0016037D01*
X0389200Y0014300D01*
X0394000Y0014300D01*
X0394000Y0011000D01*
X0397237Y0011000D01*
X0397695Y0011123D01*
X0398105Y0011360D01*
X0398800Y0012990D02*
X0411600Y0012990D01*
X0411600Y0014588D02*
X0398800Y0014588D01*
X0398760Y0016187D02*
X0411600Y0016187D01*
X0422700Y0009793D02*
X0196104Y0009793D01*
X0197702Y0011391D02*
X0389863Y0011391D01*
X0389895Y0011360D02*
X0390305Y0011123D01*
X0390763Y0011000D01*
X0394000Y0011000D01*
X0394000Y0014300D01*
X0394000Y0014300D01*
X0394000Y0014300D01*
X0389200Y0014300D01*
X0389200Y0012563D01*
X0389323Y0012105D01*
X0389560Y0011695D01*
X0389895Y0011360D01*
X0389200Y0012990D02*
X0276695Y0012990D01*
X0288454Y0014588D02*
X0389200Y0014588D01*
X0389240Y0016187D02*
X0345859Y0016187D01*
X0347457Y0017785D02*
X0369694Y0017785D01*
X0356535Y0019384D02*
X0349056Y0019384D01*
X0350654Y0020982D02*
X0354936Y0020982D01*
X0346497Y0024179D02*
X0331423Y0024179D01*
X0331359Y0024024D02*
X0332105Y0025825D01*
X0332105Y0027775D01*
X0331359Y0029576D01*
X0329980Y0030954D01*
X0328179Y0031700D01*
X0326230Y0031700D01*
X0326054Y0031627D01*
X0322677Y0035004D01*
X0321722Y0035400D01*
X0314077Y0035400D01*
X0312600Y0036877D01*
X0312600Y0040578D01*
X0313270Y0041248D01*
X0313270Y0045951D01*
X0312450Y0046771D01*
X0307550Y0046771D01*
X0306730Y0045951D01*
X0306730Y0041248D01*
X0307400Y0040578D01*
X0307400Y0035775D01*
X0306979Y0035775D01*
X0306159Y0034955D01*
X0306159Y0030645D01*
X0306979Y0029825D01*
X0311682Y0029825D01*
X0312057Y0030200D01*
X0320128Y0030200D01*
X0322377Y0027950D01*
X0322305Y0027775D01*
X0322305Y0025825D01*
X0323051Y0024024D01*
X0324429Y0022646D01*
X0326230Y0021900D01*
X0328179Y0021900D01*
X0329980Y0022646D01*
X0331359Y0024024D01*
X0332085Y0025778D02*
X0347915Y0025778D01*
X0347895Y0027376D02*
X0332105Y0027376D01*
X0331608Y0028975D02*
X0346944Y0028975D01*
X0345345Y0030573D02*
X0330361Y0030573D01*
X0325510Y0032172D02*
X0343747Y0032172D01*
X0342148Y0033770D02*
X0323911Y0033770D01*
X0321797Y0035369D02*
X0340550Y0035369D01*
X0338951Y0036967D02*
X0312600Y0036967D01*
X0312600Y0038566D02*
X0337353Y0038566D01*
X0335754Y0040164D02*
X0312600Y0040164D01*
X0313270Y0041763D02*
X0334156Y0041763D01*
X0332557Y0043361D02*
X0313270Y0043361D01*
X0313270Y0044960D02*
X0330959Y0044960D01*
X0329360Y0046558D02*
X0312663Y0046558D01*
X0307337Y0046558D02*
X0303762Y0046558D01*
X0303762Y0044960D02*
X0306730Y0044960D01*
X0306730Y0043361D02*
X0303663Y0043361D01*
X0303663Y0044003D02*
X0303762Y0044102D01*
X0303762Y0048411D01*
X0302942Y0049231D01*
X0297058Y0049231D01*
X0296238Y0048411D01*
X0296238Y0044102D01*
X0297058Y0043282D01*
X0298463Y0043282D01*
X0298463Y0039267D01*
X0297891Y0038695D01*
X0297891Y0034385D01*
X0298711Y0033565D01*
X0303415Y0033565D01*
X0304235Y0034385D01*
X0304235Y0038695D01*
X0303663Y0039267D01*
X0303663Y0044003D01*
X0303663Y0041763D02*
X0306730Y0041763D01*
X0307400Y0040164D02*
X0303663Y0040164D01*
X0304235Y0038566D02*
X0307400Y0038566D01*
X0307400Y0036967D02*
X0304235Y0036967D01*
X0304235Y0035369D02*
X0306573Y0035369D01*
X0306159Y0033770D02*
X0303619Y0033770D01*
X0303072Y0032435D02*
X0301063Y0032435D01*
X0299054Y0032435D01*
X0298597Y0032312D01*
X0298186Y0032075D01*
X0297851Y0031740D01*
X0297614Y0031329D01*
X0297491Y0030872D01*
X0297491Y0029060D01*
X0301063Y0029060D01*
X0301063Y0029060D01*
X0301063Y0032435D01*
X0301063Y0029060D01*
X0304635Y0029060D01*
X0304635Y0030872D01*
X0304512Y0031329D01*
X0304275Y0031740D01*
X0303940Y0032075D01*
X0303529Y0032312D01*
X0303072Y0032435D01*
X0303772Y0032172D02*
X0306159Y0032172D01*
X0306231Y0030573D02*
X0304635Y0030573D01*
X0304635Y0029060D02*
X0301063Y0029060D01*
X0301063Y0029060D01*
X0301063Y0029060D01*
X0297491Y0029060D01*
X0297491Y0027248D01*
X0297614Y0026790D01*
X0297851Y0026380D01*
X0298186Y0026045D01*
X0298597Y0025808D01*
X0299054Y0025685D01*
X0301063Y0025685D01*
X0303072Y0025685D01*
X0303529Y0025808D01*
X0303940Y0026045D01*
X0304275Y0026380D01*
X0304512Y0026790D01*
X0304635Y0027248D01*
X0304635Y0029060D01*
X0304635Y0028975D02*
X0321353Y0028975D01*
X0322305Y0027376D02*
X0304635Y0027376D01*
X0303417Y0025778D02*
X0322324Y0025778D01*
X0322987Y0024179D02*
X0312673Y0024179D01*
X0309327Y0024179D02*
X0292673Y0024179D01*
X0294335Y0022581D02*
X0307665Y0022581D01*
X0307238Y0020982D02*
X0294762Y0020982D01*
X0294485Y0019384D02*
X0307514Y0019384D01*
X0308694Y0017785D02*
X0293306Y0017785D01*
X0290064Y0016187D02*
X0321936Y0016187D01*
X0320338Y0017785D02*
X0313306Y0017785D01*
X0324495Y0020982D02*
X0343300Y0020982D01*
X0344899Y0022581D02*
X0329823Y0022581D01*
X0324587Y0022581D02*
X0322896Y0022581D01*
X0301063Y0025685D02*
X0301063Y0029060D01*
X0301063Y0029060D01*
X0301063Y0025685D01*
X0301063Y0025778D02*
X0301063Y0025778D01*
X0301063Y0027376D02*
X0301063Y0027376D01*
X0301063Y0028975D02*
X0301063Y0028975D01*
X0301063Y0030573D02*
X0301063Y0030573D01*
X0301063Y0032172D02*
X0301063Y0032172D01*
X0298354Y0032172D02*
X0288483Y0032172D01*
X0290081Y0033770D02*
X0298507Y0033770D01*
X0297891Y0035369D02*
X0293889Y0035369D01*
X0294727Y0036967D02*
X0297891Y0036967D01*
X0297891Y0038566D02*
X0294755Y0038566D01*
X0293956Y0040164D02*
X0298463Y0040164D01*
X0298463Y0041763D02*
X0282074Y0041763D01*
X0283673Y0043361D02*
X0296978Y0043361D01*
X0296238Y0044960D02*
X0285271Y0044960D01*
X0286870Y0046558D02*
X0296238Y0046558D01*
X0296238Y0048157D02*
X0288468Y0048157D01*
X0290067Y0049755D02*
X0326163Y0049755D01*
X0327761Y0048157D02*
X0303762Y0048157D01*
X0303762Y0051354D02*
X0324564Y0051354D01*
X0322966Y0052952D02*
X0312573Y0052952D01*
X0307427Y0052952D02*
X0303762Y0052952D01*
X0303762Y0054551D02*
X0306730Y0054551D01*
X0306730Y0056149D02*
X0303111Y0056149D01*
X0306059Y0057748D02*
X0306730Y0057748D01*
X0307658Y0059346D02*
X0326342Y0059346D01*
X0325524Y0057748D02*
X0327941Y0057748D01*
X0327123Y0056149D02*
X0329539Y0056149D01*
X0328721Y0054551D02*
X0331138Y0054551D01*
X0330320Y0052952D02*
X0332736Y0052952D01*
X0331918Y0051354D02*
X0334335Y0051354D01*
X0333517Y0049755D02*
X0335933Y0049755D01*
X0335115Y0048157D02*
X0337532Y0048157D01*
X0336714Y0046558D02*
X0339130Y0046558D01*
X0338312Y0044960D02*
X0340729Y0044960D01*
X0339911Y0043361D02*
X0342327Y0043361D01*
X0341509Y0041763D02*
X0343926Y0041763D01*
X0343108Y0040164D02*
X0345524Y0040164D01*
X0344706Y0038566D02*
X0347123Y0038566D01*
X0346305Y0036967D02*
X0348721Y0036967D01*
X0347903Y0035369D02*
X0350320Y0035369D01*
X0349502Y0033770D02*
X0351918Y0033770D01*
X0351100Y0032172D02*
X0353517Y0032172D01*
X0356543Y0035369D02*
X0422700Y0035369D01*
X0422700Y0036967D02*
X0354944Y0036967D01*
X0353345Y0038566D02*
X0422700Y0038566D01*
X0422700Y0040164D02*
X0351747Y0040164D01*
X0350148Y0041763D02*
X0422700Y0041763D01*
X0422700Y0043361D02*
X0348550Y0043361D01*
X0346951Y0044960D02*
X0422700Y0044960D01*
X0422700Y0046558D02*
X0419738Y0046558D01*
X0419580Y0046400D02*
X0420400Y0047220D01*
X0420400Y0051380D01*
X0419580Y0052200D01*
X0412420Y0052200D01*
X0411600Y0051380D01*
X0411600Y0047220D01*
X0412420Y0046400D01*
X0419580Y0046400D01*
X0420400Y0048157D02*
X0422700Y0048157D01*
X0422700Y0049755D02*
X0420400Y0049755D01*
X0420400Y0051354D02*
X0422700Y0051354D01*
X0422700Y0052952D02*
X0338959Y0052952D01*
X0340557Y0051354D02*
X0389285Y0051354D01*
X0389323Y0051495D02*
X0389200Y0051037D01*
X0389200Y0049300D01*
X0394000Y0049300D01*
X0394000Y0049300D01*
X0394000Y0052600D01*
X0397237Y0052600D01*
X0397695Y0052477D01*
X0398105Y0052240D01*
X0398440Y0051905D01*
X0398677Y0051495D01*
X0398800Y0051037D01*
X0398800Y0049300D01*
X0394000Y0049300D01*
X0394000Y0049300D01*
X0394000Y0052600D01*
X0390763Y0052600D01*
X0390305Y0052477D01*
X0389895Y0052240D01*
X0389560Y0051905D01*
X0389323Y0051495D01*
X0389200Y0049755D02*
X0342156Y0049755D01*
X0343754Y0048157D02*
X0389200Y0048157D01*
X0389200Y0047563D02*
X0389323Y0047105D01*
X0389560Y0046695D01*
X0389895Y0046360D01*
X0390305Y0046123D01*
X0390763Y0046000D01*
X0394000Y0046000D01*
X0397237Y0046000D01*
X0397695Y0046123D01*
X0398105Y0046360D01*
X0398440Y0046695D01*
X0398677Y0047105D01*
X0398800Y0047563D01*
X0398800Y0049300D01*
X0394000Y0049300D01*
X0394000Y0046000D01*
X0394000Y0049300D01*
X0394000Y0049300D01*
X0394000Y0049300D01*
X0389200Y0049300D01*
X0389200Y0047563D01*
X0389696Y0046558D02*
X0345353Y0046558D01*
X0337360Y0054551D02*
X0422700Y0054551D01*
X0422700Y0056149D02*
X0335762Y0056149D01*
X0334163Y0057748D02*
X0422700Y0057748D01*
X0422700Y0059346D02*
X0332565Y0059346D01*
X0327000Y0061800D02*
X0307000Y0061800D01*
X0305000Y0059800D01*
X0296000Y0059800D01*
X0293000Y0056800D01*
X0289000Y0056800D01*
X0277000Y0044800D01*
X0273000Y0044800D01*
X0277000Y0039800D02*
X0290543Y0053343D01*
X0300000Y0053343D01*
X0296889Y0056149D02*
X0295461Y0056149D01*
X0298000Y0065800D02*
X0279000Y0065800D01*
X0272000Y0072800D01*
X0272000Y0080800D01*
X0268000Y0084800D01*
X0268000Y0111800D01*
X0271533Y0110499D02*
X0278800Y0110499D01*
X0278800Y0112097D02*
X0271762Y0112097D01*
X0271287Y0113696D02*
X0278800Y0113696D01*
X0278800Y0115294D02*
X0269395Y0115294D01*
X0266605Y0115294D02*
X0259200Y0115294D01*
X0259200Y0113696D02*
X0264713Y0113696D01*
X0264238Y0112097D02*
X0259200Y0112097D01*
X0259200Y0110499D02*
X0264467Y0110499D01*
X0265579Y0108900D02*
X0259200Y0108900D01*
X0259200Y0107302D02*
X0265800Y0107302D01*
X0265800Y0105703D02*
X0259200Y0105703D01*
X0259200Y0104105D02*
X0265800Y0104105D01*
X0265800Y0102506D02*
X0259200Y0102506D01*
X0259200Y0100908D02*
X0265800Y0100908D01*
X0265800Y0099309D02*
X0259200Y0099309D01*
X0259022Y0097711D02*
X0265800Y0097711D01*
X0265800Y0096112D02*
X0257423Y0096112D01*
X0255825Y0094514D02*
X0265800Y0094514D01*
X0265800Y0092915D02*
X0254226Y0092915D01*
X0252628Y0091317D02*
X0258196Y0091317D01*
X0263804Y0091317D02*
X0265800Y0091317D01*
X0265800Y0089718D02*
X0264692Y0089718D01*
X0264762Y0088120D02*
X0265800Y0088120D01*
X0265800Y0086521D02*
X0264042Y0086521D01*
X0265800Y0084923D02*
X0258762Y0084923D01*
X0258461Y0083324D02*
X0266365Y0083324D01*
X0267186Y0081726D02*
X0267963Y0081726D01*
X0268784Y0080127D02*
X0269562Y0080127D01*
X0274186Y0081726D02*
X0285754Y0081726D01*
X0284539Y0083324D02*
X0272587Y0083324D01*
X0270989Y0084923D02*
X0284238Y0084923D01*
X0283131Y0085611D02*
X0284189Y0086669D01*
X0284762Y0088052D01*
X0284762Y0089548D01*
X0284189Y0090931D01*
X0283200Y0091921D01*
X0283200Y0134679D01*
X0284189Y0135669D01*
X0284762Y0137052D01*
X0284762Y0138548D01*
X0284189Y0139931D01*
X0283131Y0140989D01*
X0281748Y0141562D01*
X0280252Y0141562D01*
X0278869Y0140989D01*
X0277811Y0139931D01*
X0277238Y0138548D01*
X0277238Y0137052D01*
X0277811Y0135669D01*
X0278800Y0134679D01*
X0278800Y0091921D01*
X0277811Y0090931D01*
X0277238Y0089548D01*
X0277238Y0088052D01*
X0277811Y0086669D01*
X0278869Y0085611D01*
X0280252Y0085038D01*
X0281748Y0085038D01*
X0283131Y0085611D01*
X0284042Y0086521D02*
X0284641Y0086521D01*
X0284762Y0088120D02*
X0286183Y0088120D01*
X0284692Y0089718D02*
X0289807Y0089718D01*
X0291405Y0091317D02*
X0283804Y0091317D01*
X0283200Y0092915D02*
X0293004Y0092915D01*
X0294602Y0094514D02*
X0283200Y0094514D01*
X0283200Y0096112D02*
X0296201Y0096112D01*
X0297799Y0097711D02*
X0283200Y0097711D01*
X0283200Y0099309D02*
X0299398Y0099309D01*
X0300996Y0100908D02*
X0283200Y0100908D01*
X0283200Y0102506D02*
X0302595Y0102506D01*
X0303800Y0104105D02*
X0283200Y0104105D01*
X0283200Y0105703D02*
X0303800Y0105703D01*
X0303800Y0107302D02*
X0283200Y0107302D01*
X0283200Y0108900D02*
X0303800Y0108900D01*
X0303800Y0110499D02*
X0283200Y0110499D01*
X0283200Y0112097D02*
X0303800Y0112097D01*
X0303800Y0113696D02*
X0283200Y0113696D01*
X0283200Y0115294D02*
X0303800Y0115294D01*
X0303800Y0116893D02*
X0283200Y0116893D01*
X0283200Y0118491D02*
X0303800Y0118491D01*
X0303800Y0120090D02*
X0283200Y0120090D01*
X0283200Y0121688D02*
X0303800Y0121688D01*
X0303800Y0123287D02*
X0283200Y0123287D01*
X0283200Y0124885D02*
X0303800Y0124885D01*
X0303800Y0126484D02*
X0283200Y0126484D01*
X0283200Y0128082D02*
X0303800Y0128082D01*
X0303800Y0129681D02*
X0283200Y0129681D01*
X0283200Y0131279D02*
X0303800Y0131279D01*
X0303800Y0132878D02*
X0283200Y0132878D01*
X0283200Y0134476D02*
X0303800Y0134476D01*
X0302642Y0136075D02*
X0284358Y0136075D01*
X0284762Y0137673D02*
X0302238Y0137673D01*
X0302538Y0139272D02*
X0284462Y0139272D01*
X0283250Y0140870D02*
X0303750Y0140870D01*
X0306000Y0137800D02*
X0306000Y0102800D01*
X0288000Y0084800D01*
X0281000Y0088800D02*
X0281000Y0137800D01*
X0277538Y0139272D02*
X0267097Y0139272D01*
X0267149Y0139220D02*
X0266814Y0139555D01*
X0266403Y0139792D01*
X0265946Y0139915D01*
X0263937Y0139915D01*
X0261928Y0139915D01*
X0261471Y0139792D01*
X0261060Y0139555D01*
X0260725Y0139220D01*
X0260488Y0138810D01*
X0260365Y0138352D01*
X0260365Y0136540D01*
X0260365Y0134728D01*
X0260488Y0134271D01*
X0260725Y0133860D01*
X0261060Y0133525D01*
X0261471Y0133288D01*
X0261928Y0133165D01*
X0263937Y0133165D01*
X0265946Y0133165D01*
X0266403Y0133288D01*
X0266814Y0133525D01*
X0267149Y0133860D01*
X0267386Y0134271D01*
X0267509Y0134728D01*
X0267509Y0136540D01*
X0263937Y0136540D01*
X0263937Y0133165D01*
X0263937Y0136540D01*
X0263937Y0136540D01*
X0260365Y0136540D01*
X0263937Y0136540D01*
X0263937Y0136540D01*
X0263937Y0136540D01*
X0267509Y0136540D01*
X0267509Y0138352D01*
X0267386Y0138810D01*
X0267149Y0139220D01*
X0267509Y0137673D02*
X0277238Y0137673D01*
X0277642Y0136075D02*
X0267509Y0136075D01*
X0267441Y0134476D02*
X0278800Y0134476D01*
X0278800Y0132878D02*
X0258841Y0132878D01*
X0258841Y0134476D02*
X0260433Y0134476D01*
X0260365Y0136075D02*
X0246987Y0136075D01*
X0246314Y0139272D02*
X0260777Y0139272D01*
X0260365Y0137673D02*
X0242285Y0137673D01*
X0239000Y0137800D02*
X0239000Y0128800D01*
X0251000Y0116800D01*
X0251000Y0098800D01*
X0246874Y0094674D01*
X0236900Y0094674D01*
X0236900Y0097824D02*
X0239024Y0097824D01*
X0239000Y0097847D01*
X0239000Y0106800D01*
X0227874Y0103700D02*
X0227874Y0097674D01*
X0227000Y0096800D01*
X0220577Y0096112D02*
X0215423Y0096112D01*
X0215276Y0099076D02*
X0215276Y0103700D01*
X0212126Y0103700D02*
X0212000Y0103826D01*
X0236900Y0091524D02*
X0249724Y0091524D01*
X0257000Y0098800D01*
X0257000Y0121257D01*
X0256457Y0121800D01*
X0259431Y0121688D02*
X0260569Y0121688D01*
X0260569Y0120090D02*
X0259431Y0120090D01*
X0259200Y0118491D02*
X0260935Y0118491D01*
X0260569Y0118858D02*
X0261389Y0118038D01*
X0265698Y0118038D01*
X0266518Y0118858D01*
X0266518Y0124742D01*
X0265969Y0125291D01*
X0266020Y0126085D01*
X0266289Y0126085D01*
X0267109Y0126905D01*
X0267109Y0131215D01*
X0266289Y0132035D01*
X0261585Y0132035D01*
X0260765Y0131215D01*
X0260765Y0126905D01*
X0261585Y0126085D01*
X0261611Y0126085D01*
X0261578Y0125562D01*
X0261389Y0125562D01*
X0260569Y0124742D01*
X0260569Y0118858D01*
X0259200Y0116893D02*
X0278800Y0116893D01*
X0278800Y0118491D02*
X0266152Y0118491D01*
X0266518Y0120090D02*
X0278800Y0120090D01*
X0278800Y0121688D02*
X0266518Y0121688D01*
X0266518Y0123287D02*
X0278800Y0123287D01*
X0278800Y0124885D02*
X0266375Y0124885D01*
X0266687Y0126484D02*
X0278800Y0126484D01*
X0278800Y0128082D02*
X0267109Y0128082D01*
X0267109Y0129681D02*
X0278800Y0129681D01*
X0278800Y0131279D02*
X0267044Y0131279D01*
X0264000Y0128997D02*
X0263937Y0129060D01*
X0264000Y0128997D02*
X0263543Y0121800D01*
X0260569Y0123287D02*
X0259431Y0123287D01*
X0259288Y0124885D02*
X0260712Y0124885D01*
X0261187Y0126484D02*
X0244427Y0126484D01*
X0242829Y0128082D02*
X0260765Y0128082D01*
X0260765Y0129681D02*
X0247096Y0129681D01*
X0246026Y0124885D02*
X0253625Y0124885D01*
X0253482Y0123287D02*
X0247624Y0123287D01*
X0249223Y0121688D02*
X0253482Y0121688D01*
X0253482Y0120090D02*
X0250821Y0120090D01*
X0252420Y0118491D02*
X0253848Y0118491D01*
X0253200Y0116893D02*
X0254800Y0116893D01*
X0254800Y0115294D02*
X0253200Y0115294D01*
X0253200Y0113696D02*
X0254800Y0113696D01*
X0254800Y0112097D02*
X0253200Y0112097D01*
X0253200Y0110499D02*
X0254800Y0110499D01*
X0254800Y0108900D02*
X0253200Y0108900D01*
X0253200Y0107302D02*
X0254800Y0107302D01*
X0254800Y0105703D02*
X0253200Y0105703D01*
X0253200Y0104105D02*
X0254800Y0104105D01*
X0254800Y0102506D02*
X0253200Y0102506D01*
X0254199Y0100908D02*
X0254800Y0100908D01*
X0244000Y0099800D02*
X0244000Y0114800D01*
X0238000Y0120800D01*
X0234000Y0120800D01*
X0224016Y0130784D01*
X0224016Y0132824D01*
X0214016Y0132824D02*
X0214000Y0132808D01*
X0214000Y0130800D01*
X0211000Y0127800D01*
X0209000Y0127800D01*
X0248273Y0140870D02*
X0278750Y0140870D01*
X0263937Y0139915D02*
X0263937Y0136540D01*
X0263937Y0139915D01*
X0263937Y0139272D02*
X0263937Y0139272D01*
X0263937Y0137673D02*
X0263937Y0137673D01*
X0263937Y0136540D02*
X0263937Y0136540D01*
X0263937Y0136075D02*
X0263937Y0136075D01*
X0263937Y0134476D02*
X0263937Y0134476D01*
X0260830Y0131279D02*
X0258841Y0131279D01*
X0248762Y0142469D02*
X0312838Y0142469D01*
X0320475Y0147265D02*
X0321452Y0147265D01*
X0306000Y0156800D02*
X0295000Y0156800D01*
X0348725Y0155257D02*
X0361866Y0155257D01*
X0363464Y0153659D02*
X0358602Y0153659D01*
X0351563Y0148863D02*
X0349326Y0148863D01*
X0364000Y0143800D02*
X0332000Y0111800D01*
X0332000Y0106800D01*
X0297000Y0071800D01*
X0291000Y0071800D01*
X0287451Y0070536D02*
X0286762Y0070536D01*
X0286301Y0068937D02*
X0288542Y0068937D01*
X0293458Y0068937D02*
X0298026Y0068937D01*
X0298847Y0070536D02*
X0308625Y0070536D01*
X0310000Y0068800D02*
X0309000Y0067800D01*
X0300000Y0067800D01*
X0298000Y0065800D01*
X0310000Y0068800D02*
X0361000Y0068800D01*
X0391500Y0099300D01*
X0394000Y0099300D01*
X0398400Y0099309D02*
X0411600Y0099309D01*
X0411600Y0097711D02*
X0398400Y0097711D01*
X0391423Y0096112D02*
X0422700Y0096112D01*
X0422700Y0094514D02*
X0389825Y0094514D01*
X0388226Y0092915D02*
X0422700Y0092915D01*
X0422700Y0091317D02*
X0386628Y0091317D01*
X0385029Y0089718D02*
X0422700Y0089718D01*
X0422700Y0088120D02*
X0383431Y0088120D01*
X0381832Y0086521D02*
X0389338Y0086521D01*
X0389323Y0086495D02*
X0389200Y0086037D01*
X0389200Y0084300D01*
X0394000Y0084300D01*
X0394000Y0084300D01*
X0394000Y0087600D01*
X0397237Y0087600D01*
X0397695Y0087477D01*
X0398105Y0087240D01*
X0398440Y0086905D01*
X0398677Y0086495D01*
X0398800Y0086037D01*
X0398800Y0084300D01*
X0394000Y0084300D01*
X0394000Y0084300D01*
X0394000Y0087600D01*
X0390763Y0087600D01*
X0390305Y0087477D01*
X0389895Y0087240D01*
X0389560Y0086905D01*
X0389323Y0086495D01*
X0389200Y0084923D02*
X0380234Y0084923D01*
X0378635Y0083324D02*
X0389200Y0083324D01*
X0389200Y0082563D02*
X0389323Y0082105D01*
X0389560Y0081695D01*
X0389895Y0081360D01*
X0390305Y0081123D01*
X0390763Y0081000D01*
X0394000Y0081000D01*
X0397237Y0081000D01*
X0397695Y0081123D01*
X0398105Y0081360D01*
X0398440Y0081695D01*
X0398677Y0082105D01*
X0398800Y0082563D01*
X0398800Y0084300D01*
X0394000Y0084300D01*
X0394000Y0081000D01*
X0394000Y0084300D01*
X0394000Y0084300D01*
X0394000Y0084300D01*
X0389200Y0084300D01*
X0389200Y0082563D01*
X0389542Y0081726D02*
X0377037Y0081726D01*
X0375438Y0080127D02*
X0422700Y0080127D01*
X0422700Y0078529D02*
X0373840Y0078529D01*
X0372241Y0076930D02*
X0422700Y0076930D01*
X0422700Y0075332D02*
X0370643Y0075332D01*
X0369044Y0073733D02*
X0422700Y0073733D01*
X0422700Y0072134D02*
X0367446Y0072134D01*
X0365847Y0070536D02*
X0422700Y0070536D01*
X0422700Y0068937D02*
X0364249Y0068937D01*
X0362650Y0067339D02*
X0422700Y0067339D01*
X0422700Y0065740D02*
X0420400Y0065740D01*
X0420400Y0064142D02*
X0422700Y0064142D01*
X0411600Y0051354D02*
X0398715Y0051354D01*
X0398800Y0049755D02*
X0411600Y0049755D01*
X0411600Y0048157D02*
X0398800Y0048157D01*
X0398304Y0046558D02*
X0412262Y0046558D01*
X0394000Y0046558D02*
X0394000Y0046558D01*
X0394000Y0048157D02*
X0394000Y0048157D01*
X0394000Y0049755D02*
X0394000Y0049755D01*
X0394000Y0051354D02*
X0394000Y0051354D01*
X0420400Y0030573D02*
X0422700Y0030573D01*
X0422700Y0028975D02*
X0420400Y0028975D01*
X0394000Y0016187D02*
X0394000Y0016187D01*
X0394000Y0014588D02*
X0394000Y0014588D01*
X0394000Y0012990D02*
X0394000Y0012990D01*
X0394000Y0011391D02*
X0394000Y0011391D01*
X0422700Y0008194D02*
X0194505Y0008194D01*
X0192907Y0006596D02*
X0422700Y0006596D01*
X0422700Y0004997D02*
X0191308Y0004997D01*
X0189881Y0009793D02*
X0040119Y0009793D01*
X0035495Y0008194D02*
X0022301Y0008194D01*
X0022301Y0006596D02*
X0037093Y0006596D01*
X0038692Y0004997D02*
X0022301Y0004997D01*
X0022302Y0009793D02*
X0033896Y0009793D01*
X0032298Y0011391D02*
X0022302Y0011391D01*
X0023089Y0020600D02*
X0022304Y0021384D01*
X0022304Y0020982D02*
X0022707Y0020982D01*
X0033268Y0027376D02*
X0037353Y0027376D01*
X0035650Y0028975D02*
X0034733Y0028975D01*
X0042647Y0027376D02*
X0047353Y0027376D01*
X0045650Y0028975D02*
X0044350Y0028975D01*
X0044704Y0033770D02*
X0045296Y0033770D01*
X0046356Y0035369D02*
X0043644Y0035369D01*
X0036356Y0035369D02*
X0034206Y0035369D01*
X0035143Y0033770D02*
X0035296Y0033770D01*
X0028105Y0036967D02*
X0026200Y0036967D01*
X0026200Y0038566D02*
X0058655Y0038566D01*
X0060253Y0040164D02*
X0026200Y0040164D01*
X0026200Y0041763D02*
X0061852Y0041763D01*
X0063450Y0043361D02*
X0026673Y0043361D01*
X0028271Y0044960D02*
X0065049Y0044960D01*
X0066647Y0046558D02*
X0029870Y0046558D01*
X0026200Y0064142D02*
X0036856Y0064142D01*
X0037119Y0065740D02*
X0026200Y0065740D01*
X0026200Y0067339D02*
X0037641Y0067339D01*
X0038506Y0068937D02*
X0026200Y0068937D01*
X0026200Y0073733D02*
X0028911Y0073733D01*
X0027299Y0075332D02*
X0026200Y0075332D01*
X0026200Y0076930D02*
X0026228Y0076930D01*
X0065020Y0089718D02*
X0072876Y0089718D01*
X0072876Y0088120D02*
X0066618Y0088120D01*
X0067697Y0086521D02*
X0072876Y0086521D01*
X0071541Y0084923D02*
X0068359Y0084923D01*
X0075205Y0080101D02*
X0075205Y0080101D01*
X0116000Y0075332D02*
X0116000Y0075332D01*
X0116000Y0073733D02*
X0116000Y0073733D01*
X0120162Y0073733D02*
X0125822Y0073733D01*
X0124223Y0072134D02*
X0120162Y0072134D01*
X0119762Y0070536D02*
X0122625Y0070536D01*
X0123000Y0067800D02*
X0133000Y0077800D01*
X0149249Y0068937D02*
X0152542Y0068937D01*
X0170000Y0050800D02*
X0183000Y0063800D01*
X0186552Y0062543D02*
X0186632Y0062543D01*
X0186762Y0064142D02*
X0187238Y0064142D01*
X0187317Y0065740D02*
X0186268Y0065740D01*
X0188218Y0067339D02*
X0184287Y0067339D01*
X0185249Y0068937D02*
X0192542Y0068937D01*
X0191451Y0070536D02*
X0186847Y0070536D01*
X0188446Y0072134D02*
X0191238Y0072134D01*
X0191729Y0073733D02*
X0190044Y0073733D01*
X0191643Y0075332D02*
X0193695Y0075332D01*
X0195000Y0071800D02*
X0198976Y0075776D01*
X0203100Y0075776D01*
X0206637Y0073733D02*
X0207229Y0073733D01*
X0206476Y0072134D02*
X0198762Y0072134D01*
X0198549Y0070536D02*
X0201415Y0070536D01*
X0200399Y0068937D02*
X0197458Y0068937D01*
X0196218Y0067339D02*
X0193782Y0067339D01*
X0194683Y0065740D02*
X0195317Y0065740D01*
X0195231Y0064142D02*
X0194762Y0064142D01*
X0191000Y0063800D02*
X0191000Y0064800D01*
X0191000Y0063800D02*
X0172000Y0044800D01*
X0170000Y0049800D02*
X0170000Y0050800D01*
X0167000Y0032800D02*
X0199000Y0064800D01*
X0204000Y0067800D02*
X0206100Y0069900D01*
X0208976Y0069900D01*
X0222000Y0075800D02*
X0224000Y0075800D01*
X0225000Y0074800D01*
X0225000Y0070176D01*
X0224724Y0070076D02*
X0224724Y0069900D01*
X0236900Y0085225D02*
X0254575Y0085225D01*
X0255000Y0084800D01*
X0261000Y0088800D02*
X0237325Y0088800D01*
X0236900Y0088375D01*
X0270200Y0088120D02*
X0277238Y0088120D01*
X0277308Y0089718D02*
X0270200Y0089718D01*
X0270200Y0091317D02*
X0278196Y0091317D01*
X0278800Y0092915D02*
X0270200Y0092915D01*
X0270200Y0094514D02*
X0278800Y0094514D01*
X0278800Y0096112D02*
X0270200Y0096112D01*
X0270200Y0097711D02*
X0278800Y0097711D01*
X0278800Y0099309D02*
X0270200Y0099309D01*
X0270200Y0100908D02*
X0278800Y0100908D01*
X0278800Y0102506D02*
X0270200Y0102506D01*
X0270200Y0104105D02*
X0278800Y0104105D01*
X0278800Y0105703D02*
X0270200Y0105703D01*
X0270200Y0107302D02*
X0278800Y0107302D01*
X0278800Y0108900D02*
X0270421Y0108900D01*
X0308226Y0092915D02*
X0315004Y0092915D01*
X0313405Y0091317D02*
X0306628Y0091317D01*
X0305029Y0089718D02*
X0311807Y0089718D01*
X0310208Y0088120D02*
X0303431Y0088120D01*
X0301832Y0086521D02*
X0308610Y0086521D01*
X0307011Y0084923D02*
X0300234Y0084923D01*
X0298635Y0083324D02*
X0305413Y0083324D01*
X0303814Y0081726D02*
X0297037Y0081726D01*
X0295438Y0080127D02*
X0302216Y0080127D01*
X0300617Y0078529D02*
X0293840Y0078529D01*
X0292241Y0076930D02*
X0299019Y0076930D01*
X0297420Y0075332D02*
X0292305Y0075332D01*
X0300446Y0072134D02*
X0361223Y0072134D01*
X0362822Y0073733D02*
X0302044Y0073733D01*
X0303643Y0075332D02*
X0364420Y0075332D01*
X0366019Y0076930D02*
X0305241Y0076930D01*
X0306840Y0078529D02*
X0367617Y0078529D01*
X0369216Y0080127D02*
X0308438Y0080127D01*
X0310037Y0081726D02*
X0370814Y0081726D01*
X0372413Y0083324D02*
X0311635Y0083324D01*
X0313234Y0084923D02*
X0374011Y0084923D01*
X0375610Y0086521D02*
X0314832Y0086521D01*
X0316431Y0088120D02*
X0377208Y0088120D01*
X0378807Y0089718D02*
X0318029Y0089718D01*
X0319628Y0091317D02*
X0380405Y0091317D01*
X0382004Y0092915D02*
X0321226Y0092915D01*
X0322825Y0094514D02*
X0383602Y0094514D01*
X0385201Y0096112D02*
X0324423Y0096112D01*
X0326022Y0097711D02*
X0386799Y0097711D01*
X0388398Y0099309D02*
X0327620Y0099309D01*
X0329219Y0100908D02*
X0389600Y0100908D01*
X0398400Y0100908D02*
X0411600Y0100908D01*
X0411600Y0101380D02*
X0411600Y0097220D01*
X0412420Y0096400D01*
X0419580Y0096400D01*
X0420400Y0097220D01*
X0420400Y0101380D01*
X0419580Y0102200D01*
X0412420Y0102200D01*
X0411600Y0101380D01*
X0420400Y0100908D02*
X0422700Y0100908D01*
X0422700Y0102506D02*
X0330817Y0102506D01*
X0334625Y0104105D02*
X0422700Y0104105D01*
X0422700Y0105703D02*
X0335618Y0105703D01*
X0335762Y0107302D02*
X0422700Y0107302D01*
X0422700Y0108900D02*
X0335202Y0108900D01*
X0334200Y0110499D02*
X0422700Y0110499D01*
X0422700Y0112097D02*
X0358892Y0112097D01*
X0358748Y0112038D02*
X0360131Y0112611D01*
X0361121Y0113600D01*
X0370911Y0113600D01*
X0372200Y0114889D01*
X0388911Y0131600D01*
X0390220Y0131600D01*
X0390420Y0131400D01*
X0393000Y0131400D01*
X0393483Y0131200D01*
X0394517Y0131200D01*
X0395000Y0131400D01*
X0397580Y0131400D01*
X0398400Y0132220D01*
X0398400Y0136380D01*
X0397580Y0137200D01*
X0390420Y0137200D01*
X0389600Y0136380D01*
X0389600Y0136000D01*
X0387089Y0136000D01*
X0369089Y0118000D01*
X0361121Y0118000D01*
X0360131Y0118989D01*
X0358748Y0119562D01*
X0357252Y0119562D01*
X0355869Y0118989D01*
X0354811Y0117931D01*
X0354238Y0116548D01*
X0354238Y0115052D01*
X0354811Y0113669D01*
X0355869Y0112611D01*
X0357252Y0112038D01*
X0358748Y0112038D01*
X0357108Y0112097D02*
X0335409Y0112097D01*
X0337007Y0113696D02*
X0354799Y0113696D01*
X0354238Y0115294D02*
X0338606Y0115294D01*
X0340204Y0116893D02*
X0354380Y0116893D01*
X0355371Y0118491D02*
X0341803Y0118491D01*
X0343401Y0120090D02*
X0371179Y0120090D01*
X0372777Y0121688D02*
X0345000Y0121688D01*
X0346598Y0123287D02*
X0374376Y0123287D01*
X0375974Y0124885D02*
X0348197Y0124885D01*
X0349795Y0126484D02*
X0377573Y0126484D01*
X0379171Y0128082D02*
X0351394Y0128082D01*
X0352992Y0129681D02*
X0380770Y0129681D01*
X0382368Y0131279D02*
X0354591Y0131279D01*
X0356189Y0132878D02*
X0383967Y0132878D01*
X0385565Y0134476D02*
X0357788Y0134476D01*
X0359386Y0136075D02*
X0389600Y0136075D01*
X0388000Y0133800D02*
X0370000Y0115800D01*
X0358000Y0115800D01*
X0360629Y0118491D02*
X0369580Y0118491D01*
X0374204Y0116893D02*
X0389445Y0116893D01*
X0389560Y0116695D02*
X0389895Y0116360D01*
X0390305Y0116123D01*
X0390763Y0116000D01*
X0394000Y0116000D01*
X0397237Y0116000D01*
X0397695Y0116123D01*
X0398105Y0116360D01*
X0398440Y0116695D01*
X0398677Y0117105D01*
X0398800Y0117563D01*
X0398800Y0119300D01*
X0398800Y0121037D01*
X0398677Y0121495D01*
X0398440Y0121905D01*
X0398105Y0122240D01*
X0397695Y0122477D01*
X0397237Y0122600D01*
X0394000Y0122600D01*
X0394000Y0119300D01*
X0394000Y0119300D01*
X0398800Y0119300D01*
X0394000Y0119300D01*
X0394000Y0119300D01*
X0394000Y0122600D01*
X0390763Y0122600D01*
X0390305Y0122477D01*
X0389895Y0122240D01*
X0389560Y0121905D01*
X0389323Y0121495D01*
X0389200Y0121037D01*
X0389200Y0119300D01*
X0394000Y0119300D01*
X0394000Y0116000D01*
X0394000Y0119300D01*
X0394000Y0119300D01*
X0394000Y0119300D01*
X0389200Y0119300D01*
X0389200Y0117563D01*
X0389323Y0117105D01*
X0389560Y0116695D01*
X0389200Y0118491D02*
X0375803Y0118491D01*
X0377401Y0120090D02*
X0389200Y0120090D01*
X0389434Y0121688D02*
X0379000Y0121688D01*
X0380598Y0123287D02*
X0422700Y0123287D01*
X0422700Y0124885D02*
X0382197Y0124885D01*
X0383795Y0126484D02*
X0422700Y0126484D01*
X0422700Y0128082D02*
X0385394Y0128082D01*
X0386992Y0129681D02*
X0422700Y0129681D01*
X0422700Y0131279D02*
X0394709Y0131279D01*
X0393291Y0131279D02*
X0388591Y0131279D01*
X0388000Y0133800D02*
X0394000Y0133800D01*
X0398400Y0134476D02*
X0411600Y0134476D01*
X0411600Y0132878D02*
X0398400Y0132878D01*
X0398400Y0136075D02*
X0411600Y0136075D01*
X0411600Y0136380D02*
X0411600Y0132220D01*
X0412420Y0131400D01*
X0419580Y0131400D01*
X0420400Y0132220D01*
X0420400Y0136380D01*
X0419580Y0137200D01*
X0412420Y0137200D01*
X0411600Y0136380D01*
X0420400Y0136075D02*
X0422700Y0136075D01*
X0422700Y0137673D02*
X0360985Y0137673D01*
X0362583Y0139272D02*
X0422700Y0139272D01*
X0422700Y0140870D02*
X0364182Y0140870D01*
X0359558Y0142469D02*
X0358762Y0142469D01*
X0357959Y0140870D02*
X0354725Y0140870D01*
X0353127Y0139272D02*
X0356361Y0139272D01*
X0354762Y0137673D02*
X0351528Y0137673D01*
X0349930Y0136075D02*
X0353164Y0136075D01*
X0351565Y0134476D02*
X0348331Y0134476D01*
X0346733Y0132878D02*
X0349967Y0132878D01*
X0348368Y0131279D02*
X0345134Y0131279D01*
X0343535Y0129681D02*
X0346770Y0129681D01*
X0345171Y0128082D02*
X0341937Y0128082D01*
X0340338Y0126484D02*
X0343573Y0126484D01*
X0341974Y0124885D02*
X0338740Y0124885D01*
X0337141Y0123287D02*
X0340376Y0123287D01*
X0338777Y0121688D02*
X0335543Y0121688D01*
X0333944Y0120090D02*
X0337179Y0120090D01*
X0335580Y0118491D02*
X0332346Y0118491D01*
X0330747Y0116893D02*
X0333982Y0116893D01*
X0332383Y0115294D02*
X0329149Y0115294D01*
X0328200Y0113696D02*
X0330785Y0113696D01*
X0329800Y0112097D02*
X0327409Y0112097D01*
X0325810Y0110499D02*
X0329800Y0110499D01*
X0328798Y0108900D02*
X0324212Y0108900D01*
X0322613Y0107302D02*
X0328238Y0107302D01*
X0327792Y0105703D02*
X0321014Y0105703D01*
X0319416Y0104105D02*
X0326193Y0104105D01*
X0324595Y0102506D02*
X0317817Y0102506D01*
X0316219Y0100908D02*
X0322996Y0100908D01*
X0321398Y0099309D02*
X0314620Y0099309D01*
X0313022Y0097711D02*
X0319799Y0097711D01*
X0318201Y0096112D02*
X0311423Y0096112D01*
X0309825Y0094514D02*
X0316602Y0094514D01*
X0277958Y0086521D02*
X0270200Y0086521D01*
X0180004Y0092915D02*
X0170721Y0092915D01*
X0092679Y0108900D02*
X0085124Y0108900D01*
X0085124Y0110499D02*
X0092679Y0110499D01*
X0092679Y0112097D02*
X0082000Y0112097D01*
X0139000Y0156343D02*
X0139457Y0156800D01*
X0371007Y0113696D02*
X0422700Y0113696D01*
X0422700Y0115294D02*
X0372606Y0115294D01*
X0394000Y0116893D02*
X0394000Y0116893D01*
X0394000Y0118491D02*
X0394000Y0118491D01*
X0394000Y0120090D02*
X0394000Y0120090D01*
X0394000Y0121688D02*
X0394000Y0121688D01*
X0398566Y0121688D02*
X0411908Y0121688D01*
X0411600Y0121380D02*
X0412420Y0122200D01*
X0419580Y0122200D01*
X0420400Y0121380D01*
X0420400Y0117220D01*
X0419580Y0116400D01*
X0412420Y0116400D01*
X0411600Y0117220D01*
X0411600Y0121380D01*
X0411600Y0120090D02*
X0398800Y0120090D01*
X0398800Y0118491D02*
X0411600Y0118491D01*
X0411927Y0116893D02*
X0398555Y0116893D01*
X0420073Y0116893D02*
X0422700Y0116893D01*
X0422700Y0118491D02*
X0420400Y0118491D01*
X0420400Y0120090D02*
X0422700Y0120090D01*
X0422700Y0121688D02*
X0420092Y0121688D01*
X0420400Y0132878D02*
X0422700Y0132878D01*
X0422700Y0134476D02*
X0420400Y0134476D01*
X0422700Y0142469D02*
X0377780Y0142469D01*
X0398508Y0152060D02*
X0404116Y0152060D01*
X0401929Y0153659D02*
X0400071Y0153659D01*
X0400881Y0155257D02*
X0401119Y0155257D01*
X0407884Y0152060D02*
X0413188Y0152060D01*
X0411484Y0153659D02*
X0410071Y0153659D01*
X0415800Y0153659D02*
X0416200Y0153659D01*
X0416200Y0155257D02*
X0415800Y0155257D01*
X0415800Y0152060D02*
X0416200Y0152060D01*
X0421246Y0158454D02*
X0422700Y0158454D01*
X0422700Y0160053D02*
X0420435Y0160053D01*
X0418594Y0161651D02*
X0422700Y0161651D01*
X0411565Y0160053D02*
X0409960Y0160053D01*
X0420400Y0099309D02*
X0422700Y0099309D01*
X0422700Y0097711D02*
X0420400Y0097711D01*
X0419580Y0087200D02*
X0412420Y0087200D01*
X0411600Y0086380D01*
X0411600Y0082220D01*
X0412420Y0081400D01*
X0419580Y0081400D01*
X0420400Y0082220D01*
X0420400Y0086380D01*
X0419580Y0087200D01*
X0420259Y0086521D02*
X0422700Y0086521D01*
X0422700Y0084923D02*
X0420400Y0084923D01*
X0420400Y0083324D02*
X0422700Y0083324D01*
X0422700Y0081726D02*
X0419905Y0081726D01*
X0412095Y0081726D02*
X0398458Y0081726D01*
X0398800Y0083324D02*
X0411600Y0083324D01*
X0411600Y0084923D02*
X0398800Y0084923D01*
X0398662Y0086521D02*
X0411741Y0086521D01*
X0394000Y0086521D02*
X0394000Y0086521D01*
X0394000Y0084923D02*
X0394000Y0084923D01*
X0394000Y0083324D02*
X0394000Y0083324D01*
X0394000Y0081726D02*
X0394000Y0081726D01*
X0291000Y0037800D02*
X0280000Y0026800D01*
X0274000Y0026800D01*
X0271268Y0030573D02*
X0271200Y0030573D01*
X0269740Y0032172D02*
X0282260Y0032172D01*
X0280662Y0030573D02*
X0276732Y0030573D01*
X0283687Y0027376D02*
X0297491Y0027376D01*
X0297491Y0028975D02*
X0285286Y0028975D01*
X0286884Y0030573D02*
X0297491Y0030573D01*
X0298709Y0025778D02*
X0282089Y0025778D01*
X0277885Y0024179D02*
X0289327Y0024179D01*
X0287665Y0022581D02*
X0275834Y0022581D01*
X0275924Y0020982D02*
X0287238Y0020982D01*
X0283859Y0033770D02*
X0268141Y0033770D01*
X0266543Y0035369D02*
X0285457Y0035369D01*
X0288044Y0040164D02*
X0280476Y0040164D01*
X0249094Y0017785D02*
X0204096Y0017785D01*
X0202498Y0016187D02*
X0249035Y0016187D01*
X0249515Y0014588D02*
X0200899Y0014588D01*
X0199301Y0012990D02*
X0250739Y0012990D01*
X0177631Y0011391D02*
X0172369Y0011391D01*
X0170200Y0011391D02*
X0169800Y0011391D01*
X0169800Y0012990D02*
X0170200Y0012990D01*
X0170200Y0014588D02*
X0169800Y0014588D01*
X0169800Y0016187D02*
X0170200Y0016187D01*
X0173968Y0012990D02*
X0176032Y0012990D01*
X0167631Y0011391D02*
X0132369Y0011391D01*
X0133968Y0012990D02*
X0136598Y0012990D01*
X0140000Y0016800D02*
X0141000Y0016800D01*
X0145000Y0020800D01*
X0150000Y0016800D02*
X0151000Y0016800D01*
X0155000Y0020800D01*
X0160000Y0016800D02*
X0161000Y0016800D01*
X0165000Y0020800D01*
X0166032Y0012990D02*
X0163402Y0012990D01*
X0156598Y0012990D02*
X0153402Y0012990D01*
X0146598Y0012990D02*
X0143402Y0012990D01*
X0165000Y0032800D02*
X0167000Y0032800D01*
D37*
X0163000Y0038800D03*
X0172000Y0044800D03*
X0170000Y0049800D03*
X0165000Y0046800D03*
X0183000Y0063800D03*
X0191000Y0064800D03*
X0199000Y0064800D03*
X0204000Y0067800D03*
X0209000Y0061800D03*
X0202000Y0059800D03*
X0195000Y0071800D03*
X0178000Y0071800D03*
X0179000Y0077800D03*
X0155000Y0071800D03*
X0133000Y0077800D03*
X0123000Y0077800D03*
X0124000Y0091800D03*
X0134000Y0092800D03*
X0173000Y0095800D03*
X0191000Y0095800D03*
X0190000Y0104800D03*
X0183000Y0112800D03*
X0190000Y0117800D03*
X0199000Y0116800D03*
X0213000Y0115800D03*
X0217000Y0111800D03*
X0239000Y0106800D03*
X0244000Y0099800D03*
X0251000Y0098800D03*
X0261000Y0088800D03*
X0255000Y0084800D03*
X0244000Y0076800D03*
X0262000Y0070800D03*
X0251000Y0065800D03*
X0283000Y0070800D03*
X0291000Y0071800D03*
X0288000Y0084800D03*
X0281000Y0088800D03*
X0332000Y0106800D03*
X0358000Y0115800D03*
X0366000Y0138800D03*
X0372000Y0148800D03*
X0336000Y0138800D03*
X0306000Y0137800D03*
X0281000Y0137800D03*
X0245000Y0142800D03*
X0215000Y0142800D03*
X0209000Y0137800D03*
X0191000Y0146800D03*
X0182000Y0156800D03*
X0143000Y0146800D03*
X0131000Y0139800D03*
X0094000Y0139800D03*
X0085000Y0136800D03*
X0085000Y0149800D03*
X0079000Y0167800D03*
X0173000Y0123800D03*
X0195000Y0124800D03*
X0204000Y0123800D03*
X0209000Y0127800D03*
X0268000Y0111800D03*
X0295000Y0156800D03*
X0306000Y0156800D03*
X0134000Y0118800D03*
X0079000Y0115800D03*
X0030000Y0062800D03*
X0070000Y0059800D03*
X0089000Y0055800D03*
X0108000Y0046800D03*
X0121000Y0038800D03*
X0089000Y0011800D03*
X0030000Y0042800D03*
X0268000Y0049800D03*
X0273000Y0044800D03*
X0291000Y0037800D03*
X0291000Y0020800D03*
X0311000Y0020800D03*
X0372000Y0020800D03*
D38*
X0202000Y0058800D02*
X0202000Y0059800D01*
X0202000Y0058800D02*
X0170000Y0026800D01*
X0170000Y0016800D02*
X0169000Y0015800D01*
X0170000Y0016800D02*
X0180000Y0016800D01*
X0083500Y0062300D02*
X0075000Y0053800D01*
X0056622Y0053800D01*
X0047126Y0063296D01*
X0070000Y0059800D02*
X0089000Y0078800D01*
X0089000Y0105461D01*
X0079000Y0105461D02*
X0079000Y0115800D01*
X0134000Y0132808D02*
X0134016Y0132824D01*
X0079000Y0167800D02*
X0401000Y0167800D01*
X0406000Y0162800D01*
X0406000Y0156800D01*
X0164004Y0095800D02*
X0164000Y0095796D01*
X0116000Y0073257D02*
X0115543Y0072800D01*
X0104000Y0072800D01*
X0099000Y0077800D01*
X0099000Y0086859D01*
X0099000Y0077800D02*
X0083500Y0062300D01*
X0072661Y0081800D02*
X0058937Y0081800D01*
X0072661Y0081800D02*
X0079000Y0088139D01*
D39*
X0079000Y0105461D02*
X0089000Y0105461D01*
X0099000Y0105461D01*
X0099000Y0106741D01*
D40*
X0145000Y0041800D02*
X0145000Y0020800D01*
X0155000Y0020800D02*
X0155000Y0037800D01*
X0165000Y0032800D02*
X0165000Y0020800D01*
M02*
