G75*
%MOIN*%
%OFA0B0*%
%FSLAX25Y25*%
%IPPOS*%
%LPD*%
%AMOC8*
5,1,8,0,0,1.08239X$1,22.5*
%
%ADD10R,0.07400X0.07400*%
%ADD11C,0.07400*%
%ADD12C,0.17000*%
%ADD13C,0.07000*%
%ADD14C,0.06400*%
%ADD15OC8,0.07400*%
%ADD16R,0.06000X0.06000*%
%ADD17C,0.06000*%
%ADD18C,0.04724*%
%ADD19C,0.02400*%
%ADD20C,0.01600*%
%ADD21C,0.03200*%
D10*
X0030000Y0156800D03*
X0386000Y0156800D03*
D11*
X0396000Y0156800D03*
X0406000Y0156800D03*
X0416000Y0156800D03*
X0080000Y0031800D03*
X0070000Y0031800D03*
X0060000Y0031800D03*
X0050000Y0031800D03*
X0040000Y0031800D03*
X0030000Y0031800D03*
X0040000Y0156800D03*
X0050000Y0156800D03*
X0060000Y0156800D03*
D12*
X0058937Y0081800D03*
X0035315Y0081800D03*
X0047126Y0063296D03*
D13*
X0327205Y0026800D03*
X0352795Y0026800D03*
D14*
X0274000Y0026800D03*
X0264000Y0026800D03*
X0254000Y0026800D03*
X0254000Y0016800D03*
X0264000Y0016800D03*
X0274000Y0016800D03*
D15*
X0180000Y0016800D03*
X0170000Y0016800D03*
X0160000Y0016800D03*
X0150000Y0016800D03*
X0140000Y0016800D03*
X0130000Y0016800D03*
X0130000Y0026800D03*
X0140000Y0026800D03*
X0150000Y0026800D03*
X0160000Y0026800D03*
X0170000Y0026800D03*
X0180000Y0026800D03*
D16*
X0094016Y0132824D03*
D17*
X0104016Y0132824D03*
X0114016Y0132824D03*
X0124016Y0132824D03*
X0134016Y0132824D03*
X0144016Y0132824D03*
X0154016Y0132824D03*
X0164016Y0132824D03*
X0174016Y0132824D03*
X0184016Y0132824D03*
X0194016Y0132824D03*
X0204016Y0132824D03*
X0214016Y0132824D03*
X0224016Y0132824D03*
X0234016Y0132824D03*
X0244016Y0132824D03*
D18*
X0245000Y0142800D03*
X0215000Y0142800D03*
X0209000Y0137800D03*
X0191000Y0146800D03*
X0182000Y0156800D03*
X0143000Y0146800D03*
X0131000Y0139800D03*
X0094000Y0139800D03*
X0085000Y0136800D03*
X0085000Y0149800D03*
X0079000Y0167800D03*
X0173000Y0123800D03*
X0190000Y0117800D03*
X0183000Y0112800D03*
X0199000Y0116800D03*
X0213000Y0115800D03*
X0217000Y0111800D03*
X0239000Y0106800D03*
X0244000Y0099800D03*
X0251000Y0098800D03*
X0261000Y0088800D03*
X0255000Y0084800D03*
X0244000Y0076800D03*
X0262000Y0070800D03*
X0251000Y0065800D03*
X0283000Y0070800D03*
X0291000Y0071800D03*
X0288000Y0084800D03*
X0281000Y0088800D03*
X0332000Y0106800D03*
X0358000Y0115800D03*
X0366000Y0138800D03*
X0372000Y0148800D03*
X0336000Y0138800D03*
X0306000Y0137800D03*
X0281000Y0137800D03*
X0295000Y0156800D03*
X0306000Y0156800D03*
X0209000Y0127800D03*
X0204000Y0123800D03*
X0195000Y0124800D03*
X0190000Y0104800D03*
X0191000Y0095800D03*
X0173000Y0095800D03*
X0134000Y0092800D03*
X0124000Y0091800D03*
X0123000Y0077800D03*
X0133000Y0077800D03*
X0155000Y0071800D03*
X0178000Y0071800D03*
X0179000Y0077800D03*
X0195000Y0071800D03*
X0204000Y0067800D03*
X0199000Y0064800D03*
X0191000Y0064800D03*
X0183000Y0063800D03*
X0202000Y0059800D03*
X0209000Y0061800D03*
X0172000Y0044800D03*
X0170000Y0049800D03*
X0165000Y0046800D03*
X0163000Y0038800D03*
X0121000Y0038800D03*
X0108000Y0046800D03*
X0089000Y0055800D03*
X0070000Y0059800D03*
X0030000Y0062800D03*
X0030000Y0042800D03*
X0089000Y0011800D03*
X0268000Y0049800D03*
X0273000Y0044800D03*
X0291000Y0037800D03*
X0291000Y0020800D03*
X0311000Y0020800D03*
X0372000Y0020800D03*
X0268000Y0111800D03*
X0134000Y0118800D03*
X0079000Y0115800D03*
D19*
X0085000Y0136800D02*
X0085000Y0149800D01*
X0094000Y0139800D02*
X0131000Y0139800D01*
X0143000Y0146800D02*
X0191000Y0146800D01*
X0173000Y0123800D02*
X0173000Y0095800D01*
X0124000Y0091800D02*
X0123000Y0090800D01*
X0123000Y0077800D01*
X0089000Y0055800D02*
X0089000Y0011800D01*
X0030000Y0042800D02*
X0030000Y0062800D01*
X0291000Y0020800D02*
X0311000Y0020800D01*
X0372000Y0020800D02*
X0372000Y0148800D01*
X0366000Y0138800D02*
X0336000Y0138800D01*
D20*
X0022339Y0174500D02*
X0022301Y0004100D01*
X0422700Y0004100D01*
X0422700Y0174500D01*
X0022339Y0174500D01*
X0022339Y0174439D02*
X0422700Y0174439D01*
X0422700Y0172841D02*
X0022338Y0172841D01*
X0022338Y0171242D02*
X0077479Y0171242D01*
X0076869Y0170989D02*
X0078252Y0171562D01*
X0079748Y0171562D01*
X0081131Y0170989D01*
X0082189Y0169931D01*
X0082762Y0168548D01*
X0082762Y0167052D01*
X0082189Y0165669D01*
X0082000Y0165479D01*
X0082000Y0118121D01*
X0082189Y0117931D01*
X0082762Y0116548D01*
X0082762Y0115052D01*
X0082189Y0113669D01*
X0081131Y0112611D01*
X0079748Y0112038D01*
X0078252Y0112038D01*
X0076869Y0112611D01*
X0075811Y0113669D01*
X0075238Y0115052D01*
X0075238Y0116548D01*
X0075811Y0117931D01*
X0076000Y0118121D01*
X0076000Y0165479D01*
X0075811Y0165669D01*
X0075238Y0167052D01*
X0075238Y0168548D01*
X0075811Y0169931D01*
X0076869Y0170989D01*
X0075692Y0169644D02*
X0022338Y0169644D01*
X0022337Y0168045D02*
X0075238Y0168045D01*
X0075488Y0166447D02*
X0022337Y0166447D01*
X0022337Y0164848D02*
X0076000Y0164848D01*
X0076000Y0163250D02*
X0022336Y0163250D01*
X0022336Y0161651D02*
X0025471Y0161651D01*
X0025720Y0161900D02*
X0024900Y0161080D01*
X0024900Y0152520D01*
X0025720Y0151700D01*
X0034280Y0151700D01*
X0035100Y0152520D01*
X0035100Y0155303D01*
X0035676Y0153911D01*
X0037111Y0152476D01*
X0038986Y0151700D01*
X0041014Y0151700D01*
X0042889Y0152476D01*
X0044324Y0153911D01*
X0045000Y0155544D01*
X0045676Y0153911D01*
X0047111Y0152476D01*
X0048986Y0151700D01*
X0051014Y0151700D01*
X0052889Y0152476D01*
X0054324Y0153911D01*
X0054790Y0155037D01*
X0054903Y0154689D01*
X0055296Y0153917D01*
X0055805Y0153217D01*
X0056417Y0152605D01*
X0057117Y0152096D01*
X0057889Y0151703D01*
X0058712Y0151435D01*
X0059567Y0151300D01*
X0059800Y0151300D01*
X0059800Y0156600D01*
X0060200Y0156600D01*
X0060200Y0157000D01*
X0059800Y0157000D01*
X0059800Y0162300D01*
X0059567Y0162300D01*
X0058712Y0162165D01*
X0057889Y0161897D01*
X0057117Y0161504D01*
X0056417Y0160995D01*
X0055805Y0160383D01*
X0055296Y0159683D01*
X0054903Y0158911D01*
X0054790Y0158563D01*
X0054324Y0159689D01*
X0052889Y0161124D01*
X0051014Y0161900D01*
X0048986Y0161900D01*
X0047111Y0161124D01*
X0045676Y0159689D01*
X0045000Y0158056D01*
X0044324Y0159689D01*
X0042889Y0161124D01*
X0041014Y0161900D01*
X0038986Y0161900D01*
X0037111Y0161124D01*
X0035676Y0159689D01*
X0035100Y0158297D01*
X0035100Y0161080D01*
X0034280Y0161900D01*
X0025720Y0161900D01*
X0024900Y0160053D02*
X0022336Y0160053D01*
X0022335Y0158454D02*
X0024900Y0158454D01*
X0024900Y0156856D02*
X0022335Y0156856D01*
X0022334Y0155257D02*
X0024900Y0155257D01*
X0024900Y0153659D02*
X0022334Y0153659D01*
X0022334Y0152060D02*
X0025360Y0152060D01*
X0022333Y0150462D02*
X0076000Y0150462D01*
X0076000Y0152060D02*
X0062812Y0152060D01*
X0062883Y0152096D02*
X0063583Y0152605D01*
X0064195Y0153217D01*
X0064704Y0153917D01*
X0065097Y0154689D01*
X0065365Y0155512D01*
X0065500Y0156367D01*
X0065500Y0156600D01*
X0060200Y0156600D01*
X0060200Y0151300D01*
X0060433Y0151300D01*
X0061288Y0151435D01*
X0062111Y0151703D01*
X0062883Y0152096D01*
X0064516Y0153659D02*
X0076000Y0153659D01*
X0076000Y0155257D02*
X0065282Y0155257D01*
X0065500Y0157000D02*
X0060200Y0157000D01*
X0060200Y0162300D01*
X0060433Y0162300D01*
X0061288Y0162165D01*
X0062111Y0161897D01*
X0062883Y0161504D01*
X0063583Y0160995D01*
X0064195Y0160383D01*
X0064704Y0159683D01*
X0065097Y0158911D01*
X0065365Y0158088D01*
X0065500Y0157233D01*
X0065500Y0157000D01*
X0065246Y0158454D02*
X0076000Y0158454D01*
X0076000Y0156856D02*
X0060200Y0156856D01*
X0060200Y0158454D02*
X0059800Y0158454D01*
X0059800Y0160053D02*
X0060200Y0160053D01*
X0060200Y0161651D02*
X0059800Y0161651D01*
X0057406Y0161651D02*
X0051615Y0161651D01*
X0053960Y0160053D02*
X0055565Y0160053D01*
X0048385Y0161651D02*
X0041615Y0161651D01*
X0043960Y0160053D02*
X0046040Y0160053D01*
X0045165Y0158454D02*
X0044835Y0158454D01*
X0044881Y0155257D02*
X0045119Y0155257D01*
X0045929Y0153659D02*
X0044071Y0153659D01*
X0041884Y0152060D02*
X0048116Y0152060D01*
X0051884Y0152060D02*
X0057188Y0152060D01*
X0055484Y0153659D02*
X0054071Y0153659D01*
X0059800Y0153659D02*
X0060200Y0153659D01*
X0060200Y0155257D02*
X0059800Y0155257D01*
X0059800Y0152060D02*
X0060200Y0152060D01*
X0076000Y0148863D02*
X0022333Y0148863D01*
X0022333Y0147265D02*
X0076000Y0147265D01*
X0076000Y0145666D02*
X0022332Y0145666D01*
X0022332Y0144068D02*
X0076000Y0144068D01*
X0076000Y0142469D02*
X0022332Y0142469D01*
X0022331Y0140870D02*
X0076000Y0140870D01*
X0076000Y0139272D02*
X0022331Y0139272D01*
X0022331Y0137673D02*
X0076000Y0137673D01*
X0076000Y0136075D02*
X0022330Y0136075D01*
X0022330Y0134476D02*
X0076000Y0134476D01*
X0076000Y0132878D02*
X0022329Y0132878D01*
X0022329Y0131279D02*
X0076000Y0131279D01*
X0076000Y0129681D02*
X0022329Y0129681D01*
X0022328Y0128082D02*
X0076000Y0128082D01*
X0076000Y0126484D02*
X0022328Y0126484D01*
X0022328Y0124885D02*
X0076000Y0124885D01*
X0076000Y0123287D02*
X0022327Y0123287D01*
X0022327Y0121688D02*
X0076000Y0121688D01*
X0076000Y0120090D02*
X0022327Y0120090D01*
X0022326Y0118491D02*
X0076000Y0118491D01*
X0075380Y0116893D02*
X0022326Y0116893D01*
X0022326Y0115294D02*
X0075238Y0115294D01*
X0075799Y0113696D02*
X0022325Y0113696D01*
X0022325Y0112097D02*
X0078108Y0112097D01*
X0079892Y0112097D02*
X0131800Y0112097D01*
X0131800Y0110499D02*
X0022324Y0110499D01*
X0022324Y0108900D02*
X0131800Y0108900D01*
X0131800Y0107302D02*
X0022324Y0107302D01*
X0022323Y0105703D02*
X0131800Y0105703D01*
X0131800Y0104105D02*
X0022323Y0104105D01*
X0022323Y0102506D02*
X0131800Y0102506D01*
X0131800Y0100908D02*
X0022322Y0100908D01*
X0022322Y0099309D02*
X0131800Y0099309D01*
X0131800Y0097711D02*
X0022322Y0097711D01*
X0022321Y0096112D02*
X0131800Y0096112D01*
X0131800Y0095921D02*
X0130811Y0094931D01*
X0130238Y0093548D01*
X0130238Y0092052D01*
X0130811Y0090669D01*
X0131869Y0089611D01*
X0133252Y0089038D01*
X0134748Y0089038D01*
X0136131Y0089611D01*
X0137189Y0090669D01*
X0137762Y0092052D01*
X0137762Y0093548D01*
X0137189Y0094931D01*
X0136200Y0095921D01*
X0136200Y0115679D01*
X0137189Y0116669D01*
X0137762Y0118052D01*
X0137762Y0119548D01*
X0137189Y0120931D01*
X0136131Y0121989D01*
X0134748Y0122562D01*
X0133252Y0122562D01*
X0131869Y0121989D01*
X0130811Y0120931D01*
X0130238Y0119548D01*
X0130238Y0118052D01*
X0130811Y0116669D01*
X0131800Y0115679D01*
X0131800Y0095921D01*
X0130638Y0094514D02*
X0022321Y0094514D01*
X0022320Y0092915D02*
X0130238Y0092915D01*
X0130542Y0091317D02*
X0061832Y0091317D01*
X0060906Y0091700D02*
X0056968Y0091700D01*
X0053329Y0090193D01*
X0050544Y0087408D01*
X0049037Y0083769D01*
X0049037Y0079831D01*
X0050544Y0076192D01*
X0053329Y0073407D01*
X0056968Y0071900D01*
X0060906Y0071900D01*
X0064545Y0073407D01*
X0067330Y0076192D01*
X0068837Y0079831D01*
X0068837Y0083769D01*
X0067330Y0087408D01*
X0064545Y0090193D01*
X0060906Y0091700D01*
X0065020Y0089718D02*
X0131761Y0089718D01*
X0134000Y0092800D02*
X0134000Y0118800D01*
X0130462Y0120090D02*
X0082000Y0120090D01*
X0082000Y0121688D02*
X0131568Y0121688D01*
X0136432Y0121688D02*
X0192791Y0121688D01*
X0192800Y0121679D02*
X0192800Y0120321D01*
X0192131Y0120989D01*
X0190748Y0121562D01*
X0189252Y0121562D01*
X0187869Y0120989D01*
X0186811Y0119931D01*
X0186238Y0118548D01*
X0186238Y0117052D01*
X0186811Y0115669D01*
X0187800Y0114679D01*
X0187800Y0107921D01*
X0186811Y0106931D01*
X0186238Y0105548D01*
X0186238Y0104052D01*
X0186811Y0102669D01*
X0187869Y0101611D01*
X0189252Y0101038D01*
X0190748Y0101038D01*
X0192131Y0101611D01*
X0192800Y0102279D01*
X0192800Y0099127D01*
X0191748Y0099562D01*
X0190252Y0099562D01*
X0188869Y0098989D01*
X0187811Y0097931D01*
X0187238Y0096548D01*
X0187238Y0095052D01*
X0187811Y0093669D01*
X0188800Y0092679D01*
X0188800Y0067921D01*
X0187811Y0066931D01*
X0187238Y0065548D01*
X0187238Y0064052D01*
X0187811Y0062669D01*
X0188479Y0062000D01*
X0186327Y0062000D01*
X0186762Y0063052D01*
X0186762Y0064548D01*
X0186189Y0065931D01*
X0185200Y0066921D01*
X0185200Y0109679D01*
X0186189Y0110669D01*
X0186762Y0112052D01*
X0186762Y0113548D01*
X0186189Y0114931D01*
X0185131Y0115989D01*
X0183748Y0116562D01*
X0182252Y0116562D01*
X0180869Y0115989D01*
X0179811Y0114931D01*
X0179238Y0113548D01*
X0179238Y0112052D01*
X0179811Y0110669D01*
X0180800Y0109679D01*
X0180800Y0081127D01*
X0179748Y0081562D01*
X0178252Y0081562D01*
X0176869Y0080989D01*
X0175879Y0080000D01*
X0136121Y0080000D01*
X0135131Y0080989D01*
X0133748Y0081562D01*
X0132252Y0081562D01*
X0130869Y0080989D01*
X0129811Y0079931D01*
X0129238Y0078548D01*
X0129238Y0077052D01*
X0129811Y0075669D01*
X0130869Y0074611D01*
X0132252Y0074038D01*
X0133748Y0074038D01*
X0135131Y0074611D01*
X0136121Y0075600D01*
X0175879Y0075600D01*
X0176308Y0075171D01*
X0175869Y0074989D01*
X0174879Y0074000D01*
X0158121Y0074000D01*
X0157131Y0074989D01*
X0155748Y0075562D01*
X0154252Y0075562D01*
X0152869Y0074989D01*
X0151811Y0073931D01*
X0151238Y0072548D01*
X0151238Y0071052D01*
X0151811Y0069669D01*
X0152869Y0068611D01*
X0154252Y0068038D01*
X0155748Y0068038D01*
X0157131Y0068611D01*
X0158121Y0069600D01*
X0174879Y0069600D01*
X0175869Y0068611D01*
X0177252Y0068038D01*
X0178748Y0068038D01*
X0180131Y0068611D01*
X0180800Y0069279D01*
X0180800Y0066921D01*
X0179811Y0065931D01*
X0179238Y0064548D01*
X0179238Y0063052D01*
X0179673Y0062000D01*
X0073121Y0062000D01*
X0072131Y0062989D01*
X0070748Y0063562D01*
X0069252Y0063562D01*
X0067869Y0062989D01*
X0066811Y0061931D01*
X0066238Y0060548D01*
X0066238Y0059052D01*
X0066811Y0057669D01*
X0067869Y0056611D01*
X0069252Y0056038D01*
X0070748Y0056038D01*
X0072131Y0056611D01*
X0073121Y0057600D01*
X0198879Y0057600D01*
X0199869Y0056611D01*
X0201252Y0056038D01*
X0202748Y0056038D01*
X0204131Y0056611D01*
X0205189Y0057669D01*
X0205762Y0059052D01*
X0205762Y0059786D01*
X0205811Y0059669D01*
X0206869Y0058611D01*
X0208252Y0058038D01*
X0209748Y0058038D01*
X0211131Y0058611D01*
X0212189Y0059669D01*
X0212762Y0061052D01*
X0212762Y0062548D01*
X0212189Y0063931D01*
X0211200Y0064921D01*
X0211200Y0112473D01*
X0212252Y0112038D01*
X0213238Y0112038D01*
X0213238Y0111052D01*
X0213811Y0109669D01*
X0214869Y0108611D01*
X0216252Y0108038D01*
X0217748Y0108038D01*
X0219131Y0108611D01*
X0220121Y0109600D01*
X0236479Y0109600D01*
X0235811Y0108931D01*
X0235238Y0107548D01*
X0235238Y0106052D01*
X0235811Y0104669D01*
X0236869Y0103611D01*
X0238252Y0103038D01*
X0239748Y0103038D01*
X0241131Y0103611D01*
X0242121Y0104600D01*
X0328879Y0104600D01*
X0329869Y0103611D01*
X0331252Y0103038D01*
X0332748Y0103038D01*
X0334131Y0103611D01*
X0335189Y0104669D01*
X0335762Y0106052D01*
X0335762Y0107548D01*
X0335189Y0108931D01*
X0334131Y0109989D01*
X0332748Y0110562D01*
X0331252Y0110562D01*
X0329869Y0109989D01*
X0328879Y0109000D01*
X0270521Y0109000D01*
X0271189Y0109669D01*
X0271762Y0111052D01*
X0271762Y0112548D01*
X0271327Y0113600D01*
X0354879Y0113600D01*
X0355869Y0112611D01*
X0357252Y0112038D01*
X0358748Y0112038D01*
X0360131Y0112611D01*
X0361189Y0113669D01*
X0361762Y0115052D01*
X0361762Y0116548D01*
X0361189Y0117931D01*
X0360131Y0118989D01*
X0358748Y0119562D01*
X0357252Y0119562D01*
X0355869Y0118989D01*
X0354879Y0118000D01*
X0216121Y0118000D01*
X0215131Y0118989D01*
X0213748Y0119562D01*
X0212252Y0119562D01*
X0211200Y0119127D01*
X0211200Y0124679D01*
X0212189Y0125669D01*
X0212762Y0127052D01*
X0212762Y0128548D01*
X0212746Y0128587D01*
X0213141Y0128424D01*
X0214891Y0128424D01*
X0216508Y0129093D01*
X0217746Y0130331D01*
X0218416Y0131948D01*
X0218416Y0133699D01*
X0217746Y0135316D01*
X0217462Y0135600D01*
X0220570Y0135600D01*
X0220286Y0135316D01*
X0219616Y0133699D01*
X0219616Y0131948D01*
X0220286Y0130331D01*
X0221523Y0129093D01*
X0223141Y0128424D01*
X0224891Y0128424D01*
X0226508Y0129093D01*
X0227746Y0130331D01*
X0228416Y0131948D01*
X0228416Y0133699D01*
X0227746Y0135316D01*
X0227462Y0135600D01*
X0230570Y0135600D01*
X0230286Y0135316D01*
X0229616Y0133699D01*
X0229616Y0131948D01*
X0230286Y0130331D01*
X0231523Y0129093D01*
X0233141Y0128424D01*
X0234891Y0128424D01*
X0236508Y0129093D01*
X0237746Y0130331D01*
X0238416Y0131948D01*
X0238416Y0133699D01*
X0237746Y0135316D01*
X0237462Y0135600D01*
X0240570Y0135600D01*
X0240286Y0135316D01*
X0239616Y0133699D01*
X0239616Y0131948D01*
X0240286Y0130331D01*
X0241523Y0129093D01*
X0243141Y0128424D01*
X0244891Y0128424D01*
X0246508Y0129093D01*
X0247746Y0130331D01*
X0248416Y0131948D01*
X0248416Y0133699D01*
X0247746Y0135316D01*
X0247462Y0135600D01*
X0277879Y0135600D01*
X0278869Y0134611D01*
X0280252Y0134038D01*
X0281748Y0134038D01*
X0283131Y0134611D01*
X0284189Y0135669D01*
X0284762Y0137052D01*
X0284762Y0138548D01*
X0284189Y0139931D01*
X0283131Y0140989D01*
X0281748Y0141562D01*
X0280252Y0141562D01*
X0278869Y0140989D01*
X0277879Y0140000D01*
X0247521Y0140000D01*
X0248189Y0140669D01*
X0248762Y0142052D01*
X0248762Y0143548D01*
X0248189Y0144931D01*
X0247131Y0145989D01*
X0245748Y0146562D01*
X0244252Y0146562D01*
X0242869Y0145989D01*
X0241879Y0145000D01*
X0218121Y0145000D01*
X0217131Y0145989D01*
X0215748Y0146562D01*
X0214252Y0146562D01*
X0212869Y0145989D01*
X0211811Y0144931D01*
X0211238Y0143548D01*
X0211238Y0142052D01*
X0211811Y0140669D01*
X0212479Y0140000D01*
X0212121Y0140000D01*
X0211131Y0140989D01*
X0209748Y0141562D01*
X0208252Y0141562D01*
X0206869Y0140989D01*
X0205811Y0139931D01*
X0205238Y0138548D01*
X0205238Y0137080D01*
X0204891Y0137224D01*
X0203141Y0137224D01*
X0201523Y0136554D01*
X0200286Y0135316D01*
X0199616Y0133699D01*
X0199616Y0131948D01*
X0200286Y0130331D01*
X0201523Y0129093D01*
X0203141Y0128424D01*
X0204891Y0128424D01*
X0205247Y0128571D01*
X0205238Y0128548D01*
X0205238Y0127359D01*
X0204748Y0127562D01*
X0203252Y0127562D01*
X0201869Y0126989D01*
X0200811Y0125931D01*
X0200238Y0124548D01*
X0200238Y0123052D01*
X0200811Y0121669D01*
X0201800Y0120679D01*
X0201800Y0119321D01*
X0201131Y0119989D01*
X0199748Y0120562D01*
X0198252Y0120562D01*
X0197200Y0120127D01*
X0197200Y0121679D01*
X0198189Y0122669D01*
X0198762Y0124052D01*
X0198762Y0125548D01*
X0198189Y0126931D01*
X0197131Y0127989D01*
X0195748Y0128562D01*
X0195225Y0128562D01*
X0196508Y0129093D01*
X0197746Y0130331D01*
X0198416Y0131948D01*
X0198416Y0133699D01*
X0197746Y0135316D01*
X0196508Y0136554D01*
X0194891Y0137224D01*
X0193141Y0137224D01*
X0191523Y0136554D01*
X0190286Y0135316D01*
X0189616Y0133699D01*
X0189616Y0131948D01*
X0190286Y0130331D01*
X0191523Y0129093D01*
X0193141Y0128424D01*
X0193917Y0128424D01*
X0192869Y0127989D01*
X0191811Y0126931D01*
X0191238Y0125548D01*
X0191238Y0124052D01*
X0191811Y0122669D01*
X0192800Y0121679D01*
X0191555Y0123287D02*
X0082000Y0123287D01*
X0082000Y0124885D02*
X0191238Y0124885D01*
X0191625Y0126484D02*
X0082000Y0126484D01*
X0082000Y0128082D02*
X0090559Y0128082D01*
X0090779Y0128024D02*
X0093816Y0128024D01*
X0093816Y0132624D01*
X0089216Y0132624D01*
X0089216Y0129587D01*
X0089338Y0129129D01*
X0089575Y0128718D01*
X0089911Y0128383D01*
X0090321Y0128146D01*
X0090779Y0128024D01*
X0089216Y0129681D02*
X0082000Y0129681D01*
X0082000Y0131279D02*
X0089216Y0131279D01*
X0089216Y0133024D02*
X0093816Y0133024D01*
X0093816Y0137624D01*
X0090779Y0137624D01*
X0090321Y0137501D01*
X0089911Y0137264D01*
X0089575Y0136929D01*
X0089338Y0136518D01*
X0089216Y0136061D01*
X0089216Y0133024D01*
X0089216Y0134476D02*
X0082000Y0134476D01*
X0082000Y0132878D02*
X0093816Y0132878D01*
X0093816Y0133024D02*
X0093816Y0132624D01*
X0094216Y0132624D01*
X0094216Y0133024D01*
X0093816Y0133024D01*
X0094216Y0133024D02*
X0094216Y0137624D01*
X0097253Y0137624D01*
X0097711Y0137501D01*
X0098121Y0137264D01*
X0098456Y0136929D01*
X0098693Y0136518D01*
X0098816Y0136061D01*
X0098816Y0133024D01*
X0094216Y0133024D01*
X0094216Y0132878D02*
X0099616Y0132878D01*
X0099616Y0133699D02*
X0099616Y0131948D01*
X0100286Y0130331D01*
X0101523Y0129093D01*
X0103141Y0128424D01*
X0104891Y0128424D01*
X0106508Y0129093D01*
X0107746Y0130331D01*
X0108416Y0131948D01*
X0108416Y0133699D01*
X0107746Y0135316D01*
X0106508Y0136554D01*
X0104891Y0137224D01*
X0103141Y0137224D01*
X0101523Y0136554D01*
X0100286Y0135316D01*
X0099616Y0133699D01*
X0099938Y0134476D02*
X0098816Y0134476D01*
X0098812Y0136075D02*
X0101045Y0136075D01*
X0106987Y0136075D02*
X0111045Y0136075D01*
X0111523Y0136554D02*
X0110286Y0135316D01*
X0109616Y0133699D01*
X0109616Y0131948D01*
X0110286Y0130331D01*
X0111523Y0129093D01*
X0113141Y0128424D01*
X0114891Y0128424D01*
X0116508Y0129093D01*
X0117746Y0130331D01*
X0118416Y0131948D01*
X0118416Y0133699D01*
X0117746Y0135316D01*
X0116508Y0136554D01*
X0114891Y0137224D01*
X0113141Y0137224D01*
X0111523Y0136554D01*
X0109938Y0134476D02*
X0108094Y0134476D01*
X0108416Y0132878D02*
X0109616Y0132878D01*
X0109893Y0131279D02*
X0108139Y0131279D01*
X0107096Y0129681D02*
X0110936Y0129681D01*
X0117096Y0129681D02*
X0120936Y0129681D01*
X0121523Y0129093D02*
X0123141Y0128424D01*
X0124891Y0128424D01*
X0126508Y0129093D01*
X0127746Y0130331D01*
X0128416Y0131948D01*
X0128416Y0133699D01*
X0127746Y0135316D01*
X0126508Y0136554D01*
X0124891Y0137224D01*
X0123141Y0137224D01*
X0121523Y0136554D01*
X0120286Y0135316D01*
X0119616Y0133699D01*
X0119616Y0131948D01*
X0120286Y0130331D01*
X0121523Y0129093D01*
X0119893Y0131279D02*
X0118139Y0131279D01*
X0118416Y0132878D02*
X0119616Y0132878D01*
X0119938Y0134476D02*
X0118094Y0134476D01*
X0116987Y0136075D02*
X0121045Y0136075D01*
X0126987Y0136075D02*
X0130479Y0136075D01*
X0130355Y0135951D02*
X0129910Y0135339D01*
X0129567Y0134666D01*
X0129334Y0133948D01*
X0129216Y0133201D01*
X0129216Y0133024D01*
X0133816Y0133024D01*
X0133816Y0137624D01*
X0133638Y0137624D01*
X0132892Y0137505D01*
X0132173Y0137272D01*
X0131500Y0136929D01*
X0130889Y0136485D01*
X0130355Y0135951D01*
X0129506Y0134476D02*
X0128094Y0134476D01*
X0128416Y0132878D02*
X0133816Y0132878D01*
X0133816Y0133024D02*
X0133816Y0132624D01*
X0129216Y0132624D01*
X0129216Y0132446D01*
X0129334Y0131700D01*
X0129567Y0130981D01*
X0129910Y0130308D01*
X0130355Y0129697D01*
X0130889Y0129162D01*
X0131500Y0128718D01*
X0132173Y0128375D01*
X0132892Y0128142D01*
X0133638Y0128024D01*
X0133816Y0128024D01*
X0133816Y0132624D01*
X0134216Y0132624D01*
X0134216Y0133024D01*
X0133816Y0133024D01*
X0134216Y0133024D02*
X0134216Y0137624D01*
X0134394Y0137624D01*
X0135140Y0137505D01*
X0135858Y0137272D01*
X0136531Y0136929D01*
X0137143Y0136485D01*
X0137677Y0135951D01*
X0138121Y0135339D01*
X0138464Y0134666D01*
X0138698Y0133948D01*
X0138816Y0133201D01*
X0138816Y0133024D01*
X0134216Y0133024D01*
X0134216Y0132878D02*
X0139616Y0132878D01*
X0139616Y0133699D02*
X0139616Y0131948D01*
X0140286Y0130331D01*
X0141523Y0129093D01*
X0143141Y0128424D01*
X0144891Y0128424D01*
X0146508Y0129093D01*
X0147746Y0130331D01*
X0148416Y0131948D01*
X0148416Y0133699D01*
X0147746Y0135316D01*
X0146508Y0136554D01*
X0144891Y0137224D01*
X0143141Y0137224D01*
X0141523Y0136554D01*
X0140286Y0135316D01*
X0139616Y0133699D01*
X0139938Y0134476D02*
X0138526Y0134476D01*
X0137553Y0136075D02*
X0141045Y0136075D01*
X0134216Y0136075D02*
X0133816Y0136075D01*
X0133816Y0134476D02*
X0134216Y0134476D01*
X0134216Y0132624D02*
X0138816Y0132624D01*
X0138816Y0132446D01*
X0138698Y0131700D01*
X0138464Y0130981D01*
X0138121Y0130308D01*
X0137677Y0129697D01*
X0137143Y0129162D01*
X0136531Y0128718D01*
X0135858Y0128375D01*
X0135140Y0128142D01*
X0134394Y0128024D01*
X0134216Y0128024D01*
X0134216Y0132624D01*
X0134216Y0131279D02*
X0133816Y0131279D01*
X0133816Y0129681D02*
X0134216Y0129681D01*
X0134216Y0128082D02*
X0133816Y0128082D01*
X0133267Y0128082D02*
X0097472Y0128082D01*
X0097253Y0128024D02*
X0097711Y0128146D01*
X0098121Y0128383D01*
X0098456Y0128718D01*
X0098693Y0129129D01*
X0098816Y0129587D01*
X0098816Y0132624D01*
X0094216Y0132624D01*
X0094216Y0128024D01*
X0097253Y0128024D01*
X0098816Y0129681D02*
X0100936Y0129681D01*
X0099893Y0131279D02*
X0098816Y0131279D01*
X0094216Y0131279D02*
X0093816Y0131279D01*
X0093816Y0129681D02*
X0094216Y0129681D01*
X0094216Y0128082D02*
X0093816Y0128082D01*
X0093816Y0134476D02*
X0094216Y0134476D01*
X0094216Y0136075D02*
X0093816Y0136075D01*
X0089220Y0136075D02*
X0082000Y0136075D01*
X0082000Y0137673D02*
X0205238Y0137673D01*
X0205538Y0139272D02*
X0082000Y0139272D01*
X0082000Y0140870D02*
X0206750Y0140870D01*
X0209000Y0137800D02*
X0281000Y0137800D01*
X0284462Y0139272D02*
X0302538Y0139272D01*
X0302811Y0139931D02*
X0302238Y0138548D01*
X0302238Y0137052D01*
X0302811Y0135669D01*
X0303869Y0134611D01*
X0305252Y0134038D01*
X0306748Y0134038D01*
X0308131Y0134611D01*
X0309189Y0135669D01*
X0309762Y0137052D01*
X0309762Y0138548D01*
X0309189Y0139931D01*
X0308200Y0140921D01*
X0308200Y0153679D01*
X0309189Y0154669D01*
X0309762Y0156052D01*
X0309762Y0157548D01*
X0309189Y0158931D01*
X0308131Y0159989D01*
X0306748Y0160562D01*
X0305252Y0160562D01*
X0303869Y0159989D01*
X0302811Y0158931D01*
X0302238Y0157548D01*
X0302238Y0156052D01*
X0302811Y0154669D01*
X0303800Y0153679D01*
X0303800Y0140921D01*
X0302811Y0139931D01*
X0303750Y0140870D02*
X0283250Y0140870D01*
X0284762Y0137673D02*
X0302238Y0137673D01*
X0302642Y0136075D02*
X0284358Y0136075D01*
X0282807Y0134476D02*
X0304193Y0134476D01*
X0307807Y0134476D02*
X0369400Y0134476D01*
X0369400Y0132878D02*
X0248416Y0132878D01*
X0248139Y0131279D02*
X0369400Y0131279D01*
X0369400Y0129681D02*
X0247096Y0129681D01*
X0240936Y0129681D02*
X0237096Y0129681D01*
X0238139Y0131279D02*
X0239893Y0131279D01*
X0239616Y0132878D02*
X0238416Y0132878D01*
X0238094Y0134476D02*
X0239938Y0134476D01*
X0248094Y0134476D02*
X0279193Y0134476D01*
X0278750Y0140870D02*
X0248273Y0140870D01*
X0248762Y0142469D02*
X0303800Y0142469D01*
X0303800Y0144068D02*
X0248547Y0144068D01*
X0247455Y0145666D02*
X0303800Y0145666D01*
X0303800Y0147265D02*
X0194762Y0147265D01*
X0194762Y0147548D02*
X0194189Y0148931D01*
X0193131Y0149989D01*
X0191748Y0150562D01*
X0190252Y0150562D01*
X0188869Y0149989D01*
X0188279Y0149400D01*
X0145721Y0149400D01*
X0145131Y0149989D01*
X0143748Y0150562D01*
X0142252Y0150562D01*
X0140869Y0149989D01*
X0139811Y0148931D01*
X0139238Y0147548D01*
X0139238Y0146052D01*
X0139811Y0144669D01*
X0140869Y0143611D01*
X0142252Y0143038D01*
X0143748Y0143038D01*
X0145131Y0143611D01*
X0145721Y0144200D01*
X0188279Y0144200D01*
X0188869Y0143611D01*
X0190252Y0143038D01*
X0191748Y0143038D01*
X0193131Y0143611D01*
X0194189Y0144669D01*
X0194762Y0146052D01*
X0194762Y0147548D01*
X0194218Y0148863D02*
X0303800Y0148863D01*
X0303800Y0150462D02*
X0191991Y0150462D01*
X0190009Y0150462D02*
X0143991Y0150462D01*
X0142009Y0150462D02*
X0082000Y0150462D01*
X0082000Y0152060D02*
X0303800Y0152060D01*
X0303800Y0153659D02*
X0297179Y0153659D01*
X0297131Y0153611D02*
X0298189Y0154669D01*
X0298762Y0156052D01*
X0298762Y0157548D01*
X0298189Y0158931D01*
X0297131Y0159989D01*
X0295748Y0160562D01*
X0294252Y0160562D01*
X0292869Y0159989D01*
X0291879Y0159000D01*
X0185121Y0159000D01*
X0184131Y0159989D01*
X0182748Y0160562D01*
X0181252Y0160562D01*
X0179869Y0159989D01*
X0178811Y0158931D01*
X0178238Y0157548D01*
X0178238Y0156052D01*
X0178811Y0154669D01*
X0179869Y0153611D01*
X0181252Y0153038D01*
X0182748Y0153038D01*
X0184131Y0153611D01*
X0185121Y0154600D01*
X0291879Y0154600D01*
X0292869Y0153611D01*
X0294252Y0153038D01*
X0295748Y0153038D01*
X0297131Y0153611D01*
X0298433Y0155257D02*
X0302567Y0155257D01*
X0302238Y0156856D02*
X0298762Y0156856D01*
X0298387Y0158454D02*
X0302613Y0158454D01*
X0304021Y0160053D02*
X0296979Y0160053D01*
X0293021Y0160053D02*
X0183979Y0160053D01*
X0180021Y0160053D02*
X0082000Y0160053D01*
X0082000Y0161651D02*
X0381471Y0161651D01*
X0381720Y0161900D02*
X0380900Y0161080D01*
X0380900Y0152520D01*
X0381720Y0151700D01*
X0390280Y0151700D01*
X0391100Y0152520D01*
X0391100Y0155303D01*
X0391676Y0153911D01*
X0393111Y0152476D01*
X0394986Y0151700D01*
X0397014Y0151700D01*
X0398889Y0152476D01*
X0400324Y0153911D01*
X0401000Y0155544D01*
X0401676Y0153911D01*
X0403111Y0152476D01*
X0404986Y0151700D01*
X0407014Y0151700D01*
X0408889Y0152476D01*
X0410324Y0153911D01*
X0410790Y0155037D01*
X0410903Y0154689D01*
X0411296Y0153917D01*
X0411805Y0153217D01*
X0412417Y0152605D01*
X0413117Y0152096D01*
X0413889Y0151703D01*
X0414712Y0151435D01*
X0415567Y0151300D01*
X0415800Y0151300D01*
X0415800Y0156600D01*
X0416200Y0156600D01*
X0416200Y0157000D01*
X0415800Y0157000D01*
X0415800Y0162300D01*
X0415567Y0162300D01*
X0414712Y0162165D01*
X0413889Y0161897D01*
X0413117Y0161504D01*
X0412417Y0160995D01*
X0411805Y0160383D01*
X0411296Y0159683D01*
X0410903Y0158911D01*
X0410790Y0158563D01*
X0410324Y0159689D01*
X0408889Y0161124D01*
X0407014Y0161900D01*
X0404986Y0161900D01*
X0403111Y0161124D01*
X0401676Y0159689D01*
X0401000Y0158056D01*
X0400324Y0159689D01*
X0398889Y0161124D01*
X0397014Y0161900D01*
X0394986Y0161900D01*
X0393111Y0161124D01*
X0391676Y0159689D01*
X0391100Y0158297D01*
X0391100Y0161080D01*
X0390280Y0161900D01*
X0381720Y0161900D01*
X0380900Y0160053D02*
X0307979Y0160053D01*
X0309387Y0158454D02*
X0380900Y0158454D01*
X0380900Y0156856D02*
X0309762Y0156856D01*
X0309433Y0155257D02*
X0380900Y0155257D01*
X0380900Y0153659D02*
X0308200Y0153659D01*
X0308200Y0152060D02*
X0370039Y0152060D01*
X0369869Y0151989D02*
X0368811Y0150931D01*
X0368238Y0149548D01*
X0368238Y0148052D01*
X0368811Y0146669D01*
X0369400Y0146079D01*
X0369400Y0023521D01*
X0368811Y0022931D01*
X0368238Y0021548D01*
X0368238Y0020052D01*
X0368811Y0018669D01*
X0369869Y0017611D01*
X0371252Y0017038D01*
X0372748Y0017038D01*
X0374131Y0017611D01*
X0375189Y0018669D01*
X0375762Y0020052D01*
X0375762Y0021548D01*
X0375189Y0022931D01*
X0374600Y0023521D01*
X0374600Y0146079D01*
X0375189Y0146669D01*
X0375762Y0148052D01*
X0375762Y0149548D01*
X0375189Y0150931D01*
X0374131Y0151989D01*
X0372748Y0152562D01*
X0371252Y0152562D01*
X0369869Y0151989D01*
X0368616Y0150462D02*
X0308200Y0150462D01*
X0308200Y0148863D02*
X0368238Y0148863D01*
X0368564Y0147265D02*
X0308200Y0147265D01*
X0308200Y0145666D02*
X0369400Y0145666D01*
X0369400Y0144068D02*
X0308200Y0144068D01*
X0308200Y0142469D02*
X0369400Y0142469D01*
X0369400Y0140870D02*
X0308250Y0140870D01*
X0309462Y0139272D02*
X0369400Y0139272D01*
X0369400Y0137673D02*
X0309762Y0137673D01*
X0309358Y0136075D02*
X0369400Y0136075D01*
X0374600Y0136075D02*
X0422700Y0136075D01*
X0422700Y0137673D02*
X0374600Y0137673D01*
X0374600Y0139272D02*
X0422700Y0139272D01*
X0422700Y0140870D02*
X0374600Y0140870D01*
X0374600Y0142469D02*
X0422700Y0142469D01*
X0422700Y0144068D02*
X0374600Y0144068D01*
X0374600Y0145666D02*
X0422700Y0145666D01*
X0422700Y0147265D02*
X0375436Y0147265D01*
X0375762Y0148863D02*
X0422700Y0148863D01*
X0422700Y0150462D02*
X0375384Y0150462D01*
X0373961Y0152060D02*
X0381360Y0152060D01*
X0390640Y0152060D02*
X0394116Y0152060D01*
X0391929Y0153659D02*
X0391100Y0153659D01*
X0391100Y0155257D02*
X0391119Y0155257D01*
X0397884Y0152060D02*
X0404116Y0152060D01*
X0401929Y0153659D02*
X0400071Y0153659D01*
X0400881Y0155257D02*
X0401119Y0155257D01*
X0401165Y0158454D02*
X0400835Y0158454D01*
X0399960Y0160053D02*
X0402040Y0160053D01*
X0404385Y0161651D02*
X0397615Y0161651D01*
X0394385Y0161651D02*
X0390529Y0161651D01*
X0391100Y0160053D02*
X0392040Y0160053D01*
X0391165Y0158454D02*
X0391100Y0158454D01*
X0407615Y0161651D02*
X0413406Y0161651D01*
X0415800Y0161651D02*
X0416200Y0161651D01*
X0416200Y0162300D02*
X0416200Y0157000D01*
X0421500Y0157000D01*
X0421500Y0157233D01*
X0421365Y0158088D01*
X0421097Y0158911D01*
X0420704Y0159683D01*
X0420195Y0160383D01*
X0419583Y0160995D01*
X0418883Y0161504D01*
X0418111Y0161897D01*
X0417288Y0162165D01*
X0416433Y0162300D01*
X0416200Y0162300D01*
X0416200Y0160053D02*
X0415800Y0160053D01*
X0415800Y0158454D02*
X0416200Y0158454D01*
X0416200Y0156856D02*
X0422700Y0156856D01*
X0421500Y0156600D02*
X0416200Y0156600D01*
X0416200Y0151300D01*
X0416433Y0151300D01*
X0417288Y0151435D01*
X0418111Y0151703D01*
X0418883Y0152096D01*
X0419583Y0152605D01*
X0420195Y0153217D01*
X0420704Y0153917D01*
X0421097Y0154689D01*
X0421365Y0155512D01*
X0421500Y0156367D01*
X0421500Y0156600D01*
X0421282Y0155257D02*
X0422700Y0155257D01*
X0422700Y0153659D02*
X0420516Y0153659D01*
X0418812Y0152060D02*
X0422700Y0152060D01*
X0416200Y0152060D02*
X0415800Y0152060D01*
X0415800Y0153659D02*
X0416200Y0153659D01*
X0416200Y0155257D02*
X0415800Y0155257D01*
X0413188Y0152060D02*
X0407884Y0152060D01*
X0410071Y0153659D02*
X0411484Y0153659D01*
X0411565Y0160053D02*
X0409960Y0160053D01*
X0418594Y0161651D02*
X0422700Y0161651D01*
X0422700Y0160053D02*
X0420435Y0160053D01*
X0421246Y0158454D02*
X0422700Y0158454D01*
X0422700Y0163250D02*
X0082000Y0163250D01*
X0082000Y0164848D02*
X0422700Y0164848D01*
X0422700Y0166447D02*
X0082512Y0166447D01*
X0082762Y0168045D02*
X0422700Y0168045D01*
X0422700Y0169644D02*
X0082308Y0169644D01*
X0080521Y0171242D02*
X0422700Y0171242D01*
X0422700Y0134476D02*
X0374600Y0134476D01*
X0374600Y0132878D02*
X0422700Y0132878D01*
X0422700Y0131279D02*
X0374600Y0131279D01*
X0374600Y0129681D02*
X0422700Y0129681D01*
X0422700Y0128082D02*
X0374600Y0128082D01*
X0374600Y0126484D02*
X0422700Y0126484D01*
X0422700Y0124885D02*
X0374600Y0124885D01*
X0374600Y0123287D02*
X0422700Y0123287D01*
X0422700Y0121688D02*
X0374600Y0121688D01*
X0374600Y0120090D02*
X0422700Y0120090D01*
X0422700Y0118491D02*
X0374600Y0118491D01*
X0374600Y0116893D02*
X0422700Y0116893D01*
X0422700Y0115294D02*
X0374600Y0115294D01*
X0374600Y0113696D02*
X0422700Y0113696D01*
X0422700Y0112097D02*
X0374600Y0112097D01*
X0374600Y0110499D02*
X0422700Y0110499D01*
X0422700Y0108900D02*
X0374600Y0108900D01*
X0374600Y0107302D02*
X0422700Y0107302D01*
X0422700Y0105703D02*
X0374600Y0105703D01*
X0374600Y0104105D02*
X0422700Y0104105D01*
X0422700Y0102506D02*
X0374600Y0102506D01*
X0374600Y0100908D02*
X0422700Y0100908D01*
X0422700Y0099309D02*
X0374600Y0099309D01*
X0374600Y0097711D02*
X0422700Y0097711D01*
X0422700Y0096112D02*
X0374600Y0096112D01*
X0374600Y0094514D02*
X0422700Y0094514D01*
X0422700Y0092915D02*
X0374600Y0092915D01*
X0374600Y0091317D02*
X0422700Y0091317D01*
X0422700Y0089718D02*
X0374600Y0089718D01*
X0374600Y0088120D02*
X0422700Y0088120D01*
X0422700Y0086521D02*
X0374600Y0086521D01*
X0374600Y0084923D02*
X0422700Y0084923D01*
X0422700Y0083324D02*
X0374600Y0083324D01*
X0374600Y0081726D02*
X0422700Y0081726D01*
X0422700Y0080127D02*
X0374600Y0080127D01*
X0374600Y0078529D02*
X0422700Y0078529D01*
X0422700Y0076930D02*
X0374600Y0076930D01*
X0374600Y0075332D02*
X0422700Y0075332D01*
X0422700Y0073733D02*
X0374600Y0073733D01*
X0374600Y0072134D02*
X0422700Y0072134D01*
X0422700Y0070536D02*
X0374600Y0070536D01*
X0374600Y0068937D02*
X0422700Y0068937D01*
X0422700Y0067339D02*
X0374600Y0067339D01*
X0374600Y0065740D02*
X0422700Y0065740D01*
X0422700Y0064142D02*
X0374600Y0064142D01*
X0374600Y0062543D02*
X0422700Y0062543D01*
X0422700Y0060945D02*
X0374600Y0060945D01*
X0374600Y0059346D02*
X0422700Y0059346D01*
X0422700Y0057748D02*
X0374600Y0057748D01*
X0374600Y0056149D02*
X0422700Y0056149D01*
X0422700Y0054551D02*
X0374600Y0054551D01*
X0374600Y0052952D02*
X0422700Y0052952D01*
X0422700Y0051354D02*
X0374600Y0051354D01*
X0374600Y0049755D02*
X0422700Y0049755D01*
X0422700Y0048157D02*
X0374600Y0048157D01*
X0374600Y0046558D02*
X0422700Y0046558D01*
X0422700Y0044960D02*
X0374600Y0044960D01*
X0374600Y0043361D02*
X0422700Y0043361D01*
X0422700Y0041763D02*
X0374600Y0041763D01*
X0374600Y0040164D02*
X0422700Y0040164D01*
X0422700Y0038566D02*
X0374600Y0038566D01*
X0374600Y0036967D02*
X0422700Y0036967D01*
X0422700Y0035369D02*
X0374600Y0035369D01*
X0374600Y0033770D02*
X0422700Y0033770D01*
X0422700Y0032172D02*
X0374600Y0032172D01*
X0374600Y0030573D02*
X0422700Y0030573D01*
X0422700Y0028975D02*
X0374600Y0028975D01*
X0374600Y0027376D02*
X0422700Y0027376D01*
X0422700Y0025778D02*
X0374600Y0025778D01*
X0374600Y0024179D02*
X0422700Y0024179D01*
X0422700Y0022581D02*
X0375335Y0022581D01*
X0375762Y0020982D02*
X0422700Y0020982D01*
X0422700Y0019384D02*
X0375485Y0019384D01*
X0374306Y0017785D02*
X0422700Y0017785D01*
X0422700Y0016187D02*
X0278600Y0016187D01*
X0278600Y0015885D02*
X0278600Y0017715D01*
X0277900Y0019406D01*
X0276606Y0020700D01*
X0274915Y0021400D01*
X0273085Y0021400D01*
X0271394Y0020700D01*
X0270100Y0019406D01*
X0269400Y0017715D01*
X0269400Y0015885D01*
X0270100Y0014194D01*
X0271394Y0012900D01*
X0273085Y0012200D01*
X0274915Y0012200D01*
X0276606Y0012900D01*
X0277900Y0014194D01*
X0278600Y0015885D01*
X0278063Y0014588D02*
X0422700Y0014588D01*
X0422700Y0012990D02*
X0276695Y0012990D01*
X0271305Y0012990D02*
X0266695Y0012990D01*
X0266606Y0012900D02*
X0267900Y0014194D01*
X0268600Y0015885D01*
X0268600Y0017715D01*
X0267900Y0019406D01*
X0266606Y0020700D01*
X0264915Y0021400D01*
X0263085Y0021400D01*
X0261394Y0020700D01*
X0260100Y0019406D01*
X0259400Y0017715D01*
X0259400Y0015885D01*
X0260100Y0014194D01*
X0261394Y0012900D01*
X0263085Y0012200D01*
X0264915Y0012200D01*
X0266606Y0012900D01*
X0268063Y0014588D02*
X0269937Y0014588D01*
X0269400Y0016187D02*
X0268600Y0016187D01*
X0268571Y0017785D02*
X0269429Y0017785D01*
X0270091Y0019384D02*
X0267909Y0019384D01*
X0265924Y0020982D02*
X0272076Y0020982D01*
X0273085Y0022200D02*
X0274915Y0022200D01*
X0276606Y0022900D01*
X0277900Y0024194D01*
X0278600Y0025885D01*
X0278600Y0027715D01*
X0277900Y0029406D01*
X0276606Y0030700D01*
X0274915Y0031400D01*
X0273085Y0031400D01*
X0271394Y0030700D01*
X0270100Y0029406D01*
X0269400Y0027715D01*
X0269400Y0025885D01*
X0270100Y0024194D01*
X0271394Y0022900D01*
X0273085Y0022200D01*
X0272166Y0022581D02*
X0265834Y0022581D01*
X0266606Y0022900D02*
X0264915Y0022200D01*
X0263085Y0022200D01*
X0261394Y0022900D01*
X0260100Y0024194D01*
X0259400Y0025885D01*
X0259400Y0027715D01*
X0260100Y0029406D01*
X0261394Y0030700D01*
X0263085Y0031400D01*
X0264915Y0031400D01*
X0266606Y0030700D01*
X0267900Y0029406D01*
X0268600Y0027715D01*
X0268600Y0025885D01*
X0267900Y0024194D01*
X0266606Y0022900D01*
X0267885Y0024179D02*
X0270115Y0024179D01*
X0269444Y0025778D02*
X0268556Y0025778D01*
X0268600Y0027376D02*
X0269400Y0027376D01*
X0269922Y0028975D02*
X0268078Y0028975D01*
X0266732Y0030573D02*
X0271268Y0030573D01*
X0276732Y0030573D02*
X0324048Y0030573D01*
X0324429Y0030954D02*
X0323051Y0029576D01*
X0322305Y0027775D01*
X0322305Y0025825D01*
X0323051Y0024024D01*
X0324429Y0022646D01*
X0326230Y0021900D01*
X0328179Y0021900D01*
X0329980Y0022646D01*
X0331359Y0024024D01*
X0332105Y0025825D01*
X0332105Y0027775D01*
X0331359Y0029576D01*
X0329980Y0030954D01*
X0328179Y0031700D01*
X0326230Y0031700D01*
X0324429Y0030954D01*
X0322802Y0028975D02*
X0278078Y0028975D01*
X0278600Y0027376D02*
X0322305Y0027376D01*
X0322324Y0025778D02*
X0278556Y0025778D01*
X0277885Y0024179D02*
X0289327Y0024179D01*
X0288869Y0023989D02*
X0287811Y0022931D01*
X0287238Y0021548D01*
X0287238Y0020052D01*
X0287811Y0018669D01*
X0288869Y0017611D01*
X0290252Y0017038D01*
X0291748Y0017038D01*
X0293131Y0017611D01*
X0293721Y0018200D01*
X0308279Y0018200D01*
X0308869Y0017611D01*
X0310252Y0017038D01*
X0311748Y0017038D01*
X0313131Y0017611D01*
X0314189Y0018669D01*
X0314762Y0020052D01*
X0314762Y0021548D01*
X0314189Y0022931D01*
X0313131Y0023989D01*
X0311748Y0024562D01*
X0310252Y0024562D01*
X0308869Y0023989D01*
X0308279Y0023400D01*
X0293721Y0023400D01*
X0293131Y0023989D01*
X0291748Y0024562D01*
X0290252Y0024562D01*
X0288869Y0023989D01*
X0287665Y0022581D02*
X0275834Y0022581D01*
X0275924Y0020982D02*
X0287238Y0020982D01*
X0287514Y0019384D02*
X0277909Y0019384D01*
X0278571Y0017785D02*
X0288694Y0017785D01*
X0293306Y0017785D02*
X0308694Y0017785D01*
X0313306Y0017785D02*
X0369694Y0017785D01*
X0368514Y0019384D02*
X0314485Y0019384D01*
X0314762Y0020982D02*
X0368238Y0020982D01*
X0368665Y0022581D02*
X0355413Y0022581D01*
X0355571Y0022646D02*
X0356949Y0024024D01*
X0357695Y0025825D01*
X0357695Y0027775D01*
X0356949Y0029576D01*
X0355571Y0030954D01*
X0353770Y0031700D01*
X0351821Y0031700D01*
X0350020Y0030954D01*
X0348641Y0029576D01*
X0347895Y0027775D01*
X0347895Y0025825D01*
X0348641Y0024024D01*
X0350020Y0022646D01*
X0351821Y0021900D01*
X0353770Y0021900D01*
X0355571Y0022646D01*
X0357013Y0024179D02*
X0369400Y0024179D01*
X0369400Y0025778D02*
X0357676Y0025778D01*
X0357695Y0027376D02*
X0369400Y0027376D01*
X0369400Y0028975D02*
X0357198Y0028975D01*
X0355952Y0030573D02*
X0369400Y0030573D01*
X0369400Y0032172D02*
X0085100Y0032172D01*
X0085100Y0032814D02*
X0084324Y0034689D01*
X0082889Y0036124D01*
X0081014Y0036900D01*
X0078986Y0036900D01*
X0077111Y0036124D01*
X0075676Y0034689D01*
X0075000Y0033056D01*
X0074324Y0034689D01*
X0072889Y0036124D01*
X0071014Y0036900D01*
X0068986Y0036900D01*
X0067111Y0036124D01*
X0065676Y0034689D01*
X0065000Y0033056D01*
X0064324Y0034689D01*
X0062889Y0036124D01*
X0061014Y0036900D01*
X0058986Y0036900D01*
X0057111Y0036124D01*
X0055676Y0034689D01*
X0055000Y0033056D01*
X0054324Y0034689D01*
X0052889Y0036124D01*
X0051014Y0036900D01*
X0048986Y0036900D01*
X0047111Y0036124D01*
X0045676Y0034689D01*
X0045000Y0033056D01*
X0044324Y0034689D01*
X0042889Y0036124D01*
X0041014Y0036900D01*
X0038986Y0036900D01*
X0037111Y0036124D01*
X0035676Y0034689D01*
X0035210Y0033563D01*
X0035097Y0033911D01*
X0034704Y0034683D01*
X0034195Y0035383D01*
X0033583Y0035995D01*
X0032883Y0036504D01*
X0032111Y0036897D01*
X0031288Y0037165D01*
X0030433Y0037300D01*
X0030200Y0037300D01*
X0030200Y0032000D01*
X0029800Y0032000D01*
X0029800Y0037300D01*
X0029567Y0037300D01*
X0028712Y0037165D01*
X0027889Y0036897D01*
X0027117Y0036504D01*
X0026417Y0035995D01*
X0025805Y0035383D01*
X0025296Y0034683D01*
X0024903Y0033911D01*
X0024635Y0033088D01*
X0024500Y0032233D01*
X0024500Y0032000D01*
X0029800Y0032000D01*
X0029800Y0031600D01*
X0024500Y0031600D01*
X0024500Y0031367D01*
X0024635Y0030512D01*
X0024903Y0029689D01*
X0025296Y0028917D01*
X0025805Y0028217D01*
X0026417Y0027605D01*
X0027117Y0027096D01*
X0027889Y0026703D01*
X0028712Y0026435D01*
X0029567Y0026300D01*
X0029800Y0026300D01*
X0029800Y0031600D01*
X0030200Y0031600D01*
X0030200Y0026300D01*
X0030433Y0026300D01*
X0031288Y0026435D01*
X0032111Y0026703D01*
X0032883Y0027096D01*
X0033583Y0027605D01*
X0034195Y0028217D01*
X0034704Y0028917D01*
X0035097Y0029689D01*
X0035210Y0030037D01*
X0035676Y0028911D01*
X0037111Y0027476D01*
X0038986Y0026700D01*
X0041014Y0026700D01*
X0042889Y0027476D01*
X0044324Y0028911D01*
X0045000Y0030544D01*
X0045676Y0028911D01*
X0047111Y0027476D01*
X0048986Y0026700D01*
X0051014Y0026700D01*
X0052889Y0027476D01*
X0054324Y0028911D01*
X0055000Y0030544D01*
X0055676Y0028911D01*
X0057111Y0027476D01*
X0058986Y0026700D01*
X0061014Y0026700D01*
X0062889Y0027476D01*
X0064324Y0028911D01*
X0065000Y0030544D01*
X0065676Y0028911D01*
X0067111Y0027476D01*
X0068986Y0026700D01*
X0071014Y0026700D01*
X0072889Y0027476D01*
X0074324Y0028911D01*
X0075000Y0030544D01*
X0075676Y0028911D01*
X0077111Y0027476D01*
X0078986Y0026700D01*
X0081014Y0026700D01*
X0082889Y0027476D01*
X0084324Y0028911D01*
X0085100Y0030786D01*
X0085100Y0032814D01*
X0084704Y0033770D02*
X0369400Y0033770D01*
X0369400Y0035369D02*
X0293889Y0035369D01*
X0294189Y0035669D02*
X0294762Y0037052D01*
X0294762Y0038548D01*
X0294189Y0039931D01*
X0293200Y0040921D01*
X0293200Y0068679D01*
X0294189Y0069669D01*
X0294762Y0071052D01*
X0294762Y0072548D01*
X0294189Y0073931D01*
X0293131Y0074989D01*
X0291748Y0075562D01*
X0290252Y0075562D01*
X0288869Y0074989D01*
X0287811Y0073931D01*
X0287238Y0072548D01*
X0287238Y0071052D01*
X0287811Y0069669D01*
X0288800Y0068679D01*
X0288800Y0040921D01*
X0287811Y0039931D01*
X0287238Y0038548D01*
X0287238Y0037052D01*
X0287811Y0035669D01*
X0288869Y0034611D01*
X0290252Y0034038D01*
X0291748Y0034038D01*
X0293131Y0034611D01*
X0294189Y0035669D01*
X0294727Y0036967D02*
X0369400Y0036967D01*
X0369400Y0038566D02*
X0294755Y0038566D01*
X0293956Y0040164D02*
X0369400Y0040164D01*
X0369400Y0041763D02*
X0293200Y0041763D01*
X0293200Y0043361D02*
X0369400Y0043361D01*
X0369400Y0044960D02*
X0293200Y0044960D01*
X0293200Y0046558D02*
X0369400Y0046558D01*
X0369400Y0048157D02*
X0293200Y0048157D01*
X0293200Y0049755D02*
X0369400Y0049755D01*
X0369400Y0051354D02*
X0293200Y0051354D01*
X0293200Y0052952D02*
X0369400Y0052952D01*
X0369400Y0054551D02*
X0293200Y0054551D01*
X0293200Y0056149D02*
X0369400Y0056149D01*
X0369400Y0057748D02*
X0293200Y0057748D01*
X0293200Y0059346D02*
X0369400Y0059346D01*
X0369400Y0060945D02*
X0293200Y0060945D01*
X0293200Y0062543D02*
X0369400Y0062543D01*
X0369400Y0064142D02*
X0293200Y0064142D01*
X0293200Y0065740D02*
X0369400Y0065740D01*
X0369400Y0067339D02*
X0293200Y0067339D01*
X0293458Y0068937D02*
X0369400Y0068937D01*
X0369400Y0070536D02*
X0294549Y0070536D01*
X0294762Y0072134D02*
X0369400Y0072134D01*
X0369400Y0073733D02*
X0294271Y0073733D01*
X0292305Y0075332D02*
X0369400Y0075332D01*
X0369400Y0076930D02*
X0253200Y0076930D01*
X0253200Y0075332D02*
X0289695Y0075332D01*
X0287729Y0073733D02*
X0285388Y0073733D01*
X0285131Y0073989D02*
X0283748Y0074562D01*
X0282252Y0074562D01*
X0280869Y0073989D01*
X0279879Y0073000D01*
X0265121Y0073000D01*
X0264131Y0073989D01*
X0262748Y0074562D01*
X0261252Y0074562D01*
X0259869Y0073989D01*
X0258811Y0072931D01*
X0258238Y0071548D01*
X0258238Y0070052D01*
X0258811Y0068669D01*
X0259869Y0067611D01*
X0261252Y0067038D01*
X0262748Y0067038D01*
X0264131Y0067611D01*
X0265121Y0068600D01*
X0279879Y0068600D01*
X0280869Y0067611D01*
X0282252Y0067038D01*
X0283748Y0067038D01*
X0285131Y0067611D01*
X0286189Y0068669D01*
X0286762Y0070052D01*
X0286762Y0071548D01*
X0286189Y0072931D01*
X0285131Y0073989D01*
X0286519Y0072134D02*
X0287238Y0072134D01*
X0287451Y0070536D02*
X0286762Y0070536D01*
X0286301Y0068937D02*
X0288542Y0068937D01*
X0288800Y0067339D02*
X0284475Y0067339D01*
X0281525Y0067339D02*
X0263475Y0067339D01*
X0260525Y0067339D02*
X0254435Y0067339D01*
X0254189Y0067931D02*
X0254762Y0066548D01*
X0254762Y0065052D01*
X0254189Y0063669D01*
X0253131Y0062611D01*
X0251748Y0062038D01*
X0250252Y0062038D01*
X0248869Y0062611D01*
X0247811Y0063669D01*
X0247238Y0065052D01*
X0247238Y0066548D01*
X0247811Y0067931D01*
X0248800Y0068921D01*
X0248800Y0095679D01*
X0247811Y0096669D01*
X0247293Y0097919D01*
X0247189Y0097669D01*
X0246200Y0096679D01*
X0246200Y0079921D01*
X0247189Y0078931D01*
X0247762Y0077548D01*
X0247762Y0076052D01*
X0247189Y0074669D01*
X0246131Y0073611D01*
X0244748Y0073038D01*
X0243252Y0073038D01*
X0241869Y0073611D01*
X0240811Y0074669D01*
X0240238Y0076052D01*
X0240238Y0077548D01*
X0240811Y0078931D01*
X0241800Y0079921D01*
X0241800Y0096679D01*
X0240811Y0097669D01*
X0240238Y0099052D01*
X0240238Y0100548D01*
X0240811Y0101931D01*
X0241869Y0102989D01*
X0243252Y0103562D01*
X0244748Y0103562D01*
X0246131Y0102989D01*
X0247189Y0101931D01*
X0247707Y0100681D01*
X0247811Y0100931D01*
X0248869Y0101989D01*
X0250252Y0102562D01*
X0251748Y0102562D01*
X0253131Y0101989D01*
X0254189Y0100931D01*
X0254762Y0099548D01*
X0254762Y0098052D01*
X0254189Y0096669D01*
X0253200Y0095679D01*
X0253200Y0088127D01*
X0254252Y0088562D01*
X0255748Y0088562D01*
X0257131Y0087989D01*
X0257357Y0087763D01*
X0257238Y0088052D01*
X0257238Y0089548D01*
X0257811Y0090931D01*
X0258869Y0091989D01*
X0260252Y0092562D01*
X0261748Y0092562D01*
X0263131Y0091989D01*
X0264121Y0091000D01*
X0277879Y0091000D01*
X0278869Y0091989D01*
X0280252Y0092562D01*
X0281748Y0092562D01*
X0283131Y0091989D01*
X0284189Y0090931D01*
X0284762Y0089548D01*
X0284762Y0088052D01*
X0284327Y0087000D01*
X0284879Y0087000D01*
X0285869Y0087989D01*
X0287252Y0088562D01*
X0288748Y0088562D01*
X0290131Y0087989D01*
X0291189Y0086931D01*
X0291762Y0085548D01*
X0291762Y0084052D01*
X0291189Y0082669D01*
X0290131Y0081611D01*
X0288748Y0081038D01*
X0287252Y0081038D01*
X0285869Y0081611D01*
X0284879Y0082600D01*
X0258121Y0082600D01*
X0257131Y0081611D01*
X0255748Y0081038D01*
X0254252Y0081038D01*
X0253200Y0081473D01*
X0253200Y0068921D01*
X0254189Y0067931D01*
X0253200Y0068937D02*
X0258699Y0068937D01*
X0258238Y0070536D02*
X0253200Y0070536D01*
X0253200Y0072134D02*
X0258481Y0072134D01*
X0259612Y0073733D02*
X0253200Y0073733D01*
X0248800Y0073733D02*
X0246254Y0073733D01*
X0247464Y0075332D02*
X0248800Y0075332D01*
X0248800Y0076930D02*
X0247762Y0076930D01*
X0247356Y0078529D02*
X0248800Y0078529D01*
X0248800Y0080127D02*
X0246200Y0080127D01*
X0246200Y0081726D02*
X0248800Y0081726D01*
X0248800Y0083324D02*
X0246200Y0083324D01*
X0246200Y0084923D02*
X0248800Y0084923D01*
X0248800Y0086521D02*
X0246200Y0086521D01*
X0246200Y0088120D02*
X0248800Y0088120D01*
X0248800Y0089718D02*
X0246200Y0089718D01*
X0246200Y0091317D02*
X0248800Y0091317D01*
X0248800Y0092915D02*
X0246200Y0092915D01*
X0246200Y0094514D02*
X0248800Y0094514D01*
X0248367Y0096112D02*
X0246200Y0096112D01*
X0247207Y0097711D02*
X0247379Y0097711D01*
X0251000Y0098800D02*
X0251000Y0065800D01*
X0254762Y0065740D02*
X0288800Y0065740D01*
X0288800Y0064142D02*
X0254385Y0064142D01*
X0252969Y0062543D02*
X0288800Y0062543D01*
X0288800Y0060945D02*
X0212718Y0060945D01*
X0212762Y0062543D02*
X0249031Y0062543D01*
X0247615Y0064142D02*
X0211979Y0064142D01*
X0211200Y0065740D02*
X0247238Y0065740D01*
X0247565Y0067339D02*
X0211200Y0067339D01*
X0211200Y0068937D02*
X0248800Y0068937D01*
X0248800Y0070536D02*
X0211200Y0070536D01*
X0211200Y0072134D02*
X0248800Y0072134D01*
X0241746Y0073733D02*
X0211200Y0073733D01*
X0211200Y0075332D02*
X0240536Y0075332D01*
X0240238Y0076930D02*
X0211200Y0076930D01*
X0211200Y0078529D02*
X0240644Y0078529D01*
X0241800Y0080127D02*
X0211200Y0080127D01*
X0211200Y0081726D02*
X0241800Y0081726D01*
X0241800Y0083324D02*
X0211200Y0083324D01*
X0211200Y0084923D02*
X0241800Y0084923D01*
X0241800Y0086521D02*
X0211200Y0086521D01*
X0211200Y0088120D02*
X0241800Y0088120D01*
X0241800Y0089718D02*
X0211200Y0089718D01*
X0211200Y0091317D02*
X0241800Y0091317D01*
X0241800Y0092915D02*
X0211200Y0092915D01*
X0211200Y0094514D02*
X0241800Y0094514D01*
X0241800Y0096112D02*
X0211200Y0096112D01*
X0211200Y0097711D02*
X0240793Y0097711D01*
X0240238Y0099309D02*
X0211200Y0099309D01*
X0211200Y0100908D02*
X0240387Y0100908D01*
X0241386Y0102506D02*
X0211200Y0102506D01*
X0211200Y0104105D02*
X0236375Y0104105D01*
X0235382Y0105703D02*
X0211200Y0105703D01*
X0211200Y0107302D02*
X0235238Y0107302D01*
X0235798Y0108900D02*
X0219421Y0108900D01*
X0214579Y0108900D02*
X0211200Y0108900D01*
X0211200Y0110499D02*
X0213467Y0110499D01*
X0212108Y0112097D02*
X0211200Y0112097D01*
X0217000Y0111800D02*
X0268000Y0111800D01*
X0271533Y0110499D02*
X0331099Y0110499D01*
X0332901Y0110499D02*
X0369400Y0110499D01*
X0369400Y0112097D02*
X0358892Y0112097D01*
X0357108Y0112097D02*
X0271762Y0112097D01*
X0251884Y0102506D02*
X0369400Y0102506D01*
X0369400Y0100908D02*
X0254199Y0100908D01*
X0254762Y0099309D02*
X0369400Y0099309D01*
X0369400Y0097711D02*
X0254621Y0097711D01*
X0253633Y0096112D02*
X0369400Y0096112D01*
X0369400Y0094514D02*
X0253200Y0094514D01*
X0253200Y0092915D02*
X0369400Y0092915D01*
X0369400Y0091317D02*
X0283804Y0091317D01*
X0284692Y0089718D02*
X0369400Y0089718D01*
X0369400Y0088120D02*
X0289817Y0088120D01*
X0291359Y0086521D02*
X0369400Y0086521D01*
X0369400Y0084923D02*
X0291762Y0084923D01*
X0291461Y0083324D02*
X0369400Y0083324D01*
X0369400Y0081726D02*
X0290246Y0081726D01*
X0285754Y0081726D02*
X0257246Y0081726D01*
X0253200Y0080127D02*
X0369400Y0080127D01*
X0369400Y0078529D02*
X0253200Y0078529D01*
X0264388Y0073733D02*
X0280612Y0073733D01*
X0283000Y0070800D02*
X0262000Y0070800D01*
X0244000Y0076800D02*
X0244000Y0099800D01*
X0247613Y0100908D02*
X0247801Y0100908D01*
X0246614Y0102506D02*
X0250116Y0102506D01*
X0241625Y0104105D02*
X0329375Y0104105D01*
X0332000Y0106800D02*
X0239000Y0106800D01*
X0213000Y0115800D02*
X0358000Y0115800D01*
X0361620Y0116893D02*
X0369400Y0116893D01*
X0369400Y0118491D02*
X0360629Y0118491D01*
X0361762Y0115294D02*
X0369400Y0115294D01*
X0369400Y0113696D02*
X0361201Y0113696D01*
X0355371Y0118491D02*
X0215629Y0118491D01*
X0211200Y0120090D02*
X0369400Y0120090D01*
X0369400Y0121688D02*
X0211200Y0121688D01*
X0211200Y0123287D02*
X0369400Y0123287D01*
X0369400Y0124885D02*
X0211406Y0124885D01*
X0212527Y0126484D02*
X0369400Y0126484D01*
X0369400Y0128082D02*
X0212762Y0128082D01*
X0209000Y0127800D02*
X0209000Y0061800D01*
X0211867Y0059346D02*
X0288800Y0059346D01*
X0288800Y0057748D02*
X0205222Y0057748D01*
X0205762Y0059346D02*
X0206133Y0059346D01*
X0202000Y0059800D02*
X0070000Y0059800D01*
X0066402Y0060945D02*
X0057154Y0060945D01*
X0057039Y0060440D02*
X0057296Y0061568D01*
X0057401Y0062496D01*
X0047926Y0062496D01*
X0047926Y0053021D01*
X0048854Y0053126D01*
X0049982Y0053383D01*
X0051074Y0053765D01*
X0052116Y0054267D01*
X0053096Y0054883D01*
X0054000Y0055604D01*
X0054818Y0056422D01*
X0055539Y0057326D01*
X0056155Y0058306D01*
X0056657Y0059348D01*
X0057039Y0060440D01*
X0056656Y0059346D02*
X0066238Y0059346D01*
X0066778Y0057748D02*
X0055804Y0057748D01*
X0054546Y0056149D02*
X0068982Y0056149D01*
X0071018Y0056149D02*
X0200982Y0056149D01*
X0203018Y0056149D02*
X0288800Y0056149D01*
X0288800Y0054551D02*
X0052568Y0054551D01*
X0047926Y0054551D02*
X0046326Y0054551D01*
X0046326Y0053021D02*
X0046326Y0062496D01*
X0047926Y0062496D01*
X0047926Y0064096D01*
X0057401Y0064096D01*
X0057296Y0065024D01*
X0057039Y0066152D01*
X0056657Y0067244D01*
X0056155Y0068286D01*
X0055539Y0069266D01*
X0054818Y0070170D01*
X0054000Y0070988D01*
X0053096Y0071710D01*
X0052116Y0072325D01*
X0051074Y0072827D01*
X0049982Y0073209D01*
X0048854Y0073467D01*
X0047926Y0073571D01*
X0047926Y0064096D01*
X0046326Y0064096D01*
X0046326Y0062496D01*
X0036851Y0062496D01*
X0036956Y0061568D01*
X0037213Y0060440D01*
X0037595Y0059348D01*
X0038097Y0058306D01*
X0038712Y0057326D01*
X0039434Y0056422D01*
X0040252Y0055604D01*
X0041156Y0054883D01*
X0042136Y0054267D01*
X0043178Y0053765D01*
X0044270Y0053383D01*
X0045398Y0053126D01*
X0046326Y0053021D01*
X0041684Y0054551D02*
X0022312Y0054551D01*
X0022312Y0056149D02*
X0039706Y0056149D01*
X0038448Y0057748D02*
X0022313Y0057748D01*
X0022313Y0059346D02*
X0037596Y0059346D01*
X0037098Y0060945D02*
X0022313Y0060945D01*
X0022314Y0062543D02*
X0046326Y0062543D01*
X0046326Y0064096D02*
X0036851Y0064096D01*
X0036956Y0065024D01*
X0037213Y0066152D01*
X0037595Y0067244D01*
X0038097Y0068286D01*
X0038712Y0069266D01*
X0039434Y0070170D01*
X0040252Y0070988D01*
X0041156Y0071710D01*
X0042136Y0072325D01*
X0043178Y0072827D01*
X0044270Y0073209D01*
X0045398Y0073467D01*
X0046326Y0073571D01*
X0046326Y0064096D01*
X0046326Y0064142D02*
X0047926Y0064142D01*
X0047926Y0065740D02*
X0046326Y0065740D01*
X0046326Y0067339D02*
X0047926Y0067339D01*
X0047926Y0068937D02*
X0046326Y0068937D01*
X0046326Y0070536D02*
X0047926Y0070536D01*
X0047926Y0072134D02*
X0046326Y0072134D01*
X0043007Y0074926D02*
X0042189Y0074108D01*
X0041285Y0073386D01*
X0040305Y0072771D01*
X0039263Y0072269D01*
X0038171Y0071887D01*
X0037043Y0071630D01*
X0036115Y0071525D01*
X0036115Y0081000D01*
X0036115Y0082600D01*
X0045590Y0082600D01*
X0045485Y0083528D01*
X0045228Y0084656D01*
X0044846Y0085748D01*
X0044344Y0086790D01*
X0043728Y0087770D01*
X0043007Y0088674D01*
X0042189Y0089492D01*
X0041285Y0090214D01*
X0040305Y0090829D01*
X0039263Y0091331D01*
X0038171Y0091713D01*
X0037043Y0091970D01*
X0036115Y0092075D01*
X0036115Y0082600D01*
X0034515Y0082600D01*
X0034515Y0092075D01*
X0033587Y0091970D01*
X0032459Y0091713D01*
X0031367Y0091331D01*
X0030325Y0090829D01*
X0029345Y0090214D01*
X0028441Y0089492D01*
X0027623Y0088674D01*
X0026901Y0087770D01*
X0026286Y0086790D01*
X0025784Y0085748D01*
X0025402Y0084656D01*
X0025144Y0083528D01*
X0025040Y0082600D01*
X0034515Y0082600D01*
X0034515Y0081000D01*
X0036115Y0081000D01*
X0045590Y0081000D01*
X0045485Y0080072D01*
X0045228Y0078944D01*
X0044846Y0077852D01*
X0044344Y0076810D01*
X0043728Y0075830D01*
X0043007Y0074926D01*
X0043331Y0075332D02*
X0051405Y0075332D01*
X0050239Y0076930D02*
X0044402Y0076930D01*
X0045083Y0078529D02*
X0049576Y0078529D01*
X0049037Y0080127D02*
X0045492Y0080127D01*
X0049037Y0081726D02*
X0036115Y0081726D01*
X0036115Y0083324D02*
X0034515Y0083324D01*
X0034515Y0081726D02*
X0022318Y0081726D01*
X0022318Y0083324D02*
X0025122Y0083324D01*
X0025495Y0084923D02*
X0022319Y0084923D01*
X0022319Y0086521D02*
X0026156Y0086521D01*
X0027180Y0088120D02*
X0022319Y0088120D01*
X0022320Y0089718D02*
X0028724Y0089718D01*
X0031337Y0091317D02*
X0022320Y0091317D01*
X0034515Y0091317D02*
X0036115Y0091317D01*
X0036115Y0089718D02*
X0034515Y0089718D01*
X0034515Y0088120D02*
X0036115Y0088120D01*
X0036115Y0086521D02*
X0034515Y0086521D01*
X0034515Y0084923D02*
X0036115Y0084923D01*
X0034515Y0081000D02*
X0025040Y0081000D01*
X0025144Y0080072D01*
X0025402Y0078944D01*
X0025784Y0077852D01*
X0026286Y0076810D01*
X0026901Y0075830D01*
X0027623Y0074926D01*
X0028441Y0074108D01*
X0029345Y0073386D01*
X0030325Y0072771D01*
X0031367Y0072269D01*
X0032459Y0071887D01*
X0033587Y0071630D01*
X0034515Y0071525D01*
X0034515Y0081000D01*
X0034515Y0080127D02*
X0036115Y0080127D01*
X0036115Y0078529D02*
X0034515Y0078529D01*
X0034515Y0076930D02*
X0036115Y0076930D01*
X0036115Y0075332D02*
X0034515Y0075332D01*
X0034515Y0073733D02*
X0036115Y0073733D01*
X0036115Y0072134D02*
X0034515Y0072134D01*
X0031752Y0072134D02*
X0022316Y0072134D01*
X0022315Y0070536D02*
X0039800Y0070536D01*
X0038878Y0072134D02*
X0041833Y0072134D01*
X0041719Y0073733D02*
X0053003Y0073733D01*
X0052419Y0072134D02*
X0056402Y0072134D01*
X0054452Y0070536D02*
X0151451Y0070536D01*
X0151238Y0072134D02*
X0061472Y0072134D01*
X0064871Y0073733D02*
X0151729Y0073733D01*
X0153695Y0075332D02*
X0135852Y0075332D01*
X0133000Y0077800D02*
X0179000Y0077800D01*
X0176148Y0075332D02*
X0156305Y0075332D01*
X0155000Y0071800D02*
X0178000Y0071800D01*
X0180458Y0068937D02*
X0180800Y0068937D01*
X0180800Y0067339D02*
X0056611Y0067339D01*
X0057133Y0065740D02*
X0179732Y0065740D01*
X0179238Y0064142D02*
X0057396Y0064142D01*
X0047926Y0062543D02*
X0067423Y0062543D01*
X0072577Y0062543D02*
X0179448Y0062543D01*
X0183000Y0063800D02*
X0183000Y0112800D01*
X0185826Y0115294D02*
X0187185Y0115294D01*
X0186701Y0113696D02*
X0187800Y0113696D01*
X0187800Y0112097D02*
X0186762Y0112097D01*
X0186019Y0110499D02*
X0187800Y0110499D01*
X0187800Y0108900D02*
X0185200Y0108900D01*
X0185200Y0107302D02*
X0187181Y0107302D01*
X0186302Y0105703D02*
X0185200Y0105703D01*
X0185200Y0104105D02*
X0186238Y0104105D01*
X0186973Y0102506D02*
X0185200Y0102506D01*
X0185200Y0100908D02*
X0192800Y0100908D01*
X0192800Y0099309D02*
X0192359Y0099309D01*
X0189641Y0099309D02*
X0185200Y0099309D01*
X0185200Y0097711D02*
X0187719Y0097711D01*
X0187238Y0096112D02*
X0185200Y0096112D01*
X0185200Y0094514D02*
X0187461Y0094514D01*
X0188564Y0092915D02*
X0185200Y0092915D01*
X0185200Y0091317D02*
X0188800Y0091317D01*
X0188800Y0089718D02*
X0185200Y0089718D01*
X0185200Y0088120D02*
X0188800Y0088120D01*
X0188800Y0086521D02*
X0185200Y0086521D01*
X0185200Y0084923D02*
X0188800Y0084923D01*
X0188800Y0083324D02*
X0185200Y0083324D01*
X0185200Y0081726D02*
X0188800Y0081726D01*
X0188800Y0080127D02*
X0185200Y0080127D01*
X0185200Y0078529D02*
X0188800Y0078529D01*
X0188800Y0076930D02*
X0185200Y0076930D01*
X0185200Y0075332D02*
X0188800Y0075332D01*
X0188800Y0073733D02*
X0185200Y0073733D01*
X0185200Y0072134D02*
X0188800Y0072134D01*
X0188800Y0070536D02*
X0185200Y0070536D01*
X0185200Y0068937D02*
X0188800Y0068937D01*
X0188218Y0067339D02*
X0185200Y0067339D01*
X0186268Y0065740D02*
X0187317Y0065740D01*
X0187238Y0064142D02*
X0186762Y0064142D01*
X0186552Y0062543D02*
X0187936Y0062543D01*
X0191000Y0064800D02*
X0191000Y0095800D01*
X0180800Y0096112D02*
X0136200Y0096112D01*
X0136200Y0097711D02*
X0180800Y0097711D01*
X0180800Y0099309D02*
X0136200Y0099309D01*
X0136200Y0100908D02*
X0180800Y0100908D01*
X0180800Y0102506D02*
X0136200Y0102506D01*
X0136200Y0104105D02*
X0180800Y0104105D01*
X0180800Y0105703D02*
X0136200Y0105703D01*
X0136200Y0107302D02*
X0180800Y0107302D01*
X0180800Y0108900D02*
X0136200Y0108900D01*
X0136200Y0110499D02*
X0179981Y0110499D01*
X0179238Y0112097D02*
X0136200Y0112097D01*
X0136200Y0113696D02*
X0179299Y0113696D01*
X0180174Y0115294D02*
X0136200Y0115294D01*
X0137282Y0116893D02*
X0186304Y0116893D01*
X0186238Y0118491D02*
X0137762Y0118491D01*
X0137538Y0120090D02*
X0186969Y0120090D01*
X0190000Y0117800D02*
X0190000Y0104800D01*
X0180800Y0094514D02*
X0137362Y0094514D01*
X0137762Y0092915D02*
X0180800Y0092915D01*
X0180800Y0091317D02*
X0137458Y0091317D01*
X0136239Y0089718D02*
X0180800Y0089718D01*
X0180800Y0088120D02*
X0066618Y0088120D01*
X0067697Y0086521D02*
X0180800Y0086521D01*
X0180800Y0084923D02*
X0068359Y0084923D01*
X0068837Y0083324D02*
X0180800Y0083324D01*
X0180800Y0081726D02*
X0068837Y0081726D01*
X0068837Y0080127D02*
X0130006Y0080127D01*
X0129238Y0078529D02*
X0068298Y0078529D01*
X0067635Y0076930D02*
X0129288Y0076930D01*
X0130148Y0075332D02*
X0066469Y0075332D01*
X0055746Y0068937D02*
X0152542Y0068937D01*
X0157458Y0068937D02*
X0175542Y0068937D01*
X0195000Y0071800D02*
X0195000Y0124800D01*
X0198445Y0123287D02*
X0200238Y0123287D01*
X0200377Y0124885D02*
X0198762Y0124885D01*
X0198375Y0126484D02*
X0201363Y0126484D01*
X0204000Y0123800D02*
X0204000Y0067800D01*
X0199000Y0064800D02*
X0199000Y0116800D01*
X0200889Y0120090D02*
X0201800Y0120090D01*
X0200802Y0121688D02*
X0197209Y0121688D01*
X0196907Y0128082D02*
X0205238Y0128082D01*
X0200936Y0129681D02*
X0197096Y0129681D01*
X0198139Y0131279D02*
X0199893Y0131279D01*
X0199616Y0132878D02*
X0198416Y0132878D01*
X0198094Y0134476D02*
X0199938Y0134476D01*
X0201045Y0136075D02*
X0196987Y0136075D01*
X0191045Y0136075D02*
X0186987Y0136075D01*
X0186508Y0136554D02*
X0184891Y0137224D01*
X0183141Y0137224D01*
X0181523Y0136554D01*
X0180286Y0135316D01*
X0179616Y0133699D01*
X0179616Y0131948D01*
X0180286Y0130331D01*
X0181523Y0129093D01*
X0183141Y0128424D01*
X0184891Y0128424D01*
X0186508Y0129093D01*
X0187746Y0130331D01*
X0188416Y0131948D01*
X0188416Y0133699D01*
X0187746Y0135316D01*
X0186508Y0136554D01*
X0188094Y0134476D02*
X0189938Y0134476D01*
X0189616Y0132878D02*
X0188416Y0132878D01*
X0188139Y0131279D02*
X0189893Y0131279D01*
X0190936Y0129681D02*
X0187096Y0129681D01*
X0180936Y0129681D02*
X0177096Y0129681D01*
X0176508Y0129093D02*
X0177746Y0130331D01*
X0178416Y0131948D01*
X0178416Y0133699D01*
X0177746Y0135316D01*
X0176508Y0136554D01*
X0174891Y0137224D01*
X0173141Y0137224D01*
X0171523Y0136554D01*
X0170286Y0135316D01*
X0169616Y0133699D01*
X0169616Y0131948D01*
X0170286Y0130331D01*
X0171523Y0129093D01*
X0173141Y0128424D01*
X0174891Y0128424D01*
X0176508Y0129093D01*
X0178139Y0131279D02*
X0179893Y0131279D01*
X0179616Y0132878D02*
X0178416Y0132878D01*
X0178094Y0134476D02*
X0179938Y0134476D01*
X0181045Y0136075D02*
X0176987Y0136075D01*
X0171045Y0136075D02*
X0166987Y0136075D01*
X0166508Y0136554D02*
X0164891Y0137224D01*
X0163141Y0137224D01*
X0161523Y0136554D01*
X0160286Y0135316D01*
X0159616Y0133699D01*
X0159616Y0131948D01*
X0160286Y0130331D01*
X0161523Y0129093D01*
X0163141Y0128424D01*
X0164891Y0128424D01*
X0166508Y0129093D01*
X0167746Y0130331D01*
X0168416Y0131948D01*
X0168416Y0133699D01*
X0167746Y0135316D01*
X0166508Y0136554D01*
X0168094Y0134476D02*
X0169938Y0134476D01*
X0169616Y0132878D02*
X0168416Y0132878D01*
X0168139Y0131279D02*
X0169893Y0131279D01*
X0170936Y0129681D02*
X0167096Y0129681D01*
X0160936Y0129681D02*
X0157096Y0129681D01*
X0156508Y0129093D02*
X0157746Y0130331D01*
X0158416Y0131948D01*
X0158416Y0133699D01*
X0157746Y0135316D01*
X0156508Y0136554D01*
X0154891Y0137224D01*
X0153141Y0137224D01*
X0151523Y0136554D01*
X0150286Y0135316D01*
X0149616Y0133699D01*
X0149616Y0131948D01*
X0150286Y0130331D01*
X0151523Y0129093D01*
X0153141Y0128424D01*
X0154891Y0128424D01*
X0156508Y0129093D01*
X0158139Y0131279D02*
X0159893Y0131279D01*
X0159616Y0132878D02*
X0158416Y0132878D01*
X0158094Y0134476D02*
X0159938Y0134476D01*
X0161045Y0136075D02*
X0156987Y0136075D01*
X0151045Y0136075D02*
X0146987Y0136075D01*
X0148094Y0134476D02*
X0149938Y0134476D01*
X0149616Y0132878D02*
X0148416Y0132878D01*
X0148139Y0131279D02*
X0149893Y0131279D01*
X0150936Y0129681D02*
X0147096Y0129681D01*
X0140936Y0129681D02*
X0137661Y0129681D01*
X0138561Y0131279D02*
X0139893Y0131279D01*
X0134765Y0128082D02*
X0193093Y0128082D01*
X0217096Y0129681D02*
X0220936Y0129681D01*
X0219893Y0131279D02*
X0218139Y0131279D01*
X0218416Y0132878D02*
X0219616Y0132878D01*
X0219938Y0134476D02*
X0218094Y0134476D01*
X0211727Y0140870D02*
X0211250Y0140870D01*
X0211238Y0142469D02*
X0082000Y0142469D01*
X0082000Y0144068D02*
X0140412Y0144068D01*
X0139398Y0145666D02*
X0082000Y0145666D01*
X0082000Y0147265D02*
X0139238Y0147265D01*
X0139782Y0148863D02*
X0082000Y0148863D01*
X0082000Y0153659D02*
X0179821Y0153659D01*
X0178567Y0155257D02*
X0082000Y0155257D01*
X0082000Y0156856D02*
X0178238Y0156856D01*
X0178613Y0158454D02*
X0082000Y0158454D01*
X0076000Y0160053D02*
X0064435Y0160053D01*
X0062594Y0161651D02*
X0076000Y0161651D01*
X0038385Y0161651D02*
X0034529Y0161651D01*
X0035100Y0160053D02*
X0036040Y0160053D01*
X0035165Y0158454D02*
X0035100Y0158454D01*
X0035100Y0155257D02*
X0035119Y0155257D01*
X0035100Y0153659D02*
X0035929Y0153659D01*
X0034640Y0152060D02*
X0038116Y0152060D01*
X0082000Y0118491D02*
X0130238Y0118491D01*
X0130718Y0116893D02*
X0082620Y0116893D01*
X0082762Y0115294D02*
X0131800Y0115294D01*
X0131800Y0113696D02*
X0082201Y0113696D01*
X0127096Y0129681D02*
X0130370Y0129681D01*
X0129470Y0131279D02*
X0128139Y0131279D01*
X0145588Y0144068D02*
X0188412Y0144068D01*
X0193588Y0144068D02*
X0211453Y0144068D01*
X0212545Y0145666D02*
X0194602Y0145666D01*
X0184179Y0153659D02*
X0292821Y0153659D01*
X0295000Y0156800D02*
X0182000Y0156800D01*
X0215000Y0142800D02*
X0245000Y0142800D01*
X0242545Y0145666D02*
X0217455Y0145666D01*
X0228094Y0134476D02*
X0229938Y0134476D01*
X0229616Y0132878D02*
X0228416Y0132878D01*
X0228139Y0131279D02*
X0229893Y0131279D01*
X0230936Y0129681D02*
X0227096Y0129681D01*
X0306000Y0137800D02*
X0306000Y0156800D01*
X0335202Y0108900D02*
X0369400Y0108900D01*
X0369400Y0107302D02*
X0335762Y0107302D01*
X0335618Y0105703D02*
X0369400Y0105703D01*
X0369400Y0104105D02*
X0334625Y0104105D01*
X0288000Y0084800D02*
X0255000Y0084800D01*
X0256817Y0088120D02*
X0257238Y0088120D01*
X0257308Y0089718D02*
X0253200Y0089718D01*
X0253200Y0091317D02*
X0258196Y0091317D01*
X0263804Y0091317D02*
X0278196Y0091317D01*
X0281000Y0088800D02*
X0261000Y0088800D01*
X0284762Y0088120D02*
X0286183Y0088120D01*
X0291000Y0071800D02*
X0291000Y0037800D01*
X0288044Y0040164D02*
X0166507Y0040164D01*
X0166762Y0039548D02*
X0166189Y0040931D01*
X0165131Y0041989D01*
X0163748Y0042562D01*
X0162252Y0042562D01*
X0160869Y0041989D01*
X0159879Y0041000D01*
X0124121Y0041000D01*
X0123131Y0041989D01*
X0121748Y0042562D01*
X0120252Y0042562D01*
X0118869Y0041989D01*
X0117811Y0040931D01*
X0117238Y0039548D01*
X0117238Y0038052D01*
X0117811Y0036669D01*
X0118869Y0035611D01*
X0120252Y0035038D01*
X0121748Y0035038D01*
X0123131Y0035611D01*
X0124121Y0036600D01*
X0159879Y0036600D01*
X0160869Y0035611D01*
X0162252Y0035038D01*
X0163748Y0035038D01*
X0165131Y0035611D01*
X0166189Y0036669D01*
X0166762Y0038052D01*
X0166762Y0039548D01*
X0166762Y0038566D02*
X0287245Y0038566D01*
X0287273Y0036967D02*
X0166313Y0036967D01*
X0164547Y0035369D02*
X0288111Y0035369D01*
X0288800Y0041763D02*
X0275283Y0041763D01*
X0275131Y0041611D02*
X0276189Y0042669D01*
X0276762Y0044052D01*
X0276762Y0045548D01*
X0276189Y0046931D01*
X0275131Y0047989D01*
X0273748Y0048562D01*
X0272252Y0048562D01*
X0271416Y0048216D01*
X0271762Y0049052D01*
X0271762Y0050548D01*
X0271189Y0051931D01*
X0270131Y0052989D01*
X0268748Y0053562D01*
X0267252Y0053562D01*
X0265869Y0052989D01*
X0264879Y0052000D01*
X0173121Y0052000D01*
X0172131Y0052989D01*
X0170748Y0053562D01*
X0169252Y0053562D01*
X0167869Y0052989D01*
X0166811Y0051931D01*
X0166238Y0050548D01*
X0166238Y0050359D01*
X0165748Y0050562D01*
X0164252Y0050562D01*
X0162869Y0049989D01*
X0161879Y0049000D01*
X0111121Y0049000D01*
X0110131Y0049989D01*
X0108748Y0050562D01*
X0107252Y0050562D01*
X0105869Y0049989D01*
X0104811Y0048931D01*
X0104238Y0047548D01*
X0104238Y0046052D01*
X0104811Y0044669D01*
X0105869Y0043611D01*
X0107252Y0043038D01*
X0108748Y0043038D01*
X0110131Y0043611D01*
X0111121Y0044600D01*
X0161879Y0044600D01*
X0162869Y0043611D01*
X0164252Y0043038D01*
X0165748Y0043038D01*
X0167131Y0043611D01*
X0168189Y0044669D01*
X0168238Y0044786D01*
X0168238Y0044052D01*
X0168811Y0042669D01*
X0169869Y0041611D01*
X0171252Y0041038D01*
X0172748Y0041038D01*
X0174131Y0041611D01*
X0175121Y0042600D01*
X0269879Y0042600D01*
X0270869Y0041611D01*
X0272252Y0041038D01*
X0273748Y0041038D01*
X0275131Y0041611D01*
X0276476Y0043361D02*
X0288800Y0043361D01*
X0288800Y0044960D02*
X0276762Y0044960D01*
X0276344Y0046558D02*
X0288800Y0046558D01*
X0288800Y0048157D02*
X0274727Y0048157D01*
X0271762Y0049755D02*
X0288800Y0049755D01*
X0288800Y0051354D02*
X0271429Y0051354D01*
X0270168Y0052952D02*
X0288800Y0052952D01*
X0273000Y0044800D02*
X0172000Y0044800D01*
X0168524Y0043361D02*
X0166529Y0043361D01*
X0165358Y0041763D02*
X0169717Y0041763D01*
X0174283Y0041763D02*
X0270717Y0041763D01*
X0268000Y0049800D02*
X0170000Y0049800D01*
X0166571Y0051354D02*
X0022311Y0051354D01*
X0022311Y0052952D02*
X0167832Y0052952D01*
X0172168Y0052952D02*
X0265832Y0052952D01*
X0261268Y0030573D02*
X0256732Y0030573D01*
X0256606Y0030700D02*
X0254915Y0031400D01*
X0253085Y0031400D01*
X0251394Y0030700D01*
X0250100Y0029406D01*
X0249400Y0027715D01*
X0249400Y0025885D01*
X0250100Y0024194D01*
X0251394Y0022900D01*
X0253085Y0022200D01*
X0254915Y0022200D01*
X0256606Y0022900D01*
X0257900Y0024194D01*
X0258600Y0025885D01*
X0258600Y0027715D01*
X0257900Y0029406D01*
X0256606Y0030700D01*
X0258078Y0028975D02*
X0259922Y0028975D01*
X0259400Y0027376D02*
X0258600Y0027376D01*
X0258556Y0025778D02*
X0259444Y0025778D01*
X0260115Y0024179D02*
X0257885Y0024179D01*
X0255834Y0022581D02*
X0262166Y0022581D01*
X0262076Y0020982D02*
X0256750Y0020982D01*
X0256621Y0021076D02*
X0255919Y0021434D01*
X0255171Y0021677D01*
X0254394Y0021800D01*
X0254086Y0021800D01*
X0254086Y0016886D01*
X0253914Y0016886D01*
X0253914Y0021800D01*
X0253606Y0021800D01*
X0252829Y0021677D01*
X0252081Y0021434D01*
X0251379Y0021076D01*
X0250743Y0020614D01*
X0250186Y0020057D01*
X0249724Y0019421D01*
X0249366Y0018719D01*
X0249123Y0017971D01*
X0249000Y0017194D01*
X0249000Y0016886D01*
X0253914Y0016886D01*
X0253914Y0016714D01*
X0249000Y0016714D01*
X0249000Y0016406D01*
X0249123Y0015629D01*
X0249366Y0014881D01*
X0249724Y0014179D01*
X0250186Y0013543D01*
X0250743Y0012986D01*
X0251379Y0012524D01*
X0252081Y0012166D01*
X0252829Y0011923D01*
X0253606Y0011800D01*
X0253914Y0011800D01*
X0253914Y0016714D01*
X0254086Y0016714D01*
X0254086Y0016886D01*
X0259000Y0016886D01*
X0259000Y0017194D01*
X0258877Y0017971D01*
X0258634Y0018719D01*
X0258276Y0019421D01*
X0257814Y0020057D01*
X0257257Y0020614D01*
X0256621Y0021076D01*
X0258295Y0019384D02*
X0260091Y0019384D01*
X0259429Y0017785D02*
X0258906Y0017785D01*
X0259000Y0016714D02*
X0254086Y0016714D01*
X0254086Y0011800D01*
X0254394Y0011800D01*
X0255171Y0011923D01*
X0255919Y0012166D01*
X0256621Y0012524D01*
X0257257Y0012986D01*
X0257814Y0013543D01*
X0258276Y0014179D01*
X0258634Y0014881D01*
X0258877Y0015629D01*
X0259000Y0016406D01*
X0259000Y0016714D01*
X0258965Y0016187D02*
X0259400Y0016187D01*
X0259937Y0014588D02*
X0258485Y0014588D01*
X0257261Y0012990D02*
X0261305Y0012990D01*
X0254086Y0012990D02*
X0253914Y0012990D01*
X0253914Y0014588D02*
X0254086Y0014588D01*
X0254086Y0016187D02*
X0253914Y0016187D01*
X0253914Y0017785D02*
X0254086Y0017785D01*
X0254086Y0019384D02*
X0253914Y0019384D01*
X0253914Y0020982D02*
X0254086Y0020982D01*
X0252166Y0022581D02*
X0182993Y0022581D01*
X0182495Y0022083D02*
X0185100Y0024688D01*
X0185100Y0028912D01*
X0182112Y0031900D01*
X0177888Y0031900D01*
X0175000Y0029012D01*
X0172112Y0031900D01*
X0167888Y0031900D01*
X0165000Y0029012D01*
X0162112Y0031900D01*
X0157888Y0031900D01*
X0155000Y0029012D01*
X0152112Y0031900D01*
X0147888Y0031900D01*
X0145000Y0029012D01*
X0142112Y0031900D01*
X0137888Y0031900D01*
X0135000Y0029012D01*
X0132112Y0031900D01*
X0127888Y0031900D01*
X0124900Y0028912D01*
X0124900Y0024688D01*
X0127505Y0022083D01*
X0124500Y0019078D01*
X0124500Y0017000D01*
X0129800Y0017000D01*
X0129800Y0016600D01*
X0124500Y0016600D01*
X0124500Y0014522D01*
X0127722Y0011300D01*
X0129800Y0011300D01*
X0129800Y0016600D01*
X0130200Y0016600D01*
X0130200Y0011300D01*
X0132278Y0011300D01*
X0135283Y0014305D01*
X0137888Y0011700D01*
X0142112Y0011700D01*
X0145000Y0014588D01*
X0147888Y0011700D01*
X0152112Y0011700D01*
X0155000Y0014588D01*
X0157888Y0011700D01*
X0162112Y0011700D01*
X0164717Y0014305D01*
X0167722Y0011300D01*
X0169800Y0011300D01*
X0169800Y0016600D01*
X0170200Y0016600D01*
X0170200Y0017000D01*
X0179800Y0017000D01*
X0179800Y0016600D01*
X0180200Y0016600D01*
X0180200Y0017000D01*
X0185500Y0017000D01*
X0185500Y0019078D01*
X0182495Y0022083D01*
X0183596Y0020982D02*
X0251250Y0020982D01*
X0249705Y0019384D02*
X0185195Y0019384D01*
X0185500Y0017785D02*
X0249094Y0017785D01*
X0249035Y0016187D02*
X0185500Y0016187D01*
X0185500Y0016600D02*
X0180200Y0016600D01*
X0180200Y0011300D01*
X0182278Y0011300D01*
X0185500Y0014522D01*
X0185500Y0016600D01*
X0185500Y0014588D02*
X0249515Y0014588D01*
X0250739Y0012990D02*
X0183968Y0012990D01*
X0182369Y0011391D02*
X0422700Y0011391D01*
X0422700Y0009793D02*
X0022302Y0009793D01*
X0022302Y0011391D02*
X0127631Y0011391D01*
X0129800Y0011391D02*
X0130200Y0011391D01*
X0130200Y0012990D02*
X0129800Y0012990D01*
X0129800Y0014588D02*
X0130200Y0014588D01*
X0130200Y0016187D02*
X0129800Y0016187D01*
X0124500Y0016187D02*
X0022303Y0016187D01*
X0022304Y0017785D02*
X0124500Y0017785D01*
X0124805Y0019384D02*
X0022304Y0019384D01*
X0022304Y0020982D02*
X0126404Y0020982D01*
X0127007Y0022581D02*
X0022305Y0022581D01*
X0022305Y0024179D02*
X0125408Y0024179D01*
X0124900Y0025778D02*
X0022305Y0025778D01*
X0022306Y0027376D02*
X0026732Y0027376D01*
X0025267Y0028975D02*
X0022306Y0028975D01*
X0022306Y0030573D02*
X0024626Y0030573D01*
X0024500Y0032172D02*
X0022307Y0032172D01*
X0022307Y0033770D02*
X0024857Y0033770D01*
X0025794Y0035369D02*
X0022308Y0035369D01*
X0022308Y0036967D02*
X0028105Y0036967D01*
X0029800Y0036967D02*
X0030200Y0036967D01*
X0030200Y0035369D02*
X0029800Y0035369D01*
X0029800Y0033770D02*
X0030200Y0033770D01*
X0030200Y0032172D02*
X0029800Y0032172D01*
X0029800Y0030573D02*
X0030200Y0030573D01*
X0030200Y0028975D02*
X0029800Y0028975D01*
X0029800Y0027376D02*
X0030200Y0027376D01*
X0033268Y0027376D02*
X0037353Y0027376D01*
X0035650Y0028975D02*
X0034733Y0028975D01*
X0042647Y0027376D02*
X0047353Y0027376D01*
X0045650Y0028975D02*
X0044350Y0028975D01*
X0044704Y0033770D02*
X0045296Y0033770D01*
X0046356Y0035369D02*
X0043644Y0035369D01*
X0036356Y0035369D02*
X0034206Y0035369D01*
X0035143Y0033770D02*
X0035296Y0033770D01*
X0031895Y0036967D02*
X0117687Y0036967D01*
X0117238Y0038566D02*
X0022308Y0038566D01*
X0022309Y0040164D02*
X0117493Y0040164D01*
X0118642Y0041763D02*
X0022309Y0041763D01*
X0022309Y0043361D02*
X0106471Y0043361D01*
X0104690Y0044960D02*
X0022310Y0044960D01*
X0022310Y0046558D02*
X0104238Y0046558D01*
X0104490Y0048157D02*
X0022310Y0048157D01*
X0022311Y0049755D02*
X0105635Y0049755D01*
X0108000Y0046800D02*
X0165000Y0046800D01*
X0162635Y0049755D02*
X0110365Y0049755D01*
X0109529Y0043361D02*
X0163471Y0043361D01*
X0160642Y0041763D02*
X0123358Y0041763D01*
X0121000Y0038800D02*
X0163000Y0038800D01*
X0161453Y0035369D02*
X0122547Y0035369D01*
X0119453Y0035369D02*
X0083644Y0035369D01*
X0085012Y0030573D02*
X0126561Y0030573D01*
X0124962Y0028975D02*
X0084350Y0028975D01*
X0082647Y0027376D02*
X0124900Y0027376D01*
X0133439Y0030573D02*
X0136561Y0030573D01*
X0143439Y0030573D02*
X0146561Y0030573D01*
X0153439Y0030573D02*
X0156561Y0030573D01*
X0163439Y0030573D02*
X0166561Y0030573D01*
X0173439Y0030573D02*
X0176561Y0030573D01*
X0183439Y0030573D02*
X0251268Y0030573D01*
X0249922Y0028975D02*
X0185038Y0028975D01*
X0185100Y0027376D02*
X0249400Y0027376D01*
X0249444Y0025778D02*
X0185100Y0025778D01*
X0184592Y0024179D02*
X0250115Y0024179D01*
X0292673Y0024179D02*
X0309327Y0024179D01*
X0312673Y0024179D02*
X0322987Y0024179D01*
X0324587Y0022581D02*
X0314335Y0022581D01*
X0329823Y0022581D02*
X0350177Y0022581D01*
X0348577Y0024179D02*
X0331423Y0024179D01*
X0332085Y0025778D02*
X0347915Y0025778D01*
X0347895Y0027376D02*
X0332105Y0027376D01*
X0331608Y0028975D02*
X0348392Y0028975D01*
X0349639Y0030573D02*
X0330361Y0030573D01*
X0422700Y0008194D02*
X0022301Y0008194D01*
X0022301Y0006596D02*
X0422700Y0006596D01*
X0422700Y0004997D02*
X0022301Y0004997D01*
X0022302Y0012990D02*
X0126032Y0012990D01*
X0124500Y0014588D02*
X0022303Y0014588D01*
X0052647Y0027376D02*
X0057353Y0027376D01*
X0055650Y0028975D02*
X0054350Y0028975D01*
X0054704Y0033770D02*
X0055296Y0033770D01*
X0056356Y0035369D02*
X0053644Y0035369D01*
X0063644Y0035369D02*
X0066356Y0035369D01*
X0065296Y0033770D02*
X0064704Y0033770D01*
X0064350Y0028975D02*
X0065650Y0028975D01*
X0067353Y0027376D02*
X0062647Y0027376D01*
X0072647Y0027376D02*
X0077353Y0027376D01*
X0075650Y0028975D02*
X0074350Y0028975D01*
X0074704Y0033770D02*
X0075296Y0033770D01*
X0076356Y0035369D02*
X0073644Y0035369D01*
X0047926Y0056149D02*
X0046326Y0056149D01*
X0046326Y0057748D02*
X0047926Y0057748D01*
X0047926Y0059346D02*
X0046326Y0059346D01*
X0046326Y0060945D02*
X0047926Y0060945D01*
X0036856Y0064142D02*
X0022314Y0064142D01*
X0022314Y0065740D02*
X0037119Y0065740D01*
X0037641Y0067339D02*
X0022315Y0067339D01*
X0022315Y0068937D02*
X0038506Y0068937D01*
X0028911Y0073733D02*
X0022316Y0073733D01*
X0022317Y0075332D02*
X0027299Y0075332D01*
X0026228Y0076930D02*
X0022317Y0076930D01*
X0022317Y0078529D02*
X0025547Y0078529D01*
X0025138Y0080127D02*
X0022318Y0080127D01*
X0043449Y0088120D02*
X0051256Y0088120D01*
X0050177Y0086521D02*
X0044474Y0086521D01*
X0045135Y0084923D02*
X0049515Y0084923D01*
X0049037Y0083324D02*
X0045508Y0083324D01*
X0041906Y0089718D02*
X0052854Y0089718D01*
X0056042Y0091317D02*
X0039293Y0091317D01*
X0135993Y0080127D02*
X0176006Y0080127D01*
X0174500Y0016600D02*
X0170200Y0016600D01*
X0170200Y0011300D01*
X0172278Y0011300D01*
X0175000Y0014022D01*
X0177722Y0011300D01*
X0179800Y0011300D01*
X0179800Y0016600D01*
X0174500Y0016600D01*
X0170200Y0016187D02*
X0169800Y0016187D01*
X0169800Y0014588D02*
X0170200Y0014588D01*
X0170200Y0012990D02*
X0169800Y0012990D01*
X0169800Y0011391D02*
X0170200Y0011391D01*
X0172369Y0011391D02*
X0177631Y0011391D01*
X0179800Y0011391D02*
X0180200Y0011391D01*
X0180200Y0012990D02*
X0179800Y0012990D01*
X0179800Y0014588D02*
X0180200Y0014588D01*
X0180200Y0016187D02*
X0179800Y0016187D01*
X0176032Y0012990D02*
X0173968Y0012990D01*
X0167631Y0011391D02*
X0132369Y0011391D01*
X0133968Y0012990D02*
X0136598Y0012990D01*
X0143402Y0012990D02*
X0146598Y0012990D01*
X0153402Y0012990D02*
X0156598Y0012990D01*
X0163402Y0012990D02*
X0166032Y0012990D01*
D21*
X0079000Y0115800D02*
X0079000Y0167800D01*
M02*
