G75*
%MOIN*%
%OFA0B0*%
%FSLAX25Y25*%
%IPPOS*%
%LPD*%
%AMOC8*
5,1,8,0,0,1.08239X$1,22.5*
%
%ADD10R,0.06000X0.03000*%
%ADD11R,0.02200X0.05000*%
%ADD12R,0.05000X0.02200*%
%ADD13R,0.04724X0.02165*%
%ADD14R,0.07480X0.04331*%
%ADD15R,0.03543X0.03150*%
%ADD16R,0.09449X0.09449*%
%ADD17R,0.04724X0.03150*%
%ADD18R,0.03150X0.04724*%
%ADD19R,0.03740X0.03543*%
%ADD20R,0.04724X0.05512*%
%ADD21R,0.03543X0.03740*%
%ADD22R,0.09843X0.10039*%
%ADD23R,0.09843X0.07677*%
%ADD24R,0.04700X0.04700*%
%ADD25R,0.05900X0.06300*%
%ADD26C,0.04331*%
D10*
X0029000Y0119300D03*
X0051000Y0119300D03*
X0051000Y0134300D03*
X0029000Y0134300D03*
X0394000Y0134300D03*
X0416000Y0134300D03*
X0416000Y0119300D03*
X0394000Y0119300D03*
X0394000Y0099300D03*
X0416000Y0099300D03*
X0416000Y0084300D03*
X0394000Y0084300D03*
X0394000Y0064300D03*
X0416000Y0064300D03*
X0416000Y0049300D03*
X0394000Y0049300D03*
X0394000Y0029300D03*
X0416000Y0029300D03*
X0416000Y0014300D03*
X0394000Y0014300D03*
D11*
X0231024Y0069900D03*
X0227874Y0069900D03*
X0224724Y0069900D03*
X0221575Y0069900D03*
X0218425Y0069900D03*
X0215276Y0069900D03*
X0212126Y0069900D03*
X0208976Y0069900D03*
X0208976Y0103700D03*
X0212126Y0103700D03*
X0215276Y0103700D03*
X0218425Y0103700D03*
X0221575Y0103700D03*
X0224724Y0103700D03*
X0227874Y0103700D03*
X0231024Y0103700D03*
D12*
X0236900Y0097824D03*
X0236900Y0094674D03*
X0236900Y0091524D03*
X0236900Y0088375D03*
X0236900Y0085225D03*
X0236900Y0082076D03*
X0236900Y0078926D03*
X0236900Y0075776D03*
X0203100Y0075776D03*
X0203100Y0078926D03*
X0203100Y0082076D03*
X0203100Y0085225D03*
X0203100Y0088375D03*
X0203100Y0091524D03*
X0203100Y0094674D03*
X0203100Y0097824D03*
D13*
X0144119Y0098060D03*
X0133881Y0098060D03*
X0133881Y0101800D03*
X0133881Y0105540D03*
X0144119Y0105540D03*
D14*
X0223717Y0054328D03*
X0238283Y0054328D03*
X0238283Y0045272D03*
X0223717Y0045272D03*
D15*
X0301063Y0036540D03*
X0309331Y0032800D03*
X0301063Y0029060D03*
X0263937Y0129060D03*
X0255669Y0132800D03*
X0263937Y0136540D03*
D16*
X0079000Y0105461D03*
X0079000Y0088139D03*
D17*
X0080000Y0043257D03*
X0080000Y0050343D03*
X0116000Y0073257D03*
X0116000Y0080343D03*
X0116000Y0088257D03*
X0116000Y0095343D03*
X0124000Y0098257D03*
X0124000Y0105343D03*
X0154000Y0105343D03*
X0154000Y0098257D03*
X0234000Y0139257D03*
X0234000Y0146343D03*
X0317000Y0144257D03*
X0317000Y0151343D03*
X0355000Y0151343D03*
X0355000Y0144257D03*
X0215000Y0054343D03*
X0215000Y0047257D03*
X0248000Y0046257D03*
X0248000Y0053343D03*
X0300000Y0053343D03*
X0300000Y0046257D03*
X0060000Y0134257D03*
X0060000Y0141343D03*
D18*
X0139457Y0156800D03*
X0146543Y0156800D03*
X0239457Y0156800D03*
X0246543Y0156800D03*
X0256457Y0121800D03*
X0263543Y0121800D03*
X0221543Y0038800D03*
X0214457Y0038800D03*
D19*
X0310000Y0043599D03*
X0310000Y0056001D03*
X0070000Y0126599D03*
X0070000Y0139001D03*
D20*
X0154094Y0156800D03*
X0165906Y0156800D03*
X0254094Y0156800D03*
X0265906Y0156800D03*
D21*
X0140201Y0086800D03*
X0127799Y0086800D03*
D22*
X0099000Y0086859D03*
X0099000Y0106741D03*
D23*
X0164000Y0107804D03*
X0164000Y0095796D03*
D24*
X0097950Y0149900D03*
X0097950Y0157700D03*
D25*
X0110750Y0153800D03*
D26*
X0324779Y0151800D02*
X0328323Y0151800D01*
X0328323Y0151800D01*
X0324779Y0151800D01*
X0324779Y0151800D01*
X0324779Y0145107D02*
X0328323Y0145107D01*
X0328323Y0145107D01*
X0324779Y0145107D01*
X0324779Y0145107D01*
X0343677Y0145107D02*
X0347221Y0145107D01*
X0347221Y0145107D01*
X0343677Y0145107D01*
X0343677Y0145107D01*
X0343677Y0151800D02*
X0347221Y0151800D01*
X0347221Y0151800D01*
X0343677Y0151800D01*
X0343677Y0151800D01*
X0343677Y0158493D02*
X0347221Y0158493D01*
X0347221Y0158493D01*
X0343677Y0158493D01*
X0343677Y0158493D01*
X0328323Y0158493D02*
X0324779Y0158493D01*
X0328323Y0158493D02*
X0328323Y0158493D01*
X0324779Y0158493D01*
X0324779Y0158493D01*
M02*
