%
M48
M72
T01C0.0130
T02C0.0276
T03C0.0315
T04C0.0380
T05C0.0400
T06C0.1180
%
T01
X7802Y7986
X5345Y10072
X5275Y10745
X7786Y11202
X7979Y13163
X7129Y15438
X8566Y15773
X10944Y13631
X12841Y14049
X13621Y13686
X14471Y13218
X15318Y12490
X15991Y11812
X15869Y10856
X16404Y10513
X15404Y9702
X16334Y9415
X15904Y7781
X15778Y7273
X16853Y6242
X17546Y5718
X18215Y5434
X18188Y6119
X18237Y6687
X18156Y7364
X18444Y8045
X18058Y9946
X14794Y11466
X14369Y9808
X12519Y10915
X17117Y14057
X17212Y14789
X17743Y14899
X17117Y15442
X17645Y15773
X18204Y15675
X18523Y14057
X19645Y13958
X20215Y13710
X23361Y14234
X23534Y13332
X24082Y12265
X24180Y11777
X23778Y11509
X23416Y10297
X22857Y9616
X24054Y9198
X24566Y10127
X24393Y8167
X24436Y7584
X24523Y6482
X23633Y5427
X22696Y5517
X20920Y4785
X20751Y5946
X21294Y6868
X21341Y7710
X21570Y3596
X28767Y5911
X30125Y5163
X30605Y5336
X31381Y4763
X31022Y4411
X32527Y5706
X33156Y5706
X33747Y5667
X34416Y5667
X35058Y4934
X33904Y7139
X33731Y7557
X33365Y7895
X32448Y7793
X32507Y7084
X32062Y7041
X31582Y6533
X31503Y7478
X31503Y8383
X31723Y8734
X32133Y9525
X32723Y9525
X33353Y9525
X34538Y9852
X35924Y11053
X36456Y11050
X37097Y11053
X36790Y10238
X37097Y10025
X36243Y10190
X37038Y8946
X35901Y8017
X35538Y7738
X37586Y7163
X37897Y6257
X38664Y9163
X38597Y11407
X38334Y11785
X38708Y13816
X37763Y14604
X38822Y16588
X38397Y17383
X37090Y16875
X36975Y17249
X35078Y17226
X34948Y17812
X35007Y20076
X33983Y20037
X33353Y20037
X32723Y20037
X32133Y19997
X31176Y20108
X30432Y19718
X29101Y20273
X31050Y17942
X30747Y17584
X30558Y16808
X30558Y15549
X31495Y15466
X31778Y14249
X31460Y13923
X30597Y13777
X29806Y13633
X30960Y12458
X31385Y12182
X32030Y12151
X32050Y11450
X30601Y11450
X30125Y11706
X29613Y12438
X29223Y12049
X29369Y10864
X30479Y10753
X31314Y9958
X31034Y9662
X30416Y9619
X28798Y9029
X29999Y6990
X34684Y11797
X29023Y16375
X28680Y17434
X29082Y17623
X27030Y15324
X27003Y14848
X27590Y14092
X26357Y12245
X25542Y17123
X25149Y17895
X24448Y17415
X23558Y17627
X22487Y18344
X21582Y18344
X21149Y18344
X20625Y18478
X19857Y18230
X19814Y17808
X19330Y17391
X19897Y19096
X19936Y19576
X19507Y20537
X19605Y21316
X19782Y22281
X20550Y22320
X21334Y21348
X21782Y21092
X21771Y20608
X21271Y20848
X21806Y21572
X22676Y22245
X23491Y19860
X22054Y19682
X21523Y19832
X25755Y19580
X28432Y24997
X28275Y25391
X28275Y26218
X26424Y25785
X22000Y27483
X20514Y28852
X19755Y28848
X19495Y29277
X17897Y28037
X18865Y27812
X17897Y26997
X17920Y26482
X17920Y26013
X18621Y26253
X18995Y25903
X19428Y25364
X16428Y23612
X15369Y23198
X13357Y23155
X12373Y21230
X11290Y20214
X10404Y21080
X12310Y18950
X13444Y19934
X13818Y20682
X14334Y21037
X14334Y19608
X14054Y18576
X16042Y17643
X16601Y18112
X16042Y19769
X16247Y21025
X17113Y21895
X14912Y24702
X14200Y25001
X13542Y25182
X13346Y25748
X13782Y25923
X11982Y25515
X10099Y26938
X13629Y27828
X14377Y27808
X13629Y28923
X13382Y30130
X13464Y31165
X13471Y32627
X15211Y31250
X16741Y31290
X17002Y30161
X16799Y29691
X15763Y29128
X15007Y29198
X16188Y27127
X15897Y25501
X19889Y31042
X19475Y31663
X18780Y31983
X18625Y32612
X18676Y31529
X34042Y23135
X35440Y21060
X37086Y21686
X37579Y21490
X38239Y20773
X38156Y22931
X37369Y22931
X37369Y24407
X37763Y24997
X37763Y25686
X37763Y26375
X38550Y26375
X39338Y26375
X36361Y28419
X35767Y28722
X38944Y22931
X39731Y22931
X16042Y15560
X12798Y14887
X11897Y15726
X11401Y15852
X5641Y16490
X4617Y15509
X3196Y15954
X4897Y13753
X2727Y11033
X12832Y4330
X13192Y3245
T02
X4318Y10702
X4318Y11490
X24444Y16753
X38904Y5273
X38904Y4486
T03
X9810Y17320
X9023Y17320
X8235Y17320
X7448Y17320
X6660Y17320
X5873Y17320
X5086Y17320
X4298Y17320
X3511Y17320
X2723Y17320
X2723Y25982
X3511Y25982
X4298Y25982
X5086Y25982
X5873Y25982
X6660Y25982
X7448Y25982
X8235Y25982
X9023Y25982
X9810Y25982
T04
X19251Y15474
X20251Y15474
X19251Y14474
X19251Y13474
X19251Y12474
X19251Y11474
X19251Y10474
X19251Y9474
X19251Y8474
X19251Y7474
X20251Y7474
X20251Y6474
X19251Y6474
X19251Y5474
X20251Y5474
X19251Y4474
X19251Y3474
X20251Y3474
X19251Y2474
X25251Y2474
X25251Y3474
X25251Y4474
X25251Y5474
X25251Y6474
X25251Y7474
X25251Y8474
X25251Y9474
X25251Y10474
X25251Y11474
X25251Y12474
X25251Y13474
X25251Y14474
X25251Y15474
X24251Y15474
X23251Y15474
X22251Y15474
X21251Y15474
X21251Y14474
X22251Y14474
X22251Y13474
X21251Y13474
X21251Y12474
X22251Y12474
X22251Y11474
X21251Y11474
X21251Y10474
X22251Y10474
X22251Y9474
X21251Y9474
X21251Y8474
X22251Y8474
T05
X27527Y2753
X28527Y2753
X29527Y2753
X30527Y2753
X31527Y2753
X32527Y2753
X33527Y2753
X34527Y2753
X35527Y2753
X36527Y2753
X39231Y6659
X40231Y6659
X40231Y7659
X39231Y7659
X39231Y8659
X40231Y8659
X40231Y9659
X39231Y9659
X39231Y10659
X40231Y10659
X26121Y23119
X25121Y23119
X24121Y23119
X23121Y23119
X22121Y23119
X21121Y23119
X20121Y23119
X19121Y23119
X18121Y23119
X17121Y23119
X17121Y24119
X18121Y24119
X19121Y24119
X20121Y24119
X21121Y24119
X22121Y24119
X23121Y24119
X24121Y24119
X25121Y24119
X26121Y24119
T06
X5695Y4134
X7545Y5315
X5695Y6496
M30
